/* XPM */
static char * agpl3_xpm[] = {
"101 35 177 2",
"  	c None",
". 	c #736254",
"+ 	c #736354",
"@ 	c #866243",
"# 	c #A2612D",
"$ 	c #B7662A",
"% 	c #C0611C",
"& 	c #BF6C29",
"* 	c #C26E2B",
"= 	c #C3631F",
"- 	c #B36F3B",
"; 	c #B06024",
"> 	c #B76020",
", 	c #B86121",
"' 	c #BE6626",
") 	c #C76D2D",
"! 	c #C67940",
"~ 	c #C46B2B",
"{ 	c #C46420",
"] 	c #D28A54",
"^ 	c #ECCBB1",
"/ 	c #FFF9F8",
"( 	c #FEFFFC",
"_ 	c #DCAA83",
": 	c #B46428",
"< 	c #C35E12",
"[ 	c #CF8148",
"} 	c #CC7E45",
"| 	c #C76723",
"1 	c #C97539",
"2 	c #C66C24",
"3 	c #D58E5D",
"4 	c #EACCB7",
"5 	c #C16828",
"6 	c #8E623F",
"7 	c #CF8751",
"8 	c #D28451",
"9 	c #D08852",
"0 	c #D59461",
"a 	c #F5EDE5",
"b 	c #C37034",
"c 	c #9D6232",
"d 	c #C16113",
"e 	c #C46A22",
"f 	c #F0D1BC",
"g 	c #DBA278",
"h 	c #CA7030",
"i 	c #C66622",
"j 	c #E8C1A9",
"k 	c #F8EFE8",
"l 	c #E8BEA1",
"m 	c #E4BB9D",
"n 	c #CD783C",
"o 	c #EDD5BE",
"p 	c #FAF5F3",
"q 	c #F9E6DB",
"r 	c #DC9B6E",
"s 	c #FAF1EA",
"t 	c #C1621D",
"u 	c #FDF7F6",
"v 	c #D8976A",
"w 	c #CB763A",
"x 	c #E1AE87",
"y 	c #CE8047",
"z 	c #F4E9DC",
"A 	c #D3A27B",
"B 	c #A56436",
"C 	c #BE5F1A",
"D 	c #FBFDFA",
"E 	c #D79669",
"F 	c #F5DFCE",
"G 	c #DAA177",
"H 	c #F0DBCA",
"I 	c #D48D5C",
"J 	c #E4B391",
"K 	c #EBCDB8",
"L 	c #C66C2C",
"M 	c #E0AD86",
"N 	c #D08249",
"O 	c #F8E5DA",
"P 	c #EDD8C7",
"Q 	c #EDDACF",
"R 	c #E6B594",
"S 	c #E9C8AE",
"T 	c #FBF2EB",
"U 	c #E2B18F",
"V 	c #F6E3D8",
"W 	c #E0A67C",
"X 	c #FEF6EE",
"Y 	c #F8F3F1",
"Z 	c #BD6525",
"` 	c #9A6036",
" .	c #F1D2BD",
"..	c #D0824F",
"+.	c #F3EAE3",
"@.	c #DFAE8D",
"#.	c #E2B99B",
"$.	c #D89E75",
"%.	c #F9F4F2",
"&.	c #BF733A",
"*.	c #A96028",
"=.	c #DBA982",
"-.	c #C87438",
";.	c #FCF6F5",
">.	c #C86E2E",
",.	c #EFDAC9",
"'.	c #DFA681",
").	c #F1DCCB",
"!.	c #CE793D",
"~.	c #D79C6D",
"{.	c #D3925F",
"].	c #DA996C",
"^.	c #E3BA9C",
"/.	c #F7E4D9",
"(.	c #9E6333",
"_.	c #DEA47A",
":.	c #C6722F",
"<.	c #FCF3EC",
"[.	c #E0B692",
"}.	c #CB7D44",
"|.	c #C36A2A",
"1.	c #A1673C",
"2.	c #94613A",
"3.	c #F9F0E9",
"4.	c #CC773B",
"5.	c #EAC1A3",
"6.	c #EAC3AB",
"7.	c #EBC4AC",
"8.	c #A3622E",
"9.	c #DB9A6D",
"0.	c #C56B23",
"a.	c #FEF8F7",
"b.	c #EBCAB0",
"c.	c #B65F1F",
"d.	c #CD7F46",
"e.	c #EDCFBA",
"f.	c #D18953",
"g.	c #B4692A",
"h.	c #F2DDCC",
"i.	c #DFA57B",
"j.	c #CC7131",
"k.	c #D2915E",
"l.	c #97643D",
"m.	c #8C6244",
"n.	c #EED9C8",
"o.	c #E2B894",
"p.	c #BC6424",
"q.	c #C06727",
"r.	c #CE8650",
"s.	c #D79D74",
"t.	c #D9986B",
"u.	c #D68F5E",
"v.	c #CD8656",
"w.	c #A96130",
"x.	c #D39366",
"y.	c #AF652D",
"z.	c #F3E1D5",
"A.	c #C56521",
"B.	c #C96F2F",
"C.	c #B16836",
"D.	c #C57135",
"E.	c #BD5E19",
"F.	c #D58C56",
"G.	c #EAC9AF",
"H.	c #A06B3E",
"I.	c #BC7742",
"J.	c #D49467",
"K.	c #916648",
"L.	c #BF6012",
"M.	c #D7A786",
"N.	c #CC8D60",
"O.	c #E5C5AB",
"P.	c #D09063",
"Q.	c #C67236",
"R.	c #C98354",
"S.	c #C37D48",
"T.	c #BD7138",
". . . . . . . . . . . . . . . . . . . . . . . . . . . . . . . . . . . . . . . . . . . . . . . . . . . . . . . . . . . . . . . . . . . . . . . . . . . . . . . . . . . . . . . . + + + + + + + + + + + + + ",
"+ + + + + + + + + + + + + + + + + + + + + + + + + + + + + + + + + + + + + + + + + + + + + + + + + + + + + + + + + + + + + + + + + + + + + + + + + + + + + + + + + + + + + + + + . + + @ # $ % & * = - + + ",
"+ + + + + + + + ; > > > > > > > > > > > > > > > > > > > > > > > > > > > > > > > > > > > > > > > > > > > > > > > > > > , ' ) ! ~ ~ ~ ~ ~ ~ ~ ~ ~ ~ ~ ~ ~ ~ ~ ~ ~ ~ ~ ~ ~ ~ ~ ~ ~ ~ { % { ] ^ / ( ( / _ : + ",
"+ + + + + + + + < < < < < < < < < < < < < < < < < < < < < < < < < < < < < < < < < < < < < < < < < < < < < < < < < < < < < [ } < < < < < < < < < < < < < < < < < < < < < < | 1 2 { 3 4 ( ( ( ( ( ( ( / 5 + ",
"+ + + + + + + 6 < < < < < < < < < < < < < < < < < < < < < < < < < < < < < < < < < < < < < < < < < < < < < < < < < < < < < _ 7 < < < < < < < < < < < < < < < < < < < < 8 9 1 < 0 a ( ( ( ( ( ( ( ( ( ( b + ",
"+ + + + + + + c < < < < < < < < < < < < < < d ) ) e < < < < < < < < < < < < < < < < < < < < < < < < < < < < < < < < < < < f 3 < < < < < < < < < < < < < < < < < < [ g h < i j ( ( ( ( ( ( ( ( ( ( ( k { + ",
"+ + + + + + + ; < < < < < < < < < < < < < d l ( ( m < n o p / / / / / / / q r < 2 / / / / / / / / / s j < 9 / / 9 < < < t u v < < < < < < < < < < < < < < < < w x 7 < < y z ( ( ( ( ( ( ( ( ( ( ( ( A B + ",
"+ + + + + + + C < < < < < < < < < < < < < m ( D ( E < F ( F G G G G G G s ( H < I ( ( J G G G G G K ( ( L M ( ( i < < < N ( g < < < < < < < < < < < < < < i J g t < < ] / ( ( ( O P z ( ( ( ( ( ( Q C + + ",
"+ + + + + + @ < < < < < < < < < < < < < R ( S T ( h i ( ( M < < < < < { / ( m < U ( D i < < < < < S ( k < f ( V < < < < W ( l < < < < < < < < < < < < < 9 f w < < < n X ( T M w < < w ( ( ( ( ( Y Z 6 + + ",
"+ + + + + + ` < < < < < < < < < < < < U (  ...( a < ] ( ( 9 < < < < < 8 ( ( v <  .( V < < < < < < +.( ^ < T ( l < < < < @.( V < < < < < < < < < < < t #.4 i < < < L +.u @.i < < < < $.( ( ( ( %.&.c + + + ",
"+ + + + + + *.< < < < < < < < < < < M ( F i x ( S < M ( D i < < < < < =.( ( -.% ;.( l < < < < < >.( ( =.w ( ( r < < < < J ( / { < < < < < < < < < >.,.M d < < < = P m ) < < < < < L T ( ( ( +.b c + + + + ",
"+ + + + + + C < < < < < < < < < < '.( z ) < ).( G < f ( V < < < < < < w 7 7 < !.( ( ~.< < < < < {.( ( N ].( ( n < < < < ^.( ( N < < < < < < < < !./.3 < < < < < 7 w < < < < < < >.V ( ( ( F L (.+ + + + + ",
"+ + + + + + < < < < < < < < < < _.( a :.< i D ( !.d <.( l < < < < < < < < < < $.( ( w < < < < < [.( / { l ( p d < < < < l ( ( _.< < < < < < < y z }.< < < < < < < < < < < < < -.z ( ( ( ( s M |.1.+ + + + ",
"+ + + + + 2.< < < < < < < < < $./ 3.w < < I ( p d 4.( ( ].< < < < < < < < < < 5.( T < < < < < < ,.( F < V ( f < < < < < 6.( ( 7.< < < < < < N 3.N < < < < < < < < < < < < < n k ( ( ( ( ( ( ( z ' + + + + ",
"+ + + + + 8.< < < < < < < < ].( T n < < < J ( f < 9.( ( w < < !.~.~.~.~.~.0.< /.( f < < < < < t a.( m i D ( x < < < < < b.( ( z < < < < < ] X I < < < < < < < < < < < < < y T ( ( ( ( ( ( ( ( / % + + + + ",
"+ + + + + c.< < < < < < < E D ;.d.< < < < ).( _ < l ( T < < < m p p / ( / { | / ( ( ( ( ( ( ( ( ( %.n 9 ( ( ] < < < < < e.( ( ( w < < < f./ r < < < < < < < < < < < < % './ ( ( ( ( ( ( ( ( ( f g.+ + + + ",
"+ + + + + < < < < < < < {./ ( h.l l l l l / ( 8 < V ( f < < < < < < ).( F < ] ( ( U ~.~.~.~.~.~.] | < M ( / | < < < < < K ( ( ( i.< < j.T K < < < < < < < < < < < < h P ( k #.{.7 J ( ( ( ( ( k.l.+ + + + ",
"+ + + + m.< < < < < < I / ( ( ( ( ( ( ( ( ( / { i ( ( M < < < < < = / ( m < x ( D i < < < < < < < < < e.( /.< < < < < < l ( ( ( n.< { F T ) < < < < < < < < < < < ..).o.N d < < < {.( ( ( ( f p.+ + + + + ",
"+ + + + c < < < < < ] / / E w w w w w w m ( H < ] ( ( f.< < < < < ..( ( v < f ( V < < < < < < < < < < T ( 5.< < < < < < @.( ( ( / { j ( v < < < < < < < < < < < i } < < < < < < ] a.( ( ( u q.@ + + + + + ",
"+ + + + ; < < < < r.a.D {.< < < < < < < f ( [.< M ( ( i < < < < < '.( ( -.d %.( l < < < < < < < < < w ( ( s.< < < < < < {.( ( ( J $.( s % < < < < < < < < < < < < < < < < < < ] / ( ( ( / ! c + + + + + + ",
"+ + + + C < < < N u ( t.< < < < < < < % ;.( u.< f ( V < < < < < < ^ ( s < 4.( ( r < < < < < < < < < ].( ( n < < < < < < :.( ( p h s ( #.< < < < < < < < < < < < < < < < < t './ ( ( ( ( v.w.+ + + + + + + ",
"+ + + + < < < y X ( $.< < < < < < < < }.( / 0.< <.( 4 w w w w w w k ( K < 9.( ( n < < < < < < < < < m ( a.n w w w w w < < T ( _ M ( ( ..< < < < < < < < < < < < < < < < 9 /.( ( ( ( / x.y.+ + + + + + + + ",
"+ + + ` < < }.<.( i.< < < < < < < < < g ( /.< < n.( ( ( ( ( ( ( ( ( T 7 < l ( p d < < < < < < < < < z.( ( ( ( ( ( ( / A.< f T >.p ( ( 8 < < < < < < < < < < < < < < B.S ( ( ( ( ( u r.C.+ + + + + + + + + ",
"+ + + *.< < L j.h < < < < < < < < < < 0.j.) < < < -.[ [ [ [ [ [ [ w d < < 4.[ !.< < < < < < < < < < y [ [ [ [ [ [ [ [ = < U j =.( ( ( 0 < < < < < < < < < < < < e M u ( ( ( ( ( q D.B + + + + + + + + + + ",
"+ + + E.< < < < < < < < < < < < < < < < < < < < < < < < < < < < < < < < < < < < < < < < < < < < < < < < < < < < < < < < < {.t.e.( ( ( o = < < < < < < < < % F.S a.( ( ( ( ( ( 4 q.2.+ + + + + + + + + + + ",
"+ + + < < < < < < < < < < < < #.l U < < < < < < < < < < -.l _ % < < < } ^.I < < < < < < < < < < < < < < < < < < < < < < < j.>.<.( ( ( ( ,.] = < 0.n 9 v m s ( ( ( ( ( ( ( k {.Z + + + + + + + + + + + + + ",
"+ + 2.< < < < < < < < < < < h G.) } #.N ].i.t 8 x L < <  .[ x ) v =.h V m a i.:._.y [ '.J { U $.N @.>.< < < < < < < < < < < w ( ( ( ( ( ( ( a./ ( ( ( ( ( ( ( ( ( ( ( / #.|.H.+ + + + + + + + + + + + + + ",
"+ + # < < < < < < < < < < < 0 F K J M ~.P H u./.7.W < % u. .l 9 @.x f. .y l U j F ^ N 5.z... .}./.6.M < < < < < < < < < < < 1 ( ( ( ( ( ( ( ( ( ( ( ( ( ( ( ( ( ( ( ,.n I.+ + + + + + + + + + + + + + + + ",
"+ + c.< < < < < < < < < < < R y < l h @.M S t.j 5.n < ..S ] 4 @.~.f } 5.t._ _.,.F G 7.M q {.$.N S l }.< < < < < < < < < < < { / ( ( ( ( ( ( ( ( ( ( ( ( ( ( ( ( T J.5 K.+ + + + + + + + + + + + + + + + + ",
"+ + L.< < < < < < < < < < < u.t < {.< 0.G n t v f.< < < v _.| i $.}.h } 1 u.4.}.J.t [ _.E [ >.% E ] < < < < < < < < < < < < < @.( ( ( ( ( ( ( ( ( ( ( ( ( ( <.M.' (.+ + + + + + + + + + + + + + + + + + + ",
"+ m.< < < < < < < < < < < < < < < < < < < < < < < < < < < < < < < < < < < < < < < < < < < < < < < < < < < < < < < < < < < < < % ^ ( ( ( ( ( ( ( ( ( ( ( F N.% 8.+ + + + + + + + + + + + + + + + + + + + + ",
"+ c < < < < < < < < < < < < < < < < < < < < < < < < < < < < < < < < < < < < < < < < < < < < < < < < < < < < < < < < < < < < < < < J.V ( ( ( ( ( p O.P.|.p.` + + + + + + + + + + + + + + + + + + + + + + + ",
"+ + m.m.m.m.m.m.m.m.m.m.m.m.m.m.m.m.m.m.m.m.m.m.m.m.m.m.m.m.m.m.m.m.m.m.m.m.m.m.m.m.m.m.m.m.m.m.m.m.m.m.m.m.m.m.m.m.m.m.m.m.m.m.` : t Q.R.S.T.p.C *.2.+ + + + + + + + + + + + + + + + + + + + + + + + + + ",
"+ + + + + + + + + + + + + + + + + + + + + + + + + + + + + + + + + + + + + + + + + + + + + + + + + + + + + + + + + + + + + + + + + + + + m.m.@ + + + + + + + + + + + + + + + + + + + + + + + + + + + + + + ",
"+ + + + + + + + + + + + + + + + + + + + + + + + + + + + + + + + + + + + + + + + + + + + + + + + + + + + + + + + + + + + + + + + + + + + + + + + + + + + + + + + + + + + + + + + + + + + + + + + + + + + + "};
