/* XPM */
static char * area_chart_xpm[] = {
"46 40 219 2",
"  	c #FFFFFF",
". 	c #FEFEFE",
"+ 	c #C0C0C0",
"@ 	c #FBFBFB",
"# 	c #C5C5C5",
"$ 	c #F4F4F4",
"% 	c #D8D8D8",
"& 	c #ADADAD",
"* 	c #E3E3E3",
"= 	c #C7C7C7",
"- 	c #ECECEC",
"; 	c #F0F0F0",
"> 	c #E2E2E2",
", 	c #EAEAEA",
"' 	c #FAFAFA",
") 	c #F1F1F1",
"! 	c #F8F8F8",
"~ 	c #D2D2D2",
"{ 	c #99978D",
"] 	c #C7B75F",
"^ 	c #E5E5E5",
"/ 	c #E7E7E7",
"( 	c #BBBBB9",
"_ 	c #ABA587",
": 	c #E3C734",
"< 	c #E2CB4D",
"[ 	c #DBDBDB",
"} 	c #AAA9A5",
"| 	c #B6B194",
"1 	c #AEA781",
"2 	c #B9B59C",
"3 	c #F4F4F3",
"4 	c #A6A5A1",
"5 	c #CCBE70",
"6 	c #F1D330",
"7 	c #EACD2E",
"8 	c #E2CB4E",
"9 	c #D7D7D6",
"0 	c #A7A59D",
"a 	c #C1B884",
"b 	c #F0D440",
"c 	c #FEDE32",
"d 	c #DAC551",
"e 	c #A4A089",
"f 	c #CFCCBA",
"g 	c #FCFCFC",
"h 	c #D3D3D3",
"i 	c #A7A59B",
"j 	c #E7CF4D",
"k 	c #F8D931",
"l 	c #E2CB51",
"m 	c #D5D3CB",
"n 	c #ADAA9B",
"o 	c #D3C471",
"p 	c #FBDD3A",
"q 	c #FFDF33",
"r 	c #FADB36",
"s 	c #C5B664",
"t 	c #A7A390",
"u 	c #E3E1DB",
"v 	c #B6B6B5",
"w 	c #BCB592",
"x 	c #FADB37",
"y 	c #FBDC32",
"z 	c #E2CC53",
"A 	c #F5EAAA",
"B 	c #D1CBB1",
"C 	c #B8B499",
"D 	c #E6D15F",
"E 	c #FFEA38",
"F 	c #FFE734",
"G 	c #FFE233",
"H 	c #EED340",
"I 	c #B0A87B",
"J 	c #B7B39E",
"K 	c #F3F3F3",
"L 	c #E6E6E6",
"M 	c #A5A4A2",
"N 	c #D9C975",
"O 	c #E2CC56",
"P 	c #C7C4B4",
"Q 	c #CCC287",
"R 	c #FAE157",
"S 	c #FFF438",
"T 	c #FFEF36",
"U 	c #FFEC36",
"V 	c #DCC64F",
"W 	c #A5A189",
"X 	c #CCC9B9",
"Y 	c #FDFDFD",
"Z 	c #CACACA",
"` 	c #ABA99F",
" .	c #F0D750",
"..	c #E2CC57",
"+.	c #FFFC6E",
"@.	c #FFF939",
"#.	c #FBDC35",
"$.	c #C7B863",
"%.	c #A6A391",
"&.	c #E1E0DA",
"*.	c #AEAEAE",
"=.	c #C4BD98",
"-.	c #FCDD36",
";.	c #E2CC59",
">.	c #FFFB6F",
",.	c #F0D43E",
"'.	c #B3AA7B",
").	c #B1AE9D",
"!.	c #A4A4A2",
"~.	c #E1D179",
"{.	c #E2CC5C",
"].	c #FFFB6E",
"^.	c #E5CC48",
"/.	c #F5DA44",
"(.	c #E2CD5E",
"_.	c #E2CD60",
":.	c #FFFC6C",
"<.	c #E2CD62",
"[.	c #FFFB6B",
"}.	c #FEDE33",
"|.	c #E2CE64",
"1.	c #FFFC6A",
"2.	c #E2CE66",
"3.	c #FFFC69",
"4.	c #FEDF34",
"5.	c #E2CF68",
"6.	c #FFFC67",
"7.	c #FEDF36",
"8.	c #E2CF6B",
"9.	c #FFFC65",
"0.	c #FEDF37",
"a.	c #E2CF6C",
"b.	c #FEE03A",
"c.	c #E2D06E",
"d.	c #FFFC64",
"e.	c #FEDF3C",
"f.	c #E2D070",
"g.	c #FFFC62",
"h.	c #FEDF3A",
"i.	c #FEDF3E",
"j.	c #E2D072",
"k.	c #FFFC5F",
"l.	c #FEE040",
"m.	c #E2D175",
"n.	c #FFFD61",
"o.	c #FFE133",
"p.	c #FDDD32",
"q.	c #FBE048",
"r.	c #FBDF42",
"s.	c #E2D176",
"t.	c #FFFC5E",
"u.	c #FFE434",
"v.	c #F7D831",
"w.	c #F6D731",
"x.	c #F7DD50",
"y.	c #F1D642",
"z.	c #E2D179",
"A.	c #BFBFBF",
"B.	c #FFFB61",
"C.	c #FFFA3F",
"D.	c #FFF53F",
"E.	c #FFF13F",
"F.	c #FFE73D",
"G.	c #F9DA39",
"H.	c #EFD338",
"I.	c #ECD037",
"J.	c #ECD038",
"K.	c #ECD039",
"L.	c #ECD03A",
"M.	c #ECD03B",
"N.	c #ECD03C",
"O.	c #ECD13D",
"P.	c #EBD03D",
"Q.	c #EBD03E",
"R.	c #EBD03F",
"S.	c #EBD040",
"T.	c #EBD041",
"U.	c #EBD042",
"V.	c #EAD041",
"W.	c #EAD042",
"X.	c #EAD044",
"Y.	c #E2CD5D",
"Z.	c #D6C77E",
"`.	c #C1C1C1",
" +	c #B2B2B2",
".+	c #AAAAAA",
"++	c #E0E0E0",
"@+	c #A6A6A6",
"#+	c #A3A3A3",
"$+	c #A0A0A0",
"%+	c #999999",
"&+	c #8E8E8E",
"*+	c #858585",
"=+	c #818181",
"-+	c #828282",
";+	c #838383",
">+	c #848484",
",+	c #868686",
"'+	c #878787",
")+	c #898989",
"!+	c #8C8C8C",
"~+	c #797979",
"{+	c #A1A1A1",
"]+	c #DEDEDE",
"^+	c #D4D4D4",
"/+	c #D5D5D5",
"(+	c #D6D6D6",
"_+	c #D7D7D7",
":+	c #CDCDCD",
"<+	c #D1D1D1",
"[+	c #EDEDED",
"}+	c #C4C4C4",
"|+	c #B5B5B5",
"1+	c #B9B9B9",
"2+	c #BEBEBE",
"3+	c #ACACAC",
"4+	c #959595",
"5+	c #9B9B9B",
"6+	c #A4A4A4",
"                                                                                            ",
"                                                                                            ",
"                                                                                    .       ",
"        + @                                                                         #       ",
"        + $                                                                       % &       ",
"        + $                                                                     * = &       ",
"        + $                                                                   - % = &       ",
"        + $                                                                 ; > % = &       ",
"        + $                                                             . $ , > % = &       ",
"        + $                                                           . ' ) , > % = &       ",
"        + $               . . . . . . . . . . . . . . . . . . . . . . @ ! ) , > % = &       ",
"        + $               . . . . . . . . . . . . . . . . . . . . . . @ ! ~ { ] % = &       ",
"        + $               . ^ / . . . . . . . . . . . . . . . . . . . ! ( _ : < % = &       ",
"        + $             [ } | 1 2 3 . . . . . . . . . . . . . . . . - 4 5 6 7 8 % = &       ",
"        + $         9 0 a b c c d e f g . . . . . . . . . . . . . h i j k 6 7 l % = &       ",
"        + $     m n o p q c c c c r s t u . . . . . . . . . . ! v w x y k 6 7 z % = &       ",
"        + A B C D E F G q c c c c c c H I J K . . . . . . . L M N c c y k 6 7 O % = &       ",
"        P Q R S T U F G q c c c c c c c c V W X g . . . Y Z `  .c c c y k 6 7 ..% = &       ",
"        + +.@.S T U F G q c c c c c c c c c #.$.%.&.. K *.=.-.c c c c y k 6 7 ;.% = &       ",
"        + >.@.S T U F G q c c c c c c c c c c c ,.'.).!.~.c c c c c c y k 6 7 {.% = &       ",
"        + ].@.S T U F G q c c c c c c c c c c c c c ^./.c c c c c c c y k 6 7 (.% = &       ",
"        + +.@.S T U F G q c c c c c c c c c c c c c c c c c c c c c c y k 6 7 _.% = &       ",
"        + :.@.S T U F G q c c c c c c c c c c c c c c c c c c c c c c y k 6 7 <.% = &       ",
"        + [.@.S T U F G q c c c c }.c c c c c c c c c c c c c c c c c y k 6 7 |.% = &       ",
"        + 1.@.S T U F G q c c c c c c }.c c c c c c c c c c c c c c c y k 6 7 2.% = &       ",
"        + 3.@.S T U F G q c c c c c c c c 4.c c c c c c c c c c c c c y k 6 7 5.% = &       ",
"        + 6.@.S T U F G q c c c c c c c c c c 7.c c c c c c c c c c c y k 6 7 8.% = &       ",
"        + 9.@.S T U F G q c c c c c c c c c c c c 0.c c c c c c c c c y k 6 7 a.% = &       ",
"        + 9.@.S T U F G q c c c c c c c c c c c c c }.b.c c c c c c c y k 6 7 c.% = &       ",
"        + d.@.S T U F G q c c c c c c c c c c c c c c c 7.e.c c c c c y k 6 7 f.% = &       ",
"        + g.@.S T U F G q c c c c c c c c c c c c c c c c c h.i.c c c y k 6 7 j.% = &       ",
"        + k.@.S T U F G q c c c c c c c c c c c c c c c c c c c l.l.c y k 6 7 m.% = &       ",
"        + n.@.S T U F o.p.y y y y y y y y y y y y y y y y y y y y y q.r.k 6 7 s.% = &       ",
"        + t.@.S T U u.p.v.w.w.w.w.w.w.w.w.w.w.w.w.w.w.w.w.w.w.w.w.w.w.w.x.y.7 z.% = &       ",
"        A.B.C.D.E.F.G.H.I.I.J.K.K.L.M.M.M.N.O.O.P.Q.Q.Q.R.R.S.T.U.U.V.W.W.X.Y.Z.`. +.+      ",
"        ++@+#+$+%+&+*+=+=+=+=+=+=+=+=+=+=+=+-+-+;+>+>+>+*+*+*+*+,+,+,+'+'+)+!+)+;+~+{+      ",
"                ) ]+^+/+/+/+(+(+_+_+% % % % % % % % % % % % % % % % % % % % [ ]+(+= &       ",
"              K (+Z Z Z Z Z Z Z Z Z Z Z Z Z Z Z Z Z Z Z Z Z Z Z Z Z Z Z Z Z Z :+<+# &       ",
"            [+}+|+|+|+|+|+|+|+|+|+|+|+|+|+|+|+|+|+|+|+|+|+|+|+|+|+|+|+|+|+|+|+|+1+2+&       ",
"          * 3+4+4+4+4+4+4+4+4+4+4+4+4+4+4+4+4+4+4+4+4+4+4+4+4+4+4+4+4+4+4+4+4+4+4+5+6+      "};
