/* XPM */
static char * bar_chart_xpm[] = {
"46 40 80 1",
" 	c None",
".	c #FFFFFF",
"+	c #FEFEFE",
"@	c #B9B9B9",
"#	c #C5C5C5",
"$	c #F7F7F7",
"%	c #D8D8D8",
"&	c #ADADAD",
"*	c #FF7601",
"=	c #FF7701",
"-	c #E3E3E3",
";	c #C7C7C7",
">	c #FF7401",
",	c #FF7301",
"'	c #ECECEC",
")	c #FF7101",
"!	c #FF7001",
"~	c #F0F0F0",
"{	c #E2E2E2",
"]	c #FA6E01",
"^	c #F66D01",
"/	c #F86D01",
"(	c #F4F4F4",
"_	c #EAEAEA",
":	c #F56C01",
"<	c #F26B01",
"[	c #FAFAFA",
"}	c #F1F1F1",
"|	c #F16A00",
"1	c #EE6900",
"2	c #EC6800",
"3	c #E56500",
"4	c #DE6200",
"5	c #F46C01",
"6	c #F06A00",
"7	c #FBFBFB",
"8	c #EA6700",
"9	c #E96700",
"0	c #F6F6F6",
"a	c #EDEDED",
"b	c #E7E7E6",
"c	c #E9E9E9",
"d	c #B7B7B7",
"e	c #E1E1E1",
"f	c #F8F8F8",
"g	c #DCDCDC",
"h	c #D7D7D7",
"i	c #D2D2D2",
"j	c #D5D5D5",
"k	c #CBCBCB",
"l	c #C2C2C2",
"m	c #B3B3B3",
"n	c #EEEEEE",
"o	c #B5B5B5",
"p	c #AAAAAA",
"q	c #9B9B9B",
"r	c #8F8F8F",
"s	c #898989",
"t	c #8A8A8A",
"u	c #8B8B8B",
"v	c #8C8C8C",
"w	c #8D8D8D",
"x	c #8E8E8E",
"y	c #909090",
"z	c #919191",
"A	c #929292",
"B	c #939393",
"C	c #949494",
"D	c #969696",
"E	c #989898",
"F	c #F3F3F3",
"G	c #D6D6D6",
"H	c #CACACA",
"I	c #CDCDCD",
"J	c #D1D1D1",
"K	c #C4C4C4",
"L	c #BEBEBE",
"M	c #ACACAC",
"N	c #959595",
"O	c #A4A4A4",
"..............................................",
"..............................................",
"..........................................+...",
"....@.....................................#...",
"....@$...................................%&...",
"....@$..*========.......................-;&...",
"....@$..>,>>>>>>>......................'%;&...",
"....@$..,)!!!!!!!.....................~{%;&...",
"....@$..,)]^^////...................+(_{%;&...",
"....@$..,)]:<<<<<..................+[}_{%;&...",
"....@$..,)]:<||||+++++++++++++|||||1234{%;&...",
"....@$..,)]:<||||+++++++++++++|||||1234{%;&...",
"....@$..,)]:<||||+++++++++++++|||||1234{%;&...",
"....@$..,)]:<||||+++++++++++++|||||1234{%;&...",
"....@$..,)]:<||||++|||||||||++|||||1234{%;&...",
"....@$..,)]:<||||++|||||||||++|||||1234{%;&...",
"....@$..,)]:<||||++|||||||||++|||||1234{%;&...",
"....@$..,)]:<||||++|||||||||++|||||1234{%;&...",
"....@$..,)]:<||||++|||||||||++|||||1234{%;&...",
"....@$..,)]:<||||++|||||||||++|||||1234{%;&...",
"....@$..,)]:<||||++|||||||||++|||||1234{%;&...",
"....@$..,)]:<||||++|||||||||++|||||1234{%;&...",
"....@$..,)]:<||||++|||||||||++|||||1234{%;&...",
"....@$..,)]:<||||++|||||||||++|||||1234{%;&...",
"....@$..,)]:<||||++|||||||||++|||||1234{%;&...",
"....@$..,)]:<||||++|||||||||++|||||1234{%;&...",
"....@$..,)]:<||||++|||||||||++|||||1234{%;&...",
"....@$..,)]:<||||++|||||||||++|||||1234{%;&...",
"....@$..,)]:<||||++|||||||||++|||||1234{%;&...",
"....@$..,)]:<||||++|||||||||++|||||1234{%;&...",
"....@$..,)]:<||||++|||||||||++|||||1234{%;&...",
"....@$..,)]:<||||++|||||||||++|||||1234{%;&...",
"....@$..,)]5611117711111111177111111234{%;&...",
"....@$..,)/6899990099999999900999999834{%;&...",
"....@$....[~aaaaabaaaaaaaaaaaaaaaaaaaac{%;&...",
"....de...fc{{{{{{{{{{{{{{{{{{{{{{ggghijklm&...",
"....nompqrsttuuuvvvvwwwxrryyyzzzzAAABCDECs&...",
".......FGHHHHHHHHHHHHHHHHHHHHHHHHHHHHHHIJ#&...",
"......aKoooooooooooooooooooooooooooooooo@L&...",
".....-MNNNNNNNNNNNNNNNNNNNNNNNNNNNNNNNNNNqO..."};
