/* XPM */
static char * bar_chart_sel_xpm[] = {
"46 40 69 1",
" 	c #FF7401",
".	c #FFFFFF",
"+	c #B9B9B9",
"@	c #C5C5C5",
"#	c #F7F7F7",
"$	c #D8D8D8",
"%	c #ADADAD",
"&	c #FF7601",
"*	c #FF7701",
"=	c #E3E3E3",
"-	c #C7C7C7",
";	c #FF7301",
">	c #ECECEC",
",	c #FF7101",
"'	c #FF7001",
")	c #F0F0F0",
"!	c #E2E2E2",
"~	c #FA6E01",
"{	c #F66D01",
"]	c #F86D01",
"^	c #FEFEFE",
"/	c #F4F4F4",
"(	c #EAEAEA",
"_	c #F56C01",
":	c #F26B01",
"<	c #FAFAFA",
"[	c #F1F1F1",
"}	c #F16A00",
"|	c #EE6900",
"1	c #EC6800",
"2	c #E56500",
"3	c #DE6200",
"4	c #F46C01",
"5	c #F06A00",
"6	c #FBFBFB",
"7	c #EA6700",
"8	c #E96700",
"9	c #F6F6F6",
"0	c #EDEDED",
"a	c #E7E7E6",
"b	c #E9E9E9",
"c	c #B7B7B7",
"d	c #E1E1E1",
"e	c #F8F8F8",
"f	c #DCDCDC",
"g	c #D7D7D7",
"h	c #D2D2D2",
"i	c #D5D5D5",
"j	c #CBCBCB",
"k	c #C2C2C2",
"l	c #B3B3B3",
"m	c #EEEEEE",
"n	c #B5B5B5",
"o	c #AAAAAA",
"p	c #9B9B9B",
"q	c #8F8F8F",
"r	c #898989",
"s	c #8A8A8A",
"t	c #8B8B8B",
"u	c #8C8C8C",
"v	c #8D8D8D",
"w	c #8E8E8E",
"x	c #909090",
"y	c #919191",
"z	c #929292",
"A	c #939393",
"B	c #949494",
"C	c #969696",
"D	c #989898",
"                                              ",
"                                              ",
"                                              ",
"   .+.....................................@   ",
"   .+#...................................$%   ",
"   .+#..&********.......................=-%   ",
"   .+#.. ;       ......................>$-%   ",
"   .+#..;,'''''''.....................)!$-%   ",
"   .+#..;,~{{]]]]...................^/(!$-%   ",
"   .+#..;,~_:::::..................^<[(!$-%   ",
"   .+#..;,~_:}}}}^^^^^^^^^^^^^}}}}}|123!$-%   ",
"   .+#..;,~_:}}}}^^^^^^^^^^^^^}}}}}|123!$-%   ",
"   .+#..;,~_:}}}}^^^^^^^^^^^^^}}}}}|123!$-%   ",
"   .+#..;,~_:}}}}^^^^^^^^^^^^^}}}}}|123!$-%   ",
"   .+#..;,~_:}}}}^^}}}}}}}}}^^}}}}}|123!$-%   ",
"   .+#..;,~_:}}}}^^}}}}}}}}}^^}}}}}|123!$-%   ",
"   .+#..;,~_:}}}}^^}}}}}}}}}^^}}}}}|123!$-%   ",
"   .+#..;,~_:}}}}^^}}}}}}}}}^^}}}}}|123!$-%   ",
"   .+#..;,~_:}}}}^^}}}}}}}}}^^}}}}}|123!$-%   ",
"   .+#..;,~_:}}}}^^}}}}}}}}}^^}}}}}|123!$-%   ",
"   .+#..;,~_:}}}}^^}}}}}}}}}^^}}}}}|123!$-%   ",
"   .+#..;,~_:}}}}^^}}}}}}}}}^^}}}}}|123!$-%   ",
"   .+#..;,~_:}}}}^^}}}}}}}}}^^}}}}}|123!$-%   ",
"   .+#..;,~_:}}}}^^}}}}}}}}}^^}}}}}|123!$-%   ",
"   .+#..;,~_:}}}}^^}}}}}}}}}^^}}}}}|123!$-%   ",
"   .+#..;,~_:}}}}^^}}}}}}}}}^^}}}}}|123!$-%   ",
"   .+#..;,~_:}}}}^^}}}}}}}}}^^}}}}}|123!$-%   ",
"   .+#..;,~_:}}}}^^}}}}}}}}}^^}}}}}|123!$-%   ",
"   .+#..;,~_:}}}}^^}}}}}}}}}^^}}}}}|123!$-%   ",
"   .+#..;,~_:}}}}^^}}}}}}}}}^^}}}}}|123!$-%   ",
"   .+#..;,~_:}}}}^^}}}}}}}}}^^}}}}}|123!$-%   ",
"   .+#..;,~_:}}}}^^}}}}}}}}}^^}}}}}|123!$-%   ",
"   .+#..;,~45||||66|||||||||66||||||123!$-%   ",
"   .+#..;,]5788889988888888899888888723!$-%   ",
"   .+#....<)00000a00000000000000000000b!$-%   ",
"   .cd...eb!!!!!!!!!!!!!!!!!!!!!!fffghijkl%   ",
"   .mnlopqrsstttuuuuvvvwqqxxxyyyyzzzABCDBr%   ",
"                                              ",
"                                              ",
"                                              "};
