/* XPM */
static char * clustered_bar_chart_xpm[] = {
"46 40 185 2",
"  	c #FFFFFF",
". 	c #EFEFEF",
"+ 	c #F6F6F6",
"@ 	c #E7E7E7",
"# 	c #E9E9E9",
"$ 	c #FEFEFE",
"% 	c #DBDBDB",
"& 	c #F6EBAE",
"* 	c #F6EAAE",
"= 	c #FFFFF0",
"- 	c #C5C5C5",
"; 	c #D5D5D5",
"> 	c #F4F1DD",
", 	c #FFFC3D",
"' 	c #FFFF3A",
") 	c #EDE9CC",
"! 	c #D8D8D8",
"~ 	c #ADADAD",
"{ 	c #EFECD9",
"] 	c #FFF53B",
"^ 	c #FFF738",
"/ 	c #FFF838",
"( 	c #E6E2C6",
"_ 	c #DEBEA4",
": 	c #E3C0A6",
"< 	c #E1C0A6",
"[ 	c #E3E3E3",
"} 	c #C7C7C7",
"| 	c #FFF23B",
"1 	c #FFF237",
"2 	c #FFF137",
"3 	c #E1DCC1",
"4 	c #F7F3F1",
"5 	c #F27B1E",
"6 	c #FF7401",
"7 	c #FA7914",
"8 	c #EFE5DE",
"9 	c #ECECEC",
"0 	c #FFEF36",
"a 	c #FFED36",
"b 	c #FFEA35",
"c 	c #DAD5BB",
"d 	c #F0ECE9",
"e 	c #EA781D",
"f 	c #FF7001",
"g 	c #F27614",
"h 	c #E7DED8",
"i 	c #F0F0F0",
"j 	c #E2E2E2",
"k 	c #FFEC36",
"l 	c #FFE734",
"m 	c #D3CFB5",
"n 	c #F0F1F1",
"o 	c #E1E3E5",
"p 	c #E6E7E9",
"q 	c #E9E5E3",
"r 	c #E4741C",
"s 	c #F86D01",
"t 	c #EB7213",
"u 	c #E1D8D2",
"v 	c #F4F4F4",
"w 	c #EAEAEA",
"x 	c #D2CEB4",
"y 	c #9FACB4",
"z 	c #5F87A1",
"A 	c #8599A6",
"B 	c #E4E0DE",
"C 	c #DF721C",
"D 	c #F26B01",
"E 	c #E67013",
"F 	c #DCD3CD",
"G 	c #FAFAFA",
"H 	c #F1F1F1",
"I 	c #A0AEB7",
"J 	c #5484A3",
"K 	c #8299A9",
"L 	c #E3DFDD",
"M 	c #DE711B",
"N 	c #F16A00",
"O 	c #E56F12",
"P 	c #DBD2CC",
"Q 	c #FBFBFB",
"R 	c #F8F8F8",
"S 	c #E37016",
"T 	c #A5A9AC",
"U 	c #B3BBC1",
"V 	c #D0D4D7",
"W 	c #BC9B7A",
"X 	c #D0996E",
"Y 	c #CF986D",
"Z 	c #91989B",
"` 	c #DD721E",
" .	c #6E8CA0",
"..	c #A7B2BA",
"+.	c #C98E5B",
"@.	c #919494",
"#.	c #DCD8D6",
"$.	c #D0C68E",
"%.	c #E3CD53",
"&.	c #C1B171",
"*.	c #DCCF88",
"=.	c #FEDE32",
"-.	c #D0BC61",
";.	c #C88D5A",
">.	c #F06A00",
",.	c #EE6900",
"'.	c #909393",
").	c #5383A1",
"!.	c #8198A7",
"~.	c #DACD87",
"{.	c #FBDC32",
"].	c #CEBA60",
"^.	c #DC701B",
"/.	c #DB711E",
"(.	c #6D8B9E",
"_.	c #F4F0E2",
":.	c #E5D683",
"<.	c #E3D381",
"[.	c #DFD07F",
"}.	c #D8CA7B",
"|.	c #B59479",
"1.	c #C68C5F",
"2.	c #C58B5E",
"3.	c #919292",
"4.	c #8297A4",
"5.	c #8F9BA3",
"6.	c #C9C089",
"7.	c #DCC651",
"8.	c #BAAC6E",
"9.	c #BB8457",
"0.	c #C7834D",
"a.	c #BC8559",
"b.	c #7D8E9A",
"c.	c #728EA0",
"d.	c #A5AEB4",
"e.	c #F7F7F7",
"f.	c #D1D1D1",
"g.	c #FCFCFC",
"h.	c #EEEEEE",
"i.	c #E4E4E4",
"j.	c #E1E1E1",
"k.	c #E0E0E0",
"l.	c #DFDFDF",
"m.	c #DEDEDE",
"n.	c #DDDDDD",
"o.	c #DCDCDC",
"p.	c #D4D4D4",
"q.	c #D3D3D3",
"r.	c #D0D0D0",
"s.	c #CFCFCF",
"t.	c #D7D7D7",
"u.	c #D6D6D6",
"v.	c #D2D2D2",
"w.	c #CBCBCB",
"x.	c #C2C2C2",
"y.	c #B2B2B2",
"z.	c #A6A6A6",
"A.	c #AAAAAA",
"B.	c #A3A3A3",
"C.	c #A0A0A0",
"D.	c #999999",
"E.	c #8E8E8E",
"F.	c #858585",
"G.	c #818181",
"H.	c #828282",
"I.	c #838383",
"J.	c #848484",
"K.	c #868686",
"L.	c #878787",
"M.	c #898989",
"N.	c #8B8B8B",
"O.	c #797979",
"P.	c #929292",
"Q.	c #F3F3F3",
"R.	c #CACACA",
"S.	c #CDCDCD",
"T.	c #EDEDED",
"U.	c #C4C4C4",
"V.	c #B5B5B5",
"W.	c #B9B9B9",
"X.	c #BEBEBE",
"Y.	c #ACACAC",
"Z.	c #959595",
"`.	c #9B9B9B",
" +	c #A4A4A4",
"          .                                                                                 ",
"          +                                                                                 ",
"        @ #                                                                         $       ",
"        % %   & * * * =                                                             -       ",
"        % ; > , ' ' ' )                                                           ! ~       ",
"        % ; { ] ^ / / (                               _ : : <                   [ } ~       ",
"        % ; { | 1 2 1 3                             4 5 6 6 7 8               9 ! } ~       ",
"        % ; { | 0 a b c                             d e f f g h             i j ! } ~       ",
"        % ; { | 0 k l m       n o o o p             q r s s t u         $ v w j ! } ~       ",
"        % ; { | 0 k l x       y z z z A             B C D D E F       $ G H w j ! } ~       ",
"        % ; { | 0 k l x   $ $ I J J J K $ $ $ $ $ $ L M N N O P $ $ $ Q R H w j ! } ~       ",
"        % ; { | 0 k l x   $ $ I J J J K $ $ $ $ $ $ L M N N S T U U U V R H w j ! } ~       ",
"        % ; { | 0 k l W X Y Y Z J J J K $ $ $ $ $ $ L M N N `  .J J J ..R H w j ! } ~       ",
"        % ; { | 0 k l +.D N N @.J J J K $ $ $ $ $ $ L M N N `  .J J J ..R H w j ! } ~       ",
"        % ; { | 0 k l +.D N N @.J J J K $ $ $ $ $ $ L M N N `  .J J J ..R H w j ! } ~       ",
"        % ; { | 0 k l +.D N N @.J J J K $ $ R v v v #.M N N `  .J J J ..R H w j ! } ~       ",
"        % ; { | 0 k l +.D N N @.J J J K $ $ $.%.%.%.&.M N N `  .J J J ..R H w j ! } ~       ",
"        % ; { | 0 k l +.D N N @.J J J K $ $ *.=.=.=.-.M N N `  .J J J ..R H w j ! } ~       ",
"        % ; { | 0 k l +.D N N @.J J J K $ $ *.=.=.=.-.M N N `  .J J J ..R H w j ! } ~       ",
"        % ; { | 0 k l +.D N N @.J J J K $ $ *.=.=.=.-.M N N `  .J J J ..R H w j ! } ~       ",
"        % ; { | 0 k l +.D N N @.J J J K $ $ *.=.=.=.-.M N N `  .J J J ..R H w j ! } ~       ",
"        % ; { | 0 k l +.D N N @.J J J K $ $ *.=.=.=.-.M N N `  .J J J ..R H w j ! } ~       ",
"        % ; { | 0 k l +.D N N @.J J J K $ $ *.=.=.=.-.M N N `  .J J J ..R H w j ! } ~       ",
"        % ; { | 0 k l +.D N N @.J J J K $ $ *.=.=.=.-.M N N `  .J J J ..R H w j ! } ~       ",
"        % ; { | 0 k l +.D N N @.J J J K $ $ *.=.=.=.-.M N N `  .J J J ..R H w j ! } ~       ",
"        % ; { | 0 k l +.D N N @.J J J K $ $ *.=.=.=.-.M N N `  .J J J ..R H w j ! } ~       ",
"        % ; { | 0 k l +.D N N @.J J J K $ $ *.=.=.=.-.M N N `  .J J J ..R H w j ! } ~       ",
"        % ; { | 0 k l +.D N N @.J J J K $ $ *.=.=.=.-.M N N `  .J J J ..R H w j ! } ~       ",
"        % ; { | 0 k l +.D N N @.J J J K $ $ *.=.=.=.-.M N N `  .J J J ..R H w j ! } ~       ",
"        % ; { | 0 k l +.D N N @.J J J K $ $ *.=.=.=.-.M N N `  .J J J ..R H w j ! } ~       ",
"        % ; { | 0 k l +.D N N @.J J J K $ $ *.=.=.=.-.M N N `  .J J J ..R H w j ! } ~       ",
"        % ; { | 0 k l +.D N N @.J J J K $ $ *.=.=.=.-.M N N `  .J J J ..R H w j ! } ~       ",
"        % ; { | 0 k l ;.>.,.,.'.).).).!.Q Q ~.{.{.{.].^.,.,./.(.).).)...R H w j ! } ~       ",
"        % ; _.:.<.[.}.|.1.2.2.3.4.4.4.5.+ + 6.7.7.7.8.9.0.0.a.b.c.c.c.d.e.H w j ! } ~       ",
"        % f.      g.h.i.j.k.l.l.l.m.m.n.n.o.! ; p.p.q.p.p.p.q.f.r.r.s.p.t.u.v.w.x.y.z.      ",
"        Q A.B.C.D.E.F.G.G.G.G.G.G.G.G.G.G.G.H.H.I.I.J.J.F.F.F.F.K.K.K.L.L.M.N.M.I.O.P.      ",
"                H n.p.p.; ; u.u.t.t.! ! ! ! ! ! ! ! ! ! ! ! ! ! ! ! ! ! ! ! % m.u.} ~       ",
"              Q.u.R.R.R.R.R.R.R.R.R.R.R.R.R.R.R.R.R.R.R.R.R.R.R.R.R.R.R.R.R.R.S.f.- ~       ",
"            T.U.V.V.V.V.V.V.V.V.V.V.V.V.V.V.V.V.V.V.V.V.V.V.V.V.V.V.V.V.V.V.V.V.W.X.~       ",
"          [ Y.Z.Z.Z.Z.Z.Z.Z.Z.Z.Z.Z.Z.Z.Z.Z.Z.Z.Z.Z.Z.Z.Z.Z.Z.Z.Z.Z.Z.Z.Z.Z.Z.Z.Z.`. +      "};
