/* XPM */
static char * line_chart_xpm[] = {
"46 40 230 2",
"  	c None",
". 	c #FFFFFF",
"+ 	c #FEFEFE",
"@ 	c #BABABA",
"# 	c #C5C5C5",
"$ 	c #B5B5B5",
"% 	c #D8D8D8",
"& 	c #ADADAD",
"* 	c #E3E3E3",
"= 	c #C7C7C7",
"- 	c #ECECEC",
"; 	c #F0F0F0",
"> 	c #E2E2E2",
", 	c #F4F4F4",
"' 	c #EAEAEA",
") 	c #FAFAFA",
"! 	c #F1F1F1",
"~ 	c #FBFBFB",
"{ 	c #F8F8F8",
"] 	c #FFA44F",
"^ 	c #FF7907",
"/ 	c #FFF3DD",
"( 	c #FF9C3F",
"_ 	c #FF7502",
": 	c #FF7C10",
"< 	c #FFC38F",
"[ 	c #FFDAB1",
"} 	c #FF8524",
"| 	c #FC7F1E",
"1 	c #FDC9A0",
"2 	c #FFFEFD",
"3 	c #C2D1DB",
"4 	c #B8C9D3",
"5 	c #FFC594",
"6 	c #F67714",
"7 	c #F4852D",
"8 	c #FAD2B3",
"9 	c #FAFBFC",
"0 	c #D7E2E9",
"a 	c #AEC5D3",
"b 	c #83A4BB",
"c 	c #5281A0",
"d 	c #55819E",
"e 	c #E7E8E8",
"f 	c #FFFAF4",
"g 	c #F8B17A",
"h 	c #F16F09",
"i 	c #F48F40",
"j 	c #FBDFC9",
"k 	c #F8FAFB",
"l 	c #D2DEE6",
"m 	c #A9C1D0",
"n 	c #7FA3BA",
"o 	c #5A88A6",
"p 	c #5786A5",
"q 	c #7A9FB7",
"r 	c #A1BACB",
"s 	c #9FB8C8",
"t 	c #AFC2CE",
"u 	c #FDEFE4",
"v 	c #F6A464",
"w 	c #F16C03",
"x 	c #F27615",
"y 	c #FBDAC0",
"z 	c #ECF2F5",
"A 	c #7AA0B7",
"B 	c #89A9BF",
"C 	c #7BA0B8",
"D 	c #5B89A7",
"E 	c #81A4BB",
"F 	c #A9C1D1",
"G 	c #D3DFE7",
"H 	c #F6A565",
"I 	c #F16A00",
"J 	c #F48732",
"K 	c #DDE7ED",
"L 	c #6F98B1",
"M 	c #5484A3",
"N 	c #6691AD",
"O 	c #B1C7D5",
"P 	c #D9E4EA",
"Q 	c #FBFCFD",
"R 	c #FEFBF8",
"S 	c #F9C296",
"T 	c #F1720E",
"U 	c #F8B783",
"V 	c #F3F6F8",
"W 	c #9AB6C8",
"X 	c #5786A4",
"Y 	c #94B2C6",
"Z 	c #C6D6E0",
"` 	c #EFF3F6",
" .	c #F7FFFF",
"..	c #FAD5B8",
"+.	c #F16D05",
"@.	c #F9CCA8",
"#.	c #BBCEDA",
"$.	c #618EAA",
"%.	c #759CB5",
"&.	c #D9E3EA",
"*.	c #77A6C4",
"=.	c #5D92B4",
"-.	c #9FC0D5",
";.	c #CBDEEA",
">.	c #ECF3F8",
",.	c #E5B189",
"'.	c #EC6C06",
").	c #7E8685",
"!.	c #B9CCD9",
"~.	c #FDFDFD",
"{.	c #F7E9DD",
"].	c #EFDED1",
"^.	c #B6D3E5",
"/.	c #7AA6C3",
"(.	c #99BCD0",
"_.	c #729DBA",
":.	c #5889AA",
"<.	c #5F8DAB",
"[.	c #80A4BB",
"}.	c #A3BCCD",
"|.	c #E2EAEF",
"1.	c #90AEC3",
"2.	c #CB8B56",
"3.	c #F17717",
"4.	c #FCEDE0",
"5.	c #F9E6D8",
"6.	c #ED6A04",
"7.	c #E56805",
"8.	c #EAE7E6",
"9.	c #FCFFFF",
"0.	c #D3E0E9",
"a.	c #ACC4D3",
"b.	c #88A9BF",
"c.	c #6590AC",
"d.	c #648FAB",
"e.	c #DBE5EB",
"f.	c #FEFCFB",
"g.	c #F5954A",
"h.	c #F3852E",
"i.	c #FDF6F1",
"j.	c #FDF4EC",
"k.	c #F7AC72",
"l.	c #EE6D07",
"m.	c #ED7618",
"n.	c #E98F49",
"o.	c #DDE6EC",
"p.	c #8CADC1",
"q.	c #DFE8EE",
"r.	c #F3842C",
"s.	c #F5964B",
"t.	c #FEFAF7",
"u.	c #F8BA89",
"v.	c #F27310",
"w.	c #F3842D",
"x.	c #F7D2B4",
"y.	c #FCECDF",
"z.	c #F27717",
"A.	c #F7AA6F",
"B.	c #FEFDFD",
"C.	c #F9C9A2",
"D.	c #F37C1F",
"E.	c #F27A1C",
"F.	c #F9C69E",
"G.	c #FEFDFC",
"H.	c #FBDDC6",
"I.	c #F16F08",
"J.	c #F9C195",
"K.	c #FBD7BA",
"L.	c #F38631",
"M.	c #F2730F",
"N.	c #F8B987",
"O.	c #FEF9F6",
"P.	c #FACBA6",
"Q.	c #FCE1CE",
"R.	c #F59347",
"S.	c #F16D06",
"T.	c #F7AB70",
"U.	c #FDF3EB",
"V.	c #F7AA6E",
"W.	c #F16A01",
"X.	c #F69E59",
"Y.	c #FCEBDD",
"Z.	c #FDEDE1",
"`.	c #F59850",
" +	c #F7F7F7",
".+	c #F6F6F6",
"++	c #EDEDED",
"@+	c #E9E9E9",
"#+	c #B9B9B9",
"$+	c #B1B1B1",
"%+	c #A8A8A8",
"&+	c #9D9D9D",
"*+	c #939393",
"=+	c #8D8D8D",
"-+	c #8C8C8C",
";+	c #8B8B8B",
">+	c #8A8A8A",
",+	c #898989",
"'+	c #888888",
")+	c #878787",
"!+	c #868686",
"~+	c #858585",
"{+	c #848484",
"]+	c #828282",
"^+	c #7C7C7C",
"/+	c #727272",
"(+	c #7A7A7A",
"_+	c #EBEBEB",
":+	c #D7D7D7",
"<+	c #BDBDBD",
"[+	c #BEBEBE",
"}+	c #BFBFBF",
"|+	c #C0C0C0",
"1+	c #C1C1C1",
"2+	c #C2C2C2",
"3+	c #C3C3C3",
"4+	c #C4C4C4",
"5+	c #C6C6C6",
"6+	c #C8C8C8",
"7+	c #CACACA",
"8+	c #CECECE",
"9+	c #A5A5A5",
"0+	c #F3F3F3",
"a+	c #D6D6D6",
"b+	c #CDCDCD",
"c+	c #D1D1D1",
"d+	c #ACACAC",
"e+	c #959595",
"f+	c #9B9B9B",
"g+	c #A4A4A4",
". . . . . . . . . . . . . . . . . . . . . . . . . . . . . . . . . . . . . . . . . . . . . . ",
". . . . . . . . . . . . . . . . . . . . . . . . . . . . . . . . . . . . . . . . . . . . . . ",
". . . . . . . . . . . . . . . . . . . . . . . . . . . . . . . . . . . . . . . . . . + . . . ",
". . . . + @ . . . . . . . . . . . . . . . . . . . . . . . . . . . . . . . . . . . . # . . . ",
". . . . + $ . . . . . . . . . . . . . . . . . . . . . . . . . . . . . . . . . . . % & . . . ",
". . . . + $ . . . . . . . . . . . . . . . . . . . . . . . . . . . . . . . . . . * = & . . . ",
". . . . + $ . . . . . . . . . . . . . . . . . . . . . . . . . . . . . . . . . - % = & . . . ",
". . . . + $ . . . . . . . . . . . . . . . . . . . . . . . . . . . . . . . . ; > % = & . . . ",
". . . . + $ . . . . . . . . . . . . . . . . . . . . . . . . . . . . . . + , ' > % = & . . . ",
". . . . + $ . . . . . . . . . . . . . . . . . . . . . . . . . . . . . + ) ! ' > % = & . . . ",
". . . . + $ . . . . . . . + + + + + + + + + + + + + + + + + + + + + + ~ { ! ' > % = & . . . ",
". . . . + $ ] ^ / . . . . + + + + + + + + + + + + + + + + + + + + + + ~ { ! ' > % = & . . . ",
". . . . + $ ( _ : < . . . + + + + + + + + + + + + + + + + + + + + + + ~ { ! ' > % = & . . . ",
". . . . + $ . . [ } | 1 2 + + + + + + + + + + + + + + + + + + + + + + ~ 3 4 ' > % = & . . . ",
". . . . + $ . . . . 5 6 7 8 + + + + + + + + + + + + + + + + + + 9 0 a b c d e > % = & . . . ",
". . . . + $ . . . . . f g h i j + + + + + + + + + + + + k l m n o p q r s t ' > % = & . . . ",
". . . . + $ . . . . . . . u v w x y + + + + + + z A B C p D E F G k + ~ { ! ' > % = & . . . ",
". . . . + $ . . . . . . . + + H I J + + + + + K L M N O P Q + + + + + ~ { ! ' > % = & . . . ",
". . . . + $ . . . . . . . + + R S T U + + V W X Y Z ` + + + + + + + + ~ { ! ' > % = & . . . ",
". . . . + $ .  .. . . . . + + + + ..+.@.#.$.%.&.+ + + + + + + + + + + ~ { ! ' > % = & . . . ",
". . . . + $ *.=.-.;.>.. . + + + + + ,.'.).!.~.+ + + + + + + + + + + + ~ {.].' > % = & . . . ",
". . . . + $ ^./.(._.:.<.[.}.Z |.O 1.X 2.3.4.+ + + + + + + + + + + + + 5.6.7.8.> % = & . . . ",
". . . . + $ . . . . 9.0.a.b.c.M M d.e.f.g.h.i.+ + + + + + + + + + j.k.l.m.n.' > % = & . . . ",
". . . . + $ . . . . . . . + + o.p.q.+ + i.r.s.f.+ + + + + + + t.u.v.w.x.{ ! ' > % = & . . . ",
". . . . + $ . . . . . . . + + + + + + + + y.z.A.+ + + + + B.C.D.E.F.G.~ { ! ' > % = & . . . ",
". . . . + $ . . . . . . . + + + + + + + + + H.I.J.+ + + K.L.M.N.O.+ + ~ { ! ' > % = & . . . ",
". . . . + $ . . . . . . . + + + + + + + + + + P.+.@.Q.R.S.T.U.+ + + + ~ { ! ' > % = & . . . ",
". . . . + $ . . . . . . . + + + + + + + + + + + V.I W.X.Y.+ + + + + + ~ { ! ' > % = & . . . ",
". . . . + $ . . . . . . . + + + + + + + + + + + Z.v.`.+ + + + + + + + ~ { ! ' > % = & . . . ",
". . . . + $ . . . . . . . + + + + + + + + + + + + + + + + + + + + + + ~ { ! ' > % = & . . . ",
". . . . + $ . . . . . . . + + + + + + + + + + + + + + + + + + + + + + ~ { ! ' > % = & . . . ",
". . . . + $ . . . . . . . + + + + + + + + + + + + + + + + + + + + + + ~ { ! ' > % = & . . . ",
". . . . + $ . . . . . . ~.~ ~ ~ ~ ~ ~ ~ ~ ~ ~ ~ ~ ~ ~ ~ ~ ~ ~ ~ ~ ~ ~ ~ { ! ' > % = & . . . ",
". . . . + $ . . . . . ~. +.+.+.+.+.+.+.+.+.+.+.+.+.+.+.+.+.+.+.+.+.+.+.+ +! ' > % = & . . . ",
". . . . + $ . . . . ) ; ++++++++++++++++++++++++++++++++++++++++++++++++++++@+> % = & . . . ",
". . . . . #+$ $+%+&+*+=+=+=+=+-+-+;+;+>+>+,+,+,+'+'+)+)+!+!+!+~+~+~+{+{+{+{+~+]+^+/+(+. . . ",
". . . . . . { _+:+# <+[+[+[+[+}+}+|+|+1+1+1+2+2+3+3+4+4+4+4+4+# 5+5+5+= = 6+7+8+= #+9+. . . ",
". . . . . . . 0+a+7+7+7+7+7+7+7+7+7+7+7+7+7+7+7+7+7+7+7+7+7+7+7+7+7+7+7+7+7+7+b+c+# & . . . ",
". . . . . . ++4+$ $ $ $ $ $ $ $ $ $ $ $ $ $ $ $ $ $ $ $ $ $ $ $ $ $ $ $ $ $ $ $ #+[+& . . . ",
". . . . . * d+e+e+e+e+e+e+e+e+e+e+e+e+e+e+e+e+e+e+e+e+e+e+e+e+e+e+e+e+e+e+e+e+e+e+f+g+. . . "};
