/* XPM */
static char * pie_chart_xpm[] = {
"46 40 367 2",
"  	c #FFFFFF",
". 	c #E6E6E6",
"+ 	c #D7D7D7",
"@ 	c #CACACA",
"# 	c #D2D2D3",
"$ 	c #E7E7E7",
"% 	c #F5F5F5",
"& 	c #F7F7F7",
"* 	c #C3C3C3",
"= 	c #B5B3B2",
"- 	c #B4B4B4",
"; 	c #B5B4B3",
"> 	c #BEB0A4",
", 	c #BBB0A9",
"' 	c #ADB2B4",
") 	c #9EAFBA",
"! 	c #AAB4BA",
"~ 	c #B2B5B7",
"{ 	c #B8B9B9",
"] 	c #E1E1E1",
"^ 	c #FEFEFE",
"/ 	c #FBFBFB",
"( 	c #B4B2B1",
"_ 	c #AEAEAE",
": 	c #BBA99C",
"< 	c #E1985F",
"[ 	c #FF8926",
"} 	c #FF8004",
"| 	c #FF7F01",
"1 	c #D69D70",
"2 	c #9EA9B0",
"3 	c #659EC3",
"4 	c #669EC3",
"5 	c #73A0BE",
"6 	c #8BA6B8",
"7 	c #A4ACB2",
"8 	c #CDCECE",
"9 	c #C5C5C5",
"0 	c #B9B9B9",
"a 	c #A7A7A7",
"b 	c #B6A08F",
"c 	c #F68731",
"d 	c #FF7A01",
"e 	c #D09668",
"f 	c #99A3A8",
"g 	c #6198BC",
"h 	c #779DB5",
"i 	c #A0A7AC",
"j 	c #DCDCDC",
"k 	c #D8D8D8",
"l 	c #ADADAD",
"m 	c #A9A7A6",
"n 	c #A7A19D",
"o 	c #DE8A48",
"p 	c #FF7703",
"q 	c #FF7701",
"r 	c #CD9062",
"s 	c #989FA3",
"t 	c #5E94B6",
"u 	c #5F94B6",
"v 	c #7F9AAD",
"w 	c #A2A2A2",
"x 	c #E3E3E3",
"y 	c #C7C7C7",
"z 	c #A19F9E",
"A 	c #A59B92",
"B 	c #F27B1F",
"C 	c #FF7401",
"D 	c #CA8C5C",
"E 	c #969B9E",
"F 	c #5C90B2",
"G 	c #6E94AD",
"H 	c #9D9FA0",
"I 	c #AFB0B0",
"J 	c #ECECEC",
"K 	c #9E9B99",
"L 	c #A5958A",
"M 	c #F07617",
"N 	c #FF7001",
"O 	c #C58756",
"P 	c #929698",
"Q 	c #598CAC",
"R 	c #638EA9",
"S 	c #979A9B",
"T 	c #B4B5B5",
"U 	c #FDFDFD",
"V 	c #F0F0F0",
"W 	c #E2E2E2",
"X 	c #A7A6A6",
"Y 	c #9B9591",
"Z 	c #EA7214",
"` 	c #F66D01",
" .	c #F86D01",
"..	c #C28452",
"+.	c #8F9294",
"@.	c #5788A8",
"#.	c #678BA3",
"$.	c #919292",
"%.	c #B8B8B8",
"&.	c #EAEAEA",
"*.	c #9A9A9A",
"=.	c #D77C34",
"-.	c #F56C01",
";.	c #F26B01",
">.	c #C0804D",
",.	c #8D9091",
"'.	c #5585A4",
").	c #5484A3",
"!.	c #6D889A",
"~.	c #8A8A8A",
"{.	c #D2D2D2",
"].	c #9F9D9C",
"^.	c #BF8A62",
"/.	c #FA6E01",
"(.	c #F16A00",
"_.	c #C17E49",
":.	c #8E9090",
"<.	c #5383A1",
"[.	c #5381A0",
"}.	c #80898F",
"|.	c #9A9B9B",
"1.	c #C6C6C6",
"2.	c #9E9D9C",
"3.	c #F47614",
"4.	c #C27D47",
"5.	c #8E8F8F",
"6.	c #5281A0",
"7.	c #608196",
"8.	c #868686",
"9.	c #A3A19F",
"0.	c #C08E66",
"a.	c #FF7101",
"b.	c #C47C44",
"c.	c #8F8F8F",
"d.	c #507E9B",
"e.	c #7B848B",
"f.	c #979898",
"g.	c #EDEDED",
"h.	c #A0A0A0",
"i.	c #EF7B21",
"j.	c #C67B41",
"k.	c #909090",
"l.	c #677F90",
"m.	c #818282",
"n.	c #D1D1D1",
"o.	c #C2C2C2",
"p.	c #A69E96",
"q.	c #FF7402",
"r.	c #C87A3E",
"s.	c #547B95",
"t.	c #818181",
"u.	c #B6B6B6",
"v.	c #ADABA9",
"w.	c #C2936E",
"x.	c #FF7301",
"y.	c #CA7A3C",
"z.	c #919191",
"A.	c #4E7A96",
"B.	c #7B8186",
"C.	c #9E9E9E",
"D.	c #A4A3A2",
"E.	c #DA8949",
"F.	c #CC7939",
"G.	c #5584A3",
"H.	c #6F7E86",
"I.	c #939394",
"J.	c #A3A3A3",
"K.	c #E4843B",
"L.	c #CE7835",
"M.	c #5685A3",
"N.	c #6A7C88",
"O.	c #888989",
"P.	c #C3926B",
"Q.	c #CD8953",
"R.	c #C88855",
"S.	c #C18657",
"T.	c #BB8357",
"U.	c #B88359",
"V.	c #B5835B",
"W.	c #B2835D",
"X.	c #B18460",
"Y.	c #B08563",
"Z.	c #AD8565",
"`.	c #AB8669",
" +	c #AA886C",
".+	c #A8896F",
"++	c #A68A71",
"@+	c #9E8E7F",
"#+	c #939290",
"$+	c #63879F",
"%+	c #657B8A",
"&+	c #838485",
"*+	c #A4A4A3",
"=+	c #A6A39A",
"-+	c #A9A390",
";+	c #AAA38C",
">+	c #A9A187",
",+	c #A79F82",
"'+	c #A79F7F",
")+	c #A89F7C",
"!+	c #AAA17A",
"~+	c #ACA378",
"{+	c #AFA677",
"]+	c #B1A875",
"^+	c #B3A973",
"/+	c #B5AA71",
"(+	c #B7AC6F",
"_+	c #BAAE6E",
":+	c #BCAF6C",
"<+	c #A29D82",
"[+	c #909291",
"}+	c #67889D",
"|+	c #667C8A",
"1+	c #808182",
"2+	c #A5A5A2",
"3+	c #DBCA6C",
"4+	c #FFEF36",
"5+	c #FFEC36",
"6+	c #FFE734",
"7+	c #FFE233",
"8+	c #FFDF33",
"9+	c #FEDE32",
"0+	c #F9DB37",
"a+	c #708A9B",
"b+	c #6B7C87",
"c+	c #8A8B8C",
"d+	c #A5A4A1",
"e+	c #CDC078",
"f+	c #FDDD33",
"g+	c #C1B367",
"h+	c #798C98",
"i+	c #5584A2",
"j+	c #717E86",
"k+	c #969696",
"l+	c #A6A5A5",
"m+	c #BCB488",
"n+	c #D2BF59",
"o+	c #929290",
"p+	c #838F95",
"q+	c #5885A2",
"r+	c #7E8285",
"s+	c #B7B7B7",
"t+	c #A1A19F",
"u+	c #FFE93E",
"v+	c #E0C94C",
"w+	c #95948C",
"x+	c #8A9092",
"y+	c #5C85A0",
"z+	c #587C94",
"A+	c #BDBDBD",
"B+	c #F4F4F4",
"C+	c #A1A09F",
"D+	c #E3CE5F",
"E+	c #ECD142",
"F+	c #9C9A87",
"G+	c #8F9291",
"H+	c #62879F",
"I+	c #6A808E",
"J+	c #838484",
"K+	c #D4D4D4",
"L+	c #B9B085",
"M+	c #F5D83B",
"N+	c #A7A17D",
"O+	c #6A899C",
"P+	c #517E9A",
"Q+	c #80868A",
"R+	c #9FA0A0",
"S+	c #BCBCBC",
"T+	c #9D9D9D",
"U+	c #EFD550",
"V+	c #FBDC35",
"W+	c #B6AC71",
"X+	c #738B9A",
"Y+	c #678294",
"Z+	c #CDCDCD",
"`+	c #9F9E9C",
" @	c #ABA68C",
".@	c #FFE536",
"+@	c #FEDE33",
"@@	c #C7B762",
"#@	c #7D8D97",
"$@	c #5584A1",
"%@	c #5482A0",
"&@	c #878B8E",
"*@	c #A7A8A8",
"=@	c #CFCFCF",
"-@	c #9B9A99",
";@	c #D1C065",
">@	c #D7C355",
",@	c #93928F",
"'@	c #848E93",
")@	c #7A8A95",
"!@	c #8C8C8C",
"~@	c #A4A3A3",
"{@	c #989796",
"]@	c #DFC853",
"^@	c #E4CC48",
"/@	c #95948D",
"(@	c #91908C",
"_@	c #9A9A98",
":@	c #969693",
"<@	c #E0C94E",
"[@	c #D2BF58",
"}@	c #90908F",
"|@	c #A3A3A2",
"1@	c #F1F1F1",
"2@	c #F8F8F8",
"3@	c #969594",
"4@	c #959490",
"5@	c #D4C056",
"6@	c #D1BE5A",
"7@	c #919190",
"8@	c #F9F9F9",
"9@	c #A0A09F",
"0@	c #B0A773",
"a@	c #F2D63A",
"b@	c #FBDC32",
"c@	c #EED33D",
"d@	c #ADA475",
"e@	c #A5A5A5",
"f@	c #B5B5B5",
"g@	c #8D8D8B",
"h@	c #939187",
"i@	c #C0B15E",
"j@	c #ECD038",
"k@	c #F6D731",
"l@	c #EACF3A",
"m@	c #908F89",
"n@	c #8F8E8C",
"o@	c #F6F6F6",
"p@	c #FAFAFA",
"q@	c #DADADA",
"r@	c #989898",
"s@	c #888887",
"t@	c #898987",
"u@	c #ACA168",
"v@	c #C7B451",
"w@	c #DBC33E",
"x@	c #ECCE30",
"y@	c #EDCF2F",
"z@	c #EACD32",
"A@	c #DAC141",
"B@	c #A59D6D",
"C@	c #9C9C9C",
"D@	c #E9E9E9",
"E@	c #D0D0D0",
"F@	c #858582",
"G@	c #818180",
"H@	c #83827E",
"I@	c #86857D",
"J@	c #87857D",
"K@	c #87857B",
"L@	c #828280",
"M@	c #868684",
"N@	c #CBCBCB",
"O@	c #959595",
"P@	c #B1B1B1",
"Q@	c #CECECE",
"R@	c #DBDBDB",
"S@	c #DEDEDE",
"T@	c #D6D6D6",
"U@	c #F3F3F3",
"V@	c #C4C4C4",
"W@	c #BEBEBE",
"X@	c #ACACAC",
"Y@	c #9B9B9B",
"Z@	c #A4A4A4",
"                                                                                            ",
"                                        . + @ # $ %                                         ",
"                                & * = - ; > , ' ) ! ~ - { ]                         ^       ",
"                            / ( _ : < [ } | 1 2 3 3 4 5 6 7 _ 8                     9       ",
"                          0 a b c d d d d d e f g g g g g g h i a j               k l       ",
"                        m n o p q q q q q q r s t t t t t t t u v w *           x y l       ",
"                    / z A B C C C C C C C C D E F F F F F F F F F G H I       J k y l       ",
"                    K L M N N N N N N N N N O P Q Q Q Q Q Q Q Q Q Q R S T U V W k y l       ",
"                  X Y Z `  . . . . . . . . ...+.@.@.@.@.@.@.@.@.@.@.@.#.$.%.&.W k y l       ",
"                @ *.=.-.;.;.;.;.;.;.;.;.;.;.>.,.'.'.'.'.'.'.'.'.'.'.'.).!.~.{.W k y l       ",
"                ].^./.-.;.(.(.(.(.(.(.(.(.(._.:.).).).).).).).).).).).<.[.}.|.W k y l       ",
"              1.2.3./.-.;.(.(.(.(.(.(.(.(.(.4.5.).).).).).).).).).).).<.6.7.8.* k y l       ",
"              9.0.a./.-.;.(.(.(.(.(.(.(.(.(.b.c.).).).).).).).).).).).<.6.d.e.f.k y l       ",
"            g.h.i.a./.-.;.(.(.(.(.(.(.(.(.(.j.k.).).).).).).).).).).).<.6.d.l.m.n.y l       ",
"            o.p.q.a./.-.;.(.(.(.(.(.(.(.(.(.r.k.).).).).).).).).).).).<.6.d.s.t.u.y l       ",
"            v.w.x.a./.-.;.(.(.(.(.(.(.(.(.(.y.z.).).).).).).).).).).).<.6.d.A.B.C.y l       ",
"            D.E.x.a./.-.;.(.(.(.(.(.(.(.(.(.F.z.G.).).).).).).).).).).<.6.d.A.H.I.y l       ",
"            J.K.x.a./.-.;.(.(.(.(.(.(.(.(.(.L.z.M.).).).).).).).).).).<.6.d.A.N.O.y l       ",
"            J.P.Q.R.S.T.U.V.W.X.Y.Z.`. +.+++@+#+$+).).).).).).).).).).<.6.d.A.%+&+y l       ",
"            *+=+-+;+>+,+'+)+!+~+{+]+^+/+(+_+:+<+[+}+).).).).).).).).).<.6.d.A.|+1+y l       ",
"            2+3+4+5+6+7+8+9+9+9+9+9+9+9+9+9+9+0+]+z.a+).).).).).).).).<.6.d.A.b+c+y l       ",
"            d+e+4+5+6+7+8+9+9+9+9+9+9+9+9+9+9+9+f+g+z.h+i+).).).).).).<.6.d.A.j+k+y l       ",
"            l+m+4+5+6+7+8+9+9+9+9+9+9+9+9+9+9+9+9+9+n+o+p+q+).).).).).<.6.d.A.r+w y l       ",
"            s+t+u+5+6+7+8+9+9+9+9+9+9+9+9+9+9+9+9+9+9+v+w+x+y+).).).).<.6.d.z+t.A+y l       ",
"            B+C+D+5+6+7+8+9+9+9+9+9+9+9+9+9+9+9+9+9+9+9+E+F+G+H+).).).<.6.d.I+J+K+y l       ",
"              t+L+5+6+7+8+9+9+9+9+9+9+9+9+9+9+9+9+9+9+9+9+M+N+z.O+).).<.6.P+Q+R+k y l       ",
"              S+T+U+6+7+8+9+9+9+9+9+9+9+9+9+9+9+9+9+9+9+9+9+V+W+z.X+).<.6.Y+8.Z+k y l       ",
"                `+ @.@7+8+9+9+9+9+9+9+9+9+9+9+9+9+9+9+9+9+9+9++@@@z.#@$@%@&@*@W k y l       ",
"                =@-@;@7+8+9+9+9+9+9+9+9+9+9+9+9+9+9+9+9+9+9+9+9+9+>@,@'@)@!@j W k y l       ",
"                  ~@{@]@8+9+9+9+9+9+9+9+9+9+9+9+9+9+9+9+9+9+9+9+9+9+^@/@(@@ &.W k y l       ",
"                    _@:@<@9+9+9+9+9+9+9+9+9+9+9+9+9+9+9+9+9+9+9+9+9+[@}@|@1@&.W k y l       ",
"                    2@3@4@5@9+9+9+9+9+9+9+9+9+9+9+9+9+9+9+9+9+9+9+6@7@T+& 1@&.W k y l       ",
"                      8@9@k.0@a@b@b@b@b@b@b@b@b@b@b@b@b@b@b@b@c@d@k.e@/ 2@1@&.W k y l       ",
"                      U & f@g@h@i@j@k@k@k@k@k@k@k@k@k@k@k@l@i@m@n@A+o@o@& 1@&.W k y l       ",
"                    p@V g.g.q@r@s@t@u@v@w@x@y@y@y@z@A@v@B@s@s@C@W g.g.g.g.g.D@W k y l       ",
"                  2@D@W W W W W E@T+F@G@t.H@I@J@K@L@t.t.M@w K+W W W W W W x . W k y l       ",
"                o@W k k k k k k k k k N@l C@O@z.O@C.P@Q@k k k k k k k k k k R@S@T@y l       ",
"              U@T@@ @ @ @ @ @ @ @ @ @ @ @ @ @ @ @ @ @ @ @ @ @ @ @ @ @ @ @ @ @ Z+n.9 l       ",
"            g.V@f@f@f@f@f@f@f@f@f@f@f@f@f@f@f@f@f@f@f@f@f@f@f@f@f@f@f@f@f@f@f@f@0 W@l       ",
"          x X@O@O@O@O@O@O@O@O@O@O@O@O@O@O@O@O@O@O@O@O@O@O@O@O@O@O@O@O@O@O@O@O@O@O@Y@Z@      "};
