/* XPM */
static char * scatterplot_sel_xpm[] = {
"46 40 84 1",
" 	c None",
".	c #FF7401",
"+	c #FFFFFF",
"@	c #ABABAB",
"#	c #C5C5C5",
"$	c #A6A6A6",
"%	c #D8D8D8",
"&	c #ADADAD",
"*	c #ADCDE1",
"=	c #6799BB",
"-	c #E3E3E3",
";	c #C7C7C7",
">	c #6596B6",
",	c #5C90B2",
"'	c #6392B2",
")	c #ECECEC",
"!	c #A4C1D4",
"~	c #6191B1",
"{	c #608FAF",
"]	c #9CB8CA",
"^	c #F0F0F0",
"/	c #E2E2E2",
"(	c #5F8DAC",
"_	c #5788A8",
":	c #FEFEFE",
"<	c #F4F4F4",
"[	c #EAEAEA",
"}	c #5D8AA8",
"|	c #FAFAFA",
"1	c #F1F1F1",
"2	c #9BB7C9",
"3	c #5C89A7",
"4	c #FBFBFB",
"5	c #F8F8F8",
"6	c #5484A3",
"7	c #FDFEFE",
"8	c #FCFCFD",
"9	c #FDFDFD",
"0	c #A5C2D5",
"a	c #608FAE",
"b	c #9EBACD",
"c	c #6292B1",
"d	c #5889AA",
"e	c #5E8CAA",
"f	c #F7F7F7",
"g	c #F6F6F6",
"h	c #EDEDED",
"i	c #E9E9E9",
"j	c #BABABA",
"k	c #B4B4B4",
"l	c #B1B1B1",
"m	c #A8A8A8",
"n	c #9D9D9D",
"o	c #939393",
"p	c #8D8D8D",
"q	c #8C8C8C",
"r	c #8B8B8B",
"s	c #8A8A8A",
"t	c #898989",
"u	c #888888",
"v	c #878787",
"w	c #868686",
"x	c #858585",
"y	c #848484",
"z	c #828282",
"A	c #7C7C7C",
"B	c #727272",
"C	c #686868",
"D	c #EBEBEB",
"E	c #D7D7D7",
"F	c #BDBDBD",
"G	c #BEBEBE",
"H	c #BFBFBF",
"I	c #C0C0C0",
"J	c #C1C1C1",
"K	c #C2C2C2",
"L	c #C3C3C3",
"M	c #C4C4C4",
"N	c #C6C6C6",
"O	c #C8C8C8",
"P	c #CACACA",
"Q	c #CECECE",
"R	c #B9B9B9",
"S	c #A3A3A3",
"..............................................",
"..............................................",
"..............................................",
"...++@++++++++++++++++++++++++++++++++++++#...",
"...++$+++++++++++++++++++++++++++++++++++%&...",
"...++$+++++++++++++++++++++++++++++*=*++-;&...",
"...++$+++++++++++++++++++++++++++++>,'+)%;&...",
"...++$+++++++++++++++++++++++++!~!+!{]^/%;&...",
"...++$+++++++++++++++++++++++++(_(++:<[/%;&...",
"...++$+++++++++++++++++++++++++]}]+:|1[/%;&...",
"...++$+++++++::::::::::::::::::232:451[/%;&...",
"...++$+++++++::::::::::::::::23363:451[/%;&...",
"...++$+++++++::::::::::::232:36232:451[/%;&...",
"...++$+++++++::::::::::::363:232:::451[/%;&...",
"...++$+++++++::::::::::::2322::::::451[/%;&...",
"...++$+++++++::::::::23232363232:::451[/%;&...",
"...++$+++++++::::::::36363232363:::451[/%;&...",
"...++$+++++++::::::::23222363232:::451[/%;&...",
"...++$+++++++:::::::233632232::::::451[/%;&...",
"...++$+++++++:::::::36232363:::::::451[/%;&...",
"...++$+++++++:::232:232:2232:::::::451[/%;&...",
"...++$+++++++:::363:::::363::::::::451[/%;&...",
"...++$+++++++:::232::232232::::::::451[/%;&...",
"...++$+++++++::::::::3637::::::::::451[/%;&...",
"...++$++++++]32::232:232:::::::::::451[/%;&...",
"...++$++++++}63::363:::8::9::::::::451[/%;&...",
"...++$++++++]32::232:::::::::::::::451[/%;&...",
"...++$+++++++::::::::::::::::::::::451[/%;&...",
"...++$+++++++232:::::::::::::::::::451[/%;&...",
"...++$+++0ab+363:::::::::::::::::::451[/%;&...",
"...++$+++cde+232:::::::::::::::::::451[/%;&...",
"...++$+++0ab+::::::::::::::::::::::451[/%;&...",
"...++$++++++94444444444444444444444451[/%;&...",
"...++$+++++9fgggggggggggggggggggggggf1[/%;&...",
"...++$++++|^hhhhhhhhhhhhhhhhhhhhhhhhhhi/%;&...",
"...++jklmnoppppqqqrrstttuuvvwwwxxxxyyyxzABC...",
"...+++5DE#FGGGGHHHIIJJKKLLMMMMM##NN;;OPQ;RS...",
"..............................................",
"..............................................",
".............................................."};
