/* XPM */
static char * sofastats_32_xpm[] = {
"32 32 316 2",
"  	c None",
". 	c #635A53",
"+ 	c #5D5249",
"@ 	c #60534B",
"# 	c #62544C",
"$ 	c #63564D",
"% 	c #665950",
"& 	c #665951",
"* 	c #64574E",
"= 	c #65584F",
"- 	c #675A50",
"; 	c #685B51",
"> 	c #695C52",
", 	c #695C53",
"' 	c #665B51",
") 	c #4A413B",
"! 	c #5D5554",
"~ 	c #5F554C",
"{ 	c #5C5149",
"] 	c #5D5149",
"^ 	c #5F524A",
"/ 	c #61544B",
"( 	c #63574E",
"_ 	c #6B5D53",
": 	c #716358",
"< 	c #75675C",
"[ 	c #786A5F",
"} 	c #72665B",
"| 	c #453C36",
"1 	c #625853",
"2 	c #9D928D",
"3 	c #69605C",
"4 	c #5B5049",
"5 	c #594E47",
"6 	c #5B5048",
"7 	c #5B5147",
"8 	c #5E534A",
"9 	c #5E544B",
"0 	c #5F544B",
"a 	c #62554C",
"b 	c #6C5F56",
"c 	c #726459",
"d 	c #786A5E",
"e 	c #6C6054",
"f 	c #423932",
"g 	c #736864",
"h 	c #72655D",
"i 	c #584F49",
"j 	c #302B28",
"k 	c #2F2926",
"l 	c #2D2724",
"m 	c #2B2522",
"n 	c #27231F",
"o 	c #24201D",
"p 	c #3B342F",
"q 	c #544943",
"r 	c #574C45",
"s 	c #594F45",
"t 	c #594F46",
"u 	c #5A5047",
"v 	c #5B5148",
"w 	c #61554C",
"x 	c #655850",
"y 	c #675A52",
"z 	c #6F6157",
"A 	c #73665C",
"B 	c #3B322C",
"C 	c #494243",
"D 	c #403A38",
"E 	c #26221E",
"F 	c #171411",
"G 	c #181411",
"H 	c #171310",
"I 	c #14100D",
"J 	c #100E0B",
"K 	c #1C1A14",
"L 	c #403831",
"M 	c #4C433C",
"N 	c #514640",
"O 	c #554B44",
"P 	c #554C44",
"Q 	c #594F47",
"R 	c #5A5148",
"S 	c #5C5248",
"T 	c #655A52",
"U 	c #726661",
"V 	c #786D68",
"W 	c #726662",
"X 	c #6C5F58",
"Y 	c #665A53",
"Z 	c #574C46",
"` 	c #524842",
" .	c #716762",
"..	c #756A64",
"+.	c #38302D",
"@.	c #2F2724",
"#.	c #201A18",
"$.	c #13110D",
"%.	c #13100D",
"&.	c #130F0D",
"*.	c #120E0B",
"=.	c #0F0B08",
"-.	c #0C0906",
";.	c #13110C",
">.	c #2A2520",
",.	c #38312C",
"'.	c #413A33",
").	c #484039",
"!.	c #4D433D",
"~.	c #52483F",
"{.	c #554B42",
"].	c #574D45",
"^.	c #695E56",
"/.	c #74685C",
"(.	c #726559",
"_.	c #493F37",
":.	c #4A3D35",
"<.	c #4D4138",
"[.	c #4C423A",
"}.	c #4B4038",
"|.	c #4B4037",
"1.	c #4A3E35",
"2.	c #51473E",
"3.	c #3C312B",
"4.	c #312722",
"5.	c #1A1611",
"6.	c #0D0C08",
"7.	c #100E0C",
"8.	c #16120F",
"9.	c #1E1916",
"0.	c #28231F",
"a.	c #2F2925",
"b.	c #2F2825",
"c.	c #2B241F",
"d.	c #29221D",
"e.	c #27221D",
"f.	c #29241E",
"g.	c #2E2822",
"h.	c #342D27",
"i.	c #38312B",
"j.	c #3C3430",
"k.	c #38302F",
"l.	c #39302D",
"m.	c #403531",
"n.	c #3A3029",
"o.	c #473B32",
"p.	c #4B3E36",
"q.	c #493C34",
"r.	c #52463D",
"s.	c #3D2F28",
"t.	c #31251F",
"u.	c #25211D",
"v.	c #2B2622",
"w.	c #3B332E",
"x.	c #524741",
"y.	c #645952",
"z.	c #736660",
"A.	c #7F716A",
"B.	c #7D6F67",
"C.	c #6C5E58",
"D.	c #5F524C",
"E.	c #564B44",
"F.	c #4F443F",
"G.	c #48403A",
"H.	c #3B332D",
"I.	c #382F2A",
"J.	c #322723",
"K.	c #2D231D",
"L.	c #2D221C",
"M.	c #362B26",
"N.	c #453830",
"O.	c #483B32",
"P.	c #493C33",
"Q.	c #483B33",
"R.	c #52463E",
"S.	c #403028",
"T.	c #35281F",
"U.	c #3C322E",
"V.	c #3E3534",
"W.	c #3E3634",
"X.	c #403735",
"Y.	c #443B37",
"Z.	c #49403B",
"`.	c #4D443F",
" +	c #534945",
".+	c #5B504A",
"++	c #62554E",
"@+	c #6C5F57",
"#+	c #6E6159",
"$+	c #6A5F55",
"%+	c #665A52",
"&+	c #574A44",
"*+	c #342821",
"=+	c #31241C",
"-+	c #2E231B",
";+	c #342921",
">+	c #42352B",
",+	c #45382F",
"'+	c #463930",
")+	c #463931",
"!+	c #473A31",
"~+	c #413229",
"{+	c #32261E",
"]+	c #382B21",
"^+	c #392A22",
"/+	c #382A22",
"(+	c #372922",
"_+	c #362922",
":+	c #352922",
"<+	c #332821",
"[+	c #342923",
"}+	c #362B24",
"|+	c #382E2A",
"1+	c #3C332E",
"2+	c #453B36",
"3+	c #5C4F47",
"4+	c #372A21",
"5+	c #30231A",
"6+	c #2C2118",
"7+	c #332820",
"8+	c #403229",
"9+	c #43362D",
"0+	c #50433B",
"a+	c #3E3026",
"b+	c #382921",
"c+	c #39281F",
"d+	c #382920",
"e+	c #36281F",
"f+	c #35271E",
"g+	c #34261D",
"h+	c #34261C",
"i+	c #33261D",
"j+	c #30241D",
"k+	c #2F231D",
"l+	c #2D231F",
"m+	c #31261F",
"n+	c #31231A",
"o+	c #2E2118",
"p+	c #2A1F17",
"q+	c #30251D",
"r+	c #3E3128",
"s+	c #40332A",
"t+	c #41342B",
"u+	c #42352C",
"v+	c #51453C",
"w+	c #48362C",
"x+	c #463428",
"y+	c #37271D",
"z+	c #3A2920",
"A+	c #35241B",
"B+	c #33231B",
"C+	c #33241B",
"D+	c #32241A",
"E+	c #32251C",
"F+	c #32251B",
"G+	c #30221A",
"H+	c #302319",
"I+	c #2E2017",
"J+	c #2F2219",
"K+	c #2D2016",
"L+	c #291E15",
"M+	c #2E231A",
"N+	c #3B2E23",
"O+	c #3C2F26",
"P+	c #3D3026",
"Q+	c #3E3027",
"R+	c #3F3229",
"S+	c #4B3F36",
"T+	c #BD947A",
"U+	c #7F6150",
"V+	c #544941",
"W+	c #4D3E34",
"X+	c #43332A",
"Y+	c #3C2B23",
"Z+	c #302118",
"`+	c #322317",
" @	c #312218",
".@	c #2F2217",
"+@	c #2F2117",
"@@	c #302219",
"#@	c #2D2017",
"$@	c #2C1F15",
"%@	c #271D13",
"&@	c #2B2016",
"*@	c #37291D",
"=@	c #382A1F",
"-@	c #37291E",
";@	c #36281D",
">@	c #35281C",
",@	c #45382B",
"'@	c #4A3B33",
")@	c #41342F",
"!@	c #3E2F26",
"~@	c #37291C",
"{@	c #392C22",
"]@	c #2D1F16",
"^@	c #2C1F16",
"/@	c #2A1D13",
"(@	c #271C11",
"_@	c #2A1E14",
":@	c #312318",
"<@	c #302217",
"[@	c #33261B",
"}@	c #342418",
"|@	c #513D2D",
"1@	c #372921",
"2@	c #2E2119",
"3@	c #25180D",
"4@	c #3D3128",
"5@	c #463D36",
"6@	c #59443A",
"7@	c #A37F66",
"8@	c #8D674D",
"9@	c #745A49",
"0@	c #D5AD8C",
"a@	c #C59B7A",
"                                                                ",
"                                                                ",
"                                                                ",
"                                                                ",
"                                                                ",
"                                                                ",
"                                                                ",
"                                                                ",
"                        . + @ # $ % & * = - ; ; > , ' ) !       ",
"                        ~ { ] ^ / $ ( $ % % _ : < [ } | 1       ",
"        2             3 4 5 6 7 8 9 0 a = = ; b c d e f         ",
"    g h i j k l m n o p q r s t u v + / w x y , z A u B         ",
"    C D E F G F H I J K L M N O P Q R S T U V W X Y Z `  ...    ",
"    +.@.#.$.%.&.*.=.-.;.>.,.'.).!.~.{.].^./.(._.:.<.[.}.|.1.2.  ",
"    3.4.5.6.7.8.9.0.a.b.c.d.e.f.g.h.i.j.k.l.m.n.o.:.p.:.q.:.r.  ",
"    s.t.u.v.w.x.y.z.A.B.C.D.E.F.G.'.H.I.J.K.L.M.N.O.P.P.Q.q.R.  ",
"    S.T.U.V.W.X.Y.Z.`. +.+++, @+#+$+%+&+*+=+-+;+>+,+'+'+)+!+r.  ",
"    ~+{+]+^+/+(+_+:+<+*+[+}+|+1+2+F.0 3+4+5+6+7+8+9+9+,+,+,+0+  ",
"    a+=+b+c+c+d+e+f+g+g+g+h+i+j+k+K.l+m+n+o+p+q+r+s+t+u+u+9+v+  ",
"    w+x+y+z+A+B+C+C+D+D+D+E+F+5+G+H+o+I+J+K+L+M+N+O+P+P+Q+R+S+  ",
"      T+U+  V+W+X+Y+C+Z+`+ @.@+@@@5+#@#@o+$@%@&@*@=@-@-@;@>@,@  ",
"                      '@)@!@~@{@T.E+J+]@^@/@(@_@:@<@[@i+}@|@    ",
"                                        1@2@3@L+4@5@    6@      ",
"                                          7@8@9@                ",
"                                          0@a@                  ",
"                                                                ",
"                                                                ",
"                                                                ",
"                                                                ",
"                                                                ",
"                                                                ",
"                                                                "};
