/* XPM */
static char * upgrade_xpm[] = {
"21 21 93 2",
"  	c #0D0D0D",
". 	c #0F160E",
"+ 	c #163C12",
"@ 	c #1D6316",
"# 	c #217B19",
"$ 	c #1B5915",
"% 	c #143211",
"& 	c #0E110D",
"* 	c #132D11",
"= 	c #28A11D",
"- 	c #30CB22",
"; 	c #30CD22",
"> 	c #2FC821",
", 	c #24881B",
"' 	c #0F1B0E",
") 	c #0D0F0D",
"! 	c #1D6617",
"~ 	c #2DBA20",
"{ 	c #174513",
"] 	c #0D0E0D",
"^ 	c #26951C",
"/ 	c #6FDC66",
"( 	c #D4F5D2",
"_ 	c #4AD33E",
": 	c #1C5E16",
"< 	c #4CD440",
"[ 	c #F7FDF6",
"} 	c #FDFFFD",
"| 	c #DBF6D9",
"1 	c #36CE28",
"2 	c #2FC922",
"3 	c #122810",
"4 	c #2FC521",
"5 	c #36CF29",
"6 	c #DEF7DC",
"7 	c #FBFEFB",
"8 	c #FFFFFF",
"9 	c #F9FEF9",
"0 	c #AFECA9",
"a 	c #2AAC1E",
"b 	c #0E120D",
"c 	c #25931C",
"d 	c #B2EDAD",
"e 	c #FCFEFC",
"f 	c #7BDF73",
"g 	c #2EC121",
"h 	c #80E077",
"i 	c #FAFEFA",
"j 	c #54D648",
"k 	c #25921B",
"l 	c #57D64C",
"m 	c #FBFEFA",
"n 	c #E6F9E4",
"o 	c #3BD02D",
"p 	c #2CB920",
"q 	c #194F14",
"r 	c #CCF3C9",
"s 	c #FEFFFE",
"t 	c #F8FDF8",
"u 	c #F8FDF7",
"v 	c #94E58C",
"w 	c #101F0F",
"x 	c #1C6116",
"y 	c #5AD74F",
"z 	c #84E17C",
"A 	c #45D239",
"B 	c #133011",
"C 	c #D4F5D1",
"D 	c #0F170E",
"E 	c #29A51E",
"F 	c #2AAE1F",
"G 	c #227E19",
"H 	c #2FCA22",
"I 	c #143411",
"J 	c #279E1D",
"K 	c #1F7018",
"L 	c #122610",
"M 	c #2EC421",
"N 	c #E0F8DE",
"O 	c #ACEBA7",
"P 	c #29A91E",
"Q 	c #164013",
"R 	c #28A31D",
"S 	c #0F1A0E",
"T 	c #2FC822",
"U 	c #1D6717",
"V 	c #164113",
"W 	c #207518",
"X 	c #279C1D",
"Y 	c #2EC221",
"Z 	c #25921C",
"` 	c #1E6B17",
" .	c #132D10",
"              . + @ # $ % &               ",
"          * = - ; ; ; ; ; > , '           ",
"      ) ! > ; ; ; ; ; ; ; ; ; ~ {         ",
"    ] ^ ; ; ; ; ; / ( _ ; ; ; ; ; !       ",
"    : ; ; ; ; ; < [ } | 1 ; ; ; ; 2 %     ",
"  3 4 ; ; ; ; 5 6 7 8 9 0 ; ; ; ; ; a b   ",
"  c ; ; ; ; ; d 9 8 8 8 e f ; ; ; ; ; @   ",
"] g ; ; ; ; h 7 8 8 8 8 8 i j ; ; ; ; k   ",
"3 ; ; ; ; l m 8 8 8 8 8 8 e n o ; ; ; p   ",
"q ; ; ; ; r s [ t 8 8 8 u u 8 v ; ; ; ; w ",
"x ; ; ; ; y z z 8 8 8 8 n z z A ; ; ; ; B ",
"+ ; ; ; ; ; ; ; 8 8 8 8 C ; ; ; ; ; ; > & ",
"D - ; ; ; ; ; ; 8 8 8 8 C ; ; ; ; ; ; E   ",
"  F ; ; ; ; ; ; 8 8 8 8 C ; ; ; ; ; ; G   ",
"  x ; ; ; ; ; ; 8 8 8 8 C ; ; ; ; ; H I   ",
"  ] J ; ; ; ; ; 8 8 8 8 C ; ; ; ; ; K     ",
"    L M ; ; ; ; N 8 8 8 O ; ; ; ; P &     ",
"      Q p ; ; ; ; ; ; ; ; ; ; ; R L       ",
"        S , ; ; ; ; ; ; ; ; T U )         ",
"            V W X Y ; p Z `  .            ",
"                  ] '                     "};
