/* XPM */
static char * xls_with_header_xpm[] = {
"188 70 7 1",
" 	c None",
".	c #ACA899",
"+	c #716F64",
"@	c #EFEDDE",
"#	c #000000",
"$	c #FFFFFF",
"%	c #C0C0C0",
"............................................................................................................................................................................................",
".+++++++++++++++++++++++++++++++++++++++++++++++++++++++++++++++++++++++++++++++++++++++++++++++++++++++++++++++++++++++++++++++++++++++++++++++++++++++++++++++++++++++++++++++++++++++++++",
".+@@@@@@@@@@@@@@@@@@@@@@@@@.@@@@@@@@@@@@@@@@@@@@@@@@@@@@@@@@@@@@@@@@@@@@@@@@@@@@@@@@@@@@@@@@@@@@@@.@@@@@@@@@@@@@@@@@@@@@@@@@@@@@@@@@@@@@@@@@@@@@@@@@@@@@@@@@@.@@@@@@@@@@@@@@@@@@@@@@@@@@@@@.",
".+@@@@@@@@@@@@@@@@@@@@@@@@@.@@@@@@@@@@@@@@@@@@@@@@@@@@@@@@@@@@@@@@@@@@@@@@@@@@@@@@@@@@@@@@@@@@@@@@.@@@@@@@@@@@@@@@@@@@@@@@@@@@@@@@@@@@@@@@@@@@@@@@@@@@@@@@@@@.@@@@@@@@@@@@@@@@@@@@@@@@@@@@@.",
".+@@@@@@@@@@@@@@@@@@@@@@@@@.@@@@@@@@@@@@@@@@@@@@@@@@@@@@@@@@@@@@@@@@@@@@@@@@@@@@@@@@@@@@@@@@@@@@@@.@@@@@@@@@@@@@@@@@@@@@@@@@@@@@@@@@@@@@@@@@@@@@@@@@@@@@@@@@@.@@@@@@@@@@@@@@@@@@@@@@@@@@@@@.",
".+@@@@@@@@@@@@@@@@@@@@@@@@@.@@@@@@@@@@@@@@@@@@@@@@@@@@@@@@@@@@@#@@@@@@@@@@@@@@@@@@@@@@@@@@@@@@@@@@.@@@@@@@@@@@@@@@@@@@@@@@@@@######@@@@@@@@@@@@@@@@@@@@@@@@@@.@@@@@@@@@@@@@###@@@@@@@@@@@@@.",
".+@@@@@@@@@@@@@@@@@@@@@@@@@.@@@@@@@@@@@@@@@@@@@@@@@@@@@@@@@@@@#@#@@@@@@@@@@@@@@@@@@@@@@@@@@@@@@@@@.@@@@@@@@@@@@@@@@@@@@@@@@@@#@@@@@#@@@@@@@@@@@@@@@@@@@@@@@@@.@@@@@@@@@@@@#@@@#@@@@@@@@@@@@.",
".+@@@@@@@@@@@@@@@@@@@@@@@@@.@@@@@@@@@@@@@@@@@@@@@@@@@@@@@@@@@@#@#@@@@@@@@@@@@@@@@@@@@@@@@@@@@@@@@@.@@@@@@@@@@@@@@@@@@@@@@@@@@#@@@@@#@@@@@@@@@@@@@@@@@@@@@@@@@.@@@@@@@@@@@#@@@@@#@@@@@@@@@@@.",
".+@@@@@@@@@@@@@@@@@@@@@@@@@.@@@@@@@@@@@@@@@@@@@@@@@@@@@@@@@@@@#@#@@@@@@@@@@@@@@@@@@@@@@@@@@@@@@@@@.@@@@@@@@@@@@@@@@@@@@@@@@@@#@@@@@#@@@@@@@@@@@@@@@@@@@@@@@@@.@@@@@@@@@@@#@@@@@@@@@@@@@@@@@.",
".+@@@@@@@@@@@@@@@@@@@@@@@@@.@@@@@@@@@@@@@@@@@@@@@@@@@@@@@@@@@#@@@#@@@@@@@@@@@@@@@@@@@@@@@@@@@@@@@@.@@@@@@@@@@@@@@@@@@@@@@@@@@######@@@@@@@@@@@@@@@@@@@@@@@@@@.@@@@@@@@@@@#@@@@@@@@@@@@@@@@@.",
".+@@@@@@@@@@@@@@@@@@@@@@@@@.@@@@@@@@@@@@@@@@@@@@@@@@@@@@@@@@@#@@@#@@@@@@@@@@@@@@@@@@@@@@@@@@@@@@@@.@@@@@@@@@@@@@@@@@@@@@@@@@@#@@@@@#@@@@@@@@@@@@@@@@@@@@@@@@@.@@@@@@@@@@@#@@@@@@@@@@@@@@@@@.",
".+@@@@@@@@@@@@@@@@@@@@@@@@@.@@@@@@@@@@@@@@@@@@@@@@@@@@@@@@@@#######@@@@@@@@@@@@@@@@@@@@@@@@@@@@@@@.@@@@@@@@@@@@@@@@@@@@@@@@@@#@@@@@#@@@@@@@@@@@@@@@@@@@@@@@@@.@@@@@@@@@@@#@@@@@@@@@@@@@@@@@.",
".+@@@@@@@@@@@@@@@@@@@@@@@@@.@@@@@@@@@@@@@@@@@@@@@@@@@@@@@@@@#@@@@@#@@@@@@@@@@@@@@@@@@@@@@@@@@@@@@@.@@@@@@@@@@@@@@@@@@@@@@@@@@#@@@@@#@@@@@@@@@@@@@@@@@@@@@@@@@.@@@@@@@@@@@#@@@@@#@@@@@@@@@@@.",
".+@@@@@@@@@@@@@@@@@@@@@@@@@.@@@@@@@@@@@@@@@@@@@@@@@@@@@@@@@#@@@@@@@#@@@@@@@@@@@@@@@@@@@@@@@@@@@@@@.@@@@@@@@@@@@@@@@@@@@@@@@@@#@@@@@#@@@@@@@@@@@@@@@@@@@@@@@@@.@@@@@@@@@@@@#@@@#@@@@@@@@@@@@.",
".+@@@@@@@@@@@@@@@@@@@@@@@@@.@@@@@@@@@@@@@@@@@@@@@@@@@@@@@@@#@@@@@@@#@@@@@@@@@@@@@@@@@@@@@@@@@@@@@@.@@@@@@@@@@@@@@@@@@@@@@@@@@######@@@@@@@@@@@@@@@@@@@@@@@@@@.@@@@@@@@@@@@@###@@@@@@@@@@@@@.",
".+@@@@@@@@@@@@@@@@@@@@@@@@@.@@@@@@@@@@@@@@@@@@@@@@@@@@@@@@@@@@@@@@@@@@@@@@@@@@@@@@@@@@@@@@@@@@@@@@.@@@@@@@@@@@@@@@@@@@@@@@@@@@@@@@@@@@@@@@@@@@@@@@@@@@@@@@@@@.@@@@@@@@@@@@@@@@@@@@@@@@@@@@@.",
".+@@@@@@@@@@@@@@@@@@@@@@@@@.@@@@@@@@@@@@@@@@@@@@@@@@@@@@@@@@@@@@@@@@@@@@@@@@@@@@@@@@@@@@@@@@@@@@@@.@@@@@@@@@@@@@@@@@@@@@@@@@@@@@@@@@@@@@@@@@@@@@@@@@@@@@@@@@@.@@@@@@@@@@@@@@@@@@@@@@@@@@@@@.",
".+@@@@@@@@@@@@@@@@@@@@@@@@@.@@@@@@@@@@@@@@@@@@@@@@@@@@@@@@@@@@@@@@@@@@@@@@@@@@@@@@@@@@@@@@@@@@@@@@.@@@@@@@@@@@@@@@@@@@@@@@@@@@@@@@@@@@@@@@@@@@@@@@@@@@@@@@@@@.@@@@@@@@@@@@@@@@@@@@@@@@@@@@@.",
".+..........................................................................................................................................................................................",
".+@@@@@@@@@@@@@@@@@@@@@@@@@.$$$$$$$$$$$$$$$$$$$$$$$$$$$$$$$$$$$$$$$$$$$$$$$$$$$$$$$$$$$$$$$$$$$$$$%$$$$$$$$$$$$$$$$$$$$$$$$$$$$$$$$$$$$$$$$$$$$$$$$$$$$$$$$$$%$$$$$$$$$$$$$$$$$$$$$$$$$$$$$%",
".+@@@@@@@@@@@@@@@@@@@@@@@@@.$$$$$$$$$$$$$$$$$$$$$$$$$$$$$$$$$$$$$$$$$$$$$$$$$$$$$$$$$$$$$$$$$$$$$$%$$$$$$$$$$$$$$$$$$$$$$$$$$$$$$$$$$$$$$$$$$$$$$$$$$$$$$$$$$%$$$$$$$$$$$$$$$$$$$$$$$$$$$$$%",
".+@@@@@@@@@@@@@@@@@@@@@@@@@.$$$$$$$$$$$$$$$$$$$$$$$$$$$$$$$$$$$$$$$$$$$$$$$$$$$$$$$$$$$$$$$$$$$$$$%$$$$$$$$$$$$$$$$$$$$$$$$$$$$$$$$$$$$$$$$$$$$$$$$$$$$$$$$$$%$$$$$$$$$$$$$$$$$$$$$$$$$$$$$%",
".+@@@@@@@@@@@@#@@@@@@@@@@@@.$$$######$$#$$$$$$$$$$$$$$$$$$$$$#$$$$$#$$$$$$$$$$$$$$$$$$$$$$$$$$$$$$%$$$$#####$$$$$$$$$$$$$$$$$$$$$$$$$$$$$$$$$$$$$$$$$$$$$$$$$%$$$$$$#$$$$$$$$$$$$$$$$$$$$$$%",
".+@@@@@@@@@@@##@@@@@@@@@@@@.$$$#$$$$$$$$$$$$$$$$$$$$$#$$$$$$$##$$$$#$$$$$$$$$$$$$$$$$$$$$$$$$$$$$$%$$$#$$$$$#$$$$$$$$$$$$$$$$$$$$$$$$$$$$$$$$$$$$$$$$$$$$$$$$%$$$$$#$#$$$$$$$$$$$$$$$$$$$$$%",
".+@@@@@@@@@@#@#@@@@@@@@@@@@.$$$#$$$$$$$$$$$$$$$$$$$$$#$$$$$$$#$#$$$#$$$$$$$$$$$$$$$$$$$$$$$$$$$$$$%$$$#$$$$$#$$$$$$$$$$$$$$$$$$$$$$$$$$$$$$$$$$$$$$$$$$$$$$$$%$$$$$#$#$$$$$$$$$$$$$$$$$$$$$%",
".+@@@@@@@@@@@@#@@@@@@@@@@@@.$$$#$$$$$$$#$$#$#$$###$$###$$$$$$#$#$$$#$$$###$$$#$##$$##$$$$###$$$$$$%$$$#$$$$$$$$#$$$#$$#$#$#$##$$$$###$$$#$##$$##$$$$###$$$$$$%$$$$$#$#$$$$$##$#$$$###$$$$$$%",
".+@@@@@@@@@@@@#@@@@@@@@@@@@.$$$#####$$$#$$##$$#$$$#$$#$$$$$$$#$$#$$#$$#$$$#$$##$$##$$#$$#$$$#$$$$$%$$$$###$$$$$#$$$#$$##$$##$$#$$#$$$#$$##$$##$$#$$#$$$#$$$$$%$$$$#$$$#$$$#$$##$$#$$$#$$$$$%",
".+@@@@@@@@@@@@#@@@@@@@@@@@@.$$$#$$$$$$$#$$#$$$#$$$$$$#$$$$$$$#$$#$$#$$$$$$#$$#$$$#$$$#$$#$$$#$$$$$%$$$$$$$##$$$#$$$#$$#$$$#$$$#$$$$$$#$$#$$$#$$$#$$#$$$#$$$$$%$$$$#$$$#$$$#$$$#$$#$$$#$$$$$%",
".+@@@@@@@@@@@@#@@@@@@@@@@@@.$$$#$$$$$$$#$$#$$$$###$$$#$$$$$$$#$$$#$#$$$####$$#$$$#$$$#$$#####$$$$$%$$$$$$$$$#$$#$$$#$$#$$$#$$$#$$$####$$#$$$#$$$#$$#####$$$$$%$$$#######$$#$$$#$$#####$$$$$%",
".+@@@@@@@@@@@@#@@@@@@@@@@@@.$$$#$$$$$$$#$$#$$$$$$$#$$#$$$$$$$#$$$#$#$$#$$$#$$#$$$#$$$#$$#$$$$$$$$$%$$$#$$$$$#$$#$$$#$$#$$$#$$$#$$#$$$#$$#$$$#$$$#$$#$$$$$$$$$%$$$#$$$$$#$$#$$$#$$#$$$$$$$$$%",
".+@@@@@@@@@@@@#@@@@@@@@@@@@.$$$#$$$$$$$#$$#$$$#$$$#$$#$$$$$$$#$$$$##$$#$$##$$#$$$#$$$#$$#$$$#$$$$$%$$$#$$$$$#$$#$$$#$$#$$$#$$$#$$#$$##$$#$$$#$$$#$$#$$$#$$$$$%$$#$$$$$$$#$#$$##$$#$$$#$$$$$%",
".+@@@@@@@@@@@@#@@@@@@@@@@@@.$$$#$$$$$$$#$$#$$$$###$$$##$$$$$$#$$$$$#$$$##$#$$#$$$#$$$#$$$###$$$$$$%$$$$#####$$$$####$$#$$$#$$$#$$$##$#$$#$$$#$$$#$$$###$$$$$$%$$#$$$$$$$#$$##$#$$$###$$$$$$%",
".+@@@@@@@@@@@@@@@@@@@@@@@@@.$$$$$$$$$$$$$$$$$$$$$$$$$$$$$$$$$$$$$$$$$$$$$$$$$$$$$$$$$$$$$$$$$$$$$$%$$$$$$$$$$$$$$$$$$$$$$$$$$$$$$$$$$$$$$$$$$$$$$$$$$$$$$$$$$%$$$$$$$$$$$$$$$$#$$$$$$$$$$$$%",
".+@@@@@@@@@@@@@@@@@@@@@@@@@.$$$$$$$$$$$$$$$$$$$$$$$$$$$$$$$$$$$$$$$$$$$$$$$$$$$$$$$$$$$$$$$$$$$$$$%$$$$$$$$$$$$$$$$$$$$$$$$$$$$$$$$$$$$$$$$$$$$$$$$$$$$$$$$$$%$$$$$$$$$$$$#$$$#$$$$$$$$$$$$%",
".+@@@@@@@@@@@@@@@@@@@@@@@@@.$$$$$$$$$$$$$$$$$$$$$$$$$$$$$$$$$$$$$$$$$$$$$$$$$$$$$$$$$$$$$$$$$$$$$$%$$$$$$$$$$$$$$$$$$$$$$$$$$$$$$$$$$$$$$$$$$$$$$$$$$$$$$$$$$%$$$$$$$$$$$$$###$$$$$$$$$$$$$%",
".+..........................%%%%%%%%%%%%%%%%%%%%%%%%%%%%%%%%%%%%%%%%%%%%%%%%%%%%%%%%%%%%%%%%%%%%%%%%%%%%%%%%%%%%%%%%%%%%%%%%%%%%%%%%%%%%%%%%%%%%%%%%%%%%%%%%%%%%%%%%%%%%%%%%%%%%%%%%%%%%%%%%",
".+@@@@@@@@@@@@@@@@@@@@@@@@@.$$$$$$$$$$$$$$$$$$$$$$$$$$$$$$$$$$$$$$$$$$$$$$$$$$$$$$$$$$$$$$$$$$$$$$%$$$$$$$$$$$$$$$$$$$$$$$$$$$$$$$$$$$$$$$$$$$$$$$$$$$$$$$$$$%$$$$$$$$$$$$$$$$$$$$$$$$$$$$$%",
".+@@@@@@@@@@@@@@@@@@@@@@@@@.$$$$$$$$$$$$$$$$$$$$$$$$$$$$$$$$$$$$$$$$$$$$$$$$$$$$$$$$$$$$$$$$$$$$$$%$$$$$$$$$$$$$$$$$$$$$$$$$$$$$$$$$$$$$$$$$$$$$$$$$$$$$$$$$$%$$$$$$$$$$$$$$$$$$$$$$$$$$$$$%",
".+@@@@@@@@@@@@@@@@@@@@@@@@@.$$$$$$$$$$$$$$$$$$$$$$$$$$$$$$$$$$$$$$$$$$$$$$$$$$$$$$$$$$$$$$$$$$$$$$%$$$$$$$$$$$$$$$$$$$$$$$$$$$$$$$$$$$$$$$$$$$$$$$$$$$$$$$$$$%$$$$$$$$$$$$$$$$$$$$$$$$$$$$$%",
".+@@@@@@@@@@####@@@@@@@@@@@.$$$$$$#$$$$$$$$$#$$$$$$$$$$$$$$$$$$$$$$$$$$$$$$$$$$$$$$$$$$$$$$$$$$$$$%$$$$#####$$$$$$$$$$$$$$#$$$$$$#$$$$$$$$$$$$$$$$$$$$$$$$$$$%$$$$$$$$$$$$$$#####$$$$$#$$$$%",
".+@@@@@@@@@#@@@@#@@@@@@@@@@.$$$$$$#$$$$$$$$$#$$$$$$$$$$$$$$$$$$$$$$$$$$$$$$$$$$$$$$$$$$$$$$$$$$$$$%$$$#$$$$$#$$$$$$$$$$$$$$$$#$$$#$$$$$$$$$$$$$$$$$$$$$$$$$$$%$$$$$$$$$$$$$$#$$$$$$$$##$$$$%",
".+@@@@@@@@@@@@@@#@@@@@@@@@@.$$$$$$#$$$$$$$$$#$$$$$$$$$$$$$$$$$$$$$$$$$$$$$$$$$$$$$$$$$$$$$$$$$$$$$%$$$#$$$$$#$$$$$$$$$$$$$$$$#$$$#$$$$$$$$$$$$$$$$$$$$$$$$$$$%$$$$$$$$$$$$$$#$$$$$$$$##$$$$%",
".+@@@@@@@@@@@@@@#@@@@@@@@@@.$$$$$$#$$$###$$$#$##$$$#$##$$$$$$$$$$$$$$$$$$$$$$$$$$$$$$$$$$$$$$$$$$$%$$$#$$$$$$$$#$##$$##$$$#$###$$#$##$$$$$$$$$$$$$$$$$$$$$$$$%$$$$$$$$$$$$$#$$$$$$$$#$#$$$$%",
".+@@@@@@@@@@@@@@#@@@@@@@@@@.$$$$$$#$$#$$$#$$##$$#$$##$$#$$$$$$$$$$$$$$$$$$$$$$$$$$$$$$$$$$$$$$$$$$%$$$$###$$$$$##$$##$$#$$#$$#$$$##$$#$$$$$$$$$$$$$$$$$$$$$$$%$$$$$$$$$$$$$#####$$$$#$#$$$$%",
".+@@@@@@@@@@@@@#@@@@@@@@@@@.$$$$$$#$$#$$$#$$#$$$#$$#$$$#$$$$$$$$$$$$$$$$$$$$$$$$$$$$$$$$$$$$$$$$$$%$$$$$$$##$$$#$$$#$$$#$$#$$#$$$#$$$#$$$$$$$$$$$$$$$$$$$$$$$%$$$$$$$$$$$$$#$$$$#$$#$$#$$$$%",
".+@@@@@@@@@@@@#@@@@@@@@@@@@.$$$$$$#$$#$$$#$$#$$$#$$#$$$#$$$$$$$$$$$$$$$$$$$$$$$$$$$$$$$$$$$$$$$$$$%$$$$$$$$$#$$#$$$#$$$#$$#$$#$$$#$$$#$$$$$$$$$$$$$$$$$$$$$$$%$$$$$$$$$$$$$$$$$$#$$#$$#$$$$%",
".+@@@@@@@@@@@#@@@@@@@@@@@@@.$$#$$$#$$#$$$#$$#$$$#$$#$$$#$$$$$$$$$$$$$$$$$$$$$$$$$$$$$$$$$$$$$$$$$$%$$$#$$$$$#$$#$$$#$$$#$$#$$#$$$#$$$#$$$$$$$$$$$$$$$$$$$$$$$%$$$$$$$$$$$$$$$$$$#$######$$$%",
".+@@@@@@@@@@#@@@@@@@@@@@@@@.$$#$$$#$$#$$$#$$#$$$#$$#$$$#$$$$$$$$$$$$$$$$$$$$$$$$$$$$$$$$$$$$$$$$$$%$$$#$$$$$#$$#$$$#$$$#$$#$$#$$$#$$$#$$$$$$$$$$$$$$$$$$$$$$$%$$$$$$$$$$$$$#$$$$#$$$$$#$$$$%",
".+@@@@@@@@@######@@@@@@@@@@.$$$###$$$$###$$$#$$$#$$#$$$#$$$$$$$$$$$$$$$$$$$$$$$$$$$$$$$$$$$$$$$$$$%$$$$#####$$$#$$$#$$$#$$#$$##$$#$$$#$$$$$$$$$$$$$$$$$$$$$$$%$$$$$$$$$$$$$$####$$$$$$#$$$$%",
".+@@@@@@@@@@@@@@@@@@@@@@@@@.$$$$$$$$$$$$$$$$$$$$$$$$$$$$$$$$$$$$$$$$$$$$$$$$$$$$$$$$$$$$$$$$$$$$$$%$$$$$$$$$$$$$$$$$$$$$$$$$$$$$$$$$$$$$$$$$$$$$$$$$$$$$$$$$$%$$$$$$$$$$$$$$$$$$$$$$$$$$$$$%",
".+@@@@@@@@@@@@@@@@@@@@@@@@@.$$$$$$$$$$$$$$$$$$$$$$$$$$$$$$$$$$$$$$$$$$$$$$$$$$$$$$$$$$$$$$$$$$$$$$%$$$$$$$$$$$$$$$$$$$$$$$$$$$$$$$$$$$$$$$$$$$$$$$$$$$$$$$$$$%$$$$$$$$$$$$$$$$$$$$$$$$$$$$$%",
".+@@@@@@@@@@@@@@@@@@@@@@@@@.$$$$$$$$$$$$$$$$$$$$$$$$$$$$$$$$$$$$$$$$$$$$$$$$$$$$$$$$$$$$$$$$$$$$$$%$$$$$$$$$$$$$$$$$$$$$$$$$$$$$$$$$$$$$$$$$$$$$$$$$$$$$$$$$$%$$$$$$$$$$$$$$$$$$$$$$$$$$$$$%",
".+..........................%%%%%%%%%%%%%%%%%%%%%%%%%%%%%%%%%%%%%%%%%%%%%%%%%%%%%%%%%%%%%%%%%%%%%%%%%%%%%%%%%%%%%%%%%%%%%%%%%%%%%%%%%%%%%%%%%%%%%%%%%%%%%%%%%%%%%%%%%%%%%%%%%%%%%%%%%%%%%%%%",
".+@@@@@@@@@@@@@@@@@@@@@@@@@.$$$$$$$$$$$$$$$$$$$$$$$$$$$$$$$$$$$$$$$$$$$$$$$$$$$$$$$$$$$$$$$$$$$$$$%$$$$$$$$$$$$$$$$$$$$$$$$$$$$$$$$$$$$$$$$$$$$$$$$$$$$$$$$$$%$$$$$$$$$$$$$$$$$$$$$$$$$$$$$%",
".+@@@@@@@@@@@@@@@@@@@@@@@@@.$$$$$$$$$$$$$$$$$$$$$$$$$$$$$$$$$$$$$$$$$$$$$$$$$$$$$$$$$$$$$$$$$$$$$$%$$$$$$$$$$$$$$$$$$$$$$$$$$$$$$$$$$$$$$$$$$$$$$$$$$$$$$$$$$%$$$$$$$$$$$$$$$$$$$$$$$$$$$$$%",
".+@@@@@@@@@@@@@@@@@@@@@@@@@.$$$$$$$$$$$$$$$$$$$$$$$$$$$$$$$$$$$$$$$$$$$$$$$$$$$$$$$$$$$$$$$$$$$$$$%$$$$$$$$$$$$$$$$$$$$$$$$$$$$$$$$$$$$$$$$$$$$$$$$$$$$$$$$$$%$$$$$$$$$$$$$$$$$$$$$$$$$$$$$%",
".+@@@@@@@@@@####@@@@@@@@@@@.$$$$#####$$$$$$$$$$$$$$$$$$$$$$$$$$$$$$$$$$$$$$$$$$$$$$$$$$$$$$$$$$$$$%$$$$#####$$$$$$$$$$$$$$#$$$$$$#$$$$$$$$$$$$$$$$$$$$$$$$$$$%$$$$$$$$$$$$$$#####$$####$$$$%",
".+@@@@@@@@@#@@@@#@@@@@@@@@@.$$$#$$$$$#$$$$$$$$$$$$$$$$$$$$$$$$$$$$$$$$$$$$$$$$$$$$$$$$$$$$$$$$$$$$%$$$#$$$$$#$$$$$$$$$$$$$$$$#$$$#$$$$$$$$$$$$$$$$$$$$$$$$$$$%$$$$$$$$$$$$$$#$$$$$#$$$$#$$$%",
".+@@@@@@@@@@@@@@#@@@@@@@@@@.$$$#$$$$$#$$$$$$$$$$$$$$$$$$$$$$$$$$$$$$$$$$$$$$$$$$$$$$$$$$$$$$$$$$$$%$$$#$$$$$#$$$$$$$$$$$$$$$$#$$$#$$$$$$$$$$$$$$$$$$$$$$$$$$$%$$$$$$$$$$$$$$#$$$$$$$$$$#$$$%",
".+@@@@@@@@@@@@@@#@@@@@@@@@@.$$$#$$$$$$$$#$$$#$$$###$$$$###$$$#$##$$$$$$$$$$$$$$$$$$$$$$$$$$$$$$$$$%$$$#$$$$$$$$#$##$$##$$$#$###$$#$##$$$$$$$$$$$$$$$$$$$$$$$$%$$$$$$$$$$$$$#$$$$$$$$$$$#$$$%",
".+@@@@@@@@@@@###@@@@@@@@@@@.$$$$###$$$$$#$$$#$$#$$$#$$#$$$#$$##$$#$$$$$$$$$$$$$$$$$$$$$$$$$$$$$$$$%$$$$###$$$$$##$$##$$#$$#$$#$$$##$$#$$$$$$$$$$$$$$$$$$$$$$$%$$$$$$$$$$$$$#####$$$$###$$$$%",
".+@@@@@@@@@@@@@@#@@@@@@@@@@.$$$$$$$##$$$#$$$#$$#$$$$$$$$$$#$$#$$$#$$$$$$$$$$$$$$$$$$$$$$$$$$$$$$$$%$$$$$$$##$$$#$$$#$$$#$$#$$#$$$#$$$#$$$$$$$$$$$$$$$$$$$$$$$%$$$$$$$$$$$$$#$$$$#$$$$$$#$$$%",
".+@@@@@@@@@@@@@@#@@@@@@@@@@.$$$$$$$$$#$$#$$$#$$$###$$$$####$$#$$$#$$$$$$$$$$$$$$$$$$$$$$$$$$$$$$$$%$$$$$$$$$#$$#$$$#$$$#$$#$$#$$$#$$$#$$$$$$$$$$$$$$$$$$$$$$$%$$$$$$$$$$$$$$$$$$#$$$$$$#$$$%",
".+@@@@@@@@@@@@@@#@@@@@@@@@@.$$$#$$$$$#$$#$$$#$$$$$$#$$#$$$#$$#$$$#$$$$$$$$$$$$$$$$$$$$$$$$$$$$$$$$%$$$#$$$$$#$$#$$$#$$$#$$#$$#$$$#$$$#$$$$$$$$$$$$$$$$$$$$$$$%$$$$$$$$$$$$$$$$$$#$$$$$$#$$$%",
".+@@@@@@@@@#@@@@#@@@@@@@@@@.$$$#$$$$$#$$#$$$#$$#$$$#$$#$$##$$#$$$#$$$$$$$$$$$$$$$$$$$$$$$$$$$$$$$$%$$$#$$$$$#$$#$$$#$$$#$$#$$#$$$#$$$#$$$$$$$$$$$$$$$$$$$$$$$%$$$$$$$$$$$$$#$$$$#$#$$$$#$$$%",
".+@@@@@@@@@@####@@@@@@@@@@@.$$$$#####$$$$####$$$###$$$$##$#$$#$$$#$$$$$$$$$$$$$$$$$$$$$$$$$$$$$$$$%$$$$#####$$$#$$$#$$$#$$#$$##$$#$$$#$$$$$$$$$$$$$$$$$$$$$$$%$$$$$$$$$$$$$$####$$$####$$$$%",
".+@@@@@@@@@@@@@@@@@@@@@@@@@.$$$$$$$$$$$$$$$$$$$$$$$$$$$$$$$$$$$$$$$$$$$$$$$$$$$$$$$$$$$$$$$$$$$$$$%$$$$$$$$$$$$$$$$$$$$$$$$$$$$$$$$$$$$$$$$$$$$$$$$$$$$$$$$$$%$$$$$$$$$$$$$$$$$$$$$$$$$$$$$%",
".+@@@@@@@@@@@@@@@@@@@@@@@@@.$$$$$$$$$$$$$$$$$$$$$$$$$$$$$$$$$$$$$$$$$$$$$$$$$$$$$$$$$$$$$$$$$$$$$$%$$$$$$$$$$$$$$$$$$$$$$$$$$$$$$$$$$$$$$$$$$$$$$$$$$$$$$$$$$%$$$$$$$$$$$$$$$$$$$$$$$$$$$$$%",
".+@@@@@@@@@@@@@@@@@@@@@@@@@.$$$$$$$$$$$$$$$$$$$$$$$$$$$$$$$$$$$$$$$$$$$$$$$$$$$$$$$$$$$$$$$$$$$$$$%$$$$$$$$$$$$$$$$$$$$$$$$$$$$$$$$$$$$$$$$$$$$$$$$$$$$$$$$$$%$$$$$$$$$$$$$$$$$$$$$$$$$$$$$%",
".+..........................%%%%%%%%%%%%%%%%%%%%%%%%%%%%%%%%%%%%%%%%%%%%%%%%%%%%%%%%%%%%%%%%%%%%%%%%%%%%%%%%%%%%%%%%%%%%%%%%%%%%%%%%%%%%%%%%%%%%%%%%%%%%%%%%%%%%%%%%%%%%%%%%%%%%%%%%%%%%%%%%"};
