/* XPM */
static char * area_chart_sel_xpm[] = {
"46 40 210 2",
"  	c None",
". 	c #FF7401",
"+ 	c #FFFFFF",
"@ 	c #C0C0C0",
"# 	c #FBFBFB",
"$ 	c #C5C5C5",
"% 	c #F4F4F4",
"& 	c #D8D8D8",
"* 	c #ADADAD",
"= 	c #E3E3E3",
"- 	c #C7C7C7",
"; 	c #ECECEC",
"> 	c #F0F0F0",
", 	c #E2E2E2",
"' 	c #FEFEFE",
") 	c #EAEAEA",
"! 	c #FAFAFA",
"~ 	c #F1F1F1",
"{ 	c #F8F8F8",
"] 	c #D2D2D2",
"^ 	c #99978D",
"/ 	c #C7B75F",
"( 	c #E5E5E5",
"_ 	c #E7E7E7",
": 	c #BBBBB9",
"< 	c #ABA587",
"[ 	c #E3C734",
"} 	c #E2CB4D",
"| 	c #DBDBDB",
"1 	c #AAA9A5",
"2 	c #B6B194",
"3 	c #AEA781",
"4 	c #B9B59C",
"5 	c #F4F4F3",
"6 	c #A6A5A1",
"7 	c #CCBE70",
"8 	c #F1D330",
"9 	c #EACD2E",
"0 	c #E2CB4E",
"a 	c #D7D7D6",
"b 	c #A7A59D",
"c 	c #C1B884",
"d 	c #F0D440",
"e 	c #FEDE32",
"f 	c #DAC551",
"g 	c #A4A089",
"h 	c #CFCCBA",
"i 	c #FCFCFC",
"j 	c #D3D3D3",
"k 	c #A7A59B",
"l 	c #E7CF4D",
"m 	c #F8D931",
"n 	c #E2CB51",
"o 	c #D5D3CB",
"p 	c #ADAA9B",
"q 	c #D3C471",
"r 	c #FBDD3A",
"s 	c #FFDF33",
"t 	c #FADB36",
"u 	c #C5B664",
"v 	c #A7A390",
"w 	c #E3E1DB",
"x 	c #B6B6B5",
"y 	c #BCB592",
"z 	c #FADB37",
"A 	c #FBDC32",
"B 	c #E2CC53",
"C 	c #F5EAAA",
"D 	c #D1CBB1",
"E 	c #B8B499",
"F 	c #E6D15F",
"G 	c #FFEA38",
"H 	c #FFE734",
"I 	c #FFE233",
"J 	c #EED340",
"K 	c #B0A87B",
"L 	c #B7B39E",
"M 	c #F3F3F3",
"N 	c #E6E6E6",
"O 	c #A5A4A2",
"P 	c #D9C975",
"Q 	c #E2CC56",
"R 	c #C7C4B4",
"S 	c #CCC287",
"T 	c #FAE157",
"U 	c #FFF438",
"V 	c #FFEF36",
"W 	c #FFEC36",
"X 	c #DCC64F",
"Y 	c #A5A189",
"Z 	c #CCC9B9",
"` 	c #FDFDFD",
" .	c #CACACA",
"..	c #ABA99F",
"+.	c #F0D750",
"@.	c #E2CC57",
"#.	c #FFFC6E",
"$.	c #FFF939",
"%.	c #FBDC35",
"&.	c #C7B863",
"*.	c #A6A391",
"=.	c #E1E0DA",
"-.	c #AEAEAE",
";.	c #C4BD98",
">.	c #FCDD36",
",.	c #E2CC59",
"'.	c #FFFB6F",
").	c #F0D43E",
"!.	c #B3AA7B",
"~.	c #B1AE9D",
"{.	c #A4A4A2",
"].	c #E1D179",
"^.	c #E2CC5C",
"/.	c #FFFB6E",
"(.	c #E5CC48",
"_.	c #F5DA44",
":.	c #E2CD5E",
"<.	c #E2CD60",
"[.	c #FFFC6C",
"}.	c #E2CD62",
"|.	c #FFFB6B",
"1.	c #FEDE33",
"2.	c #E2CE64",
"3.	c #FFFC6A",
"4.	c #E2CE66",
"5.	c #FFFC69",
"6.	c #FEDF34",
"7.	c #E2CF68",
"8.	c #FFFC67",
"9.	c #FEDF36",
"0.	c #E2CF6B",
"a.	c #FFFC65",
"b.	c #FEDF37",
"c.	c #E2CF6C",
"d.	c #FEE03A",
"e.	c #E2D06E",
"f.	c #FFFC64",
"g.	c #FEDF3C",
"h.	c #E2D070",
"i.	c #FFFC62",
"j.	c #FEDF3A",
"k.	c #FEDF3E",
"l.	c #E2D072",
"m.	c #FFFC5F",
"n.	c #FEE040",
"o.	c #E2D175",
"p.	c #FFFD61",
"q.	c #FFE133",
"r.	c #FDDD32",
"s.	c #FBE048",
"t.	c #FBDF42",
"u.	c #E2D176",
"v.	c #FFFC5E",
"w.	c #FFE434",
"x.	c #F7D831",
"y.	c #F6D731",
"z.	c #F7DD50",
"A.	c #F1D642",
"B.	c #E2D179",
"C.	c #BFBFBF",
"D.	c #FFFB61",
"E.	c #FFFA3F",
"F.	c #FFF53F",
"G.	c #FFF13F",
"H.	c #FFE73D",
"I.	c #F9DA39",
"J.	c #EFD338",
"K.	c #ECD037",
"L.	c #ECD038",
"M.	c #ECD039",
"N.	c #ECD03A",
"O.	c #ECD03B",
"P.	c #ECD03C",
"Q.	c #ECD13D",
"R.	c #EBD03D",
"S.	c #EBD03E",
"T.	c #EBD03F",
"U.	c #EBD040",
"V.	c #EBD041",
"W.	c #EBD042",
"X.	c #EAD041",
"Y.	c #EAD042",
"Z.	c #EAD044",
"`.	c #E2CD5D",
" +	c #D6C77E",
".+	c #C1C1C1",
"++	c #B2B2B2",
"@+	c #AAAAAA",
"#+	c #E0E0E0",
"$+	c #A6A6A6",
"%+	c #A3A3A3",
"&+	c #A0A0A0",
"*+	c #999999",
"=+	c #8E8E8E",
"-+	c #858585",
";+	c #818181",
">+	c #828282",
",+	c #838383",
"'+	c #848484",
")+	c #868686",
"!+	c #878787",
"~+	c #898989",
"{+	c #8C8C8C",
"]+	c #797979",
"^+	c #A1A1A1",
"/+	c #DEDEDE",
"(+	c #D4D4D4",
"_+	c #D5D5D5",
":+	c #D6D6D6",
"<+	c #D7D7D7",
". . . . . . . . . . . . . . . . . . . . . . . . . . . . . . . . . . . . . . . . . . . . . . ",
". . . . . . . . . . . . . . . . . . . . . . . . . . . . . . . . . . . . . . . . . . . . . . ",
". . . . . . . . . . . . . . . . . . . . . . . . . . . . . . . . . . . . . . . . . . . . . . ",
". . . + @ # + + + + + + + + + + + + + + + + + + + + + + + + + + + + + + + + + + + + $ . . . ",
". . . + @ % + + + + + + + + + + + + + + + + + + + + + + + + + + + + + + + + + + + & * . . . ",
". . . + @ % + + + + + + + + + + + + + + + + + + + + + + + + + + + + + + + + + + = - * . . . ",
". . . + @ % + + + + + + + + + + + + + + + + + + + + + + + + + + + + + + + + + ; & - * . . . ",
". . . + @ % + + + + + + + + + + + + + + + + + + + + + + + + + + + + + + + + > , & - * . . . ",
". . . + @ % + + + + + + + + + + + + + + + + + + + + + + + + + + + + + + ' % ) , & - * . . . ",
". . . + @ % + + + + + + + + + + + + + + + + + + + + + + + + + + + + + ' ! ~ ) , & - * . . . ",
". . . + @ % + + + + + + + ' ' ' ' ' ' ' ' ' ' ' ' ' ' ' ' ' ' ' ' ' ' # { ~ ) , & - * . . . ",
". . . + @ % + + + + + + + ' ' ' ' ' ' ' ' ' ' ' ' ' ' ' ' ' ' ' ' ' ' # { ] ^ / & - * . . . ",
". . . + @ % + + + + + + + ' ( _ ' ' ' ' ' ' ' ' ' ' ' ' ' ' ' ' ' ' ' { : < [ } & - * . . . ",
". . . + @ % + + + + + + | 1 2 3 4 5 ' ' ' ' ' ' ' ' ' ' ' ' ' ' ' ' ; 6 7 8 9 0 & - * . . . ",
". . . + @ % + + + + a b c d e e f g h i ' ' ' ' ' ' ' ' ' ' ' ' ' j k l m 8 9 n & - * . . . ",
". . . + @ % + + o p q r s e e e e t u v w ' ' ' ' ' ' ' ' ' ' { x y z A m 8 9 B & - * . . . ",
". . . + @ C D E F G H I s e e e e e e J K L M ' ' ' ' ' ' ' N O P e e A m 8 9 Q & - * . . . ",
". . . + R S T U V W H I s e e e e e e e e X Y Z i ' ' ' `  ...+.e e e A m 8 9 @.& - * . . . ",
". . . + @ #.$.U V W H I s e e e e e e e e e %.&.*.=.' M -.;.>.e e e e A m 8 9 ,.& - * . . . ",
". . . + @ '.$.U V W H I s e e e e e e e e e e e ).!.~.{.].e e e e e e A m 8 9 ^.& - * . . . ",
". . . + @ /.$.U V W H I s e e e e e e e e e e e e e (._.e e e e e e e A m 8 9 :.& - * . . . ",
". . . + @ #.$.U V W H I s e e e e e e e e e e e e e e e e e e e e e e A m 8 9 <.& - * . . . ",
". . . + @ [.$.U V W H I s e e e e e e e e e e e e e e e e e e e e e e A m 8 9 }.& - * . . . ",
". . . + @ |.$.U V W H I s e e e e 1.e e e e e e e e e e e e e e e e e A m 8 9 2.& - * . . . ",
". . . + @ 3.$.U V W H I s e e e e e e 1.e e e e e e e e e e e e e e e A m 8 9 4.& - * . . . ",
". . . + @ 5.$.U V W H I s e e e e e e e e 6.e e e e e e e e e e e e e A m 8 9 7.& - * . . . ",
". . . + @ 8.$.U V W H I s e e e e e e e e e e 9.e e e e e e e e e e e A m 8 9 0.& - * . . . ",
". . . + @ a.$.U V W H I s e e e e e e e e e e e e b.e e e e e e e e e A m 8 9 c.& - * . . . ",
". . . + @ a.$.U V W H I s e e e e e e e e e e e e e 1.d.e e e e e e e A m 8 9 e.& - * . . . ",
". . . + @ f.$.U V W H I s e e e e e e e e e e e e e e e 9.g.e e e e e A m 8 9 h.& - * . . . ",
". . . + @ i.$.U V W H I s e e e e e e e e e e e e e e e e e j.k.e e e A m 8 9 l.& - * . . . ",
". . . + @ m.$.U V W H I s e e e e e e e e e e e e e e e e e e e n.n.e A m 8 9 o.& - * . . . ",
". . . + @ p.$.U V W H q.r.A A A A A A A A A A A A A A A A A A A A A s.t.m 8 9 u.& - * . . . ",
". . . + @ v.$.U V W w.r.x.y.y.y.y.y.y.y.y.y.y.y.y.y.y.y.y.y.y.y.y.y.y.y.z.A.9 B.& - * . . . ",
". . . + C.D.E.F.G.H.I.J.K.K.L.M.M.N.O.O.O.P.Q.Q.R.S.S.S.T.T.U.V.W.W.X.Y.Y.Z.`. +.+++@+. . . ",
". . . + #+$+%+&+*+=+-+;+;+;+;+;+;+;+;+;+;+;+>+>+,+'+'+'+-+-+-+-+)+)+)+!+!+~+{+~+,+]+^+. . . ",
". . . + + + + + ~ /+(+_+_+_+:+:+<+<+& & & & & & & & & & & & & & & & & & & & | /+:+- * . . . ",
". . . . . . . . . . . . . . . . . . . . . . . . . . . . . . . . . . . . . . . . . . . . . . ",
". . . . . . . . . . . . . . . . . . . . . . . . . . . . . . . . . . . . . . . . . . . . . . ",
". . . . . . . . . . . . . . . . . . . . . . . . . . . . . . . . . . . . . . . . . . . . . . "};
