/* XPM */
static char * area_chart_xpm[] = {
"40 40 173 2",
"  	c None",
". 	c #FFFFFF",
"+ 	c #ADADAD",
"@ 	c #D6D6D6",
"# 	c #F3F3F3",
"$ 	c #D3D1C8",
"% 	c #DEDEDE",
"& 	c #A7A59A",
"* 	c #E1CF6C",
"= 	c #E6E6E6",
"- 	c #E8E8E8",
"; 	c #FCFCFC",
"> 	c #C0C0BE",
", 	c #B5AF8F",
"' 	c #F7D939",
") 	c #FFE557",
"! 	c #FEFEFE",
"~ 	c #DBDBDB",
"{ 	c #ABAAA6",
"] 	c #B7B295",
"^ 	c #AFA882",
"/ 	c #BAB69D",
"( 	c #F5F5F4",
"_ 	c #EDEDED",
": 	c #A9A8A4",
"< 	c #D2C373",
"[ 	c #FFDF33",
"} 	c #FFE559",
"| 	c #FAFAFA",
"1 	c #D0D0CF",
"2 	c #A5A39B",
"3 	c #C1B884",
"4 	c #F1D541",
"5 	c #DBC652",
"6 	c #A5A18A",
"7 	c #D0CDBB",
"8 	c #FDFDFD",
"9 	c #D4D4D4",
"0 	c #A8A69C",
"a 	c #EBD24F",
"b 	c #FFE55C",
"c 	c #F4F4F4",
"d 	c #C6C5BD",
"e 	c #A4A193",
"f 	c #CCBD6D",
"g 	c #F8DA3A",
"h 	c #FBDC37",
"i 	c #C6B765",
"j 	c #A8A491",
"k 	c #E4E2DC",
"l 	c #F9F9F9",
"m 	c #B7B7B6",
"n 	c #BDB693",
"o 	c #FBDC38",
"p 	c #FFE65E",
"q 	c #D7CD95",
"r 	c #BBB69E",
"s 	c #A8A48C",
"t 	c #D6C359",
"u 	c #FCDD35",
"v 	c #EFD441",
"w 	c #B1A97C",
"x 	c #B8B49F",
"y 	c #E7E7E7",
"z 	c #A6A5A3",
"A 	c #DACA76",
"B 	c #FFE661",
"C 	c #B3B0A2",
"D 	c #B3AA77",
"E 	c #E0C94E",
"F 	c #DDC750",
"G 	c #A6A28A",
"H 	c #CDCABA",
"I 	c #CBCBCB",
"J 	c #ACAAA0",
"K 	c #F1D851",
"L 	c #FFE763",
"M 	c #F3DD61",
"N 	c #FCDD36",
"O 	c #C8B964",
"P 	c #A7A492",
"Q 	c #E2E1DB",
"R 	c #AFAFAF",
"S 	c #C5BE99",
"T 	c #FDDE37",
"U 	c #FFE765",
"V 	c #F3DC62",
"W 	c #F1D53F",
"X 	c #B4AB7C",
"Y 	c #B2AF9E",
"Z 	c #A5A5A3",
"` 	c #E2D27A",
" .	c #FFE768",
"..	c #F3DC61",
"+.	c #E6CD49",
"@.	c #F6DB45",
"#.	c #FFE86A",
"$.	c #F4DD61",
"%.	c #FFE86D",
"&.	c #F4DD5F",
"*.	c #FFE86F",
"=.	c #F4DC5E",
"-.	c #FFDF34",
";.	c #FFE971",
">.	c #F5DD5D",
",.	c #FFE974",
"'.	c #F5DD5C",
").	c #FFE035",
"!.	c #FFEA76",
"~.	c #F5DD5B",
"{.	c #FFE037",
"].	c #FFEA79",
"^.	c #F5DD59",
"/.	c #FFE038",
"(.	c #FFEA7A",
"_.	c #F6DD59",
":.	c #FFE13B",
"<.	c #FFEB7D",
"[.	c #F6DD58",
"}.	c #FFE03D",
"|.	c #FFEB7F",
"1.	c #F6DD56",
"2.	c #FFE03B",
"3.	c #FFE03F",
"4.	c #FFEB81",
"5.	c #F6DD54",
"6.	c #FFE141",
"7.	c #FFEC84",
"8.	c #F7DE55",
"9.	c #FFE349",
"0.	c #FFE243",
"a.	c #FFEC86",
"b.	c #F7DD53",
"c.	c #FFE453",
"d.	c #FFE246",
"e.	c #FFEC89",
"f.	c #ACACAC",
"g.	c #F5DC55",
"h.	c #FFE039",
"i.	c #FFE03A",
"j.	c #FEDF3B",
"k.	c #FEE03C",
"l.	c #FEE03D",
"m.	c #FEE03E",
"n.	c #FEE03F",
"o.	c #FEE040",
"p.	c #FEE041",
"q.	c #FEE142",
"r.	c #FDE042",
"s.	c #FDE043",
"t.	c #FDE044",
"u.	c #FDE045",
"v.	c #FDE046",
"w.	c #FDE047",
"x.	c #FCE046",
"y.	c #FCE047",
"z.	c #FCE049",
"A.	c #F8E166",
"B.	c #F2E18F",
"C.	c #E4E4E4",
"D.	c #C9C9C9",
"E.	c #929292",
"F.	c #939393",
"G.	c #949494",
"H.	c #959595",
"I.	c #969696",
"J.	c #979797",
"K.	c #989898",
"L.	c #999999",
"M.	c #9A9A9A",
"N.	c #9B9B9B",
"O.	c #9C9C9C",
"P.	c #FBFBFB",
". + @ . . . . . . . . . . . . . . . . . . . . . . . . . . . . . . . . . . . . . ",
". + @ . . . . . . . . . . . . . . . . . . . . . . . . . . . . . . . . . . . . . ",
". + @ . . . . . . . . . . . . . . . . . . . . . . . . . . . . . . . . . . . . . ",
". + @ . . . . . . . . . . . . . . . . . . . . . . . . . . . . . . . . . . . . . ",
". + @ . . . . . . . . . . . . . . . . . . . . . . . . . . . . . . . . . . . . . ",
". + @ . . . . . . . . . . . . . . . . . . . . . . . . . . . . . . . . . . . . . ",
". + @ . . . . . . . . . . . . . . . . . . . . . . . . . . . . . . . . . . . . . ",
". + @ . . . . . . . . . . . . . . . . . . . . . . . . . . . . . . . . . . . . . ",
". + @ . . . . . . . . . . . . . . . . . . . . . . . . . . . . . . . . . . . . . ",
". + @ . . . . . . . . . . . . . . . . . . . . . . . . . . . . . . . . . . . . . ",
". + @ . . . . . . . . . . . . . . . . . . . . . . . . . . . . . . . . . . . . . ",
". + @ . . . . . . . . . . . . . . . . . . . . . . . . . . . . . . . . . . . . . ",
". + @ . . . . . . . . . . . . . . . . . . . . . . . . . . . . . . . . . . . . . ",
". + @ . . . . . . . . . . . . . . . . . . . . . . . . . . . . . . . . # $ . . . ",
". + @ . . . . . . . . . . . . . . . . . . . . . . . . . . . . . . . % & * . . . ",
". + @ . . . . . . . . = - . . . . . . . . . . . . . . . . . . . ; > , ' ) . . . ",
". + @ . . . . . ! ~ { ] ^ / ( . . . . . . . . . . . . . . . . _ : < [ [ } . . . ",
". + @ . . . | 1 2 3 4 [ [ 5 6 7 8 . . . . . . . . . . . . . 9 0 a [ [ [ b . . . ",
". + @ . c d e f g [ [ [ [ [ h i j k . . . . . . . . . . l m n o [ [ [ [ p . . . ",
". + q r s t u [ [ [ [ [ [ [ [ [ v w x c . . . . . . . y z A [ [ [ [ [ [ B . . . ",
". C D E [ [ [ [ [ [ [ [ [ [ [ [ [ [ F G H 8 . . . ! I J K [ [ [ [ [ [ [ L . . . ",
". + M [ [ [ [ [ [ [ [ [ [ [ [ [ [ [ [ N O P Q . c R S T [ [ [ [ [ [ [ [ U . . . ",
". + V [ [ [ [ [ [ [ [ [ [ [ [ [ [ [ [ [ [ W X Y Z ` [ [ [ [ [ [ [ [ [ [  .. . . ",
". + ..[ [ [ [ [ [ [ [ [ [ [ [ [ [ [ [ [ [ [ [ +.@.[ [ [ [ [ [ [ [ [ [ [ #.. . . ",
". + $.[ [ [ [ [ [ [ [ [ [ [ [ [ [ [ [ [ [ [ [ [ [ [ [ [ [ [ [ [ [ [ [ [ %.. . . ",
". + &.[ [ [ [ [ [ [ [ [ [ [ [ [ [ [ [ [ [ [ [ [ [ [ [ [ [ [ [ [ [ [ [ [ *.. . . ",
". + =.[ [ [ [ [ [ [ [ [ [ [ -.[ [ [ [ [ [ [ [ [ [ [ [ [ [ [ [ [ [ [ [ [ ;.. . . ",
". + >.[ [ [ [ [ [ [ [ [ [ [ [ [ -.[ [ [ [ [ [ [ [ [ [ [ [ [ [ [ [ [ [ [ ,.. . . ",
". + '.[ [ [ [ [ [ [ [ [ [ [ [ [ [ [ ).[ [ [ [ [ [ [ [ [ [ [ [ [ [ [ [ [ !.. . . ",
". + ~.[ [ [ [ [ [ [ [ [ [ [ [ [ [ [ [ [ {.[ [ [ [ [ [ [ [ [ [ [ [ [ [ [ ].. . . ",
". + ^.[ [ [ [ [ [ [ [ [ [ [ [ [ [ [ [ [ [ [ /.[ [ [ [ [ [ [ [ [ [ [ [ [ (.. . . ",
". + _.[ [ [ [ [ [ [ [ [ [ [ [ [ [ [ [ [ [ [ [ -.:.[ [ [ [ [ [ [ [ [ [ [ <.. . . ",
". + [.[ [ [ [ [ [ [ [ [ [ [ [ [ [ [ [ [ [ [ [ [ [ {.}.[ [ [ [ [ [ [ [ [ |.. . . ",
". + 1.[ [ [ [ [ [ [ [ [ [ [ [ [ [ [ [ [ [ [ [ [ [ [ [ 2.3.[ [ [ [ [ [ [ 4.. . . ",
". + 5.[ [ [ [ [ [ [ [ [ [ [ [ [ [ [ [ [ [ [ [ [ [ [ [ [ [ 6.6.[ [ [ [ [ 7.. . . ",
". + 8.[ [ [ [ [ [ [ [ [ [ [ [ [ [ [ [ [ [ [ [ [ [ [ [ [ [ [ [ 9.0.[ [ [ a.. . . ",
". + b.[ [ [ [ [ [ [ [ [ [ [ [ [ [ [ [ [ [ [ [ [ [ [ [ [ [ [ [ [ [ c.d.[ e.. . . ",
". f.g.h.i.2.j.j.k.k.k.l.m.m.n.o.o.o.p.q.q.r.s.s.s.t.t.u.v.w.w.x.y.y.z.A.B.C.C.| ",
". D.E.E.E.E.E.E.E.E.E.E.E.E.E.E.E.E.E.F.F.G.H.H.H.I.I.J.J.K.K.K.L.L.M.N.N.N.O._ ",
". ! l l l | P.P.; ; ; 8 8 ! ! . . . . . . . . . . . . . . . . . . . . . . . . . "};
