/* XPM */
static char * area_chart_sel_xpm[] = {
"40 40 212 2",
"  	c None",
". 	c #FFFFFF",
"+ 	c #E6E6E6",
"@ 	c #EFEFEF",
"# 	c #CBCBCB",
"$ 	c #FEFEFE",
"% 	c #C0C0C0",
"& 	c #FBFBFB",
"* 	c #C5C5C5",
"= 	c #F4F4F4",
"- 	c #D8D8D8",
"; 	c #ADADAD",
"> 	c #E3E3E3",
", 	c #C7C7C7",
"' 	c #ECECEC",
") 	c #F0F0F0",
"! 	c #E2E2E2",
"~ 	c #EAEAEA",
"{ 	c #FAFAFA",
"] 	c #F1F1F1",
"^ 	c #F8F8F8",
"/ 	c #D2D2D2",
"( 	c #99978D",
"_ 	c #C7B75F",
": 	c #E5E5E5",
"< 	c #E7E7E7",
"[ 	c #BBBBB9",
"} 	c #ABA587",
"| 	c #E3C734",
"1 	c #E2CB4D",
"2 	c #DBDBDB",
"3 	c #AAA9A5",
"4 	c #B6B194",
"5 	c #AEA781",
"6 	c #B9B59C",
"7 	c #F4F4F3",
"8 	c #A6A5A1",
"9 	c #CCBE70",
"0 	c #F1D330",
"a 	c #EACD2E",
"b 	c #E2CB4E",
"c 	c #D7D7D6",
"d 	c #A7A59D",
"e 	c #C1B884",
"f 	c #F0D440",
"g 	c #FEDE32",
"h 	c #DAC551",
"i 	c #A4A089",
"j 	c #CFCCBA",
"k 	c #FCFCFC",
"l 	c #D3D3D3",
"m 	c #A7A59B",
"n 	c #E7CF4D",
"o 	c #F8D931",
"p 	c #E2CB51",
"q 	c #D5D3CB",
"r 	c #ADAA9B",
"s 	c #D3C471",
"t 	c #FBDD3A",
"u 	c #FFDF33",
"v 	c #FADB36",
"w 	c #C5B664",
"x 	c #A7A390",
"y 	c #E3E1DB",
"z 	c #B6B6B5",
"A 	c #BCB592",
"B 	c #FADB37",
"C 	c #FBDC32",
"D 	c #E2CC53",
"E 	c #F5EAAA",
"F 	c #D1CBB1",
"G 	c #B8B499",
"H 	c #E6D15F",
"I 	c #FFEA38",
"J 	c #FFE734",
"K 	c #FFE233",
"L 	c #EED340",
"M 	c #B0A87B",
"N 	c #B7B39E",
"O 	c #F3F3F3",
"P 	c #A5A4A2",
"Q 	c #D9C975",
"R 	c #E2CC56",
"S 	c #C7C4B4",
"T 	c #CCC287",
"U 	c #FAE157",
"V 	c #FFF438",
"W 	c #FFEF36",
"X 	c #FFEC36",
"Y 	c #DCC64F",
"Z 	c #A5A189",
"` 	c #CCC9B9",
" .	c #FDFDFD",
"..	c #CACACA",
"+.	c #ABA99F",
"@.	c #F0D750",
"#.	c #E2CC57",
"$.	c #FFFC6E",
"%.	c #FFF939",
"&.	c #FBDC35",
"*.	c #C7B863",
"=.	c #A6A391",
"-.	c #E1E0DA",
";.	c #AEAEAE",
">.	c #C4BD98",
",.	c #FCDD36",
"'.	c #E2CC59",
").	c #FFFB6F",
"!.	c #F0D43E",
"~.	c #B3AA7B",
"{.	c #B1AE9D",
"].	c #A4A4A2",
"^.	c #E1D179",
"/.	c #E2CC5C",
"(.	c #FFFB6E",
"_.	c #E5CC48",
":.	c #F5DA44",
"<.	c #E2CD5E",
"[.	c #E2CD60",
"}.	c #FFFC6C",
"|.	c #E2CD62",
"1.	c #FFFB6B",
"2.	c #FEDE33",
"3.	c #E2CE64",
"4.	c #FFFC6A",
"5.	c #E2CE66",
"6.	c #FFFC69",
"7.	c #FEDF34",
"8.	c #E2CF68",
"9.	c #FFFC67",
"0.	c #FEDF36",
"a.	c #E2CF6B",
"b.	c #FFFC65",
"c.	c #FEDF37",
"d.	c #E2CF6C",
"e.	c #FEE03A",
"f.	c #E2D06E",
"g.	c #FFFC64",
"h.	c #FEDF3C",
"i.	c #E2D070",
"j.	c #FFFC62",
"k.	c #FEDF3A",
"l.	c #FEDF3E",
"m.	c #E2D072",
"n.	c #FFFC5F",
"o.	c #FEE040",
"p.	c #E2D175",
"q.	c #FFFD61",
"r.	c #FFE133",
"s.	c #FDDD32",
"t.	c #FBE048",
"u.	c #FBDF42",
"v.	c #E2D176",
"w.	c #FFFC5E",
"x.	c #FFE434",
"y.	c #F7D831",
"z.	c #F6D731",
"A.	c #F7DD50",
"B.	c #F1D642",
"C.	c #E2D179",
"D.	c #BFBFBF",
"E.	c #FFFB61",
"F.	c #FFFA3F",
"G.	c #FFF53F",
"H.	c #FFF13F",
"I.	c #FFE73D",
"J.	c #F9DA39",
"K.	c #EFD338",
"L.	c #ECD037",
"M.	c #ECD038",
"N.	c #ECD039",
"O.	c #ECD03A",
"P.	c #ECD03B",
"Q.	c #ECD03C",
"R.	c #ECD13D",
"S.	c #EBD03D",
"T.	c #EBD03E",
"U.	c #EBD03F",
"V.	c #EBD040",
"W.	c #EBD041",
"X.	c #EBD042",
"Y.	c #EAD041",
"Z.	c #EAD042",
"`.	c #EAD044",
" +	c #E2CD5D",
".+	c #D6C77E",
"++	c #C1C1C1",
"@+	c #B2B2B2",
"#+	c #AAAAAA",
"$+	c #E0E0E0",
"%+	c #A6A6A6",
"&+	c #A3A3A3",
"*+	c #A0A0A0",
"=+	c #999999",
"-+	c #8E8E8E",
";+	c #858585",
">+	c #818181",
",+	c #828282",
"'+	c #838383",
")+	c #848484",
"!+	c #868686",
"~+	c #878787",
"{+	c #898989",
"]+	c #8C8C8C",
"^+	c #797979",
"/+	c #A1A1A1",
"(+	c #DEDEDE",
"_+	c #D4D4D4",
":+	c #D5D5D5",
"<+	c #D6D6D6",
"[+	c #D7D7D7",
"}+	c #E95829",
". + . . . . . . . . . . . . . . . . . . . . . . . . . . . . . . . . . . . . . . ",
". @ . . . . . . . . . . . . . . . . . . . . . . . . . . . . . . . . . . . . . . ",
". # . . . . . . . . . . . . . . . . . . . . . . . . . . . . . . . . . . . . . $ ",
". % & . . . . . . . . . . . . . . . . . . . . . . . . . . . . . . . . . . . . * ",
". % = . . . . . . . . . . . . . . . . . . . . . . . . . . . . . . . . . . . - ; ",
". % = . . . . . . . . . . . . . . . . . . . . . . . . . . . . . . . . . . > , ; ",
". % = . . . . . . . . . . . . . . . . . . . . . . . . . . . . . . . . . ' - , ; ",
". % = . . . . . . . . . . . . . . . . . . . . . . . . . . . . . . . . ) ! - , ; ",
". % = . . . . . . . . . . . . . . . . . . . . . . . . . . . . . . $ = ~ ! - , ; ",
". % = . . . . . . . . . . . . . . . . . . . . . . . . . . . . . $ { ] ~ ! - , ; ",
". % = . . . . . . . $ $ $ $ $ $ $ $ $ $ $ $ $ $ $ $ $ $ $ $ $ $ & ^ ] ~ ! - , ; ",
". % = . . . . . . . $ $ $ $ $ $ $ $ $ $ $ $ $ $ $ $ $ $ $ $ $ $ & ^ / ( _ - , ; ",
". % = . . . . . . . $ : < $ $ $ $ $ $ $ $ $ $ $ $ $ $ $ $ $ $ $ ^ [ } | 1 - , ; ",
". % = . . . . . . 2 3 4 5 6 7 $ $ $ $ $ $ $ $ $ $ $ $ $ $ $ $ ' 8 9 0 a b - , ; ",
". % = . . . . c d e f g g h i j k $ $ $ $ $ $ $ $ $ $ $ $ $ l m n o 0 a p - , ; ",
". % = . . q r s t u g g g g v w x y $ $ $ $ $ $ $ $ $ $ ^ z A B C o 0 a D - , ; ",
". % E F G H I J K u g g g g g g L M N O $ $ $ $ $ $ $ + P Q g g C o 0 a R - , ; ",
". S T U V W X J K u g g g g g g g g Y Z ` k $ $ $  ...+.@.g g g C o 0 a #.- , ; ",
". % $.%.V W X J K u g g g g g g g g g &.*.=.-.$ O ;.>.,.g g g g C o 0 a '.- , ; ",
". % ).%.V W X J K u g g g g g g g g g g g !.~.{.].^.g g g g g g C o 0 a /.- , ; ",
". % (.%.V W X J K u g g g g g g g g g g g g g _.:.g g g g g g g C o 0 a <.- , ; ",
". % $.%.V W X J K u g g g g g g g g g g g g g g g g g g g g g g C o 0 a [.- , ; ",
". % }.%.V W X J K u g g g g g g g g g g g g g g g g g g g g g g C o 0 a |.- , ; ",
". % 1.%.V W X J K u g g g g 2.g g g g g g g g g g g g g g g g g C o 0 a 3.- , ; ",
". % 4.%.V W X J K u g g g g g g 2.g g g g g g g g g g g g g g g C o 0 a 5.- , ; ",
". % 6.%.V W X J K u g g g g g g g g 7.g g g g g g g g g g g g g C o 0 a 8.- , ; ",
". % 9.%.V W X J K u g g g g g g g g g g 0.g g g g g g g g g g g C o 0 a a.- , ; ",
". % b.%.V W X J K u g g g g g g g g g g g g c.g g g g g g g g g C o 0 a d.- , ; ",
". % b.%.V W X J K u g g g g g g g g g g g g g 2.e.g g g g g g g C o 0 a f.- , ; ",
". % g.%.V W X J K u g g g g g g g g g g g g g g g 0.h.g g g g g C o 0 a i.- , ; ",
". % j.%.V W X J K u g g g g g g g g g g g g g g g g g k.l.g g g C o 0 a m.- , ; ",
". % n.%.V W X J K u g g g g g g g g g g g g g g g g g g g o.o.g C o 0 a p.- , ; ",
". % q.%.V W X J r.s.C C C C C C C C C C C C C C C C C C C C C t.u.o 0 a v.- , ; ",
". % w.%.V W X x.s.y.z.z.z.z.z.z.z.z.z.z.z.z.z.z.z.z.z.z.z.z.z.z.z.A.B.a C.- , ; ",
". D.E.F.G.H.I.J.K.L.L.M.N.N.O.P.P.P.Q.R.R.S.T.T.T.U.U.V.W.X.X.Y.Z.Z.`. +.+++@+#+",
". $+%+&+*+=+-+;+>+>+>+>+>+>+>+>+>+>+>+,+,+'+)+)+)+;+;+;+;+!+!+!+~+~+{+]+{+'+^+/+",
". . . . . ] (+_+:+:+:+<+<+[+[+- - - - - - - - - - - - - - - - - - - - 2 (+<+, ; ",
"}+}+}+}+}+}+}+}+}+}+}+}+}+}+}+}+}+}+}+}+}+}+}+}+}+}+}+}+}+}+}+}+}+}+}+}+}+}+}+}+",
"}+}+}+}+}+}+}+}+}+}+}+}+}+}+}+}+}+}+}+}+}+}+}+}+}+}+}+}+}+}+}+}+}+}+}+}+}+}+}+}+",
"}+}+}+}+}+}+}+}+}+}+}+}+}+}+}+}+}+}+}+}+}+}+}+}+}+}+}+}+}+}+}+}+}+}+}+}+}+}+}+}+"};
