/* XPM */
static char * bar_chart_xpm[] = {
"40 40 29 1",
" 	c None",
".	c #FFFFFF",
"+	c #A6A6A6",
"@	c #D9D9D9",
"#	c #F26B01",
"$	c #F9F8F7",
"%	c #A5A5A5",
"&	c #C5C5C5",
"*	c #F9F9F9",
"=	c #F3F3F3",
"-	c #ECECEC",
";	c #E5E5E5",
">	c #D6D6D6",
",	c #9F9F9F",
"'	c #A0A0A0",
")	c #A1A1A1",
"!	c #A2A2A2",
"~	c #A3A3A3",
"{	c #A4A4A4",
"]	c #A7A7A7",
"^	c #A8A8A8",
"/	c #A9A9A9",
"(	c #AAAAAA",
"_	c #ABABAB",
":	c #ACACAC",
"<	c #ADADAD",
"[	c #AEAEAE",
"}	c #AFAFAF",
"|	c #B0B0B0",
".+@.....................................",
".+@.....................................",
".+@.....................................",
".+@.....................................",
".+@.....................................",
".+@.....................................",
".+@.....................................",
".+@..#########..........................",
".+@..#########..........................",
".+@..#########..........................",
".+@..#########..........................",
".+@..#########..........................",
".+@..#########.............#########....",
".+@..#########.............#########....",
".+@..#########.............#########....",
".+@..#########.............#########....",
".+@..#########..#########..#########....",
".+@..#########..#########..#########....",
".+@..#########..#########..#########....",
".+@..#########..#########..#########....",
".+@..#########..#########..#########....",
".+@..#########..#########..#########....",
".+@..#########..#########..#########....",
".+@..#########..#########..#########....",
".+@..#########..#########..#########....",
".+@..#########..#########..#########....",
".+@..#########..#########..#########....",
".+@..#########..#########..#########....",
".+@..#########..#########..#########....",
".+@..#########..#########..#########....",
".+@..#########..#########..#########....",
".+@..#########..#########..#########....",
".+@..#########..#########..#########....",
".+@..#########..#########..#########....",
".+@..#########..#########..#########....",
".+@..#########..#########..#########....",
".+@...........$.........................",
".%&...........................***=--;;;.",
".>,'))!!~~{{{%%++]]]^//(((__::<<<[}}}||.",
"........................................"};
