/* XPM */
static char * bar_chart_xpm[] = {
"40 40 75 1",
" 	c None",
".	c #FFFFFF",
"+	c #A6A6A6",
"@	c #D9D9D9",
"#	c #C0BDAF",
"$	c #B3AD8C",
"%	c #B4AE8C",
"&	c #AAA799",
"*	c #B7B4A1",
"=	c #F26B01",
"-	c #B4AE8E",
";	c #F6F6F6",
">	c #BABEC1",
",	c #B8BDC0",
"'	c #C4C8CA",
")	c #E4E4E4",
"!	c #768E9E",
"~	c #919CA2",
"{	c #728EA0",
"]	c #919DA5",
"^	c #B3AD8E",
"/	c #F1F1F1",
"(	c #DADADA",
"_	c #A79983",
":	c #C08D64",
"<	c #C38C61",
"[	c #AE8F77",
"}	c #718C9F",
"|	c #A79680",
"1	c #EC6D0A",
"2	c #C87D41",
"3	c #CDCBBE",
"4	c #B4B098",
"5	c #AEA393",
"6	c #B8A291",
"7	c #B9A391",
"8	c #B09F92",
"9	c #9AA0A4",
"0	c #9FA7AC",
"a	c #A8ADB1",
"b	c #A5A5A5",
"c	c #C5C5C5",
"d	c #E0E0E0",
"e	c #DFDFDF",
"f	c #DEDEDE",
"g	c #DDDDDD",
"h	c #DCDCDC",
"i	c #DBDBDB",
"j	c #D8D8D8",
"k	c #D7D7D7",
"l	c #D6D6D6",
"m	c #D5D5D5",
"n	c #D4D4D4",
"o	c #D3D3D3",
"p	c #D2D2D2",
"q	c #D1D1D1",
"r	c #D0D0D0",
"s	c #F8F8F8",
"t	c #9F9F9F",
"u	c #A0A0A0",
"v	c #A1A1A1",
"w	c #A2A2A2",
"x	c #A3A3A3",
"y	c #A4A4A4",
"z	c #A7A7A7",
"A	c #A8A8A8",
"B	c #A9A9A9",
"C	c #AAAAAA",
"D	c #ABABAB",
"E	c #ACACAC",
"F	c #ADADAD",
"G	c #AEAEAE",
"H	c #AFAFAF",
"I	c #B0B0B0",
"J	c #F3F3F3",
".+@.....................................",
".+@.....................................",
".+@.....................................",
".+@.....................................",
".+@.....................................",
".+@.....................................",
".+@#$%%%%%%%%%&.........................",
".+@*==========-.........................",
".+@*==========-.........................",
".+@*==========-.........................",
".+@*==========-.........................",
".+@*==========-.........;>,,,,,,,,,'....",
".+@*==========-.........)!=========~....",
".+@*==========-.........){=========]....",
".+@*==========^/////////({=========]....",
".+@*==========_:<<<<<<<<[}=========]....",
".+@*==========|1========2}=========]....",
".+@*==========|1========2}=========]....",
".+@*==========|1========2}=========]....",
".+@*==========|1========2}=========]....",
".+@*==========|1========2}=========]....",
".+@*==========|1========2}=========]....",
".+@*==========|1========2}=========]....",
".+@*==========|1========2}=========]....",
".+@*==========|1========2}=========]....",
".+@*==========|1========2}=========]....",
".+@*==========|1========2}=========]....",
".+@*==========|1========2}=========]....",
".+@*==========|1========2}=========]....",
".+@*==========|1========2}=========]....",
".+@*==========|1========2}=========]....",
".+@*==========|1========2}=========]....",
".+@*==========|1========2}=========]....",
".+@*==========|1========2}=========]....",
".+@*==========|1========2}=========]....",
".+@*==========|1========2}=========]....",
".+@34444444444567777777789000000000a....",
".bcdeeffgghhhii((@@@jkklllmmnnooopqqrrrs",
".ltuvvwwxxyyybb++zzzABBCCCDDEEFFFGHHHIIJ",
"........................................"};
