/* XPM */
static char * bar_chart_sel_xpm[] = {
"40 40 73 1",
" 	c None",
".	c #FFFFFF",
"+	c #DCDCDC",
"@	c #E6E6E6",
"#	c #C3C3C3",
"$	c #FEFEFE",
"%	c #B9B9B9",
"&	c #C5C5C5",
"*	c #F7F7F7",
"=	c #D8D8D8",
"-	c #ADADAD",
";	c #FF7601",
">	c #FF7701",
",	c #E3E3E3",
"'	c #C7C7C7",
")	c #FF7401",
"!	c #FF7301",
"~	c #ECECEC",
"{	c #FF7101",
"]	c #FF7001",
"^	c #F0F0F0",
"/	c #E2E2E2",
"(	c #FA6E01",
"_	c #F66D01",
":	c #F86D01",
"<	c #F4F4F4",
"[	c #EAEAEA",
"}	c #F56C01",
"|	c #F26B01",
"1	c #FAFAFA",
"2	c #F1F1F1",
"3	c #F16A00",
"4	c #EE6900",
"5	c #EC6800",
"6	c #E56500",
"7	c #DE6200",
"8	c #F46C01",
"9	c #F06A00",
"0	c #FBFBFB",
"a	c #EA6700",
"b	c #E96700",
"c	c #F6F6F6",
"d	c #EDEDED",
"e	c #E7E7E6",
"f	c #E9E9E9",
"g	c #B7B7B7",
"h	c #E1E1E1",
"i	c #F8F8F8",
"j	c #D7D7D7",
"k	c #D2D2D2",
"l	c #D5D5D5",
"m	c #CBCBCB",
"n	c #C2C2C2",
"o	c #B3B3B3",
"p	c #EEEEEE",
"q	c #B5B5B5",
"r	c #AAAAAA",
"s	c #9B9B9B",
"t	c #8F8F8F",
"u	c #898989",
"v	c #8A8A8A",
"w	c #8B8B8B",
"x	c #8C8C8C",
"y	c #8D8D8D",
"z	c #8E8E8E",
"A	c #909090",
"B	c #919191",
"C	c #929292",
"D	c #939393",
"E	c #949494",
"F	c #969696",
"G	c #989898",
"H	c #E95829",
".+......................................",
".@......................................",
".#.....................................$",
".%.....................................&",
".%*...................................=-",
".%*..;>>>>>>>>.......................,'-",
".%*..)!)))))))......................~='-",
".%*..!{]]]]]]].....................^/='-",
".%*..!{(__::::...................$<[/='-",
".%*..!{(}|||||..................$12[/='-",
".%*..!{(}|3333$$$$$$$$$$$$$333334567/='-",
".%*..!{(}|3333$$$$$$$$$$$$$333334567/='-",
".%*..!{(}|3333$$$$$$$$$$$$$333334567/='-",
".%*..!{(}|3333$$$$$$$$$$$$$333334567/='-",
".%*..!{(}|3333$$333333333$$333334567/='-",
".%*..!{(}|3333$$333333333$$333334567/='-",
".%*..!{(}|3333$$333333333$$333334567/='-",
".%*..!{(}|3333$$333333333$$333334567/='-",
".%*..!{(}|3333$$333333333$$333334567/='-",
".%*..!{(}|3333$$333333333$$333334567/='-",
".%*..!{(}|3333$$333333333$$333334567/='-",
".%*..!{(}|3333$$333333333$$333334567/='-",
".%*..!{(}|3333$$333333333$$333334567/='-",
".%*..!{(}|3333$$333333333$$333334567/='-",
".%*..!{(}|3333$$333333333$$333334567/='-",
".%*..!{(}|3333$$333333333$$333334567/='-",
".%*..!{(}|3333$$333333333$$333334567/='-",
".%*..!{(}|3333$$333333333$$333334567/='-",
".%*..!{(}|3333$$333333333$$333334567/='-",
".%*..!{(}|3333$$333333333$$333334567/='-",
".%*..!{(}|3333$$333333333$$333334567/='-",
".%*..!{(}|3333$$333333333$$333334567/='-",
".%*..!{(8944440044444444400444444567/='-",
".%*..!{:9abbbbccbbbbbbbbbccbbbbbba67/='-",
".%*....1^dddddeddddddddddddddddddddf/='-",
".gh...if//////////////////////+++jklmno-",
".pqorstuvvwwwxxxxyyyzttAAABBBBCCCDEFGEu-",
"HHHHHHHHHHHHHHHHHHHHHHHHHHHHHHHHHHHHHHHH",
"HHHHHHHHHHHHHHHHHHHHHHHHHHHHHHHHHHHHHHHH",
"HHHHHHHHHHHHHHHHHHHHHHHHHHHHHHHHHHHHHHHH"};
