/* XPM */
static char * barchart_xpm[] = {
"40 40 79 1",
" 	c None",
".	c #FFFFFF",
"+	c #A6A6A6",
"@	c #D9D9D9",
"#	c #C0BDAF",
"$	c #B3AD8C",
"%	c #B4AE8C",
"&	c #AAA799",
"*	c #B7B4A1",
"=	c #FCDD36",
"-	c #FFDF33",
";	c #B4AE8E",
">	c #F6F6F6",
",	c #BABEC1",
"'	c #B8BDC0",
")	c #C4C8CA",
"!	c #E4E4E4",
"~	c #768E9E",
"{	c #5C86A1",
"]	c #919CA2",
"^	c #728EA0",
"/	c #5585A4",
"(	c #919DA5",
"_	c #B3AD8E",
":	c #F1F1F1",
"<	c #DADADA",
"[	c #A79983",
"}	c #C08D64",
"|	c #C38C61",
"1	c #AE8F77",
"2	c #718C9F",
"3	c #A79680",
"4	c #EC6D0A",
"5	c #F26B01",
"6	c #C87D41",
"7	c #CDCBBE",
"8	c #B4B098",
"9	c #AEA393",
"0	c #B8A291",
"a	c #B9A391",
"b	c #B09F92",
"c	c #9AA0A4",
"d	c #9FA7AC",
"e	c #A8ADB1",
"f	c #A5A5A5",
"g	c #C5C5C5",
"h	c #E0E0E0",
"i	c #DFDFDF",
"j	c #DEDEDE",
"k	c #DDDDDD",
"l	c #DCDCDC",
"m	c #DBDBDB",
"n	c #D8D8D8",
"o	c #D7D7D7",
"p	c #D6D6D6",
"q	c #D5D5D5",
"r	c #D4D4D4",
"s	c #D3D3D3",
"t	c #D2D2D2",
"u	c #D1D1D1",
"v	c #D0D0D0",
"w	c #F8F8F8",
"x	c #9F9F9F",
"y	c #A0A0A0",
"z	c #A1A1A1",
"A	c #A2A2A2",
"B	c #A3A3A3",
"C	c #A4A4A4",
"D	c #A7A7A7",
"E	c #A8A8A8",
"F	c #A9A9A9",
"G	c #AAAAAA",
"H	c #ABABAB",
"I	c #ACACAC",
"J	c #ADADAD",
"K	c #AEAEAE",
"L	c #AFAFAF",
"M	c #B0B0B0",
"N	c #F3F3F3",
".+@.....................................",
".+@.....................................",
".+@.....................................",
".+@.....................................",
".+@.....................................",
".+@.....................................",
".+@#$%%%%%%%%%&.........................",
".+@*=---------;.........................",
".+@*=---------;.........................",
".+@*=---------;.........................",
".+@*=---------;.........................",
".+@*=---------;.........>,''''''''')....",
".+@*=---------;.........!~{{{{{{{{{]....",
".+@*=---------;.........!^/////////(....",
".+@*=---------_:::::::::<^/////////(....",
".+@*=---------[}||||||||12/////////(....",
".+@*=---------345555555562/////////(....",
".+@*=---------345555555562/////////(....",
".+@*=---------345555555562/////////(....",
".+@*=---------345555555562/////////(....",
".+@*=---------345555555562/////////(....",
".+@*=---------345555555562/////////(....",
".+@*=---------345555555562/////////(....",
".+@*=---------345555555562/////////(....",
".+@*=---------345555555562/////////(....",
".+@*=---------345555555562/////////(....",
".+@*=---------345555555562/////////(....",
".+@*=---------345555555562/////////(....",
".+@*=---------345555555562/////////(....",
".+@*=---------345555555562/////////(....",
".+@*=---------345555555562/////////(....",
".+@*=---------345555555562/////////(....",
".+@*=---------345555555562/////////(....",
".+@*=---------345555555562/////////(....",
".+@*=---------345555555562/////////(....",
".+@*=---------345555555562/////////(....",
".+@7888888888890aaaaaaaabcddddddddde....",
".fghiijjkklllmm<<@@@noopppqqrrssstuuvvvw",
".pxyzzAABBCCCff++DDDEFFGGGHHIIJJJKLLLMMN",
"........................................"};
