/* XPM */
static char * blankhelpbutton_xpm[] = {
"170 24 3 1",
" 	c None",
".	c #E97629",
"+	c #D9D6CD",
"..........................................................................................................................................................................",
"..........................................................................................................................................................................",
"..........................................................................................................................................................................",
"..........................................................................................................................................................................",
"..........................................................................................................................................................................",
"..........................................................................................................................................................................",
"..........................................................................................................................................................................",
"..........................................................................................................................................................................",
"..........................................................................................................................................................................",
"..........................................................................................................................................................................",
"..........................................................................................................................................................................",
"..........................................................................................................................................................................",
"..........................................................................................................................................................................",
"..........................................................................................................................................................................",
"..........................................................................................................................................................................",
"..........................................................................................................................................................................",
"..........................................................................................................................................................................",
"..........................................................................................................................................................................",
"..........................................................................................................................................................................",
"..........................................................................................................................................................................",
"..........................................................................................................................................................................",
"..........................................................................................................................................................................",
"++++++++++++++++++++++++++++++++++++++++++++++++++++++++++++++++++++++++++++++++++++++++++++++++++++++++++++++++++++++++++++++++++++++++++++++++++++++++++++++++++++++++++",
"++++++++++++++++++++++++++++++++++++++++++++++++++++++++++++++++++++++++++++++++++++++++++++++++++++++++++++++++++++++++++++++++++++++++++++++++++++++++++++++++++++++++++"};
