/* XPM */
static char * blankbutton_xpm[] = {
"120 24 4 1",
" 	c None",
".	c #736354",
"+	c #756557",
"@	c #0D0D0D",
"........................................................................................................................",
"........................................................................................................................",
"........................................................................................................................",
"........................................................................................................................",
"........................................................................................................................",
"........................................................................................................................",
"........................................................................................................................",
"........................................................................................................................",
"........................................................................................................................",
"........................................................................................................................",
"............+...........................................................................................................",
"........................................................................................................................",
"........................................................................................................................",
"........................................................................................................................",
"........................................................................................................................",
"........................................................................................................................",
"........................................................................................................................",
"........................................................................................................................",
"........................................................................................................................",
"........................................................................................................................",
"........................................................................................................................",
"........................................................................................................................",
"@@@@@@@@@@@@@@@@@@@@@@@@@@@@@@@@@@@@@@@@@@@@@@@@@@@@@@@@@@@@@@@@@@@@@@@@@@@@@@@@@@@@@@@@@@@@@@@@@@@@@@@@@@@@@@@@@@@@@@@@",
"@@@@@@@@@@@@@@@@@@@@@@@@@@@@@@@@@@@@@@@@@@@@@@@@@@@@@@@@@@@@@@@@@@@@@@@@@@@@@@@@@@@@@@@@@@@@@@@@@@@@@@@@@@@@@@@@@@@@@@@@"};
