/* XPM */
static char * blankbutton_xpm[] = {
"170 24 6 1",
" 	c None",
".	c #736354",
"+	c #726253",
"@	c #716152",
"#	c #746455",
"$	c #0D0D0D",
"..........................................................................................................................................................................",
"..........................................................................................................................................................................",
"..........................................................................................................................................................................",
"..........................................................................................................................................................................",
"..........................................................................................................................................................................",
"..........................................................................................................................................................................",
"..........................................................................................................................................................................",
"..........................................................................................................................................................................",
"..........................................................................................................................................................................",
"..........................................................................................................................................................................",
".............+@@.#.@@+....................................................................................................................................................",
"..........................................................................................................................................................................",
"..........................................................................................................................................................................",
"..........................................................................................................................................................................",
"..........................................................................................................................................................................",
"..........................................................................................................................................................................",
"..........................................................................................................................................................................",
"..........................................................................................................................................................................",
"..........................................................................................................................................................................",
"..........................................................................................................................................................................",
"..........................................................................................................................................................................",
"..........................................................................................................................................................................",
"$$$$$$$$$$$$$$$$$$$$$$$$$$$$$$$$$$$$$$$$$$$$$$$$$$$$$$$$$$$$$$$$$$$$$$$$$$$$$$$$$$$$$$$$$$$$$$$$$$$$$$$$$$$$$$$$$$$$$$$$$$$$$$$$$$$$$$$$$$$$$$$$$$$$$$$$$$$$$$$$$$$$$$$$$$",
"$$$$$$$$$$$$$$$$$$$$$$$$$$$$$$$$$$$$$$$$$$$$$$$$$$$$$$$$$$$$$$$$$$$$$$$$$$$$$$$$$$$$$$$$$$$$$$$$$$$$$$$$$$$$$$$$$$$$$$$$$$$$$$$$$$$$$$$$$$$$$$$$$$$$$$$$$$$$$$$$$$$$$$$$$$"};
