/* XPM */
static char * boxplot_sel_xpm[] = {
"46 40 59 1",
" 	c None",
".	c #FF7401",
"+	c #FFFFFF",
"@	c #C2C2C2",
"#	c #C0C0C0",
"$	c #B2B2B2",
"%	c #A9A9A9",
"&	c #8B8B8B",
"*	c #A4A4A4",
"=	c #1D394C",
"-	c #FFE6B5",
";	c #FFA03A",
">	c #737373",
",	c #1C384A",
"'	c #FF871B",
")	c #FF7700",
"!	c #EFEFEF",
"~	c #696969",
"{	c #1C3749",
"]	c #FFB46F",
"^	c #FF7400",
"/	c #F4F4F4",
"(	c #E9E9E9",
"_	c #1B3647",
":	c #FEFEFE",
"<	c #F7F7F7",
"[	c #FDFDFD",
"}	c #1A3445",
"|	c #FAFAFA",
"1	c #F3F3F3",
"2	c #BC3C09",
"3	c #BB3C09",
"4	c #F8F8F8",
"5	c #5384A3",
"6	c #5282A1",
"7	c #FBFBFB",
"8	c #F06800",
"9	c #EF6800",
"0	c #1B3546",
"a	c #FCFCFC",
"b	c #1A3343",
"c	c #F6F6F6",
"d	c #B73B09",
"e	c #F5F5F5",
"f	c #193242",
"g	c #193141",
"h	c #F0F0F0",
"i	c #B23909",
"j	c #EAEAEA",
"k	c #ECECEC",
"l	c #E7E7E7",
"m	c #E0E0E0",
"n	c #E2E2E2",
"o	c #E5E5E5",
"p	c #999999",
"q	c #7F7F7F",
"r	c #5F5F5F",
"s	c #626262",
"t	c #646464",
"..............................................",
"..............................................",
"..............................................",
"...+@+++++++++++++++++++++++++++++++++++++#...",
"...+$+++++++++++++++++++++++++++++++++++++%...",
"...+%+++++++++++++++++++++++++++++++++++++&...",
"...+*++++=========++++++++++++++-;-+++++++>...",
"...+*++++++++,++++++++++++++++++')'++++++!~...",
"...+*++++++++{++++++++++++++++++]^]+++++/(~...",
"...+*++++++++_++++++++++++++++++++++++:<!(~...",
"...+*+++++[[[}[[[[::::::::::[[[[[[[[[[|1!(~...",
"...+*+++++[[[}[[[[::::::::::[22222222341!(~...",
"...+*++++566666666::::::::::[[[[[2[[[741!(~...",
"...+*++++566666666::::::::::[[[[[2[[[741!(~...",
"...+*++++566666666::::::::::[[[[[2[[[741!(~...",
"...+*++++566666666:::::::::::[[[[2[[[741!(~...",
"...+*++++566666666:::::::::::[[[[2[[[741!(~...",
"...+*++++566666666:::::::::::[[[[2[[[741!(~...",
"...+*++++566666666:::::::::::88888888941!(~...",
"...+*++++566666666:::::::::::88888888941!(~...",
"...+*++++0}}}}}}}}:::::::::::88888888941!(~...",
"...+*++++566666666:::::::::::88888888941!(~...",
"...+*++++566666666:::::::::::88888888941!(~...",
"...+*++++566666666:::::::::::88888888941!(~...",
"...+*++++566666666:::::::::::88888888941!(~...",
"...+*++++566666666:::::::::::88888888941!(~...",
"...+*++++566666666:::::::::::22222222341!(~...",
"...+*++++566666666:::::::::::88888888941!(~...",
"...+*+++++[[[}[[[::::::::::::88888888941!(~...",
"...+*+++++[[[}[[[::::::::::::88888888941!(~...",
"...+*+++++:::}:::::::::::::::[[[[2[[[741!(~...",
"...+*+++++[[[}[[[[[[[[[[[[[[[aaaa3aaa741!(~...",
"...+*++++[4<<b<<<<<<<<<<<<<<<ccccdccce<1!(~...",
"...+*+++7fgggggggghhhhhhhhhhhiiiiiiiiihh!(~...",
"...+*++|!((((((((((((((((((((((((((((((jkl~...",
"...+*+4lmmmmmmmmmmmmmmmmmmmmmmmmmmmmmmmmno~...",
"...+pq~rrrrrrrrrrrrrrrrrrrrrrrrrrrrrrrrrrst...",
"..............................................",
"..............................................",
".............................................."};
