/* XPM */
static char * boxplot_xpm[] = {
"46 40 75 1",
" 	c None",
".	c #FFFFFF",
"+	c #FEFEFE",
"@	c #C2C2C2",
"#	c #C0C0C0",
"$	c #C7C7C7",
"%	c #B2B2B2",
"&	c #A9A9A9",
"*	c #D9D9D9",
"=	c #B0B0B0",
"-	c #8B8B8B",
";	c #E3E3E3",
">	c #C8C8C8",
",	c #A4A4A4",
"'	c #1D394C",
")	c #FFE6B5",
"!	c #FFA03A",
"~	c #737373",
"{	c #D6D6D6",
"]	c #1C384A",
"^	c #FF871B",
"/	c #FF7700",
"(	c #EFEFEF",
"_	c #696969",
":	c #1C3749",
"<	c #FFB46F",
"[	c #FF7400",
"}	c #F4F4F4",
"|	c #E9E9E9",
"1	c #1B3647",
"2	c #F7F7F7",
"3	c #FDFDFD",
"4	c #1A3445",
"5	c #FAFAFA",
"6	c #F3F3F3",
"7	c #BC3C09",
"8	c #BB3C09",
"9	c #F8F8F8",
"0	c #5384A3",
"a	c #5282A1",
"b	c #FBFBFB",
"c	c #F06800",
"d	c #EF6800",
"e	c #1B3546",
"f	c #FCFCFC",
"g	c #1A3343",
"h	c #F6F6F6",
"i	c #B73B09",
"j	c #F5F5F5",
"k	c #193242",
"l	c #193141",
"m	c #F0F0F0",
"n	c #B23909",
"o	c #EAEAEA",
"p	c #ECECEC",
"q	c #E7E7E7",
"r	c #E0E0E0",
"s	c #E2E2E2",
"t	c #E5E5E5",
"u	c #999999",
"v	c #7F7F7F",
"w	c #5F5F5F",
"x	c #626262",
"y	c #646464",
"z	c #D5D5D5",
"A	c #CBCBCB",
"B	c #CFCFCF",
"C	c #EDEDED",
"D	c #B7B7B7",
"E	c #BCBCBC",
"F	c #C1C1C1",
"G	c #ADADAD",
"H	c #989898",
"I	c #9E9E9E",
"J	c #A5A5A5",
"..............................................",
"..............................................",
".............................................+",
"....@.....................................#..$",
"....%.....................................&.*=",
"....&.....................................-;>=",
"....,....'''''''''..............)!).......~{>=",
"....,........]..................^/^......(_{>=",
"....,........:..................<[<.....}|_{>=",
"....,........1........................+2(|_{>=",
"....,.....33343333++++++++++333333333356(|_{>=",
"....,.....33343333++++++++++377777777896(|_{>=",
"....,....0aaaaaaaa++++++++++333337333b96(|_{>=",
"....,....0aaaaaaaa++++++++++333337333b96(|_{>=",
"....,....0aaaaaaaa++++++++++333337333b96(|_{>=",
"....,....0aaaaaaaa+++++++++++33337333b96(|_{>=",
"....,....0aaaaaaaa+++++++++++33337333b96(|_{>=",
"....,....0aaaaaaaa+++++++++++33337333b96(|_{>=",
"....,....0aaaaaaaa+++++++++++ccccccccd96(|_{>=",
"....,....0aaaaaaaa+++++++++++ccccccccd96(|_{>=",
"....,....e44444444+++++++++++ccccccccd96(|_{>=",
"....,....0aaaaaaaa+++++++++++ccccccccd96(|_{>=",
"....,....0aaaaaaaa+++++++++++ccccccccd96(|_{>=",
"....,....0aaaaaaaa+++++++++++ccccccccd96(|_{>=",
"....,....0aaaaaaaa+++++++++++ccccccccd96(|_{>=",
"....,....0aaaaaaaa+++++++++++ccccccccd96(|_{>=",
"....,....0aaaaaaaa+++++++++++77777777896(|_{>=",
"....,....0aaaaaaaa+++++++++++ccccccccd96(|_{>=",
"....,.....3334333++++++++++++ccccccccd96(|_{>=",
"....,.....3334333++++++++++++ccccccccd96(|_{>=",
"....,.....+++4+++++++++++++++33337333b96(|_{>=",
"....,.....3334333333333333333ffff8fffb96(|_{>=",
"....,....3922g222222222222222hhhhihhhj26(|_{>=",
"....,...bkllllllllmmmmmmmmmmmnnnnnnnnnmm(|_{>=",
"....,..5(||||||||||||||||||||||||||||||opq_{>=",
"....,.9qrrrrrrrrrrrrrrrrrrrrrrrrrrrrrrrrst_{>=",
"....uv_wwwwwwwwwwwwwwwwwwwwwwwwwwwwwwwwwwxyz>=",
"....6z>>>>>>>>>>>>>>>>>>>>>>>>>>>>>>>>>>>>AB>=",
"...C$DDDDDDDDDDDDDDDDDDDDDDDDDDDDDDDDDDDDDDEF=",
"..tGHHHHHHHHHHHHHHHHHHHHHHHHHHHHHHHHHHHHHHHHIJ"};
