/* XPM */
static char * clustered_bar_chart_sel_xpm[] = {
"46 40 171 2",
"  	c None",
". 	c #FF7401",
"+ 	c #FFFFFF",
"@ 	c #DBDBDB",
"# 	c #F6EBAE",
"$ 	c #F6EAAE",
"% 	c #FFFFF0",
"& 	c #C5C5C5",
"* 	c #D5D5D5",
"= 	c #F4F1DD",
"- 	c #FFFC3D",
"; 	c #FFFF3A",
"> 	c #EDE9CC",
", 	c #D8D8D8",
"' 	c #ADADAD",
") 	c #EFECD9",
"! 	c #FFF53B",
"~ 	c #FFF738",
"{ 	c #FFF838",
"] 	c #E6E2C6",
"^ 	c #DEBEA4",
"/ 	c #E3C0A6",
"( 	c #E1C0A6",
"_ 	c #E3E3E3",
": 	c #C7C7C7",
"< 	c #FFF23B",
"[ 	c #FFF237",
"} 	c #FFF137",
"| 	c #E1DCC1",
"1 	c #F7F3F1",
"2 	c #F27B1E",
"3 	c #FA7914",
"4 	c #EFE5DE",
"5 	c #ECECEC",
"6 	c #FFEF36",
"7 	c #FFED36",
"8 	c #FFEA35",
"9 	c #DAD5BB",
"0 	c #F0ECE9",
"a 	c #EA781D",
"b 	c #FF7001",
"c 	c #F27614",
"d 	c #E7DED8",
"e 	c #F0F0F0",
"f 	c #E2E2E2",
"g 	c #FFEC36",
"h 	c #FFE734",
"i 	c #D3CFB5",
"j 	c #F0F1F1",
"k 	c #E1E3E5",
"l 	c #E6E7E9",
"m 	c #E9E5E3",
"n 	c #E4741C",
"o 	c #F86D01",
"p 	c #EB7213",
"q 	c #E1D8D2",
"r 	c #FEFEFE",
"s 	c #F4F4F4",
"t 	c #EAEAEA",
"u 	c #D2CEB4",
"v 	c #9FACB4",
"w 	c #5F87A1",
"x 	c #8599A6",
"y 	c #E4E0DE",
"z 	c #DF721C",
"A 	c #F26B01",
"B 	c #E67013",
"C 	c #DCD3CD",
"D 	c #FAFAFA",
"E 	c #F1F1F1",
"F 	c #A0AEB7",
"G 	c #5484A3",
"H 	c #8299A9",
"I 	c #E3DFDD",
"J 	c #DE711B",
"K 	c #F16A00",
"L 	c #E56F12",
"M 	c #DBD2CC",
"N 	c #FBFBFB",
"O 	c #F8F8F8",
"P 	c #E37016",
"Q 	c #A5A9AC",
"R 	c #B3BBC1",
"S 	c #D0D4D7",
"T 	c #BC9B7A",
"U 	c #D0996E",
"V 	c #CF986D",
"W 	c #91989B",
"X 	c #DD721E",
"Y 	c #6E8CA0",
"Z 	c #A7B2BA",
"` 	c #C98E5B",
" .	c #919494",
"..	c #DCD8D6",
"+.	c #D0C68E",
"@.	c #E3CD53",
"#.	c #C1B171",
"$.	c #DCCF88",
"%.	c #FEDE32",
"&.	c #D0BC61",
"*.	c #C88D5A",
"=.	c #F06A00",
"-.	c #EE6900",
";.	c #909393",
">.	c #5383A1",
",.	c #8198A7",
"'.	c #DACD87",
").	c #FBDC32",
"!.	c #CEBA60",
"~.	c #DC701B",
"{.	c #DB711E",
"].	c #6D8B9E",
"^.	c #F4F0E2",
"/.	c #E5D683",
"(.	c #E3D381",
"_.	c #DFD07F",
":.	c #D8CA7B",
"<.	c #B59479",
"[.	c #C68C5F",
"}.	c #C58B5E",
"|.	c #919292",
"1.	c #8297A4",
"2.	c #8F9BA3",
"3.	c #F6F6F6",
"4.	c #C9C089",
"5.	c #DCC651",
"6.	c #BAAC6E",
"7.	c #BB8457",
"8.	c #C7834D",
"9.	c #BC8559",
"0.	c #7D8E9A",
"a.	c #728EA0",
"b.	c #A5AEB4",
"c.	c #F7F7F7",
"d.	c #D1D1D1",
"e.	c #FCFCFC",
"f.	c #EEEEEE",
"g.	c #E4E4E4",
"h.	c #E1E1E1",
"i.	c #E0E0E0",
"j.	c #DFDFDF",
"k.	c #DEDEDE",
"l.	c #DDDDDD",
"m.	c #DCDCDC",
"n.	c #D4D4D4",
"o.	c #D3D3D3",
"p.	c #D0D0D0",
"q.	c #CFCFCF",
"r.	c #D7D7D7",
"s.	c #D6D6D6",
"t.	c #D2D2D2",
"u.	c #CBCBCB",
"v.	c #C2C2C2",
"w.	c #B2B2B2",
"x.	c #A6A6A6",
"y.	c #AAAAAA",
"z.	c #A3A3A3",
"A.	c #A0A0A0",
"B.	c #999999",
"C.	c #8E8E8E",
"D.	c #858585",
"E.	c #818181",
"F.	c #828282",
"G.	c #838383",
"H.	c #848484",
"I.	c #868686",
"J.	c #878787",
"K.	c #898989",
"L.	c #8B8B8B",
"M.	c #797979",
"N.	c #929292",
". . . . . . . . . . . . . . . . . . . . . . . . . . . . . . . . . . . . . . . . . . . . . . ",
". . . . . . . . . . . . . . . . . . . . . . . . . . . . . . . . . . . . . . . . . . . . . . ",
". . . . . . . . . . . . . . . . . . . . . . . . . . . . . . . . . . . . . . . . . . . . . . ",
". . . + @ @ + # $ $ $ % + + + + + + + + + + + + + + + + + + + + + + + + + + + + + + & . . . ",
". . . + @ * = - ; ; ; > + + + + + + + + + + + + + + + + + + + + + + + + + + + + + , ' . . . ",
". . . + @ * ) ! ~ { { ] + + + + + + + + + + + + + + + ^ / / ( + + + + + + + + + _ : ' . . . ",
". . . + @ * ) < [ } [ | + + + + + + + + + + + + + + 1 2 . . 3 4 + + + + + + + 5 , : ' . . . ",
". . . + @ * ) < 6 7 8 9 + + + + + + + + + + + + + + 0 a b b c d + + + + + + e f , : ' . . . ",
". . . + @ * ) < 6 g h i + + + j k k k l + + + + + + m n o o p q + + + + r s t f , : ' . . . ",
". . . + @ * ) < 6 g h u + + + v w w w x + + + + + + y z A A B C + + + r D E t f , : ' . . . ",
". . . + @ * ) < 6 g h u + r r F G G G H r r r r r r I J K K L M r r r N O E t f , : ' . . . ",
". . . + @ * ) < 6 g h u + r r F G G G H r r r r r r I J K K P Q R R R S O E t f , : ' . . . ",
". . . + @ * ) < 6 g h T U V V W G G G H r r r r r r I J K K X Y G G G Z O E t f , : ' . . . ",
". . . + @ * ) < 6 g h ` A K K  .G G G H r r r r r r I J K K X Y G G G Z O E t f , : ' . . . ",
". . . + @ * ) < 6 g h ` A K K  .G G G H r r r r r r I J K K X Y G G G Z O E t f , : ' . . . ",
". . . + @ * ) < 6 g h ` A K K  .G G G H r r O s s s ..J K K X Y G G G Z O E t f , : ' . . . ",
". . . + @ * ) < 6 g h ` A K K  .G G G H r r +.@.@.@.#.J K K X Y G G G Z O E t f , : ' . . . ",
". . . + @ * ) < 6 g h ` A K K  .G G G H r r $.%.%.%.&.J K K X Y G G G Z O E t f , : ' . . . ",
". . . + @ * ) < 6 g h ` A K K  .G G G H r r $.%.%.%.&.J K K X Y G G G Z O E t f , : ' . . . ",
". . . + @ * ) < 6 g h ` A K K  .G G G H r r $.%.%.%.&.J K K X Y G G G Z O E t f , : ' . . . ",
". . . + @ * ) < 6 g h ` A K K  .G G G H r r $.%.%.%.&.J K K X Y G G G Z O E t f , : ' . . . ",
". . . + @ * ) < 6 g h ` A K K  .G G G H r r $.%.%.%.&.J K K X Y G G G Z O E t f , : ' . . . ",
". . . + @ * ) < 6 g h ` A K K  .G G G H r r $.%.%.%.&.J K K X Y G G G Z O E t f , : ' . . . ",
". . . + @ * ) < 6 g h ` A K K  .G G G H r r $.%.%.%.&.J K K X Y G G G Z O E t f , : ' . . . ",
". . . + @ * ) < 6 g h ` A K K  .G G G H r r $.%.%.%.&.J K K X Y G G G Z O E t f , : ' . . . ",
". . . + @ * ) < 6 g h ` A K K  .G G G H r r $.%.%.%.&.J K K X Y G G G Z O E t f , : ' . . . ",
". . . + @ * ) < 6 g h ` A K K  .G G G H r r $.%.%.%.&.J K K X Y G G G Z O E t f , : ' . . . ",
". . . + @ * ) < 6 g h ` A K K  .G G G H r r $.%.%.%.&.J K K X Y G G G Z O E t f , : ' . . . ",
". . . + @ * ) < 6 g h ` A K K  .G G G H r r $.%.%.%.&.J K K X Y G G G Z O E t f , : ' . . . ",
". . . + @ * ) < 6 g h ` A K K  .G G G H r r $.%.%.%.&.J K K X Y G G G Z O E t f , : ' . . . ",
". . . + @ * ) < 6 g h ` A K K  .G G G H r r $.%.%.%.&.J K K X Y G G G Z O E t f , : ' . . . ",
". . . + @ * ) < 6 g h ` A K K  .G G G H r r $.%.%.%.&.J K K X Y G G G Z O E t f , : ' . . . ",
". . . + @ * ) < 6 g h *.=.-.-.;.>.>.>.,.N N '.).).).!.~.-.-.{.].>.>.>.Z O E t f , : ' . . . ",
". . . + @ * ^./.(._.:.<.[.}.}.|.1.1.1.2.3.3.4.5.5.5.6.7.8.8.9.0.a.a.a.b.c.E t f , : ' . . . ",
". . . + @ d.+ + + e.f.g.h.i.j.j.j.k.k.l.l.m., * n.n.o.n.n.n.o.d.p.p.q.n.r.s.t.u.v.w.x.. . . ",
". . . + N y.z.A.B.C.D.E.E.E.E.E.E.E.E.E.E.E.F.F.G.G.H.H.D.D.D.D.I.I.I.J.J.K.L.K.G.M.N.. . . ",
". . . + + + + + E l.n.n.* * s.s.r.r., , , , , , , , , , , , , , , , , , , , @ k.s.: ' . . . ",
". . . . . . . . . . . . . . . . . . . . . . . . . . . . . . . . . . . . . . . . . . . . . . ",
". . . . . . . . . . . . . . . . . . . . . . . . . . . . . . . . . . . . . . . . . . . . . . ",
". . . . . . . . . . . . . . . . . . . . . . . . . . . . . . . . . . . . . . . . . . . . . . "};
