/* XPM */
static char * clustered_bar_chart_sel_xpm[] = {
"40 40 175 2",
"  	c None",
". 	c #FFFFFF",
"+ 	c #EFEFEF",
"@ 	c #F6F6F6",
"# 	c #E7E7E7",
"$ 	c #E9E9E9",
"% 	c #FEFEFE",
"& 	c #DBDBDB",
"* 	c #F6EBAE",
"= 	c #F6EAAE",
"- 	c #FFFFF0",
"; 	c #C5C5C5",
"> 	c #D5D5D5",
", 	c #F4F1DD",
"' 	c #FFFC3D",
") 	c #FFFF3A",
"! 	c #EDE9CC",
"~ 	c #D8D8D8",
"{ 	c #ADADAD",
"] 	c #EFECD9",
"^ 	c #FFF53B",
"/ 	c #FFF738",
"( 	c #FFF838",
"_ 	c #E6E2C6",
": 	c #DEBEA4",
"< 	c #E3C0A6",
"[ 	c #E1C0A6",
"} 	c #E3E3E3",
"| 	c #C7C7C7",
"1 	c #FFF23B",
"2 	c #FFF237",
"3 	c #FFF137",
"4 	c #E1DCC1",
"5 	c #F7F3F1",
"6 	c #F27B1E",
"7 	c #FF7401",
"8 	c #FA7914",
"9 	c #EFE5DE",
"0 	c #ECECEC",
"a 	c #FFEF36",
"b 	c #FFED36",
"c 	c #FFEA35",
"d 	c #DAD5BB",
"e 	c #F0ECE9",
"f 	c #EA781D",
"g 	c #FF7001",
"h 	c #F27614",
"i 	c #E7DED8",
"j 	c #F0F0F0",
"k 	c #E2E2E2",
"l 	c #FFEC36",
"m 	c #FFE734",
"n 	c #D3CFB5",
"o 	c #F0F1F1",
"p 	c #E1E3E5",
"q 	c #E6E7E9",
"r 	c #E9E5E3",
"s 	c #E4741C",
"t 	c #F86D01",
"u 	c #EB7213",
"v 	c #E1D8D2",
"w 	c #F4F4F4",
"x 	c #EAEAEA",
"y 	c #D2CEB4",
"z 	c #9FACB4",
"A 	c #5F87A1",
"B 	c #8599A6",
"C 	c #E4E0DE",
"D 	c #DF721C",
"E 	c #F26B01",
"F 	c #E67013",
"G 	c #DCD3CD",
"H 	c #FAFAFA",
"I 	c #F1F1F1",
"J 	c #A0AEB7",
"K 	c #5484A3",
"L 	c #8299A9",
"M 	c #E3DFDD",
"N 	c #DE711B",
"O 	c #F16A00",
"P 	c #E56F12",
"Q 	c #DBD2CC",
"R 	c #FBFBFB",
"S 	c #F8F8F8",
"T 	c #E37016",
"U 	c #A5A9AC",
"V 	c #B3BBC1",
"W 	c #D0D4D7",
"X 	c #BC9B7A",
"Y 	c #D0996E",
"Z 	c #CF986D",
"` 	c #91989B",
" .	c #DD721E",
"..	c #6E8CA0",
"+.	c #A7B2BA",
"@.	c #C98E5B",
"#.	c #919494",
"$.	c #DCD8D6",
"%.	c #D0C68E",
"&.	c #E3CD53",
"*.	c #C1B171",
"=.	c #DCCF88",
"-.	c #FEDE32",
";.	c #D0BC61",
">.	c #C88D5A",
",.	c #F06A00",
"'.	c #EE6900",
").	c #909393",
"!.	c #5383A1",
"~.	c #8198A7",
"{.	c #DACD87",
"].	c #FBDC32",
"^.	c #CEBA60",
"/.	c #DC701B",
"(.	c #DB711E",
"_.	c #6D8B9E",
":.	c #F4F0E2",
"<.	c #E5D683",
"[.	c #E3D381",
"}.	c #DFD07F",
"|.	c #D8CA7B",
"1.	c #B59479",
"2.	c #C68C5F",
"3.	c #C58B5E",
"4.	c #919292",
"5.	c #8297A4",
"6.	c #8F9BA3",
"7.	c #C9C089",
"8.	c #DCC651",
"9.	c #BAAC6E",
"0.	c #BB8457",
"a.	c #C7834D",
"b.	c #BC8559",
"c.	c #7D8E9A",
"d.	c #728EA0",
"e.	c #A5AEB4",
"f.	c #F7F7F7",
"g.	c #D1D1D1",
"h.	c #FCFCFC",
"i.	c #EEEEEE",
"j.	c #E4E4E4",
"k.	c #E1E1E1",
"l.	c #E0E0E0",
"m.	c #DFDFDF",
"n.	c #DEDEDE",
"o.	c #DDDDDD",
"p.	c #DCDCDC",
"q.	c #D4D4D4",
"r.	c #D3D3D3",
"s.	c #D0D0D0",
"t.	c #CFCFCF",
"u.	c #D7D7D7",
"v.	c #D6D6D6",
"w.	c #D2D2D2",
"x.	c #CBCBCB",
"y.	c #C2C2C2",
"z.	c #B2B2B2",
"A.	c #A6A6A6",
"B.	c #AAAAAA",
"C.	c #A3A3A3",
"D.	c #A0A0A0",
"E.	c #999999",
"F.	c #8E8E8E",
"G.	c #858585",
"H.	c #818181",
"I.	c #828282",
"J.	c #838383",
"K.	c #848484",
"L.	c #868686",
"M.	c #878787",
"N.	c #898989",
"O.	c #8B8B8B",
"P.	c #797979",
"Q.	c #929292",
"R.	c #E95829",
". . + . . . . . . . . . . . . . . . . . . . . . . . . . . . . . . . . . . . . . ",
". . @ . . . . . . . . . . . . . . . . . . . . . . . . . . . . . . . . . . . . . ",
". # $ . . . . . . . . . . . . . . . . . . . . . . . . . . . . . . . . . . . . % ",
". & & . * = = = - . . . . . . . . . . . . . . . . . . . . . . . . . . . . . . ; ",
". & > , ' ) ) ) ! . . . . . . . . . . . . . . . . . . . . . . . . . . . . . ~ { ",
". & > ] ^ / ( ( _ . . . . . . . . . . . . . . . : < < [ . . . . . . . . . } | { ",
". & > ] 1 2 3 2 4 . . . . . . . . . . . . . . 5 6 7 7 8 9 . . . . . . . 0 ~ | { ",
". & > ] 1 a b c d . . . . . . . . . . . . . . e f g g h i . . . . . . j k ~ | { ",
". & > ] 1 a l m n . . . o p p p q . . . . . . r s t t u v . . . . % w x k ~ | { ",
". & > ] 1 a l m y . . . z A A A B . . . . . . C D E E F G . . . % H I x k ~ | { ",
". & > ] 1 a l m y . % % J K K K L % % % % % % M N O O P Q % % % R S I x k ~ | { ",
". & > ] 1 a l m y . % % J K K K L % % % % % % M N O O T U V V V W S I x k ~ | { ",
". & > ] 1 a l m X Y Z Z ` K K K L % % % % % % M N O O  ...K K K +.S I x k ~ | { ",
". & > ] 1 a l m @.E O O #.K K K L % % % % % % M N O O  ...K K K +.S I x k ~ | { ",
". & > ] 1 a l m @.E O O #.K K K L % % % % % % M N O O  ...K K K +.S I x k ~ | { ",
". & > ] 1 a l m @.E O O #.K K K L % % S w w w $.N O O  ...K K K +.S I x k ~ | { ",
". & > ] 1 a l m @.E O O #.K K K L % % %.&.&.&.*.N O O  ...K K K +.S I x k ~ | { ",
". & > ] 1 a l m @.E O O #.K K K L % % =.-.-.-.;.N O O  ...K K K +.S I x k ~ | { ",
". & > ] 1 a l m @.E O O #.K K K L % % =.-.-.-.;.N O O  ...K K K +.S I x k ~ | { ",
". & > ] 1 a l m @.E O O #.K K K L % % =.-.-.-.;.N O O  ...K K K +.S I x k ~ | { ",
". & > ] 1 a l m @.E O O #.K K K L % % =.-.-.-.;.N O O  ...K K K +.S I x k ~ | { ",
". & > ] 1 a l m @.E O O #.K K K L % % =.-.-.-.;.N O O  ...K K K +.S I x k ~ | { ",
". & > ] 1 a l m @.E O O #.K K K L % % =.-.-.-.;.N O O  ...K K K +.S I x k ~ | { ",
". & > ] 1 a l m @.E O O #.K K K L % % =.-.-.-.;.N O O  ...K K K +.S I x k ~ | { ",
". & > ] 1 a l m @.E O O #.K K K L % % =.-.-.-.;.N O O  ...K K K +.S I x k ~ | { ",
". & > ] 1 a l m @.E O O #.K K K L % % =.-.-.-.;.N O O  ...K K K +.S I x k ~ | { ",
". & > ] 1 a l m @.E O O #.K K K L % % =.-.-.-.;.N O O  ...K K K +.S I x k ~ | { ",
". & > ] 1 a l m @.E O O #.K K K L % % =.-.-.-.;.N O O  ...K K K +.S I x k ~ | { ",
". & > ] 1 a l m @.E O O #.K K K L % % =.-.-.-.;.N O O  ...K K K +.S I x k ~ | { ",
". & > ] 1 a l m @.E O O #.K K K L % % =.-.-.-.;.N O O  ...K K K +.S I x k ~ | { ",
". & > ] 1 a l m @.E O O #.K K K L % % =.-.-.-.;.N O O  ...K K K +.S I x k ~ | { ",
". & > ] 1 a l m @.E O O #.K K K L % % =.-.-.-.;.N O O  ...K K K +.S I x k ~ | { ",
". & > ] 1 a l m >.,.'.'.).!.!.!.~.R R {.].].].^./.'.'.(._.!.!.!.+.S I x k ~ | { ",
". & > :.<.[.}.|.1.2.3.3.4.5.5.5.6.@ @ 7.8.8.8.9.0.a.a.b.c.d.d.d.e.f.I x k ~ | { ",
". & g.. . . h.i.j.k.l.m.m.m.n.n.o.o.p.~ > q.q.r.q.q.q.r.g.s.s.t.q.u.v.w.x.y.z.A.",
". R B.C.D.E.F.G.H.H.H.H.H.H.H.H.H.H.H.I.I.J.J.K.K.G.G.G.G.L.L.L.M.M.N.O.N.J.P.Q.",
". . . . . I o.q.q.> > v.v.u.u.~ ~ ~ ~ ~ ~ ~ ~ ~ ~ ~ ~ ~ ~ ~ ~ ~ ~ ~ ~ & n.v.| { ",
"R.R.R.R.R.R.R.R.R.R.R.R.R.R.R.R.R.R.R.R.R.R.R.R.R.R.R.R.R.R.R.R.R.R.R.R.R.R.R.R.",
"R.R.R.R.R.R.R.R.R.R.R.R.R.R.R.R.R.R.R.R.R.R.R.R.R.R.R.R.R.R.R.R.R.R.R.R.R.R.R.R.",
"R.R.R.R.R.R.R.R.R.R.R.R.R.R.R.R.R.R.R.R.R.R.R.R.R.R.R.R.R.R.R.R.R.R.R.R.R.R.R.R."};
