/* XPM */
static char * clustered_barchart_xpm[] = {
"40 40 102 2",
"  	c None",
". 	c #FFFFFF",
"+ 	c #C5C5C5",
"@ 	c #BBBBBB",
"# 	c #E3E1D6",
"$ 	c #CEC592",
"% 	c #CFC592",
"& 	c #DCD9CA",
"* 	c #D6D3C2",
"= 	c #FCDD36",
"- 	c #FFDF33",
"; 	c #CFCBB2",
"> 	c #F1EFEE",
", 	c #C8AB94",
"' 	c #CCAD95",
") 	c #CAAD95",
"! 	c #EDE9E6",
"~ 	c #E4E0DE",
"{ 	c #DF721C",
"] 	c #F26B01",
"^ 	c #E67013",
"/ 	c #DCD3CD",
"( 	c #EAEBEB",
"_ 	c #DCDEE0",
": 	c #E1E2E4",
"< 	c #9FACB4",
"[ 	c #5F87A1",
"} 	c #8599A6",
"| 	c #A1AFB8",
"1 	c #5585A4",
"2 	c #839AAA",
"3 	c #E47117",
"4 	c #A6AAAD",
"5 	c #B4BCC2",
"6 	c #D3D7DA",
"7 	c #BA9979",
"8 	c #D0996E",
"9 	c #92999C",
"0 	c #DE731F",
"a 	c #6F8DA1",
"b 	c #AAB5BD",
"c 	c #C78C5A",
"d 	c #929595",
"e 	c #F9F9F9",
"f 	c #F5F5F5",
"g 	c #DDD9D7",
"h 	c #D1C78F",
"i 	c #E4CE54",
"j 	c #C2B272",
"k 	c #DDD089",
"l 	c #D1BD62",
"m 	c #DAD7CA",
"n 	c #D1C378",
"o 	c #D3C578",
"p 	c #B7967A",
"q 	c #CD9162",
"r 	c #979898",
"s 	c #879DAA",
"t 	c #95A1A9",
"u 	c #C1B372",
"v 	c #C2895B",
"w 	c #CF8850",
"x 	c #C38A5D",
"y 	c #8294A0",
"z 	c #7794A6",
"A 	c #ABB5BB",
"B 	c #B7B7B7",
"C 	c #F4F4F4",
"D 	c #F3F3F3",
"E 	c #F2F2F2",
"F 	c #F1F1F1",
"G 	c #F0F0F0",
"H 	c #EFEFEF",
"I 	c #EEEEEE",
"J 	c #EDEDED",
"K 	c #E8E8E8",
"L 	c #E5E5E5",
"M 	c #E4E4E4",
"N 	c #E3E3E3",
"O 	c #E1E1E1",
"P 	c #E0E0E0",
"Q 	c #DFDFDF",
"R 	c #E7E7E7",
"S 	c #E6E6E6",
"T 	c #E2E2E2",
"U 	c #959595",
"V 	c #929292",
"W 	c #939393",
"X 	c #949494",
"Y 	c #969696",
"Z 	c #979797",
"` 	c #989898",
" .	c #999999",
"..	c #9A9A9A",
"+.	c #9B9B9B",
"@.	c #9C9C9C",
"#.	c #D7D7D7",
"$.	c #FAFAFA",
"%.	c #FBFBFB",
"&.	c #FCFCFC",
"*.	c #FDFDFD",
"=.	c #FEFEFE",
". + @ . . . . . . . . . . . . . . . . . . . . . . . . . . . . . . . . . . . . . ",
". + @ . . . . . . . . . . . . . . . . . . . . . . . . . . . . . . . . . . . . . ",
". + @ . . . . . . . . . . . . . . . . . . . . . . . . . . . . . . . . . . . . . ",
". + @ . . . . . . . . . . . . . . . . . . . . . . . . . . . . . . . . . . . . . ",
". + @ . . . . . . . . . . . . . . . . . . . . . . . . . . . . . . . . . . . . . ",
". + @ . . . . . . . . . . . . . . . . . . . . . . . . . . . . . . . . . . . . . ",
". + @ # $ % % % & . . . . . . . . . . . . . . . . . . . . . . . . . . . . . . . ",
". + @ * = - - - ; . . . . . . . . . . . . . . . . . . . . . . . . . . . . . . . ",
". + @ * = - - - ; . . . . . . . . . . . . . . > , ' ' ) ! . . . . . . . . . . . ",
". + @ * = - - - ; . . . . . . . . . . . . . . ~ { ] ] ^ / . . . . . . . . . . . ",
". + @ * = - - - ; . . . . . . . . . . . . . . ~ { ] ] ^ / . . . . . . . . . . . ",
". + @ * = - - - ; . . . ( _ _ _ : . . . . . . ~ { ] ] ^ / . . . . . . . . . . . ",
". + @ * = - - - ; . . . < [ [ [ } . . . . . . ~ { ] ] ^ / . . . . . . . . . . . ",
". + @ * = - - - ; . . . | 1 1 1 2 . . . . . . ~ { ] ] ^ / . . . . . . . . . . . ",
". + @ * = - - - ; . . . | 1 1 1 2 . . . . . . ~ { ] ] 3 4 5 5 5 6 . . . . . . . ",
". + @ * = - - - 7 8 8 8 9 1 1 1 2 . . . . . . ~ { ] ] 0 a 1 1 1 b . . . . . . . ",
". + @ * = - - - c ] ] ] d 1 1 1 2 . . . . . . ~ { ] ] 0 a 1 1 1 b . . . . . . . ",
". + @ * = - - - c ] ] ] d 1 1 1 2 . . . . . . ~ { ] ] 0 a 1 1 1 b . . . . . . . ",
". + @ * = - - - c ] ] ] d 1 1 1 2 . . e f f f g { ] ] 0 a 1 1 1 b . . . . . . . ",
". + @ * = - - - c ] ] ] d 1 1 1 2 . . h i i i j { ] ] 0 a 1 1 1 b . . . . . . . ",
". + @ * = - - - c ] ] ] d 1 1 1 2 . . k - - - l { ] ] 0 a 1 1 1 b . . . . . . . ",
". + @ * = - - - c ] ] ] d 1 1 1 2 . . k - - - l { ] ] 0 a 1 1 1 b . . . . . . . ",
". + @ * = - - - c ] ] ] d 1 1 1 2 . . k - - - l { ] ] 0 a 1 1 1 b . . . . . . . ",
". + @ * = - - - c ] ] ] d 1 1 1 2 . . k - - - l { ] ] 0 a 1 1 1 b . . . . . . . ",
". + @ * = - - - c ] ] ] d 1 1 1 2 . . k - - - l { ] ] 0 a 1 1 1 b . . . . . . . ",
". + @ * = - - - c ] ] ] d 1 1 1 2 . . k - - - l { ] ] 0 a 1 1 1 b . . . . . . . ",
". + @ * = - - - c ] ] ] d 1 1 1 2 . . k - - - l { ] ] 0 a 1 1 1 b . . . . . . . ",
". + @ * = - - - c ] ] ] d 1 1 1 2 . . k - - - l { ] ] 0 a 1 1 1 b . . . . . . . ",
". + @ * = - - - c ] ] ] d 1 1 1 2 . . k - - - l { ] ] 0 a 1 1 1 b . . . . . . . ",
". + @ * = - - - c ] ] ] d 1 1 1 2 . . k - - - l { ] ] 0 a 1 1 1 b . . . . . . . ",
". + @ * = - - - c ] ] ] d 1 1 1 2 . . k - - - l { ] ] 0 a 1 1 1 b . . . . . . . ",
". + @ * = - - - c ] ] ] d 1 1 1 2 . . k - - - l { ] ] 0 a 1 1 1 b . . . . . . . ",
". + @ * = - - - c ] ] ] d 1 1 1 2 . . k - - - l { ] ] 0 a 1 1 1 b . . . . . . . ",
". + @ * = - - - c ] ] ] d 1 1 1 2 . . k - - - l { ] ] 0 a 1 1 1 b . . . . . . . ",
". + @ * = - - - c ] ] ] d 1 1 1 2 . . k - - - l { ] ] 0 a 1 1 1 b . . . . . . . ",
". + @ * = - - - c ] ] ] d 1 1 1 2 . . k - - - l { ] ] 0 a 1 1 1 b . . . . . . . ",
". + @ m n o o o p q q q r s s s t . . h i i i u v w w x y z z z A . . . . . . . ",
". + B C C D D D E E F G G G H H I I J K L M M N M M M N O P P Q M R S S L L M C ",
". T U V V V V V V V V V V V V V V V V W W X X U U Y Y Z Z ` ` `  . .....+.+.@.#.",
". . e e e $.$.%.%.&.&.*.*.=.=.. . . . . . . . . . . . . . . . . . . . . . . . . "};
