/* XPM */
static char * CSV_without_header_xpm[] = {
"135 35 551 2",
"  	c None",
". 	c #E6DDD5",
"+ 	c #FFFFFF",
"@ 	c #FFFCE6",
"# 	c #A34820",
"$ 	c #3C8FDA",
"% 	c #FAFFFF",
"& 	c #FFFFFA",
"* 	c #DA8F3C",
"= 	c #2048A3",
"- 	c #E6FCFF",
"; 	c #E6DDCF",
"> 	c #C58A5C",
", 	c #483221",
"' 	c #131010",
") 	c #10101F",
"! 	c #61ADCD",
"~ 	c #FFFFF5",
"{ 	c #C76E29",
"] 	c #1A1A1A",
"^ 	c #1A1A2E",
"/ 	c #76CCF6",
"( 	c #FBE8BD",
"_ 	c #8B6040",
": 	c #291B1A",
"< 	c #1A1A1E",
"[ 	c #2B3D54",
"} 	c #77ABE0",
"| 	c #FFFFFB",
"1 	c #E8B985",
"2 	c #738CC6",
"3 	c #EFFDFF",
"4 	c #F7CF7B",
"5 	c #302053",
"6 	c #B8F2FF",
"7 	c #FFFFF2",
"8 	c #BA561C",
"9 	c #1A1A26",
"0 	c #68C4F4",
"a 	c #FFF8D9",
"b 	c #94481B",
"c 	c #1A1A43",
"d 	c #9BE1FB",
"e 	c #E6DDCA",
"f 	c #AA4F17",
"g 	c #101018",
"h 	c #1D1210",
"i 	c #FFFFFD",
"j 	c #F5E4D7",
"k 	c #D2D1D1",
"l 	c #CFB980",
"m 	c #391A2E",
"n 	c #FFFADC",
"o 	c #95461D",
"p 	c #224B80",
"q 	c #ABC6D4",
"r 	c #D8D4CA",
"s 	c #B8A084",
"t 	c #7691D1",
"u 	c #F6FFFF",
"v 	c #BA5620",
"w 	c #2864A8",
"x 	c #CAD1D1",
"y 	c #D1D1D1",
"z 	c #D1D2D7",
"A 	c #E3F4FD",
"B 	c #FFFFF8",
"C 	c #D9954F",
"D 	c #39473E",
"E 	c #211A43",
"F 	c #E6DDD2",
"G 	c #DAC5BE",
"H 	c #D8D9CA",
"I 	c #AA4F16",
"J 	c #FBE19B",
"K 	c #431B2E",
"L 	c #FDF2D1",
"M 	c #9D6A43",
"N 	c #291A1A",
"O 	c #1A1A27",
"P 	c #416699",
"Q 	c #CEF1FD",
"R 	c #397D9E",
"S 	c #845631",
"T 	c #1C1A1A",
"U 	c #223F6E",
"V 	c #ADE2FB",
"W 	c #A3481F",
"X 	c #37738D",
"Y 	c #734B30",
"Z 	c #211A1A",
"` 	c #233F6E",
" .	c #FCE7A5",
"..	c #491E31",
"+.	c #7CCFF7",
"@.	c #F2BE5E",
"#.	c #272B4E",
"$.	c #53381E",
"%.	c #1A2853",
"&.	c #869770",
"*.	c #3E1F1A",
"=.	c #234A89",
"-.	c #CFF4FE",
";.	c #F2B955",
">.	c #1B1A1A",
",.	c #1A48A3",
"'.	c #FAD98E",
").	c #3B1A1A",
"!.	c #1A4AA8",
"~.	c #E9FDFF",
"{.	c #BA5621",
"].	c #3077CD",
"^.	c #F8D994",
"/.	c #4D3C70",
"(.	c #B4BA74",
"_.	c #2E1B43",
":.	c #FFFEF1",
"<.	c #C2702D",
"[.	c #1A326B",
"}.	c #A5CCDD",
"|.	c #DECEA8",
"1.	c #6E341A",
"2.	c #2B6CBE",
"3.	c #F0FEFF",
"4.	c #A3481A",
"5.	c #1A2544",
"6.	c #7AADCD",
"7.	c #D7D0B2",
"8.	c #7A3B1B",
"9.	c #2868C1",
"0.	c #F2FFFF",
"a.	c #1A2759",
"b.	c #9FD7F4",
"c.	c #FCF7DA",
"d.	c #9D5022",
"e.	c #2968C1",
"f.	c #FEEEB6",
"g.	c #5B211E",
"h.	c #4A94D2",
"i.	c #F3FDFF",
"j.	c #221E4E",
"k.	c #9BCFCD",
"l.	c #97491B",
"m.	c #1A367E",
"n.	c #BFD4B3",
"o.	c #692F2F",
"p.	c #6FC7F5",
"q.	c #BA561D",
"r.	c #1A1B1E",
"s.	c #1A273E",
"t.	c #5E8BBF",
"u.	c #E9FBFF",
"v.	c #944B37",
"w.	c #66B4EA",
"x.	c #F3CC76",
"y.	c #FFF2C0",
"z.	c #64251F",
"A.	c #53AEEA",
"B.	c #FDFFFF",
"C.	c #FFFFFE",
"D.	c #EBB257",
"E.	c #202460",
"F.	c #BDF2FF",
"G.	c #2665BF",
"H.	c #E29E45",
"I.	c #1F3C8F",
"J.	c #DAFAFF",
"K.	c #A3481C",
"L.	c #2A6FC7",
"M.	c #F5FFFF",
"N.	c #FFFFFC",
"O.	c #E6A449",
"P.	c #203C8F",
"Q.	c #FFFFF6",
"R.	c #D79C5C",
"S.	c #2E1A1A",
"T.	c #1B2E43",
"U.	c #576B81",
"V.	c #9BBBDB",
"W.	c #273987",
"X.	c #D5F9F7",
"Y.	c #CF7D33",
"Z.	c #275FBE",
"`.	c #F2FCE6",
" +	c #A44925",
".+	c #50B1ED",
"++	c #FEFFFF",
"@+	c #FFFFF7",
"#+	c #D7A496",
"$+	c #A5B9C6",
"%+	c #CCCBC2",
"&+	c #AE8C5D",
"*+	c #301A1A",
"=+	c #4391D9",
"-+	c #F9FFFF",
";+	c #D9944A",
">+	c #325DAB",
",+	c #F6CC76",
"'+	c #FBE29D",
")+	c #441D34",
"!+	c #81D2F8",
"~+	c #F8D485",
"{+	c #371D42",
"]+	c #9AE0FB",
"^+	c #3B8DD8",
"/+	c #EDB04F",
"(+	c #203583",
"_+	c #D3F8FF",
":+	c #3B8ED9",
"<+	c #FAEAD4",
"[+	c #BDA895",
"}+	c #816B4F",
"|+	c #3574BD",
"1+	c #EDFDFF",
"2+	c #293F91",
"3+	c #DAFAF8",
"4+	c #D48539",
"5+	c #2E69C4",
"6+	c #F4FEEA",
"7+	c #AC4D25",
"8+	c #4AA8E8",
"9+	c #FFFFF4",
"0+	c #C97730",
"a+	c #1A3684",
"b+	c #D4F8FF",
"c+	c #FADB96",
"d+	c #4A2F53",
"e+	c #A2E1FB",
"f+	c #FBE09A",
"g+	c #431B2F",
"h+	c #99E0FB",
"i+	c #203582",
"j+	c #EEBC68",
"k+	c #281E4C",
"l+	c #A7E7FD",
"m+	c #DBFAF8",
"n+	c #D5863A",
"o+	c #2E69C5",
"p+	c #F4FEEB",
"q+	c #AD4D25",
"r+	c #4AA7E8",
"s+	c #E9AB4C",
"t+	c #1B2465",
"u+	c #C2F3FF",
"v+	c #F0B452",
"w+	c #4FAAE8",
"x+	c #FEFBF9",
"y+	c #FBFEFF",
"z+	c #371A38",
"A+	c #87D5F9",
"B+	c #FFF2BF",
"C+	c #63251F",
"D+	c #ECB257",
"E+	c #20235F",
"F+	c #BCF1FF",
"G+	c #F6EBE6",
"H+	c #E5E8F0",
"I+	c #FAFEFF",
"J+	c #F9D587",
"K+	c #381D40",
"L+	c #95DEFB",
"M+	c #F7D07E",
"N+	c #322052",
"O+	c #B4F0FF",
"P+	c #CC7A30",
"Q+	c #FDF4E4",
"R+	c #DBD9D9",
"S+	c #D9D9D9",
"T+	c #D1AD65",
"U+	c #281A3B",
"V+	c #86C0D7",
"W+	c #E3F2FB",
"X+	c #E6DABE",
"Y+	c #955231",
"Z+	c #2D2B29",
"`+	c #221110",
" @	c #101010",
".@	c #152329",
"+@	c #2D2B33",
"@@	c #5C9DC4",
"#@	c #E4DDD5",
"$@	c #F2C06E",
"%@	c #4F678E",
"&@	c #AEC5D2",
"*@	c #D7D4C4",
"=@	c #9F652D",
"-@	c #1A286A",
";@	c #C2F2FF",
">@	c #FFFEF0",
",@	c #C06E2B",
"'@	c #1A326C",
")@	c #A6CDDE",
"!@	c #DFCFA9",
"~@	c #6F351A",
"{@	c #2968BC",
"]@	c #EEFEFF",
"^@	c #1A2A6F",
"/@	c #C8F5FF",
"(@	c #FFF3C3",
"_@	c #74576A",
":@	c #8BA8BD",
"<@	c #CDD6D8",
"[@	c #D4C6AB",
"}@	c #824D22",
"|@	c #1A357F",
"1@	c #CFF7FF",
"2@	c #FCE4A3",
"3@	c #4A1E2C",
"4@	c #68AFDE",
"5@	c #F1F7F8",
"6@	c #F8FAFD",
"7@	c #FDECBD",
"8@	c #857A90",
"9@	c #A9BBC7",
"0@	c #CDCDC5",
"a@	c #B29164",
"b@	c #331A1C",
"c@	c #4693DA",
"d@	c #E6D9B8",
"e@	c #833110",
"f@	c #3D8EC1",
"g@	c #FAE1AE",
"h@	c #7D5A40",
"i@	c #2C1D1A",
"j@	c #233857",
"k@	c #86BDE9",
"l@	c #FBFFFF",
"m@	c #FDF1CF",
"n@	c #9A6741",
"o@	c #271A1A",
"p@	c #3F6496",
"q@	c #CBF0FD",
"r@	c #FFFBDC",
"s@	c #933F1A",
"t@	c #1A3E90",
"u@	c #D9FAFF",
"v@	c #FFFAE0",
"w@	c #AD7E5C",
"x@	c #433021",
"y@	c #1A1A24",
"z@	c #38537A",
"A@	c #ABDAF5",
"B@	c #FDF8D3",
"C@	c #82351A",
"D@	c #1A1A41",
"E@	c #97DFFB",
"F@	c #FFFDEF",
"G@	c #C78A54",
"H@	c #311E1A",
"I@	c #FEF1C6",
"J@	c #825136",
"K@	c #271B1A",
"L@	c #1A2941",
"M@	c #638FC1",
"N@	c #FEEBB0",
"O@	c #531E22",
"P@	c #59ADE9",
"Q@	c #FCFFFF",
"R@	c #F4C56C",
"S@	c #2F377E",
"T@	c #CEF5FF",
"U@	c #E6DAC0",
"V@	c #A67551",
"W@	c #3D2617",
"X@	c #10192B",
"Y@	c #496C93",
"Z@	c #C8D7D5",
"`@	c #FFFBE7",
" #	c #BB8B65",
".#	c #4A3322",
"+#	c #1A2539",
"@#	c #5780B3",
"##	c #E0F8FF",
"$#	c #E6D4A4",
"%#	c #68434D",
"&#	c #6F8492",
"*#	c #ADAEA8",
"=#	c #AA8B60",
"-#	c #341310",
";#	c #2B6CAC",
">#	c #DEDDD5",
",#	c #FFF4C6",
"'#	c #785361",
")#	c #7F9BB2",
"!#	c #C2CACA",
"~#	c #BEA376",
"{#	c #411D1A",
"]#	c #3780CF",
"^#	c #E6DDCC",
"/#	c #B15B1E",
"(#	c #102F75",
"_#	c #C4D8D5",
":#	c #FEF2D1",
"<#	c #9C6A44",
"[#	c #2B1B1A",
"}#	c #1A1A1B",
"|#	c #283B5A",
"1#	c #90D4F7",
"2#	c #E0AB77",
"3#	c #533C29",
"4#	c #1A1B2B",
"5#	c #446898",
"6#	c #CBEFFD",
"7#	c #C66E2A",
"8#	c #1A3C90",
"9#	c #E6DDC9",
"0#	c #AA531A",
"a#	c #143F8C",
"b#	c #D1DBD5",
"c#	c #DB913F",
"d#	c #1C306D",
"e#	c #AACFE1",
"f#	c #E8E5DB",
"g#	c #CAB09B",
"h#	c #A4D7F7",
"i#	c #D69D85",
"j#	c #93AEC5",
"k#	c #D6E0E3",
"l#	c #E0D2B5",
"m#	c #834620",
"n#	c #2B6BC1",
"o#	c #F2FEFF",
"p#	c #FFFFF1",
"q#	c #BE6526",
"r#	c #1E4FAA",
"s#	c #E8FDFF",
"t#	c #E0BA79",
"u#	c #3A1622",
"v#	c #61A3C7",
"w#	c #C9722C",
"x#	c #EEB353",
"y#	c #213682",
"z#	c #F8D793",
"A#	c #472030",
"B#	c #70BFEF",
"C#	c #E3CB9C",
"D#	c #672B19",
"E#	c #3671A9",
"F#	c #D9DCD5",
"G#	c #F2CA81",
"H#	c #3F1B1A",
"I#	c #263E55",
"J#	c #69798B",
"K#	c #A1BEDF",
"L#	c #F5FEFF",
"M#	c #EFCB99",
"N#	c #6A4830",
"O#	c #1F1A1A",
"P#	c #1A2E75",
"Q#	c #CBF6FF",
"R#	c #FCEBBD",
"S#	c #763925",
"T#	c #4387CB",
"U#	c #E4D0A7",
"V#	c #76371A",
"W#	c #2A5E97",
"X#	c #D1DAD5",
"Y#	c #ECAE4E",
"Z#	c #1F3582",
"`#	c #FAEBD4",
" $	c #BBA692",
".$	c #7E6442",
"+$	c #231A20",
"@$	c #52A1E0",
"#$	c #FFF2C3",
"$$	c #6D2B1D",
"%$	c #3C7AB3",
"&$	c #D8EDF8",
"*$	c #F1B856",
"=$	c #202E75",
"-$	c #FDF1C9",
";$	c #884626",
">$	c #3671B7",
",$	c #E5D4AE",
"'$	c #823F1B",
")$	c #24528C",
"!$	c #CAD8D5",
"~$	c #FFFEEC",
"{$	c #AF4F20",
"]$	c #3784D4",
"^$	c #F8FFFF",
"/$	c #DB913E",
"($	c #1C3582",
"_$	c #C7722D",
":$	c #1E52B3",
"<$	c #EEFFFF",
"[$	c #FBDC92",
"}$	c #3E1F44",
"|$	c #9DE1FB",
"1$	c #FFFFF9",
"2$	c #D78A39",
"3$	c #1A2D75",
"4$	c #FEF4D2",
"5$	c #934F27",
"6$	c #2F64AA",
"7$	c #E1FAFF",
"8$	c #E6D8B9",
"9$	c #8E4A1B",
"0$	c #132C5E",
"a$	c #99ADAD",
"b$	c #BBB4AD",
"c$	c #BCBABF",
"d$	c #DDDBD5",
"e$	c #D48437",
"f$	c #1E3E8A",
"g$	c #D0F4FE",
"h$	c #FBE9BC",
"i$	c #76361A",
"j$	c #1A3582",
"k$	c #D59B86",
"l$	c #95B1C9",
"m$	c #D9E4E8",
"n$	c #E2D2AE",
"o$	c #76381C",
"p$	c #337DCF",
"q$	c #F7FFFF",
"r$	c #FEEEB8",
"s$	c #5F2727",
"t$	c #5DABE4",
"u$	c #FBFFFE",
"v$	c #F5D7A1",
"w$	c #5C281A",
"x$	c #FFFADF",
"y$	c #A15A27",
"z$	c #1D3974",
"A$	c #ACC9D1",
"B$	c #D2D7E5",
"C$	c #F5FDFF",
"D$	c #E6CE94",
"E$	c #431010",
"F$	c #10215E",
"G$	c #B6D5D5",
"H$	c #FCEABD",
"I$	c #7F4A28",
"J$	c #1B1C25",
"K$	c #304469",
"L$	c #8E8845",
"M$	c #1E3582",
"N$	c #DBA16C",
"O$	c #4A3626",
"P$	c #1A1C2C",
"Q$	c #456A9A",
"R$	c #CFF1FD",
"S$	c #E4B47A",
"T$	c #4B2E20",
"U$	c #22272C",
"V$	c #32456A",
"W$	c #91904E",
"X$	c #212E75",
"Y$	c #FFEFB4",
"Z$	c #511A1A",
". . . . . . . . . . . . . . . + + + + + + + + + + + + + + + + + + + + + + + + + + + + + + + + + + + + + + + + + + + + + + + + + + + + + + + + + + + + + + + + + + + + + + + + + + + + + + + + + + + + + + + + + + + + + + + + + + + + + + + + + + + + + + + + + + + + + + + + ",
". . . . . . . . . . . . . . . + + + + + + + + + + + + + + + + + + + + + + + + + + + + + + + + + + + + + + + + + + + + + + + + + + + + + + + + + + + + + + + + + + + + + + + + + + + + + + + + + + + + + + + + + + + + + + + + + + + + + + + + + + + + + + + + + + + + + + + + ",
". . . . . . . . . . . . . . . + + + + + + + + + + + + + + + + + + @ # $ % + + + + + + + + + + + + + + + + + + + + + + + + + + + + + + + + + + + + + + & * = - + + + + + + + + + + @ # $ % + + + + + + + + + + + + + + + + + + + + + + + + + + + + + + + + + + + + + + + + + + ",
". . . . ; > , ' ) ! . . . . . + + + ~ { ] ] ^ / + + + + + + + + + @ # $ % + + + + + + + + + + + + + + + + + + + + + ( _ : < [ } % + + + + + + + + + + | 1 2 3 + + + + 4 5 6 + + + @ # $ % + + + + + + + + + + + + 7 8 ] ] ] 9 0 + + + + a b c d + + + + + + + + + + + + + + + ",
". . . . e f g h ) ! . . . . . + + + i j k l m / + + + + + + + + + @ # $ % + + + + + + + + + + + + + + + + + + + + n o p q r s t u + + + + + + + + + + + + + + + + + + 4 5 6 + + + @ # $ % + + + + + + + + + + + + 7 v w x y z A + + + B C D E d + + + + + + + + + + + + + + + ",
". . . . F G H I ) ! . . . . . + + + + + + J K / + + L M N O P Q + @ # R S T U V + @ W X Y Z ` V + + + + + + + + +  ...+.+ + + + + @.#.$.%.&.*.=.-.+ ;.>.] ,.- + + '.).] ] ] ] !.~.@ # R S T U V + + + + + + + + + 7 {.].u + + + + + + ^./.(._.d + + + + + + + + + + + + + + + ",
". . . . . . e I ) ! . . . . . + + + + + + J K / + :.<.[.}.|.1.2.3.@ 4.5.6.7.8.9.0.@ 4.a.b.c.d.e.0.+ + + + + + + + f.g.h.i.+ + + + @.j.k.l.m.n.o.p.+ + & * = - + + + + 4 5 6 + + + @ 4.5.6.7.8.9.0.+ + + + + + + + 7 q.r.] s.t.u.+ + a v.w.x._.d + + + + + + + + + + + + + + + ",
". . . . . . e I ) ! . . . . . + + + + + + J K / + y.z.A.B.C.D.E.F.@ 4.G.0.| H.I.J.@ K.L.M.N.O.P.J.+ + + + + + + + Q.R.S.T.U.V.i.+ @.W.X.Y.Z.`. +.++++ & * = - + + + + 4 5 6 + + + @ 4.G.0.| H.I.J.+ + + + + + + + @+#+$+%+&+*+=+-+B ;+>+- ,+_.d + + + + + + + + + + + + + + + ",
". . . . . . e I ) ! . . . . . + + + + + + J K / + '+)+!++ + ~+{+]+@ W ^+% C./+(+_+@ W :+% C./+(+_++ + + + + + + + + C.<+[+}+*+|+1+@.2+3+4+5+6+7+8+B.+ & * = - + + + + 4 5 6 + + + @ W ^+% C./+(+_++ + + + + + + + + + + + 9+0+a+b+c+d+e++ ,+_.d + + + + + + + + + + + + + + + ",
". . . . . . e I ) ! . . . . . + + + + + + f+g+/ + '+)+!++ + ~+{+h+@ # $ % C./+i+_+@ # $ % C./+i+_++ + + + + + + + + + + + C.j+k+l+@.2+m+n+o+p+q+r+B.+ & * = - + + + + 4 5 6 + + + @ # $ % C./+i+_++ + + + + + + + + + + + i s+t+u+v+] ] ] ] ] < w+B.+ + + + + + + + + + + + + ",
". . . . . . e I ) ! . . . . . + + x+y++ + ~+z+A++ B+C+A.B.C.D+E+F+@ # $ % C./+i+_+@ # $ % C./+i+_++ + N.G+H+I++ + + + + + + J+K+L+@.2+m+n+o+p+q+r+B.+ & * = - + + + + M+N+O++ + + @ # $ % C./+i+_++ + N.G+H+I++ + + + + + ~ P+a+b+Q+R+S+S+T+U+V+W++ + + + + + + + + + + + + + ",
". . . . X+Y+Z+`+ @.@+@@@#@. . + + $@%@&@*@=@-@;@+ >@,@'@)@!@~@{@]@@ # $ % C./+i+_+@ # $ % C./+i+_++ + @ 4.^@/@+ + (@_@:@<@[@}@|@1@@.2+m+n+o+p+q+r+B.+ & * = - + + + + 2@3@4@5@6@+ @ # $ % C./+i+_++ + @ 4.^@/@+ + 7@8@9@0@a@b@c@% + + + + ,+_.d + + + + + + + + + + + + + + + ",
". . . . d@e@ @ @ @ @ @f@#@. . + + g@h@i@] j@k@l@+ + m@n@o@9 p@q@+ @ # $ % C./+i+_+@ # $ % C./+i+_++ + r@s@t@u@+ + v@w@x@] y@z@A@++@.2+m+n+o+p+q+r+B@C@] ] ] ] D@E@+ + F@G@H@] !.~.@ # $ % C./+i+_++ + r@s@t@u@+ + I@J@K@] L@M@u.+ + + + + ,+_.d + + + + + + + + + + + + + + + ",
". . . . . . . . . . . . . . . + + + + + + + + + + + + + + + + + + + + + + + + + + + + + + + + + + + + N@O@P@Q@+ + + + + + + + + + + + + + + + + + + + + + + + + + + + + + + + + + + + + + + + + + + + N@O@P@Q@+ + + + + + + + + + + + + + + + + + + + + + + + + + + + + + + + ",
". . . . . . . . . . . . . . . + + + + + + + + + + + + + + + + + + + + + + + + + + + + + + + + + + + + R@S@T@+ + + + + + + + + + + + + + + + + + + + + + + + + + + + + + + + + + + + + + + + + + + + + R@S@T@+ + + + + + + + + + + + + + + + + + + + + + + + + + + + + + + + + ",
". . . . . . . . . . . . . . . + + + + + + + + + + + + + + + + + + + + + + + + + + + + + + + + + + + + + + + + + + + + + + + + + + + + + + + + + + + + + + + + + + + + + + + + + + + + + + + + + + + + + + + + + + + + + + + + + + + + + + + + + + + + + + + + + + + + + + + + ",
". . . . . . . . . . . . . . . + + + + + + + + + + + + + + + + + + + + + + + + + + + + + + + + + + + + + + + + + + + + + + + + + + + + + + + + + + + + + + + + + + + + + + + + + + + + + + + + + + + + + + + + + + + + + + + + + + + + + + + + + + + + + + + + + + + + + + + + ",
". . . . . . . . . . . . . . . + + + + + + + + + + + + + + + + + + + + + + + + + + + + + + + + + + + + + + + + + + + + + + + + + + + + + + + + + + + + + + + + + + + + + + + + + + + + + + + + + + + + + + + + + + + + + + + + + + + + + + + + + + + + + + + + + + + + + + + + ",
". . . . . . . . . . . . . . . + + + + + + + + + + + + + + + + + + + + + + + + + + + + + + + + + + + + + + + + + + + + + + + + + + + + + + + + + + + + + + + + + + + + + + + + + + + + + + + + + + + + + + + + + + + + + + + + + + + + + + + + + + + + + + + + + + + + + + + + ",
". . . . . . . . . . . . . . . + + + + + + + + + + + + + + + + + + + + + + + + + + + + + + + + + + + + + + + + + + + + + + + + + + + + + + + + + + + + + + + + + + + + & * = - + + + + + + + + + + @ # $ % + + + + + + + + + + + + + + + + + + + + + + + + + + + + + + + + + + ",
". . . . U@V@W@ @X@Y@Z@. . . . + + + ( _ : < [ } % + + + + + + + + + + + + + + + + + + + + + + + + + + + + + + + + + + + + + + + + + ( _ : < [ } % + + + + + + + + + + | 1 2 3 + + + + 4 5 6 + + + @ # $ % + + + + + + + + + + + + 7 8 ] ] ] 9 0 + `@ #.#] +#@###+ + + + + + + ",
". . . . $#%#&#*#=#-#;#>#. . . + + n o p q r s t u + + + + + + + + + + + + + + + + + + + + + + + + + + + + + + + + + + + + + + + + n o p q r s t u + + + + + + + + + + + + + + + + + + 4 5 6 + + + @ # $ % + + + + + + + + + + + + 7 v w x y z A + ,#'#)#!#~#{#]#u + + + + + + ",
". . . . . . . . ^#/#(#_#. . . + +  ...+.+ + + + + @ # $ % C./+i+_++ :#<#[#}#|#1#+ & 2#3#T 4#5#6#+ @ W X Y Z ` V + + + + + + + + +  ...+.+ + + + + @.#.$.%.&.*.=.-.+ ;.>.] ,.- + + '.).] ] ] ] !.~.@ # R S T U V + + + + + + + + + 7 {.].u + + + + + + + + 9+7#8#J.+ + + + + + ",
". . . . . . . . 9#0#a#b#. . . + + f.g.h.i.+ + + + @ # $ % C./+i+_+& c#d#e#f#g#h#+ @+i#j#k#l#m#n#o#@ 4.a.b.c.d.e.0.+ + + + + + + + f.g.h.i.+ + + + @.j.k.l.m.n.o.p.+ + & * = - + + + + 4 5 6 + + + @ 4.5.6.7.8.9.0.+ + + + + + + + 7 q.r.] s.t.u.+ + + + + p#q#r#s#+ + + + + + ",
". . . . . . . . t#u#v##@. . . + + Q.R.S.T.U.V.i.+ @ # $ % C./+i+_+~ w#r#~.+ + + + + + + + + x#y#_+@ K.L.M.N.O.P.J.+ + + + + + + + Q.R.S.T.U.V.i.+ @.W.X.Y.Z.`. +.++++ & * = - + + + + 4 5 6 + + + @ 4.G.0.| H.I.J.+ + + + + + + + @+#+$+%+&+*+=+-++ + + + z#A#B#B.+ + + + + + ",
". . . . . . . C#D#E#F#. . . . + + + C.<+[+}+*+|+1+@ # $ % C./+i+_+C.G#H#I#J#K#L#+ i M#N#O#] ] P#Q#@ W :+% C./+(+_++ + + + + + + + + C.<+[+}+*+|+1+@.2+3+4+5+6+7+8+B.+ & * = - + + + + 4 5 6 + + + @ W ^+% C./+(+_++ + + + + + + + + + + + 9+0+a+b++ + + R#S#T#o#+ + + + + + + ",
". . . . . . U#V#W#X#. . . . . + + + + + + C.j+k+l+@ # $ % C.Y#Z#_++ + `# $.$+$@$l@#$$$%$&$B.*$=$Q#@ # $ % C./+i+_++ + + + + + + + + + + + C.j+k+l+@.2+m+n+o+p+q+r+B.+ & * = - + + + + 4 5 6 + + + @ # $ % C./+i+_++ + + + + + + + + + + + i s+t+u++ + -$;$>$u.+ + + + + + + + ",
". . . . . ,$'$)$!$. . . . . . + + + + + + + J+K+L+~${$]$^$& /$($_++ + + + 9+_$:$<$[$}$|$+ 1$2$3$Q#@ # $ % C./+i+_++ + N.G+H+I++ + + + + + + J+K+L+@.2+m+n+o+p+q+r+B.+ & * = - + + + + M+N+O++ + + @ # $ % C./+i+_++ + N.G+H+I++ + + + + + ~ P+a+b++ 4$5$6$7$+ + + + + + + + + ",
". . . . 8$9$0$a$b$b$c$d$. . . + + (@_@:@<@[@}@|@1@B e$f$g$h$i$j$_+@+k$l$m$n$o$p$q$r$s$t$u$v$w$3$Q#@ # $ % C./+i+_++ + @ 4.^@/@+ + (@_@:@<@[@}@|@1@@.2+m+n+o+p+q+r+B.+ & * = - + + + + 2@3@4@5@6@+ @ # $ % C./+i+_++ + @ 4.^@/@+ + 7@8@9@0@a@b@c@% x$y$z$A$y y B$C$+ + + + + + ",
". . . . D$E$ @ @ @ @F$G$. . . + + v@w@x@] y@z@A@+++ H$I$J$K$L$M$_+1$N$O$] P$Q$R$+ | S$T$U$V$W$X$Q#@ # $ % C./+i+_++ + r@s@t@u@+ + v@w@x@] y@z@A@++@.2+m+n+o+p+q+r+B@C@] ] ] ] D@E@+ + F@G@H@] !.~.@ # $ % C./+i+_++ + r@s@t@u@+ + I@J@K@] L@M@u.+ Y$Z$] ] ] ] 3$Q#+ + + + + + ",
". . . . . . . . . . . . . . . + + + + + + + + + + + + + + + + + + + + + + + + + + + + + + + + + + + + + + + + + + + + N@O@P@Q@+ + + + + + + + + + + + + + + + + + + + + + + + + + + + + + + + + + + + + + + + + + + + N@O@P@Q@+ + + + + + + + + + + + + + + + + + + + + + + + ",
". . . . . . . . . . . . . . . + + + + + + + + + + + + + + + + + + + + + + + + + + + + + + + + + + + + + + + + + + + + R@S@T@+ + + + + + + + + + + + + + + + + + + + + + + + + + + + + + + + + + + + + + + + + + + + + R@S@T@+ + + + + + + + + + + + + + + + + + + + + + + + + ",
". . . . . . . . . . . . . . . + + + + + + + + + + + + + + + + + + + + + + + + + + + + + + + + + + + + + + + + + + + + + + + + + + + + + + + + + + + + + + + + + + + + + + + + + + + + + + + + + + + + + + + + + + + + + + + + + + + + + + + + + + + + + + + + + + + + + + + + ",
". . . . . . . . . . . . . . . + + + + + + + + + + + + + + + + + + + + + + + + + + + + + + + + + + + + + + + + + + + + + + + + + + + + + + + + + + + + + + + + + + + + + + + + + + + + + + + + + + + + + + + + + + + + + + + + + + + + + + + + + + + + + + + + + + + + + + + + ",
". . . . . . . . . . . . . . . + + + + + + + + + + + + + + + + + + + + + + + + + + + + + + + + + + + + + + + + + + + + + + + + + + + + + + + + + + + + + + + + + + + + + + + + + + + + + + + + + + + + + + + + + + + + + + + + + + + + + + + + + + + + + + + + + + + + + + + + "};
