/* XPM */
static char * google_spreadsheet_xpm[] = {
"45 43 793 2",
"  	c None",
". 	c #EEF2EA",
"+ 	c #CDD9C4",
"@ 	c #BECFB2",
"# 	c #C6D4BC",
"$ 	c #E7ECE2",
"% 	c #DCE5D6",
"& 	c #AEC29F",
"* 	c #7F9F68",
"= 	c #507B31",
"- 	c #44791D",
"; 	c #4D8522",
"> 	c #518A25",
", 	c #4F8824",
"' 	c #467B1E",
") 	c #40711C",
"! 	c #4F7930",
"~ 	c #638948",
"{ 	c #78995F",
"] 	c #8CA877",
"^ 	c #A1B88F",
"/ 	c #B5C8A7",
"( 	c #C9D6BF",
"_ 	c #DDE5D6",
": 	c #DCE4D6",
"< 	c #8FAC7A",
"[ 	c #497826",
"} 	c #467721",
"| 	c #4D8027",
"1 	c #68A835",
"2 	c #84D545",
"3 	c #8DE34A",
"4 	c #8DE249",
"5 	c #8DE349",
"6 	c #88DA46",
"7 	c #7CC740",
"8 	c #6EB43A",
"9 	c #62A032",
"0 	c #558C2C",
"a 	c #4C7E26",
"b 	c #497A24",
"c 	c #477822",
"d 	c #447620",
"e 	c #447520",
"f 	c #588338",
"g 	c #7B9C62",
"h 	c #9DB68A",
"i 	c #BFCFB3",
"j 	c #E0E8DB",
"k 	c #DBE4D5",
"l 	c #98B285",
"m 	c #6A8F4E",
"n 	c #517A32",
"o 	c #4A7E23",
"p 	c #64A532",
"q 	c #7BC63F",
"r 	c #85D545",
"s 	c #8CE149",
"t 	c #8DE149",
"u 	c #8CE049",
"v 	c #8BDF48",
"w 	c #89DB47",
"x 	c #85D645",
"y 	c #81D043",
"z 	c #7ECA41",
"A 	c #77C13D",
"B 	c #6DB237",
"C 	c #62A130",
"D 	c #568F29",
"E 	c #467423",
"F 	c #4E782F",
"G 	c #59813B",
"H 	c #648A48",
"I 	c #6E9253",
"J 	c #88A672",
"K 	c #C3D2B8",
"L 	c #8DA978",
"M 	c #4C792A",
"N 	c #45791D",
"O 	c #548C29",
"P 	c #6AAB37",
"Q 	c #82D244",
"R 	c #8FE54A",
"S 	c #8EE44A",
"T 	c #8FE64B",
"U 	c #87D946",
"V 	c #7CC941",
"W 	c #72B83B",
"X 	c #69AA36",
"Y 	c #58912D",
"Z 	c #457422",
"` 	c #E4EBDF",
" .	c #ECF1E8",
"..	c #548034",
"+.	c #4E8228",
"@.	c #67A835",
"#.	c #82D144",
"$.	c #89DC47",
"%.	c #84D840",
"&.	c #6FC42C",
"*.	c #539323",
"=.	c #8CA977",
"-.	c #94AF80",
";.	c #699945",
">.	c #9EE764",
",.	c #95E456",
"'.	c #8ADF46",
").	c #87DE42",
"!.	c #88DF43",
"~.	c #89DF45",
"{.	c #8ADF47",
"].	c #8DE14A",
"^.	c #80D43D",
"/.	c #75C932",
"(.	c #69BD26",
"_.	c #64B821",
":.	c #65B922",
"<.	c #60AF22",
"[.	c #648B47",
"}.	c #5F8641",
"|.	c #A3DB77",
"1.	c #C0ED9A",
"2.	c #CBF0AC",
"3.	c #D4F2BD",
"4.	c #CFF1B3",
"5.	c #C0ED9C",
"6.	c #B0E983",
"7.	c #A1E46B",
"8.	c #93E156",
"9.	c #90E14F",
"0.	c #8FE04D",
"a.	c #8DE04B",
"b.	c #8CE04A",
"c.	c #86DA43",
"d.	c #74C831",
"e.	c #66BA23",
"f.	c #5FAC22",
"g.	c #698E4D",
"h.	c #5B843C",
"i.	c #9CDB6A",
"j.	c #A6E771",
"k.	c #A5E671",
"l.	c #A5E670",
"m.	c #A7E773",
"n.	c #AAE779",
"o.	c #AEE87E",
"p.	c #B2E984",
"q.	c #B4EA89",
"r.	c #B8EB8E",
"s.	c #BBEB94",
"t.	c #C0ED9B",
"u.	c #C3EEA1",
"v.	c #C5EFA4",
"w.	c #BBEB93",
"x.	c #ACE87D",
"y.	c #9EE466",
"z.	c #91E152",
"A.	c #88DE42",
"B.	c #89DF44",
"C.	c #8BDF47",
"D.	c #8BE048",
"E.	c #82D63F",
"F.	c #72C62F",
"G.	c #6ABE27",
"H.	c #5FAB22",
"I.	c #6C9051",
"J.	c #A6E672",
"K.	c #A4E66F",
"L.	c #A4E66E",
"M.	c #A3E66D",
"N.	c #ABE779",
"O.	c #B5EA89",
"P.	c #BEED98",
"Q.	c #BFED9B",
"R.	c #BBEC93",
"S.	c #B4EA8A",
"T.	c #AFE981",
"U.	c #A6E673",
"V.	c #9AE360",
"W.	c #95E258",
"X.	c #91E151",
"Y.	c #8BDE48",
"Z.	c #84D841",
"`.	c #78CC35",
" +	c #67BB24",
".+	c #5EA922",
"++	c #6F9254",
"@+	c #A7E772",
"#+	c #8DE04C",
"$+	c #A5E571",
"%+	c #A9E776",
"&+	c #A9E777",
"*+	c #A0E46A",
"=+	c #9CE463",
"-+	c #A9E778",
";+	c #BBED92",
">+	c #72BF34",
",+	c #65BA22",
"'+	c #5EA822",
")+	c #729558",
"!+	c #8CDF4A",
"~+	c #90E150",
"{+	c #63B820",
"]+	c #5CA722",
"^+	c #75975B",
"/+	c #94E156",
"(+	c #A3E56E",
"_+	c #A7E673",
":+	c #9EE366",
"<+	c #66BB23",
"[+	c #5CA522",
"}+	c #A8E873",
"|+	c #A9EB74",
"1+	c #ABEE75",
"2+	c #ACEF75",
"3+	c #A3E170",
"4+	c #A2E070",
"5+	c #9AE160",
"6+	c #91E44E",
"7+	c #8FE848",
"8+	c #8FE849",
"9+	c #96E259",
"0+	c #5CA422",
"a+	c #7B9C63",
"b+	c #A6E572",
"c+	c #9BD36C",
"d+	c #8FC166",
"e+	c #7FA65F",
"f+	c #698254",
"g+	c #59694B",
"h+	c #4D5944",
"i+	c #454D3F",
"j+	c #42483C",
"k+	c #424A3C",
"l+	c #424A3D",
"m+	c #444A3E",
"n+	c #46503F",
"o+	c #4E6040",
"p+	c #6A9B43",
"q+	c #64B920",
"r+	c #62B81D",
"s+	c #62B81E",
"t+	c #5AA222",
"u+	c #7E9E66",
"v+	c #85B161",
"w+	c #434541",
"x+	c #404040",
"y+	c #4D5E3F",
"z+	c #608940",
"A+	c #73AF42",
"B+	c #7BC342",
"C+	c #7DC643",
"D+	c #7EC743",
"E+	c #7FC943",
"F+	c #7FCA43",
"G+	c #7FC942",
"H+	c #7EC742",
"I+	c #7FCB43",
"J+	c #4C5D3F",
"K+	c #85D247",
"L+	c #8ADE47",
"M+	c #64B921",
"N+	c #62B71E",
"O+	c #9DD273",
"P+	c #D4ECC1",
"Q+	c #EBF6E4",
"R+	c #E7F4DD",
"S+	c #BEE2A3",
"T+	c #71BE33",
"U+	c #65B921",
"V+	c #5BA222",
"W+	c #81A06A",
"X+	c #A5E472",
"Y+	c #4C5544",
"Z+	c #79995F",
"`+	c #81CD44",
" @	c #83D343",
".@	c #82D044",
"+@	c #81CE44",
"@@	c #82CE44",
"#@	c #83D044",
"$@	c #83D045",
"%@	c #82CF45",
"&@	c #74B242",
"*@	c #4F6240",
"=@	c #8EE549",
"-@	c #70BE32",
";@	c #C0E2A5",
">@	c #FCFDFC",
",@	c #FFFFFF",
"'@	c #B8DF9A",
")@	c #5A9F22",
"!@	c #83A26D",
"~@	c #A0DC6E",
"{@	c #42453F",
"]@	c #C8EEAA",
"^@	c #87CE4D",
"/@	c #80CC43",
"(@	c #7FCA42",
"_@	c #7DC841",
":@	c #78BE40",
"<@	c #6EAD3C",
"[@	c #659B39",
"}@	c #5F9038",
"|@	c #5F8C3C",
"1@	c #5B8739",
"2@	c #608B3E",
"3@	c #5E8D3A",
"4@	c #609337",
"5@	c #66A03A",
"6@	c #73B73D",
"7@	c #48563D",
"8@	c #74B045",
"9@	c #8BDF49",
"0@	c #89DD46",
"a@	c #98D06B",
"b@	c #FEFEFE",
"c@	c #BEE1A3",
"d@	c #66BB22",
"e@	c #589E23",
"f@	c #86A470",
"g@	c #A8E973",
"h@	c #89B763",
"i@	c #6A785F",
"j@	c #BDDFA2",
"k@	c #9CC77B",
"l@	c #5A912F",
"m@	c #8DAD73",
"n@	c #BBCBAE",
"o@	c #C0C8BA",
"p@	c #DEE2D9",
"q@	c #ECEFEB",
"r@	c #F6F6F5",
"s@	c #FDFCFE",
"t@	c #C8C6C8",
"u@	c #F8F6F8",
"v@	c #F4F4F5",
"w@	c #EAE9E9",
"x@	c #C4C6C1",
"y@	c #C8CDC2",
"z@	c #ADB3A7",
"A@	c #50693C",
"B@	c #8CE048",
"C@	c #88DC45",
"D@	c #9BD16F",
"E@	c #EAF5E2",
"F@	c #A2D57A",
"G@	c #ACD989",
"H@	c #DBEECD",
"I@	c #A3D57B",
"J@	c #599D23",
"K@	c #89A774",
"L@	c #759759",
"M@	c #839773",
"N@	c #B4DA97",
"O@	c #7F9E66",
"P@	c #F1EDF3",
"Q@	c #F5F2F5",
"R@	c #F5F3F4",
"S@	c #ECEBEB",
"T@	c #DCDCDC",
"U@	c #FBFBFB",
"V@	c #FAFAFA",
"W@	c #FBFAFA",
"X@	c #E5E5E5",
"Y@	c #F5F5F5",
"Z@	c #F6F6F6",
"`@	c #F4F3F3",
" #	c #C2C2C2",
".#	c #DAD9D9",
"+#	c #626063",
"@#	c #87D747",
"##	c #8FCC5E",
"$#	c #8ECC5E",
"%#	c #5EB617",
"&#	c #63B81E",
"*#	c #8BCA58",
"=#	c #F2F9ED",
"-#	c #EAF5E1",
";#	c #69BB27",
">#	c #579B23",
",#	c #8DA977",
"'#	c #727D69",
")#	c #A4CB84",
"!#	c #D9DFD5",
"~#	c #F3F3F3",
"{#	c #F1F1F1",
"]#	c #F5F4F4",
"^#	c #FAF9F9",
"/#	c #FFFEFD",
"(#	c #FFFFFE",
"_#	c #F9F7F5",
":#	c #E7E5E3",
"<#	c #FFFEFC",
"[#	c #F8F8F7",
"}#	c #E4E4E4",
"|#	c #DAD8D8",
"1#	c #E3E3E3",
"2#	c #9D9A9D",
"3#	c #5A7A40",
"4#	c #8DE348",
"5#	c #87DB44",
"6#	c #63B81F",
"7#	c #79C23F",
"8#	c #79C13F",
"9#	c #66BB21",
"0#	c #589A23",
"a#	c #8FAB7B",
"b#	c #4B5047",
"c#	c #99BC7E",
"d#	c #D4D6D3",
"e#	c #F8F7F7",
"f#	c #DEDDDD",
"g#	c #D2D2D2",
"h#	c #C8C7C5",
"i#	c #8FB4D6",
"j#	c #96BCDE",
"k#	c #92B8DC",
"l#	c #8CB6DC",
"m#	c #709CC3",
"n#	c #82B0D9",
"o#	c #7DACD6",
"p#	c #7DABD5",
"q#	c #85A6C5",
"r#	c #C6C5C4",
"s#	c #B8B7B7",
"t#	c #3F433C",
"u#	c #88D948",
"v#	c #A1D478",
"w#	c #D1EABE",
"x#	c #E9F4E0",
"y#	c #E6F3DB",
"z#	c #C5E4AC",
"A#	c #7CC443",
"B#	c #61B81C",
"C#	c #9FD375",
"D#	c #B9DF9C",
"E#	c #62B91C",
"F#	c #569923",
"G#	c #93AD7E",
"H#	c #58684B",
"I#	c #687D57",
"J#	c #DFDFDD",
"K#	c #B1B1B1",
"L#	c #D6D6D6",
"M#	c #A9C6E1",
"N#	c #B5D0E8",
"O#	c #B4CFE8",
"P#	c #ACC7E0",
"Q#	c #AAC5DE",
"R#	c #B0CCE5",
"S#	c #B0CBE3",
"T#	c #A8C5DE",
"U#	c #EAEAEB",
"V#	c #E2E1E1",
"W#	c #707170",
"X#	c #79BC43",
"Y#	c #A7D680",
"Z#	c #FEFFFE",
"`#	c #FAFCF8",
" $	c #75C03A",
".$	c #6ABC29",
"+$	c #F0F8EA",
"@$	c #EEF7E7",
"#$	c #5EB817",
"$$	c #559723",
"%$	c #95B082",
"&$	c #86B463",
"*$	c #575657",
"=$	c #ECECEB",
"-$	c #E7E6E6",
";$	c #FCFCFC",
">$	c #F8F8F8",
",$	c #FDFDFD",
"'$	c #C2D6E9",
")$	c #B5CFE8",
"!$	c #B3CEE7",
"~$	c #A7C3DB",
"{$	c #AAC8E3",
"]$	c #6BA0D0",
"^$	c #EBECEE",
"/$	c #B7B6B7",
"($	c #628E3F",
"_$	c #85D942",
":$	c #A7D681",
"<$	c #D6ECC4",
"[$	c #65BB21",
"}$	c #569623",
"|$	c #98B185",
"1$	c #A7ED6E",
"2$	c #4A4E46",
"3$	c #DBDADA",
"4$	c #E6E5E5",
"5$	c #E1EAF3",
"6$	c #A5C5E3",
"7$	c #A0C2E2",
"8$	c #9ABFE0",
"9$	c #9BBFE0",
"0$	c #94B7D7",
"a$	c #9ABFDF",
"b$	c #9BBFDF",
"c$	c #156CBA",
"d$	c #AEC2D6",
"e$	c #D2D0CF",
"f$	c #BEBDBD",
"g$	c #515D47",
"h$	c #8FE749",
"i$	c #A5D57E",
"j$	c #DEEFD0",
"k$	c #BBDF9D",
"l$	c #C3E4AA",
"m$	c #99D06D",
"n$	c #AFDA8D",
"o$	c #6EBF2E",
"p$	c #549423",
"q$	c #9BB488",
"r$	c #94E554",
"s$	c #60893E",
"t$	c #ACABAB",
"u$	c #E8E7E7",
"v$	c #F6F5F5",
"w$	c #E1E1E1",
"x$	c #C0C0C0",
"y$	c #AEAEAE",
"z$	c #B7B5B4",
"A$	c #91B1CE",
"B$	c #CBDCEC",
"C$	c #E8EFF5",
"D$	c #F1F5F8",
"E$	c #E3E7EA",
"F$	c #F5F8FA",
"G$	c #F1F4F6",
"H$	c #F1F2F4",
"I$	c #D5D5D6",
"J$	c #E3E2E2",
"K$	c #CECDCD",
"L$	c #534F57",
"M$	c #68BB26",
"N$	c #67BA24",
"O$	c #6BBC2A",
"P$	c #DFF0D2",
"Q$	c #C3E3A9",
"R$	c #94CD65",
"S$	c #74C135",
"T$	c #549323",
"U$	c #9EB68C",
"V$	c #9DDC6C",
"W$	c #A8E774",
"X$	c #9DE365",
"Y$	c #7CC245",
"Z$	c #565755",
"`$	c #DCDBDB",
" %	c #E7E7E7",
".%	c #ECECEC",
"+%	c #E4E2E1",
"@%	c #F4F4F4",
"#%	c #EDEDED",
"$%	c #E1E0E0",
"%%	c #D3D2D2",
"&%	c #6D696F",
"*%	c #70AA43",
"=%	c #5EB618",
"-%	c #61B71B",
";%	c #74C038",
">%	c #DCEFCD",
",%	c #8AC958",
"'%	c #EBF5E3",
")%	c #96CF69",
"!%	c #549123",
"~%	c #A1B890",
"{%	c #5C843D",
"]%	c #90D756",
"^%	c #9BE362",
"/%	c #8ADC48",
"(%	c #3E443A",
"_%	c #CFCFCF",
":%	c #DEDEDE",
"<%	c #F8F9F9",
"[%	c #F0F0F0",
"}%	c #FDFCFC",
"|%	c #D0D0D0",
"1%	c #F1F0F0",
"2%	c #C9C8C8",
"3%	c #D0CFCF",
"4%	c #8E8D8F",
"5%	c #5C813E",
"6%	c #83D740",
"7%	c #73BF36",
"8%	c #E8F4DE",
"9%	c #C5E5AD",
"0%	c #5FB619",
"a%	c #D7ECC7",
"b%	c #68BA27",
"c%	c #67BC22",
"d%	c #529023",
"e%	c #A4BA94",
"f%	c #5C843E",
"g%	c #84D544",
"h%	c #628A42",
"i%	c #929094",
"j%	c #F7F7F7",
"k%	c #F7F6F6",
"l%	c #EAEAEA",
"m%	c #FEFDFD",
"n%	c #DFDFDF",
"o%	c #959495",
"p%	c #4E663C",
"q%	c #F9FCF6",
"r%	c #60B71B",
"s%	c #B5DD95",
"t%	c #FDFEFD",
"u%	c #9AD16F",
"v%	c #528E23",
"w%	c #A7BD97",
"x%	c #5B595B",
"y%	c #EBEAEA",
"z%	c #E8E8E8",
"A%	c #F9F9F9",
"B%	c #EFEFEF",
"C%	c #CECECE",
"D%	c #C2C1C1",
"E%	c #B2B1B1",
"F%	c #989898",
"G%	c #9B9A9A",
"H%	c #4A474D",
"I%	c #6C9F44",
"J%	c #81D53E",
"K%	c #92CD63",
"L%	c #E5F3DB",
"M%	c #80C549",
"N%	c #63B91F",
"O%	c #528D23",
"P%	c #AABF9A",
"Q%	c #8CDF49",
"R%	c #4B6139",
"S%	c #D3D3D3",
"T%	c #C4C3C3",
"U%	c #C0BFBF",
"V%	c #B5B5B5",
"W%	c #BFBEBE",
"X%	c #BFBFBF",
"Y%	c #A2A2A2",
"Z%	c #BBBBBB",
"`%	c #B1B0B0",
" &	c #9D9D9D",
".&	c #7A7979",
"+&	c #52693F",
"@&	c #8DE448",
"#&	c #ADDA89",
"$&	c #ABD886",
"%&	c #518C23",
"&&	c #ADC29E",
"*&	c #689A41",
"=&	c #737374",
"-&	c #A9A8A8",
";&	c #BCBBBB",
">&	c #C3C2C2",
",&	c #B9B9B9",
"'&	c #A2A1A1",
")&	c #8E8D8D",
"!&	c #828082",
"~&	c #6C6A6E",
"{&	c #57535A",
"]&	c #454247",
"^&	c #444D3D",
"/&	c #82CC47",
"(&	c #78C13D",
"_&	c #E2F1D6",
":&	c #B9DF9A",
"<&	c #508B23",
"[&	c #B0C3A1",
"}&	c #84D147",
"|&	c #424044",
"1&	c #9F9E9F",
"2&	c #A3A3A2",
"3&	c #969595",
"4&	c #6F6E6F",
"5&	c #626162",
"6&	c #454645",
"7&	c #3C3E3A",
"8&	c #3F423C",
"9&	c #434A3D",
"0&	c #526840",
"a&	c #658F43",
"b&	c #79B946",
"c&	c #8ADD47",
"d&	c #65B923",
"e&	c #67BD22",
"f&	c #4D8523",
"g&	c #BACBAD",
"h&	c #556F41",
"i&	c #423B46",
"j&	c #413F42",
"k&	c #47543D",
"l&	c #54713E",
"m&	c #659241",
"n&	c #73AD44",
"o&	c #7BBF45",
"p&	c #87D748",
"q&	c #7FD33C",
"r&	c #66B923",
"s&	c #60B023",
"t&	c #497726",
"u&	c #DBE4D4",
"v&	c #608743",
"w&	c #82D142",
"x&	c #8CE348",
"y&	c #86D448",
"z&	c #8EE648",
"A&	c #8FE748",
"B&	c #63B523",
"C&	c #579B22",
"D&	c #467622",
"E&	c #86A46F",
"F&	c #90AC7C",
"G&	c #5C962F",
"H&	c #7ED23B",
"I&	c #5A843B",
"J&	c #EBF0E7",
"K&	c #547F34",
"L&	c #508925",
"M&	c #67A834",
"N&	c #75BD3D",
"O&	c #8FE44A",
"P&	c #7DD13A",
"Q&	c #589B23",
"R&	c #698E4E",
"S&	c #C0D0B4",
"T&	c #6F9454",
"U&	c #517D31",
"V&	c #4C792B",
"W&	c #487625",
"X&	c #578F2C",
"Y&	c #6DB138",
"Z&	c #82D143",
"`&	c #8ADD48",
" *	c #7CD039",
".*	c #66BA22",
"+*	c #5CA423",
"@*	c #487724",
"#*	c #558034",
"$*	c #C1D1B5",
"%*	c #EAEFE5",
"&*	c #D8E1D0",
"**	c #B6C8A9",
"=*	c #85A36F",
"-*	c #537E33",
";*	c #3F7319",
">*	c #4B8122",
",*	c #568F2A",
"'*	c #67A836",
")*	c #79C43F",
"!*	c #8ADE48",
"~*	c #8EE34A",
"{*	c #599E23",
"]*	c #477C1F",
"^*	c #537E32",
"/*	c #C4D3B9",
"(*	c #C5D4BA",
"_*	c #94AF7F",
":*	c #6F9354",
"<*	c #5C843F",
"[*	c #4A752A",
"}*	c #4C8124",
"|*	c #5F9E2F",
"1*	c #73BB3A",
"2*	c #7ECB41",
"3*	c #7BCF38",
"4*	c #5EA823",
"5*	c #487C20",
"6*	c #5B843D",
"7*	c #A7BD96",
"8*	c #A3BA92",
"9*	c #688F4C",
"0*	c #4A7C25",
"a*	c #5A932E",
"b*	c #6FB53A",
"c*	c #7CD138",
"d*	c #5DA623",
"e*	c #4A7D24",
"f*	c #447420",
"g*	c #B3C7A5",
"h*	c #DDE6D7",
"i*	c #BCCDB0",
"j*	c #99B387",
"k*	c #77985E",
"l*	c #537C35",
"m*	c #42751B",
"n*	c #4A8320",
"o*	c #40741A",
"p*	c #5D8540",
"q*	c #CEDAC4",
"r*	c #CCD8C2",
"                                . + @ # $                                                 ",
"                        % & * = - ; > , ' ) ! ~ { ] ^ / ( _                               ",
"                  : < [ } | 1 2 3 4 4 4 3 5 6 7 8 9 0 a b c d e f g h i j                 ",
"          k l m n o p q r s t u u u u u v u u u t 4 4 s w x y z A B C D o E F G H I J     ",
"    K L M N O P Q R 4 u v u u u u u u u u u u u u u u u u u u v u t 3 S T S U V W X Y Z ` ",
" ...+.@.#.$.v u u u u u u u u u u u u u u u u u u u u u u u u u u u u u v u u u t %.&.*.=.",
"-.;.>.,.'.).!.~.{.v u u u u u u u u u u u u u u u u u u u u u u u u v u ].v ^./.(._.:.<.[.",
"}.|.1.2.3.4.5.6.7.8.9.0.a.b.v v v v v v u u u u u u u u u u v u u u v c.d.:.:.:.e.e.e.f.g.",
"h.i.j.k.l.m.n.o.p.q.r.s.t.u.v.w.x.y.z.A.A.B.'.C.D.u u u v u u ].E.F.G.:.:.:.e.e.e.e.e.H.I.",
"h.i.m.m.m.m.m.m.m.m.J.l.K.L.M.N.O.P.5.Q.R.S.T.U.y.V.W.X.Y.Z.`. +_.:.e.e.e.e.e.e.e.e.e..+++",
"h.i.m.m.m.m.m.m.m.m.m.m.m.m.@+J.J.J.l.a.#+$+%+&+*+=+-+;+>+,+:.:.e.e.e.e.e.e.e.e.e.e.e.'+)+",
"h.i.m.m.m.m.m.m.m.m.m.m.m.m.m.m.m.m.k.!+~+J.J.m.%+~.'.~.{+e.e.e.e.e.e.e.e.e.e.e.e.e.e.]+^+",
"h.i.m.m.m.m.m.m.m.m.J.m.m.m.m.m.m.J./+v b.(+m._+:+{.u u _.e.e.e.e.e.e.e.e.e.e.e.e.e.<+[+{ ",
"h.i.m.m.m.m.J.m.}+|+1+2+2+m.3+4+5+6+7+8+4 #+9+W.b.u u v _.e.e.e.e.e.e.e.e.e.e.e.e.e.<+0+a+",
"h.i.m.J.}+b+c+d+e+f+g+h+i+j+k+k+l+m+n+o+p+v v v u u u v _.e.e.:.q+r+r+r+s+:.e.e.e.e.<+t+u+",
"h.i.m.m.v+w+x+y+z+A+B+C+D+E+E+F+G+E+H+I+J+K+u u u u u L+_.e.M+N+O+P+Q+R+S+T+U+e.e.e.<+V+W+",
"h.i.m.X+Y+Z+`+ @.@+@`+@@#@$@#@#@.@#@$@%@&@*@=@v u u u L+_.-@;@>@,@,@,@,@,@,@'@e.e.e.<+)@!@",
"h.i.m.~@{@]@^@/@(@_@:@<@[@}@|@1@2@3@4@5@6@7@8@u 9@u u 0@_.a@,@,@,@,@,@,@,@b@,@c@s+:.d@e@f@",
"h.i.g@h@i@j@k@l@m@n@o@p@q@r@s@t@u@v@w@x@y@z@A@s B@u u C@_.D@,@E@'@F@G@H@,@b@,@,@I@:.d@J@K@",
"h.i.|+L@M@N@O@P@Q@R@S@T@U@V@W@X@Y@Z@`@ #S@.#+#@#u u u C@_.##$#%#r+q+&#%#*#=#,@b@-#;#d@>#,#",
"h.i.g@h@'#)#!#~#{#]#^# #,@/#(#_#:#<#[#}#|#1#2#3#4#u u 5#_.:.:.6#r+r+M+e.:.7#,@,@,@8#9#0#a#",
"h.i.m.3+b#c#d#e#S@f#g#h#i#j#k#l#m#n#o#p#q#r#s#t#u#v u c._.;#v#w#x#y#z#A#U+B#C#,@,@D#E#F#G#",
"h.i.m.J.H#I#J#Y@K#L#Z@,@M#N#O#O#P#Q#R#S#T#U#V#W#X#u u c._.Y#,@Z#,@b@Z#`# $:..$+$,@@$#$$$%$",
"h.i.m.m.&$*$=$-$;$>$V@,$'$)$!$!$O#~$!${$]$^$V#/$($5 9@_$_.:$,@,@,@,@b@,@=#:.e.<$,@,@[$}$|$",
"h.i.m.m.1$2$3$4$U@>$;$,@5$6$7$8$9$0$a$b$c$d$e$f$g$h$u _$_.i$j$k$l$E@,@b@,@m$:.n$,@,@o$p$q$",
"h.i.m.J.r$s$t$u$v$w$x$y$z$A$B$C$D$E$F$G$H$I$J$K$L$@#u Z.:.M$N$:.:.O$P$,@,@Q$q+R$,@,@S$T$U$",
"h.V$W$X$9@Y$Z$Y@`$ %.%,$,@+%(#,$,$@%#%>$]#$%`$%%&%*%u Z.:.e.:.=%-%:.;%,@,@>%s+,%'%)%[$!%~%",
"{%]%^%C.u /%(%_%:%<%v$>$;$[%@%}%;$b@|%e#`@1%2%3%4%5%u 6%:.:.7%8%9%q+0%a%,@y#r+b%B#:.c%d%e%",
"f%g%D.u u 5 h%i%u$[%j%k%>$Z@l%;$;$,$J$b@m%;$n%|%o%p%B@E.:.=%-#,@q%r%s+s%t%u%U+:.e.e.c%v%w%",
"f%g%u u u u w x%y%z%W@e#A%>$~#~#B%z%C%|%D%E%F%G%H%I%B@J%U+K%,@b@L%r+M+M%6#N%e.e.e.e.c%O%P%",
"f%g%u u u Q%4 R%S%$%X@T%U%f$V%x$W%X%Y%Z%s#`% &.&+&@&u J%M+#&,@,@$&:.e.:.:.e.e.e.e.e.c%%&&&",
"f%g%u u u u u *&=&V#-&E%Z%y$;&>&,&'&)&!&~&{&]&^&/&Q%v ^.:.(&_&:&M+e.e.e.e.e.e.e.e.e.c%<&[&",
"f%g%u u u u 9@}&|&`%1&2&3&4&5&6&7&8&9&0&a&b&c&5 u u u ^.:.e.s+U+e.e.e.e.e.e.e.e.e.d&e&f&g&",
"f%g%u u u u u =@h&i&j&k&l&m&n&o&/&p&s 4#4 s u B@9@u u q&:.e.e.e.e.e.e.e.e.e.e.e.r&<+s&t&u&",
"v&w&u u u u u 9@x&y&z&A&=@5 u u B@u u u u u u u u u u q&:.e.e.e.e.e.e.e.e.e.e.d@B&C&D&E&  ",
"F&G&R u v u u v u u u u v u u u u u u u u u u u u u u H&:.e.e.e.e.e.e.e.e.e.d@$$} I&u&    ",
"J&K&L&M&N&y 4 O&4 u v u u u u u u u u u u u u u u u u P&:.e.e.e.e.e.d&d@:.Q&N R&S&        ",
"    &&T&U&V&W&X&Y&Z&w `&v u u u u u u u u u u u u u u  *:.e.e.e.e..*d&+*@*#*$*            ",
"          %*&***=*-*;*>*,*'*)*!*R ~*u u u u u u u u u  *:.e.d&e.c%{*]*^*/*                ",
"                      (*_*:*<*[*}*|*1*2*r v 4 s u u v 3*:..*:.4*5*6*7*                    ",
"                                % 8*9*e c 0*a*b*x 5 4 c*d@d*e*f*g*                        ",
"                                        h*i*j*k*l*m*; n*o*p*8*                            ",
"                                                    q*r*                                  "};
