/* XPM */
static char * histogram_xpm[] = {
"40 40 192 2",
"  	c None",
". 	c #FFFFFF",
"+ 	c #EFEFEF",
"@ 	c #F6F6F6",
"# 	c #EBEBEB",
"$ 	c #E9E9E9",
"% 	c #FEFEFE",
"& 	c #DEDEDE",
"* 	c #DBDBDB",
"= 	c #C5C5C5",
"- 	c #D5D5D5",
"; 	c #D5BCA7",
"> 	c #E1A87D",
", 	c #D2A98A",
"' 	c #D8D8D8",
") 	c #ADADAD",
"! 	c #DEAF8A",
"~ 	c #FF7701",
"{ 	c #EF8634",
"] 	c #E3E3E3",
"^ 	c #C7C7C7",
"/ 	c #D9AA86",
"( 	c #FF7401",
"_ 	c #E98333",
": 	c #ECECEC",
"< 	c #D2A582",
"[ 	c #FF7001",
"} 	c #E27F31",
"| 	c #E8E5E2",
"1 	c #E3D8CE",
"2 	c #F7F3EF",
"3 	c #F0F0F0",
"4 	c #E2E2E2",
"5 	c #CDA17F",
"6 	c #F86D01",
"7 	c #DC7C30",
"8 	c #C3B3A6",
"9 	c #EF710F",
"0 	c #CDB4A0",
"a 	c #F4F4F4",
"b 	c #EAEAEA",
"c 	c #C89D7C",
"d 	c #F26B01",
"e 	c #D7792F",
"f 	c #BFAFA2",
"g 	c #CAB19D",
"h 	c #FAFAFA",
"i 	c #F1F1F1",
"j 	c #C79C7B",
"k 	c #F16A00",
"l 	c #D6782E",
"m 	c #BEAEA1",
"n 	c #C9B09C",
"o 	c #FBFBFB",
"p 	c #F8F8F8",
"q 	c #FAF8F7",
"r 	c #DCD3CD",
"s 	c #DBD2CC",
"t 	c #E7E2DE",
"u 	c #DFD3C9",
"v 	c #E1721B",
"w 	c #E86E0E",
"x 	c #CBA283",
"y 	c #E96F0F",
"z 	c #CEA382",
"A 	c #E7E0DA",
"B 	c #DBCFC6",
"C 	c #F4F2EF",
"D 	c #D2A481",
"E 	c #EB6C09",
"F 	c #D7C6B9",
"G 	c #D3A480",
"H 	c #F9E2CE",
"I 	c #F2CEB0",
"J 	c #EDCAAD",
"K 	c #EAC7AA",
"L 	c #E5C1A6",
"M 	c #D8C8BD",
"N 	c #F3AB74",
"O 	c #FF7501",
"P 	c #FF7301",
"Q 	c #FF7101",
"R 	c #F77106",
"S 	c #CEBBAE",
"T 	c #D6C5B8",
"U 	c #E8E8E8",
"V 	c #CAB4A3",
"W 	c #E57218",
"X 	c #E37118",
"Y 	c #E07018",
"Z 	c #DA6D17",
"` 	c #C58A5C",
" .	c #CAB3A2",
"..	c #EE6900",
"+.	c #EC6800",
"@.	c #E56500",
"#.	c #CB8853",
"$.	c #CCBAAD",
"%.	c #E76E0E",
"&.	c #CCA181",
"*.	c #C59A7A",
"=.	c #D4772E",
"-.	c #BCAC9F",
";.	c #C7AE9A",
">.	c #D1A27F",
",.	c #C8B1A0",
"'.	c #EEAB77",
").	c #FF7910",
"!.	c #FA7710",
"~.	c #F6750F",
"{.	c #ED7213",
"].	c #C9B7AA",
"^.	c #CF7229",
"/.	c #D56F1F",
"(.	c #C09B7F",
"_.	c #B79880",
":.	c #CF7732",
"<.	c #BD7F4F",
"[.	c #B8A89D",
"}.	c #D27329",
"|.	c #C0A998",
"1.	c #C89E7E",
"2.	c #DB6D17",
"3.	c #C3AD9D",
"4.	c #E66905",
"5.	c #E76905",
"6.	c #E26705",
"7.	c #C98754",
"8.	c #FFF9F2",
"9.	c #FAF4ED",
"0.	c #F1EBE5",
"a.	c #E4DED8",
"b.	c #E8E7E7",
"c.	c #DADADA",
"d.	c #E1E1E1",
"e.	c #E0E0E0",
"f.	c #E5E5E5",
"g.	c #E2E0DE",
"h.	c #DAD6D4",
"i.	c #D9D5D3",
"j.	c #E2E0DF",
"k.	c #D9CEC7",
"l.	c #D8CDC6",
"m.	c #D7CCC5",
"n.	c #D7CFCA",
"o.	c #DDDDDD",
"p.	c #D3D3D3",
"q.	c #C2C2C2",
"r.	c #ABABAB",
"s.	c #EEEEEE",
"t.	c #B2B2B2",
"u.	c #A5A5A5",
"v.	c #999999",
"w.	c #8F8F8F",
"x.	c #8A8A8A",
"y.	c #898989",
"z.	c #888888",
"A.	c #878787",
"B.	c #868686",
"C.	c #858585",
"D.	c #848484",
"E.	c #838383",
"F.	c #828282",
"G.	c #818181",
"H.	c #7B7B7B",
"I.	c #727272",
"J.	c #8D8D8D",
"K.	c #D7D7D7",
"L.	c #BEBEBE",
"M.	c #BFBFBF",
"N.	c #C0C0C0",
"O.	c #C1C1C1",
"P.	c #C3C3C3",
"Q.	c #C4C4C4",
"R.	c #C6C6C6",
"S.	c #C8C8C8",
"T.	c #C9C9C9",
"U.	c #CACACA",
"V.	c #CDCDCD",
"W.	c #D0D0D0",
"X.	c #BCBCBC",
"Y.	c #A9A9A9",
"Z.	c #F3F3F3",
"`.	c #D6D6D6",
" +	c #D1D1D1",
".+	c #EDEDED",
"++	c #B5B5B5",
"@+	c #B9B9B9",
"#+	c #ACACAC",
"$+	c #959595",
"%+	c #9B9B9B",
"&+	c #A4A4A4",
". . + . . . . . . . . . . . . . . . . . . . . . . . . . . . . . . . . . . . . . ",
". . @ . . . . . . . . . . . . . . . . . . . . . . . . . . . . . . . . . . . . . ",
". # $ . . . . . . . . . . . . . . . . . . . . . . . . . . . . . . . . . . . . % ",
". & * . . . . . . . . . . . . . . . . . . . . . . . . . . . . . . . . . . . . = ",
". & - . . . . . . . . . . . ; > > > , . . . . . . . . . . . . . . . . . . . ' ) ",
". & - . . . . . . . . . . . ! ~ ~ ~ { . . . . . . . . . . . . . . . . . . ] ^ ) ",
". & - . . . . . . . . . . . / ( ( ( _ % . . . . . . . . . . . . . . . . : ' ^ ) ",
". & - . . . . . . . . . . . < [ [ [ } | 1 1 1 1 2 . . . . . . . . . . 3 4 ' ^ ) ",
". & - . . . . . . . . . . . 5 6 6 6 7 8 9 9 9 9 0 . . . . . . . . % a b 4 ' ^ ) ",
". & - . . . . . . . . . . . c d d d e f d d d d g . . . . . . . % h i b 4 ' ^ ) ",
". & - . . . . . . . % % % % j k k k l m k k k k n % % % % % % % o p i b 4 ' ^ ) ",
". & - . . . . . . . % % % % j k k k l m k k k k n % % % % % % % o p i b 4 ' ^ ) ",
". & - . . . . . q r s s s t j k k k l m k k k k n % % % % % % % o p i b 4 ' ^ ) ",
". & - . . . . . u v w w w x j k k k l m k k k k n % % % % % % % o p i b 4 ' ^ ) ",
". & - . . . . . u y k k k z j k k k l m k k k k n % % % % % % % o p i b 4 ' ^ ) ",
". & - . . . . . u y k k k z j k k k l m k k k k n % % % % % % % o p i b 4 ' ^ ) ",
". & - . . . . . u y k k k z j k k k l m k k k k n % % % % % % % o p i b 4 ' ^ ) ",
". & - . . . . . u y k k k z j k k k l m k k k k n % % % % % % % o p i b 4 ' ^ ) ",
". & - . . . . . u y k k k z j k k k l m k k k k n A B B B B C % o p i b 4 ' ^ ) ",
". & - . . . . . u y k k k z j k k k l m k k k k n D E E E E F % o p i b 4 ' ^ ) ",
". & - . . . . . u y k k k z j k k k l m k k k k n G k k k k F % o p i b 4 ' ^ ) ",
". & - . . . . . u y k k k z j k k k l m k k k k n G k k k k F % o p i b 4 ' ^ ) ",
". & - . . . . . u y k k k z j k k k l m k k k k n G k k k k F % o p i b 4 ' ^ ) ",
". & - . . . . . u y k k k z j k k k l m k k k k n G k k k k F % o p i b 4 ' ^ ) ",
". & - H I J K L M y k k k z j k k k l m k k k k n G k k k k F % o p i b 4 ' ^ ) ",
". & - N O P Q R S y k k k z j k k k l m k k k k n G k k k k F % o p i b 4 ' ^ ) ",
". & - N O P Q R S y k k k z j k k k l m k k k k n G k k k k F % o p i b 4 ' ^ ) ",
". & - N O P Q R S y k k k z j k k k l m k k k k n G k k k k T a i + U ] 4 ' ^ ) ",
". & - N O P Q R S y k k k z j k k k l m k k k k n G k k k k V W X Y Z ` 4 ' ^ ) ",
". & - N O P Q R S y k k k z j k k k l m k k k k n G k k k k  .k ..+.@.#.4 ' ^ ) ",
". & - N O P Q R S y k k k z j k k k l m k k k k n G k k k k  .k ..+.@.#.4 ' ^ ) ",
". & - N O P Q R S y k k k z j k k k l m k k k k n G k k k k  .k ..+.@.#.4 ' ^ ) ",
". & - N O P Q R $.%.......&.*.......=.-.........;.>.........,.....+.@.#.4 ' ^ ) ",
". & - '.).!.~.{.].^./././.(._.:.:.:.<.[.}.}.}.}.|.1.2.2.2.2.3.4.4.5.6.7.4 ' ^ ) ",
". & - . 8.9.0.a.b.c.c.c.c.d.e.c.c.c.c.f.c.c.c.c.f.g.h.h.h.i.j.k.l.l.m.n.o.p.q.r.",
". s.t.t.) u.v.w.x.y.y.z.z.A.A.B.B.C.C.C.D.D.E.E.F.G.G.G.G.G.G.G.G.G.F.E.G.H.I.J.",
". . % p : K.= L.L.L.M.M.N.N.O.O.q.q.P.Q.Q.Q.Q.= = R.R.^ ^ S.T.T.T.T.U.V.W.U.X.Y.",
". . . . Z.`.U.U.U.U.U.U.U.U.U.U.U.U.U.U.U.U.U.U.U.U.U.U.U.U.U.U.U.U.U.U.V. += ) ",
". . . .+Q.++++++++++++++++++++++++++++++++++++++++++++++++++++++++++++++++@+L.) ",
". . ] #+$+$+$+$+$+$+$+$+$+$+$+$+$+$+$+$+$+$+$+$+$+$+$+$+$+$+$+$+$+$+$+$+$+$+%+&+"};
