/* XPM */
static char * histogram_xpm[] = {
"40 40 111 2",
"  	c None",
". 	c #FFFFFF",
"+ 	c #C8C8C8",
"@ 	c #BBBBBB",
"# 	c #BAA492",
"$ 	c #C4936D",
"% 	c #B79479",
"& 	c #EEEEEE",
"* 	c #C89D7C",
"= 	c #F26B01",
"- 	c #D7792F",
"; 	c #EAEAEA",
"> 	c #DDDAD7",
", 	c #D8CDC4",
"' 	c #EBE7E3",
") 	c #BFAFA2",
"! 	c #E96F0F",
"~ 	c #C8B09C",
"{ 	c #CAB19D",
"] 	c #F7F5F4",
"^ 	c #DCD3CD",
"/ 	c #E8E3DF",
"( 	c #DCD0C7",
"_ 	c #E1721B",
": 	c #CCA384",
"< 	c #CFA483",
"[ 	c #E8E1DB",
"} 	c #F5F3F0",
"| 	c #D3A582",
"1 	c #EC6D0A",
"2 	c #D8C7BA",
"3 	c #D4A581",
"4 	c #DFCAB8",
"5 	c #DDBCA1",
"6 	c #DDBBA1",
"7 	c #D5C6BB",
"8 	c #D99968",
"9 	c #EF6D06",
"0 	c #CBB9AC",
"a 	c #D7C6B9",
"b 	c #F5F5F5",
"c 	c #F7F7F7",
"d 	c #CBB5A4",
"e 	c #E67319",
"f 	c #D69664",
"g 	c #CBB4A3",
"h 	c #DD945B",
"i 	c #D5996B",
"j 	c #E77013",
"k 	c #D6762B",
"l 	c #DD7421",
"m 	c #C7A184",
"n 	c #BE9E85",
"o 	c #D77C34",
"p 	c #C48452",
"q 	c #BFAFA3",
"r 	c #DA782B",
"s 	c #C7B09E",
"t 	c #D0A483",
"u 	c #E37118",
"v 	c #DB935C",
"w 	c #EFEAE7",
"x 	c #E9E3DD",
"y 	c #F7F6F6",
"z 	c #F2F2F2",
"A 	c #F1F1F1",
"B 	c #EBEBEB",
"C 	c #F6F6F6",
"D 	c #F3F1EF",
"E 	c #EAE6E4",
"F 	c #E9E5E3",
"G 	c #F3F1F0",
"H 	c #E9DED6",
"I 	c #E8DDD5",
"J 	c #E7DCD4",
"K 	c #EBE3DD",
"L 	c #FAFAFA",
"M 	c #F9F9F9",
"N 	c #FCFCFC",
"O 	c #D6D6D6",
"P 	c #9C9C9C",
"Q 	c #9F9F9F",
"R 	c #9E9E9E",
"S 	c #9D9D9D",
"T 	c #9B9B9B",
"U 	c #9A9A9A",
"V 	c #999999",
"W 	c #989898",
"X 	c #979797",
"Y 	c #969696",
"Z 	c #959595",
"` 	c #949494",
" .	c #939393",
"..	c #929292",
"+.	c #CFCFCF",
"@.	c #DFDFDF",
"#.	c #DEDEDE",
"$.	c #E0E0E0",
"%.	c #E1E1E1",
"&.	c #E2E2E2",
"*.	c #E3E3E3",
"=.	c #E4E4E4",
"-.	c #E5E5E5",
";.	c #E6E6E6",
">.	c #E7E7E7",
",.	c #E8E8E8",
"'.	c #E9E9E9",
").	c #ECECEC",
"!.	c #EDEDED",
"~.	c #EFEFEF",
"{.	c #F0F0F0",
". + @ . . . . . . . . . . . . . . . . . . . . . . . . . . . . . . . . . . . . . ",
". + @ . . . . . . . . . . . . . . . . . . . . . . . . . . . . . . . . . . . . . ",
". + @ . . . . . . . . . . . . . . . . . . . . . . . . . . . . . . . . . . . . . ",
". + @ . . . . . . . . . . . . . . . . . . . . . . . . . . . . . . . . . . . . . ",
". + @ . . . . . . . . . . . . . . . . . . . . . . . . . . . . . . . . . . . . . ",
". + @ . . . . . . . . . . . . . . . . . . . . . . . . . . . . . . . . . . . . . ",
". + @ . . . . . . . . . . . # $ $ $ % & . . . . . . . . . . . . . . . . . . . . ",
". + @ . . . . . . . . . . . * = = = - ; . . . . . . . . . . . . . . . . . . . . ",
". + @ . . . . . . . . . . . * = = = - ; . . . . . . . . . . . . . . . . . . . . ",
". + @ . . . . . . . . . . . * = = = - > , , , , ' . . . . . . . . . . . . . . . ",
". + @ . . . . . . . . . . . * = = = - ) ! ! ! ! ~ . . . . . . . . . . . . . . . ",
". + @ . . . . . . . . . . . * = = = - ) = = = = { . . . . . . . . . . . . . . . ",
". + @ . . . . . . . . . . . * = = = - ) = = = = { . . . . . . . . . . . . . . . ",
". + @ . . . . . . . . . . . * = = = - ) = = = = { . . . . . . . . . . . . . . . ",
". + @ . . . . . ] ^ ^ ^ ^ / * = = = - ) = = = = { . . . . . . . . . . . . . . . ",
". + @ . . . . . ( _ ! ! ! : * = = = - ) = = = = { . . . . . . . . . . . . . . . ",
". + @ . . . . . ( ! = = = < * = = = - ) = = = = { . . . . . . . . . . . . . . . ",
". + @ . . . . . ( ! = = = < * = = = - ) = = = = { . . . . . . . . . . . . . . . ",
". + @ . . . . . ( ! = = = < * = = = - ) = = = = { . . . . . . . . . . . . . . . ",
". + @ . . . . . ( ! = = = < * = = = - ) = = = = { . . . . . . . . . . . . . . . ",
". + @ . . . . . ( ! = = = < * = = = - ) = = = = { [ ( ( ( ( } . . . . . . . . . ",
". + @ . . . . . ( ! = = = < * = = = - ) = = = = { | 1 1 1 1 2 . . . . . . . . . ",
". + @ . . . . . ( ! = = = < * = = = - ) = = = = { 3 = = = = 2 . . . . . . . . . ",
". + @ . . . . . ( ! = = = < * = = = - ) = = = = { 3 = = = = 2 . . . . . . . . . ",
". + @ . . . . . ( ! = = = < * = = = - ) = = = = { 3 = = = = 2 . . . . . . . . . ",
". + @ . . . . . ( ! = = = < * = = = - ) = = = = { 3 = = = = 2 . . . . . . . . . ",
". + @ 4 5 5 5 6 7 ! = = = < * = = = - ) = = = = { 3 = = = = 2 . . . . . . . . . ",
". + @ 8 = = = 9 0 ! = = = < * = = = - ) = = = = { 3 = = = = 2 . . . . . . . . . ",
". + @ 8 = = = 9 0 ! = = = < * = = = - ) = = = = { 3 = = = = 2 . . . . . . . . . ",
". + @ 8 = = = 9 0 ! = = = < * = = = - ) = = = = { 3 = = = = a b b b b c . . . . ",
". + @ 8 = = = 9 0 ! = = = < * = = = - ) = = = = { 3 = = = = d e e e e f . . . . ",
". + @ 8 = = = 9 0 ! = = = < * = = = - ) = = = = { 3 = = = = g = = = = h . . . . ",
". + @ 8 = = = 9 0 ! = = = < * = = = - ) = = = = { 3 = = = = g = = = = h . . . . ",
". + @ 8 = = = 9 0 ! = = = < * = = = - ) = = = = { 3 = = = = g = = = = h . . . . ",
". + @ 8 = = = 9 0 ! = = = < * = = = - ) = = = = { 3 = = = = g = = = = h . . . . ",
". + @ i ! ! ! j 0 k l l l m n o o o p q r r r r s t u u u u g 9 9 9 9 v . . . . ",
". + @ w x x x x y ; ; ; ; z A ; ; ; B C ; ; ; ; C D E E E F G H I I J K L M M N ",
". O P Q R R S S P T T U U V V W W X Y Y Z Z ` `  .............................+.",
". . @.#.@.@.@.$.%.%.&.&.*.*.=.=.-.-.;.>.>.>.,.'.'.; ; B B ).!.!.& & ~.~.{.{.A M ",
". . . . . . . . . . . . . . . . . . . . . . . . . . . . . . . . . . . . . . . . "};
