/* XPM */
static char * histogram_sel_xpm[] = {
"46 40 179 2",
"  	c None",
". 	c #FF7401",
"+ 	c #FFFFFF",
"@ 	c #DEDEDE",
"# 	c #DBDBDB",
"$ 	c #C5C5C5",
"% 	c #D5D5D5",
"& 	c #D5BCA7",
"* 	c #E1A87D",
"= 	c #D2A98A",
"- 	c #D8D8D8",
"; 	c #ADADAD",
"> 	c #DEAF8A",
", 	c #FF7701",
"' 	c #EF8634",
") 	c #E3E3E3",
"! 	c #C7C7C7",
"~ 	c #D9AA86",
"{ 	c #E98333",
"] 	c #FEFEFE",
"^ 	c #ECECEC",
"/ 	c #D2A582",
"( 	c #FF7001",
"_ 	c #E27F31",
": 	c #E8E5E2",
"< 	c #E3D8CE",
"[ 	c #F7F3EF",
"} 	c #F0F0F0",
"| 	c #E2E2E2",
"1 	c #CDA17F",
"2 	c #F86D01",
"3 	c #DC7C30",
"4 	c #C3B3A6",
"5 	c #EF710F",
"6 	c #CDB4A0",
"7 	c #F4F4F4",
"8 	c #EAEAEA",
"9 	c #C89D7C",
"0 	c #F26B01",
"a 	c #D7792F",
"b 	c #BFAFA2",
"c 	c #CAB19D",
"d 	c #FAFAFA",
"e 	c #F1F1F1",
"f 	c #C79C7B",
"g 	c #F16A00",
"h 	c #D6782E",
"i 	c #BEAEA1",
"j 	c #C9B09C",
"k 	c #FBFBFB",
"l 	c #F8F8F8",
"m 	c #FAF8F7",
"n 	c #DCD3CD",
"o 	c #DBD2CC",
"p 	c #E7E2DE",
"q 	c #DFD3C9",
"r 	c #E1721B",
"s 	c #E86E0E",
"t 	c #CBA283",
"u 	c #E96F0F",
"v 	c #CEA382",
"w 	c #E7E0DA",
"x 	c #DBCFC6",
"y 	c #F4F2EF",
"z 	c #D2A481",
"A 	c #EB6C09",
"B 	c #D7C6B9",
"C 	c #D3A480",
"D 	c #F9E2CE",
"E 	c #F2CEB0",
"F 	c #EDCAAD",
"G 	c #EAC7AA",
"H 	c #E5C1A6",
"I 	c #D8C8BD",
"J 	c #F3AB74",
"K 	c #FF7501",
"L 	c #FF7301",
"M 	c #FF7101",
"N 	c #F77106",
"O 	c #CEBBAE",
"P 	c #D6C5B8",
"Q 	c #EFEFEF",
"R 	c #E8E8E8",
"S 	c #CAB4A3",
"T 	c #E57218",
"U 	c #E37118",
"V 	c #E07018",
"W 	c #DA6D17",
"X 	c #C58A5C",
"Y 	c #CAB3A2",
"Z 	c #EE6900",
"` 	c #EC6800",
" .	c #E56500",
"..	c #CB8853",
"+.	c #CCBAAD",
"@.	c #E76E0E",
"#.	c #CCA181",
"$.	c #C59A7A",
"%.	c #D4772E",
"&.	c #BCAC9F",
"*.	c #C7AE9A",
"=.	c #D1A27F",
"-.	c #C8B1A0",
";.	c #EEAB77",
">.	c #FF7910",
",.	c #FA7710",
"'.	c #F6750F",
").	c #ED7213",
"!.	c #C9B7AA",
"~.	c #CF7229",
"{.	c #D56F1F",
"].	c #C09B7F",
"^.	c #B79880",
"/.	c #CF7732",
"(.	c #BD7F4F",
"_.	c #B8A89D",
":.	c #D27329",
"<.	c #C0A998",
"[.	c #C89E7E",
"}.	c #DB6D17",
"|.	c #C3AD9D",
"1.	c #E66905",
"2.	c #E76905",
"3.	c #E26705",
"4.	c #C98754",
"5.	c #FFF9F2",
"6.	c #FAF4ED",
"7.	c #F1EBE5",
"8.	c #E4DED8",
"9.	c #E8E7E7",
"0.	c #DADADA",
"a.	c #E1E1E1",
"b.	c #E0E0E0",
"c.	c #E5E5E5",
"d.	c #E2E0DE",
"e.	c #DAD6D4",
"f.	c #D9D5D3",
"g.	c #E2E0DF",
"h.	c #D9CEC7",
"i.	c #D8CDC6",
"j.	c #D7CCC5",
"k.	c #D7CFCA",
"l.	c #DDDDDD",
"m.	c #D3D3D3",
"n.	c #C2C2C2",
"o.	c #ABABAB",
"p.	c #EEEEEE",
"q.	c #B2B2B2",
"r.	c #A5A5A5",
"s.	c #999999",
"t.	c #8F8F8F",
"u.	c #8A8A8A",
"v.	c #898989",
"w.	c #888888",
"x.	c #878787",
"y.	c #868686",
"z.	c #858585",
"A.	c #848484",
"B.	c #838383",
"C.	c #828282",
"D.	c #818181",
"E.	c #7B7B7B",
"F.	c #727272",
"G.	c #8D8D8D",
"H.	c #D7D7D7",
"I.	c #BEBEBE",
"J.	c #BFBFBF",
"K.	c #C0C0C0",
"L.	c #C1C1C1",
"M.	c #C3C3C3",
"N.	c #C4C4C4",
"O.	c #C6C6C6",
"P.	c #C8C8C8",
"Q.	c #C9C9C9",
"R.	c #CACACA",
"S.	c #CDCDCD",
"T.	c #D0D0D0",
"U.	c #BCBCBC",
"V.	c #A9A9A9",
". . . . . . . . . . . . . . . . . . . . . . . . . . . . . . . . . . . . . . . . . . . . . . ",
". . . . . . . . . . . . . . . . . . . . . . . . . . . . . . . . . . . . . . . . . . . . . . ",
". . . . . . . . . . . . . . . . . . . . . . . . . . . . . . . . . . . . . . . . . . . . . . ",
". . . + @ # + + + + + + + + + + + + + + + + + + + + + + + + + + + + + + + + + + + + $ . . . ",
". . . + @ % + + + + + + + + + + + & * * * = + + + + + + + + + + + + + + + + + + + - ; . . . ",
". . . + @ % + + + + + + + + + + + > , , , ' + + + + + + + + + + + + + + + + + + ) ! ; . . . ",
". . . + @ % + + + + + + + + + + + ~ . . . { ] + + + + + + + + + + + + + + + + ^ - ! ; . . . ",
". . . + @ % + + + + + + + + + + + / ( ( ( _ : < < < < [ + + + + + + + + + + } | - ! ; . . . ",
". . . + @ % + + + + + + + + + + + 1 2 2 2 3 4 5 5 5 5 6 + + + + + + + + ] 7 8 | - ! ; . . . ",
". . . + @ % + + + + + + + + + + + 9 0 0 0 a b 0 0 0 0 c + + + + + + + ] d e 8 | - ! ; . . . ",
". . . + @ % + + + + + + + ] ] ] ] f g g g h i g g g g j ] ] ] ] ] ] ] k l e 8 | - ! ; . . . ",
". . . + @ % + + + + + + + ] ] ] ] f g g g h i g g g g j ] ] ] ] ] ] ] k l e 8 | - ! ; . . . ",
". . . + @ % + + + + + m n o o o p f g g g h i g g g g j ] ] ] ] ] ] ] k l e 8 | - ! ; . . . ",
". . . + @ % + + + + + q r s s s t f g g g h i g g g g j ] ] ] ] ] ] ] k l e 8 | - ! ; . . . ",
". . . + @ % + + + + + q u g g g v f g g g h i g g g g j ] ] ] ] ] ] ] k l e 8 | - ! ; . . . ",
". . . + @ % + + + + + q u g g g v f g g g h i g g g g j ] ] ] ] ] ] ] k l e 8 | - ! ; . . . ",
". . . + @ % + + + + + q u g g g v f g g g h i g g g g j ] ] ] ] ] ] ] k l e 8 | - ! ; . . . ",
". . . + @ % + + + + + q u g g g v f g g g h i g g g g j ] ] ] ] ] ] ] k l e 8 | - ! ; . . . ",
". . . + @ % + + + + + q u g g g v f g g g h i g g g g j w x x x x y ] k l e 8 | - ! ; . . . ",
". . . + @ % + + + + + q u g g g v f g g g h i g g g g j z A A A A B ] k l e 8 | - ! ; . . . ",
". . . + @ % + + + + + q u g g g v f g g g h i g g g g j C g g g g B ] k l e 8 | - ! ; . . . ",
". . . + @ % + + + + + q u g g g v f g g g h i g g g g j C g g g g B ] k l e 8 | - ! ; . . . ",
". . . + @ % + + + + + q u g g g v f g g g h i g g g g j C g g g g B ] k l e 8 | - ! ; . . . ",
". . . + @ % + + + + + q u g g g v f g g g h i g g g g j C g g g g B ] k l e 8 | - ! ; . . . ",
". . . + @ % D E F G H I u g g g v f g g g h i g g g g j C g g g g B ] k l e 8 | - ! ; . . . ",
". . . + @ % J K L M N O u g g g v f g g g h i g g g g j C g g g g B ] k l e 8 | - ! ; . . . ",
". . . + @ % J K L M N O u g g g v f g g g h i g g g g j C g g g g B ] k l e 8 | - ! ; . . . ",
". . . + @ % J K L M N O u g g g v f g g g h i g g g g j C g g g g P 7 e Q R ) | - ! ; . . . ",
". . . + @ % J K L M N O u g g g v f g g g h i g g g g j C g g g g S T U V W X | - ! ; . . . ",
". . . + @ % J K L M N O u g g g v f g g g h i g g g g j C g g g g Y g Z `  ...| - ! ; . . . ",
". . . + @ % J K L M N O u g g g v f g g g h i g g g g j C g g g g Y g Z `  ...| - ! ; . . . ",
". . . + @ % J K L M N O u g g g v f g g g h i g g g g j C g g g g Y g Z `  ...| - ! ; . . . ",
". . . + @ % J K L M N +.@.Z Z Z #.$.Z Z Z %.&.Z Z Z Z *.=.Z Z Z Z -.Z Z `  ...| - ! ; . . . ",
". . . + @ % ;.>.,.'.).!.~.{.{.{.].^./././.(._.:.:.:.:.<.[.}.}.}.}.|.1.1.2.3.4.| - ! ; . . . ",
". . . + @ % + 5.6.7.8.9.0.0.0.0.a.b.0.0.0.0.c.0.0.0.0.c.d.e.e.e.f.g.h.i.i.j.k.l.m.n.o.. . . ",
". . . + p.q.q.; r.s.t.u.v.v.w.w.x.x.y.y.z.z.z.A.A.B.B.C.D.D.D.D.D.D.D.D.D.C.B.D.E.F.G.. . . ",
". . . + + ] l ^ H.$ I.I.I.J.J.K.K.L.L.n.n.M.N.N.N.N.$ $ O.O.! ! P.Q.Q.Q.Q.R.S.T.R.U.V.. . . ",
". . . . . . . . . . . . . . . . . . . . . . . . . . . . . . . . . . . . . . . . . . . . . . ",
". . . . . . . . . . . . . . . . . . . . . . . . . . . . . . . . . . . . . . . . . . . . . . ",
". . . . . . . . . . . . . . . . . . . . . . . . . . . . . . . . . . . . . . . . . . . . . . "};
