/* XPM */
static char * histogram_xpm[] = {
"46 40 191 2",
"  	c #FFFFFF",
". 	c #EFEFEF",
"+ 	c #F6F6F6",
"@ 	c #EBEBEB",
"# 	c #E9E9E9",
"$ 	c #FEFEFE",
"% 	c #DEDEDE",
"& 	c #DBDBDB",
"* 	c #C5C5C5",
"= 	c #D5D5D5",
"- 	c #D5BCA7",
"; 	c #E1A87D",
"> 	c #D2A98A",
", 	c #D8D8D8",
"' 	c #ADADAD",
") 	c #DEAF8A",
"! 	c #FF7701",
"~ 	c #EF8634",
"{ 	c #E3E3E3",
"] 	c #C7C7C7",
"^ 	c #D9AA86",
"/ 	c #FF7401",
"( 	c #E98333",
"_ 	c #ECECEC",
": 	c #D2A582",
"< 	c #FF7001",
"[ 	c #E27F31",
"} 	c #E8E5E2",
"| 	c #E3D8CE",
"1 	c #F7F3EF",
"2 	c #F0F0F0",
"3 	c #E2E2E2",
"4 	c #CDA17F",
"5 	c #F86D01",
"6 	c #DC7C30",
"7 	c #C3B3A6",
"8 	c #EF710F",
"9 	c #CDB4A0",
"0 	c #F4F4F4",
"a 	c #EAEAEA",
"b 	c #C89D7C",
"c 	c #F26B01",
"d 	c #D7792F",
"e 	c #BFAFA2",
"f 	c #CAB19D",
"g 	c #FAFAFA",
"h 	c #F1F1F1",
"i 	c #C79C7B",
"j 	c #F16A00",
"k 	c #D6782E",
"l 	c #BEAEA1",
"m 	c #C9B09C",
"n 	c #FBFBFB",
"o 	c #F8F8F8",
"p 	c #FAF8F7",
"q 	c #DCD3CD",
"r 	c #DBD2CC",
"s 	c #E7E2DE",
"t 	c #DFD3C9",
"u 	c #E1721B",
"v 	c #E86E0E",
"w 	c #CBA283",
"x 	c #E96F0F",
"y 	c #CEA382",
"z 	c #E7E0DA",
"A 	c #DBCFC6",
"B 	c #F4F2EF",
"C 	c #D2A481",
"D 	c #EB6C09",
"E 	c #D7C6B9",
"F 	c #D3A480",
"G 	c #F9E2CE",
"H 	c #F2CEB0",
"I 	c #EDCAAD",
"J 	c #EAC7AA",
"K 	c #E5C1A6",
"L 	c #D8C8BD",
"M 	c #F3AB74",
"N 	c #FF7501",
"O 	c #FF7301",
"P 	c #FF7101",
"Q 	c #F77106",
"R 	c #CEBBAE",
"S 	c #D6C5B8",
"T 	c #E8E8E8",
"U 	c #CAB4A3",
"V 	c #E57218",
"W 	c #E37118",
"X 	c #E07018",
"Y 	c #DA6D17",
"Z 	c #C58A5C",
"` 	c #CAB3A2",
" .	c #EE6900",
"..	c #EC6800",
"+.	c #E56500",
"@.	c #CB8853",
"#.	c #CCBAAD",
"$.	c #E76E0E",
"%.	c #CCA181",
"&.	c #C59A7A",
"*.	c #D4772E",
"=.	c #BCAC9F",
"-.	c #C7AE9A",
";.	c #D1A27F",
">.	c #C8B1A0",
",.	c #EEAB77",
"'.	c #FF7910",
").	c #FA7710",
"!.	c #F6750F",
"~.	c #ED7213",
"{.	c #C9B7AA",
"].	c #CF7229",
"^.	c #D56F1F",
"/.	c #C09B7F",
"(.	c #B79880",
"_.	c #CF7732",
":.	c #BD7F4F",
"<.	c #B8A89D",
"[.	c #D27329",
"}.	c #C0A998",
"|.	c #C89E7E",
"1.	c #DB6D17",
"2.	c #C3AD9D",
"3.	c #E66905",
"4.	c #E76905",
"5.	c #E26705",
"6.	c #C98754",
"7.	c #FFF9F2",
"8.	c #FAF4ED",
"9.	c #F1EBE5",
"0.	c #E4DED8",
"a.	c #E8E7E7",
"b.	c #DADADA",
"c.	c #E1E1E1",
"d.	c #E0E0E0",
"e.	c #E5E5E5",
"f.	c #E2E0DE",
"g.	c #DAD6D4",
"h.	c #D9D5D3",
"i.	c #E2E0DF",
"j.	c #D9CEC7",
"k.	c #D8CDC6",
"l.	c #D7CCC5",
"m.	c #D7CFCA",
"n.	c #DDDDDD",
"o.	c #D3D3D3",
"p.	c #C2C2C2",
"q.	c #ABABAB",
"r.	c #EEEEEE",
"s.	c #B2B2B2",
"t.	c #A5A5A5",
"u.	c #999999",
"v.	c #8F8F8F",
"w.	c #8A8A8A",
"x.	c #898989",
"y.	c #888888",
"z.	c #878787",
"A.	c #868686",
"B.	c #858585",
"C.	c #848484",
"D.	c #838383",
"E.	c #828282",
"F.	c #818181",
"G.	c #7B7B7B",
"H.	c #727272",
"I.	c #8D8D8D",
"J.	c #D7D7D7",
"K.	c #BEBEBE",
"L.	c #BFBFBF",
"M.	c #C0C0C0",
"N.	c #C1C1C1",
"O.	c #C3C3C3",
"P.	c #C4C4C4",
"Q.	c #C6C6C6",
"R.	c #C8C8C8",
"S.	c #C9C9C9",
"T.	c #CACACA",
"U.	c #CDCDCD",
"V.	c #D0D0D0",
"W.	c #BCBCBC",
"X.	c #A9A9A9",
"Y.	c #F3F3F3",
"Z.	c #D6D6D6",
"`.	c #D1D1D1",
" +	c #EDEDED",
".+	c #B5B5B5",
"++	c #B9B9B9",
"@+	c #ACACAC",
"#+	c #959595",
"$+	c #9B9B9B",
"%+	c #A4A4A4",
"          .                                                                                 ",
"          +                                                                                 ",
"        @ #                                                                         $       ",
"        % &                                                                         *       ",
"        % =                       - ; ; ; >                                       , '       ",
"        % =                       ) ! ! ! ~                                     { ] '       ",
"        % =                       ^ / / / ( $                                 _ , ] '       ",
"        % =                       : < < < [ } | | | | 1                     2 3 , ] '       ",
"        % =                       4 5 5 5 6 7 8 8 8 8 9                 $ 0 a 3 , ] '       ",
"        % =                       b c c c d e c c c c f               $ g h a 3 , ] '       ",
"        % =               $ $ $ $ i j j j k l j j j j m $ $ $ $ $ $ $ n o h a 3 , ] '       ",
"        % =               $ $ $ $ i j j j k l j j j j m $ $ $ $ $ $ $ n o h a 3 , ] '       ",
"        % =           p q r r r s i j j j k l j j j j m $ $ $ $ $ $ $ n o h a 3 , ] '       ",
"        % =           t u v v v w i j j j k l j j j j m $ $ $ $ $ $ $ n o h a 3 , ] '       ",
"        % =           t x j j j y i j j j k l j j j j m $ $ $ $ $ $ $ n o h a 3 , ] '       ",
"        % =           t x j j j y i j j j k l j j j j m $ $ $ $ $ $ $ n o h a 3 , ] '       ",
"        % =           t x j j j y i j j j k l j j j j m $ $ $ $ $ $ $ n o h a 3 , ] '       ",
"        % =           t x j j j y i j j j k l j j j j m $ $ $ $ $ $ $ n o h a 3 , ] '       ",
"        % =           t x j j j y i j j j k l j j j j m z A A A A B $ n o h a 3 , ] '       ",
"        % =           t x j j j y i j j j k l j j j j m C D D D D E $ n o h a 3 , ] '       ",
"        % =           t x j j j y i j j j k l j j j j m F j j j j E $ n o h a 3 , ] '       ",
"        % =           t x j j j y i j j j k l j j j j m F j j j j E $ n o h a 3 , ] '       ",
"        % =           t x j j j y i j j j k l j j j j m F j j j j E $ n o h a 3 , ] '       ",
"        % =           t x j j j y i j j j k l j j j j m F j j j j E $ n o h a 3 , ] '       ",
"        % = G H I J K L x j j j y i j j j k l j j j j m F j j j j E $ n o h a 3 , ] '       ",
"        % = M N O P Q R x j j j y i j j j k l j j j j m F j j j j E $ n o h a 3 , ] '       ",
"        % = M N O P Q R x j j j y i j j j k l j j j j m F j j j j E $ n o h a 3 , ] '       ",
"        % = M N O P Q R x j j j y i j j j k l j j j j m F j j j j S 0 h . T { 3 , ] '       ",
"        % = M N O P Q R x j j j y i j j j k l j j j j m F j j j j U V W X Y Z 3 , ] '       ",
"        % = M N O P Q R x j j j y i j j j k l j j j j m F j j j j ` j  ...+.@.3 , ] '       ",
"        % = M N O P Q R x j j j y i j j j k l j j j j m F j j j j ` j  ...+.@.3 , ] '       ",
"        % = M N O P Q R x j j j y i j j j k l j j j j m F j j j j ` j  ...+.@.3 , ] '       ",
"        % = M N O P Q #.$. . . .%.&. . . .*.=. . . . .-.;. . . . .>. . ...+.@.3 , ] '       ",
"        % = ,.'.).!.~.{.].^.^.^./.(._._._.:.<.[.[.[.[.}.|.1.1.1.1.2.3.3.4.5.6.3 , ] '       ",
"        % =   7.8.9.0.a.b.b.b.b.c.d.b.b.b.b.e.b.b.b.b.e.f.g.g.g.h.i.j.k.k.l.m.n.o.p.q.      ",
"        r.s.s.' t.u.v.w.x.x.y.y.z.z.A.A.B.B.B.C.C.D.D.E.F.F.F.F.F.F.F.F.F.E.D.F.G.H.I.      ",
"          $ o _ J.* K.K.K.L.L.M.M.N.N.p.p.O.P.P.P.P.* * Q.Q.] ] R.S.S.S.S.T.U.V.T.W.X.      ",
"              Y.Z.T.T.T.T.T.T.T.T.T.T.T.T.T.T.T.T.T.T.T.T.T.T.T.T.T.T.T.T.T.T.U.`.* '       ",
"             +P..+.+.+.+.+.+.+.+.+.+.+.+.+.+.+.+.+.+.+.+.+.+.+.+.+.+.+.+.+.+.+.+++K.'       ",
"          { @+#+#+#+#+#+#+#+#+#+#+#+#+#+#+#+#+#+#+#+#+#+#+#+#+#+#+#+#+#+#+#+#+#+#+$+%+      "};
