/* XPM */
static char * line_chart_sel_xpm[] = {
"46 40 223 2",
"  	c None",
". 	c #FF7401",
"+ 	c #FFFFFF",
"@ 	c #FEFEFE",
"# 	c #BABABA",
"$ 	c #C5C5C5",
"% 	c #B5B5B5",
"& 	c #D8D8D8",
"* 	c #ADADAD",
"= 	c #E3E3E3",
"- 	c #C7C7C7",
"; 	c #ECECEC",
"> 	c #F0F0F0",
", 	c #E2E2E2",
"' 	c #F4F4F4",
") 	c #EAEAEA",
"! 	c #FAFAFA",
"~ 	c #F1F1F1",
"{ 	c #FBFBFB",
"] 	c #F8F8F8",
"^ 	c #FFA44F",
"/ 	c #FF7907",
"( 	c #FFF3DD",
"_ 	c #FF9C3F",
": 	c #FF7502",
"< 	c #FF7C10",
"[ 	c #FFC38F",
"} 	c #FFDAB1",
"| 	c #FF8524",
"1 	c #FC7F1E",
"2 	c #FDC9A0",
"3 	c #FFFEFD",
"4 	c #C2D1DB",
"5 	c #B8C9D3",
"6 	c #FFC594",
"7 	c #F67714",
"8 	c #F4852D",
"9 	c #FAD2B3",
"0 	c #FAFBFC",
"a 	c #D7E2E9",
"b 	c #AEC5D3",
"c 	c #83A4BB",
"d 	c #5281A0",
"e 	c #55819E",
"f 	c #E7E8E8",
"g 	c #FFFAF4",
"h 	c #F8B17A",
"i 	c #F16F09",
"j 	c #F48F40",
"k 	c #FBDFC9",
"l 	c #F8FAFB",
"m 	c #D2DEE6",
"n 	c #A9C1D0",
"o 	c #7FA3BA",
"p 	c #5A88A6",
"q 	c #5786A5",
"r 	c #7A9FB7",
"s 	c #A1BACB",
"t 	c #9FB8C8",
"u 	c #AFC2CE",
"v 	c #FDEFE4",
"w 	c #F6A464",
"x 	c #F16C03",
"y 	c #F27615",
"z 	c #FBDAC0",
"A 	c #ECF2F5",
"B 	c #7AA0B7",
"C 	c #89A9BF",
"D 	c #7BA0B8",
"E 	c #5B89A7",
"F 	c #81A4BB",
"G 	c #A9C1D1",
"H 	c #D3DFE7",
"I 	c #F6A565",
"J 	c #F16A00",
"K 	c #F48732",
"L 	c #DDE7ED",
"M 	c #6F98B1",
"N 	c #5484A3",
"O 	c #6691AD",
"P 	c #B1C7D5",
"Q 	c #D9E4EA",
"R 	c #FBFCFD",
"S 	c #FEFBF8",
"T 	c #F9C296",
"U 	c #F1720E",
"V 	c #F8B783",
"W 	c #F3F6F8",
"X 	c #9AB6C8",
"Y 	c #5786A4",
"Z 	c #94B2C6",
"` 	c #C6D6E0",
" .	c #EFF3F6",
"..	c #F7FFFF",
"+.	c #FAD5B8",
"@.	c #F16D05",
"#.	c #F9CCA8",
"$.	c #BBCEDA",
"%.	c #618EAA",
"&.	c #759CB5",
"*.	c #D9E3EA",
"=.	c #77A6C4",
"-.	c #5D92B4",
";.	c #9FC0D5",
">.	c #CBDEEA",
",.	c #ECF3F8",
"'.	c #E5B189",
").	c #EC6C06",
"!.	c #7E8685",
"~.	c #B9CCD9",
"{.	c #FDFDFD",
"].	c #F7E9DD",
"^.	c #EFDED1",
"/.	c #B6D3E5",
"(.	c #7AA6C3",
"_.	c #99BCD0",
":.	c #729DBA",
"<.	c #5889AA",
"[.	c #5F8DAB",
"}.	c #80A4BB",
"|.	c #A3BCCD",
"1.	c #E2EAEF",
"2.	c #90AEC3",
"3.	c #CB8B56",
"4.	c #F17717",
"5.	c #FCEDE0",
"6.	c #F9E6D8",
"7.	c #ED6A04",
"8.	c #E56805",
"9.	c #EAE7E6",
"0.	c #FCFFFF",
"a.	c #D3E0E9",
"b.	c #ACC4D3",
"c.	c #88A9BF",
"d.	c #6590AC",
"e.	c #648FAB",
"f.	c #DBE5EB",
"g.	c #FEFCFB",
"h.	c #F5954A",
"i.	c #F3852E",
"j.	c #FDF6F1",
"k.	c #FDF4EC",
"l.	c #F7AC72",
"m.	c #EE6D07",
"n.	c #ED7618",
"o.	c #E98F49",
"p.	c #DDE6EC",
"q.	c #8CADC1",
"r.	c #DFE8EE",
"s.	c #F3842C",
"t.	c #F5964B",
"u.	c #FEFAF7",
"v.	c #F8BA89",
"w.	c #F27310",
"x.	c #F3842D",
"y.	c #F7D2B4",
"z.	c #FCECDF",
"A.	c #F27717",
"B.	c #F7AA6F",
"C.	c #FEFDFD",
"D.	c #F9C9A2",
"E.	c #F37C1F",
"F.	c #F27A1C",
"G.	c #F9C69E",
"H.	c #FEFDFC",
"I.	c #FBDDC6",
"J.	c #F16F08",
"K.	c #F9C195",
"L.	c #FBD7BA",
"M.	c #F38631",
"N.	c #F2730F",
"O.	c #F8B987",
"P.	c #FEF9F6",
"Q.	c #FACBA6",
"R.	c #FCE1CE",
"S.	c #F59347",
"T.	c #F16D06",
"U.	c #F7AB70",
"V.	c #FDF3EB",
"W.	c #F7AA6E",
"X.	c #F16A01",
"Y.	c #F69E59",
"Z.	c #FCEBDD",
"`.	c #FDEDE1",
" +	c #F59850",
".+	c #F7F7F7",
"++	c #F6F6F6",
"@+	c #EDEDED",
"#+	c #E9E9E9",
"$+	c #B9B9B9",
"%+	c #B1B1B1",
"&+	c #A8A8A8",
"*+	c #9D9D9D",
"=+	c #939393",
"-+	c #8D8D8D",
";+	c #8C8C8C",
">+	c #8B8B8B",
",+	c #8A8A8A",
"'+	c #898989",
")+	c #888888",
"!+	c #878787",
"~+	c #868686",
"{+	c #858585",
"]+	c #848484",
"^+	c #828282",
"/+	c #7C7C7C",
"(+	c #727272",
"_+	c #7A7A7A",
":+	c #EBEBEB",
"<+	c #D7D7D7",
"[+	c #BDBDBD",
"}+	c #BEBEBE",
"|+	c #BFBFBF",
"1+	c #C0C0C0",
"2+	c #C1C1C1",
"3+	c #C2C2C2",
"4+	c #C3C3C3",
"5+	c #C4C4C4",
"6+	c #C6C6C6",
"7+	c #C8C8C8",
"8+	c #CACACA",
"9+	c #CECECE",
"0+	c #A5A5A5",
". . . . . . . . . . . . . . . . . . . . . . . . . . . . . . . . . . . . . . . . . . . . . . ",
". . . . . . . . . . . . . . . . . . . . . . . . . . . . . . . . . . . . . . . . . . . . . . ",
". . . . . . . . . . . . . . . . . . . . . . . . . . . . . . . . . . . . . . . . . . . . . . ",
". . . + @ # + + + + + + + + + + + + + + + + + + + + + + + + + + + + + + + + + + + + $ . . . ",
". . . + @ % + + + + + + + + + + + + + + + + + + + + + + + + + + + + + + + + + + + & * . . . ",
". . . + @ % + + + + + + + + + + + + + + + + + + + + + + + + + + + + + + + + + + = - * . . . ",
". . . + @ % + + + + + + + + + + + + + + + + + + + + + + + + + + + + + + + + + ; & - * . . . ",
". . . + @ % + + + + + + + + + + + + + + + + + + + + + + + + + + + + + + + + > , & - * . . . ",
". . . + @ % + + + + + + + + + + + + + + + + + + + + + + + + + + + + + + @ ' ) , & - * . . . ",
". . . + @ % + + + + + + + + + + + + + + + + + + + + + + + + + + + + + @ ! ~ ) , & - * . . . ",
". . . + @ % + + + + + + + @ @ @ @ @ @ @ @ @ @ @ @ @ @ @ @ @ @ @ @ @ @ { ] ~ ) , & - * . . . ",
". . . + @ % ^ / ( + + + + @ @ @ @ @ @ @ @ @ @ @ @ @ @ @ @ @ @ @ @ @ @ { ] ~ ) , & - * . . . ",
". . . + @ % _ : < [ + + + @ @ @ @ @ @ @ @ @ @ @ @ @ @ @ @ @ @ @ @ @ @ { ] ~ ) , & - * . . . ",
". . . + @ % + + } | 1 2 3 @ @ @ @ @ @ @ @ @ @ @ @ @ @ @ @ @ @ @ @ @ @ { 4 5 ) , & - * . . . ",
". . . + @ % + + + + 6 7 8 9 @ @ @ @ @ @ @ @ @ @ @ @ @ @ @ @ @ @ 0 a b c d e f , & - * . . . ",
". . . + @ % + + + + + g h i j k @ @ @ @ @ @ @ @ @ @ @ @ l m n o p q r s t u ) , & - * . . . ",
". . . + @ % + + + + + + + v w x y z @ @ @ @ @ @ A B C D q E F G H l @ { ] ~ ) , & - * . . . ",
". . . + @ % + + + + + + + @ @ I J K @ @ @ @ @ L M N O P Q R @ @ @ @ @ { ] ~ ) , & - * . . . ",
". . . + @ % + + + + + + + @ @ S T U V @ @ W X Y Z `  .@ @ @ @ @ @ @ @ { ] ~ ) , & - * . . . ",
". . . + @ % + ..+ + + + + @ @ @ @ +.@.#.$.%.&.*.@ @ @ @ @ @ @ @ @ @ @ { ] ~ ) , & - * . . . ",
". . . + @ % =.-.;.>.,.+ + @ @ @ @ @ '.).!.~.{.@ @ @ @ @ @ @ @ @ @ @ @ { ].^.) , & - * . . . ",
". . . + @ % /.(._.:.<.[.}.|.` 1.P 2.Y 3.4.5.@ @ @ @ @ @ @ @ @ @ @ @ @ 6.7.8.9., & - * . . . ",
". . . + @ % + + + + 0.a.b.c.d.N N e.f.g.h.i.j.@ @ @ @ @ @ @ @ @ @ k.l.m.n.o.) , & - * . . . ",
". . . + @ % + + + + + + + @ @ p.q.r.@ @ j.s.t.g.@ @ @ @ @ @ @ u.v.w.x.y.] ~ ) , & - * . . . ",
". . . + @ % + + + + + + + @ @ @ @ @ @ @ @ z.A.B.@ @ @ @ @ C.D.E.F.G.H.{ ] ~ ) , & - * . . . ",
". . . + @ % + + + + + + + @ @ @ @ @ @ @ @ @ I.J.K.@ @ @ L.M.N.O.P.@ @ { ] ~ ) , & - * . . . ",
". . . + @ % + + + + + + + @ @ @ @ @ @ @ @ @ @ Q.@.#.R.S.T.U.V.@ @ @ @ { ] ~ ) , & - * . . . ",
". . . + @ % + + + + + + + @ @ @ @ @ @ @ @ @ @ @ W.J X.Y.Z.@ @ @ @ @ @ { ] ~ ) , & - * . . . ",
". . . + @ % + + + + + + + @ @ @ @ @ @ @ @ @ @ @ `.w. +@ @ @ @ @ @ @ @ { ] ~ ) , & - * . . . ",
". . . + @ % + + + + + + + @ @ @ @ @ @ @ @ @ @ @ @ @ @ @ @ @ @ @ @ @ @ { ] ~ ) , & - * . . . ",
". . . + @ % + + + + + + + @ @ @ @ @ @ @ @ @ @ @ @ @ @ @ @ @ @ @ @ @ @ { ] ~ ) , & - * . . . ",
". . . + @ % + + + + + + + @ @ @ @ @ @ @ @ @ @ @ @ @ @ @ @ @ @ @ @ @ @ { ] ~ ) , & - * . . . ",
". . . + @ % + + + + + + {.{ { { { { { { { { { { { { { { { { { { { { { { ] ~ ) , & - * . . . ",
". . . + @ % + + + + + {..+++++++++++++++++++++++++++++++++++++++++++++++.+~ ) , & - * . . . ",
". . . + @ % + + + + ! > @+@+@+@+@+@+@+@+@+@+@+@+@+@+@+@+@+@+@+@+@+@+@+@+@+@+#+, & - * . . . ",
". . . + + $+% %+&+*+=+-+-+-+-+;+;+>+>+,+,+'+'+'+)+)+!+!+~+~+~+{+{+{+]+]+]+]+{+^+/+(+_+. . . ",
". . . + + + ] :+<+$ [+}+}+}+}+|+|+1+1+2+2+2+3+3+4+4+5+5+5+5+5+$ 6+6+6+- - 7+8+9+- $+0+. . . ",
". . . . . . . . . . . . . . . . . . . . . . . . . . . . . . . . . . . . . . . . . . . . . . ",
". . . . . . . . . . . . . . . . . . . . . . . . . . . . . . . . . . . . . . . . . . . . . . ",
". . . . . . . . . . . . . . . . . . . . . . . . . . . . . . . . . . . . . . . . . . . . . . "};
