/* XPM */
static char * line_chart_xpm[] = {
"40 40 193 2",
"  	c None",
". 	c #FFFFFF",
"+ 	c #E4E4E4",
"@ 	c #9F9F9F",
"# 	c #FFFCF9",
"$ 	c #F59347",
"% 	c #F26F07",
"& 	c #FCE2CE",
"* 	c #F58C39",
"= 	c #F36B02",
"- 	c #F3740F",
"; 	c #F9B987",
"> 	c #FFFAF6",
", 	c #FFF9F5",
"' 	c #FACBA5",
") 	c #F47E22",
"! 	c #F37B1D",
"~ 	c #FAC79E",
"{ 	c #FFFEFD",
"] 	c #C7D7E1",
"^ 	c #C3D4DF",
"/ 	c #F9BE8F",
"( 	c #F37614",
"_ 	c #F4852D",
": 	c #FBD3B4",
"< 	c #FBFCFD",
"[ 	c #D8E3EA",
"} 	c #AFC6D4",
"| 	c #85A7BE",
"1 	c #5585A4",
"2 	c #5A89A7",
"3 	c #FCFDFD",
"4 	c #FEF7F1",
"5 	c #F8B17A",
"6 	c #F2700A",
"7 	c #F59041",
"8 	c #FCE0CA",
"9 	c #F9FBFC",
"0 	c #D3DFE7",
"a 	c #AAC2D1",
"b 	c #80A4BB",
"c 	c #5B89A7",
"d 	c #5887A6",
"e 	c #7BA0B8",
"f 	c #A4BDCE",
"g 	c #A3BDCD",
"h 	c #B9CDDA",
"i 	c #FEF0E5",
"j 	c #F7A565",
"k 	c #F26D04",
"l 	c #F37716",
"m 	c #FCDBC1",
"n 	c #EDF3F6",
"o 	c #7BA1B8",
"p 	c #8AAAC0",
"q 	c #7CA1B9",
"r 	c #5C8AA8",
"s 	c #82A5BC",
"t 	c #AAC2D2",
"u 	c #D4E0E8",
"v 	c #F7A666",
"w 	c #F26B01",
"x 	c #F58833",
"y 	c #DEE8EE",
"z 	c #7099B2",
"A 	c #6792AE",
"B 	c #B2C8D6",
"C 	c #DAE5EB",
"D 	c #FCFDFE",
"E 	c #FAC397",
"F 	c #F2730F",
"G 	c #F9B884",
"H 	c #F4F7F9",
"I 	c #9BB7C9",
"J 	c #5887A5",
"K 	c #95B3C7",
"L 	c #F0F4F7",
"M 	c #E1E9EF",
"N 	c #FBD6B9",
"O 	c #F26E06",
"P 	c #FACDA9",
"Q 	c #BCCFDB",
"R 	c #628FAB",
"S 	c #769DB6",
"T 	c #DAE4EB",
"U 	c #6B95AF",
"V 	c #94B3C6",
"W 	c #C0D2DD",
"X 	c #E4EBF0",
"Y 	c #FEFEFE",
"Z 	c #E6B28A",
"` 	c #ED6D07",
" .	c #7F8786",
"..	c #BACDDA",
"+.	c #FEEFE3",
"@.	c #FDEBDD",
"#.	c #7098B2",
"$.	c #8FAFC2",
"%.	c #6C95B0",
"&.	c #5E8BA9",
"*.	c #E3EBF0",
"=.	c #91AFC4",
"-.	c #CC8C57",
";.	c #F27818",
">.	c #FDEEE1",
",.	c #FDE9DB",
"'.	c #F36D05",
").	c #FFFCFA",
"!.	c #F3F6F9",
"~.	c #D0DDE6",
"{.	c #ACC4D3",
"].	c #89AAC0",
"^.	c #6691AD",
"/.	c #6590AC",
"(.	c #DCE6EC",
"_.	c #FFFDFC",
":.	c #F6964B",
"<.	c #F4862F",
"[.	c #FEF7F2",
"}.	c #FEF5ED",
"|.	c #F8AD73",
"1.	c #F26F08",
"2.	c #F37919",
"3.	c #F6974D",
"4.	c #DEE7ED",
"5.	c #8DAEC2",
"6.	c #E0E9EF",
"7.	c #F6974C",
"8.	c #FFFBF8",
"9.	c #F9BB8A",
"0.	c #F37411",
"a.	c #F4852E",
"b.	c #FBD5B7",
"c.	c #FDEDE0",
"d.	c #F37818",
"e.	c #F8AB70",
"f.	c #FFFEFE",
"g.	c #FACAA3",
"h.	c #F47D20",
"i.	c #FAC79F",
"j.	c #FCDEC7",
"k.	c #F27009",
"l.	c #FAC296",
"m.	c #FCD8BB",
"n.	c #F48732",
"o.	c #F37410",
"p.	c #F9BA88",
"q.	c #FFFAF7",
"r.	c #FBCCA7",
"s.	c #FDE2CF",
"t.	c #F69448",
"u.	c #F26E07",
"v.	c #F8AC71",
"w.	c #FEF4EC",
"x.	c #F8AB6F",
"y.	c #F26B02",
"z.	c #F79F5A",
"A.	c #FDECDE",
"B.	c #FEEEE2",
"C.	c #F69951",
"D.	c #EAEAEA",
"E.	c #A2A2A2",
"F.	c #A1A1A1",
"G.	c #A0A0A0",
"H.	c #9E9E9E",
"I.	c #9D9D9D",
"J.	c #9C9C9C",
"K.	c #9B9B9B",
"L.	c #9A9A9A",
"M.	c #999999",
"N.	c #989898",
"O.	c #979797",
"P.	c #969696",
"Q.	c #959595",
"R.	c #949494",
"S.	c #939393",
"T.	c #929292",
"U.	c #B4B4B4",
"V.	c #E8E8E8",
"W.	c #DEDEDE",
"X.	c #DFDFDF",
"Y.	c #E0E0E0",
"Z.	c #E1E1E1",
"`.	c #E2E2E2",
" +	c #E3E3E3",
".+	c #E5E5E5",
"++	c #E6E6E6",
"@+	c #E7E7E7",
"#+	c #E9E9E9",
"$+	c #EBEBEB",
"%+	c #ECECEC",
"&+	c #EDEDED",
"*+	c #F3F3F3",
". + @ . . . . . . . . . . . . . . . . . . . . . . . . . . . . . . . . . . . . . ",
". + @ . . . . . . . . . . . . . . . . . . . . . . . . . . . . . . . . . . . . . ",
". + @ . . . . . . . . . . . . . . . . . . . . . . . . . . . . . . . . . . . . . ",
". + @ . . . . . . . . . . . . . . . . . . . . . . . . . . . . . . . . . . . . . ",
". + @ . . . . . . . . . . . . . . . . . . . . . . . . . . . . . . . . . . . . . ",
". + @ . . . . . . . . . . . . . . . . . . . . . . . . . . . . . . . . . . . . . ",
". + @ . . . . . . . . . . . . . . . . . . . . . . . . . . . . . . . . . . . . . ",
". + @ . . . . . . . . . . . . . . . . . . . . . . . . . . . . . . . . . . . . . ",
". + @ . . . . . . . . . . . . . . . . . . . . . . . . . . . . . . . . . . . . . ",
". + @ . . . . . . . . . . . . . . . . . . . . . . . . . . . . . . . . . . . . . ",
". + @ . # . . . . . . . . . . . . . . . . . . . . . . . . . . . . . . . . . . . ",
". + @ $ % & . . . . . . . . . . . . . . . . . . . . . . . . . . . . . . . . . . ",
". + @ * = - ; > . . . . . . . . . . . . . . . . . . . . . . . . . . . . . . . . ",
". + @ . , ' ) ! ~ { . . . . . . . . . . . . . . . . . . . . . . . ] ^ . . . . . ",
". + @ . . . # / ( _ : . . . . . . . . . . . . . . . . . . < [ } | 1 2 3 . . . . ",
". + @ . . . . . 4 5 6 7 8 . . . . . . . . . . . . 9 0 a b c d e f g h . . . . . ",
". + @ . . . . . . . i j k l m . . . . . . n o p q d r s t u 9 . . . . . . . . . ",
". + @ . . . . . . . . . v w x . . . . . y z 1 A B C D . . . . . . . . . . . . . ",
". + @ . . . . . . . . . # E F G . . H I J K ] L . . . . . . . . . . . . . . . . ",
". + @ H M . . . . . . . . . N O P Q R S T . . . . . . . . . . . . . . . . . . . ",
". + @ U 1 V W X Y . . . . . . Z `  ...Y . . . . . . . . . . . . . +.@.. . . . . ",
". + @ g #.$.%.1 &.b f ] *.B =.J -.;.>.. . . . . . . . . . . . . ,.'.O ).. . . . ",
". + @ . . . . !.~.{.].^.1 1 /.(._.:.<.[.. . . . . . . . . . }.|.1.2.3.. . . . . ",
". + @ . . . . . . . . . 4.5.6.. . [._ 7._.. . . . . . . 8.9.0.a.b.. . . . . . . ",
". + @ . . . . . . . . . . . . . . . c.d.e.. . . . . f.g.h.! i.{ . . . . . . . . ",
". + @ . . . . . . . . . . . . . . . . j.k.l.. . . m.n.o.p.q.. . . . . . . . . . ",
". + @ . . . . . . . . . . . . . . . . . r.O P s.t.u.v.w.. . . . . . . . . . . . ",
". + @ . . . . . . . . . . . . . . . . . . x.w y.z.A.. . . . . . . . . . . . . . ",
". + @ . . . . . . . . . . . . . . . . . . B.0.C.. . . . . . . . . . . . . . . . ",
". + @ . . . . . . . . . . . . . . . . . . . . . . . . . . . . . . . . . . . . . ",
". + @ . . . . . . . . . . . . . . . . . . . . . . . . . . . . . . . . . . . . . ",
". + @ . . . . . . . . . . . . . . . . . . . . . . . . . . . . . . . . . . . . . ",
". + @ . . . . . . . . . . . . . . . . . . . . . . . . . . . . . . . . . . . . . ",
". + @ . . . . . . . . . . . . . . . . . . . . . . . . . . . . . . . . . . . . . ",
". + @ . . . . . . . . . . . . . . . . . . . . . . . . . . . . . . . . . . . . . ",
". + @ . . . . . . . . . . . . . . . . . . . . . . . . . . . . . . . . . . . . . ",
". + @ . . . . . . . . . . . . . . . . . . . . . . . . . . . . . . . . . . . . . ",
". D.E.E.E.F.F.F.G.G.@ @ H.H.I.I.J.J.K.K.K.L.L.M.M.N.N.N.O.P.P.Q.Q.Q.R.R.S.S.T.U.",
". . V.W.W.X.X.X.Y.Y.Z.Z.`.`. + ++ + + .+.+++++@+@+@+V.V.#+D.D.D.$+$+%+%+&+&+&+*+",
". . . . . . . . . . . . . . . . . . . . . . . . . . . . . . . . . . . . . . . . "};
