/* XPM */
static char * line_chart_xpm[] = {
"40 40 231 2",
"  	c None",
". 	c #FFFFFF",
"+ 	c #CBCBCB",
"@ 	c #D1D1D1",
"# 	c #C6C6C6",
"$ 	c #FEFEFE",
"% 	c #BABABA",
"& 	c #C5C5C5",
"* 	c #B5B5B5",
"= 	c #D8D8D8",
"- 	c #ADADAD",
"; 	c #E3E3E3",
"> 	c #C7C7C7",
", 	c #ECECEC",
"' 	c #F0F0F0",
") 	c #E2E2E2",
"! 	c #F4F4F4",
"~ 	c #EAEAEA",
"{ 	c #FAFAFA",
"] 	c #F1F1F1",
"^ 	c #FBFBFB",
"/ 	c #F8F8F8",
"( 	c #FFA44F",
"_ 	c #FF7907",
": 	c #FFF3DD",
"< 	c #FF9C3F",
"[ 	c #FF7502",
"} 	c #FF7C10",
"| 	c #FFC38F",
"1 	c #FFDAB1",
"2 	c #FF8524",
"3 	c #FC7F1E",
"4 	c #FDC9A0",
"5 	c #FFFEFD",
"6 	c #C2D1DB",
"7 	c #B8C9D3",
"8 	c #FFC594",
"9 	c #F67714",
"0 	c #F4852D",
"a 	c #FAD2B3",
"b 	c #FAFBFC",
"c 	c #D7E2E9",
"d 	c #AEC5D3",
"e 	c #83A4BB",
"f 	c #5281A0",
"g 	c #55819E",
"h 	c #E7E8E8",
"i 	c #FFFAF4",
"j 	c #F8B17A",
"k 	c #F16F09",
"l 	c #F48F40",
"m 	c #FBDFC9",
"n 	c #F8FAFB",
"o 	c #D2DEE6",
"p 	c #A9C1D0",
"q 	c #7FA3BA",
"r 	c #5A88A6",
"s 	c #5786A5",
"t 	c #7A9FB7",
"u 	c #A1BACB",
"v 	c #9FB8C8",
"w 	c #AFC2CE",
"x 	c #FDEFE4",
"y 	c #F6A464",
"z 	c #F16C03",
"A 	c #F27615",
"B 	c #FBDAC0",
"C 	c #ECF2F5",
"D 	c #7AA0B7",
"E 	c #89A9BF",
"F 	c #7BA0B8",
"G 	c #5B89A7",
"H 	c #81A4BB",
"I 	c #A9C1D1",
"J 	c #D3DFE7",
"K 	c #F6A565",
"L 	c #F16A00",
"M 	c #F48732",
"N 	c #DDE7ED",
"O 	c #6F98B1",
"P 	c #5484A3",
"Q 	c #6691AD",
"R 	c #B1C7D5",
"S 	c #D9E4EA",
"T 	c #FBFCFD",
"U 	c #FEFBF8",
"V 	c #F9C296",
"W 	c #F1720E",
"X 	c #F8B783",
"Y 	c #F3F6F8",
"Z 	c #9AB6C8",
"` 	c #5786A4",
" .	c #94B2C6",
"..	c #C6D6E0",
"+.	c #EFF3F6",
"@.	c #F7FFFF",
"#.	c #FAD5B8",
"$.	c #F16D05",
"%.	c #F9CCA8",
"&.	c #BBCEDA",
"*.	c #618EAA",
"=.	c #759CB5",
"-.	c #D9E3EA",
";.	c #77A6C4",
">.	c #5D92B4",
",.	c #9FC0D5",
"'.	c #CBDEEA",
").	c #ECF3F8",
"!.	c #E5B189",
"~.	c #EC6C06",
"{.	c #7E8685",
"].	c #B9CCD9",
"^.	c #FDFDFD",
"/.	c #F7E9DD",
"(.	c #EFDED1",
"_.	c #B6D3E5",
":.	c #7AA6C3",
"<.	c #99BCD0",
"[.	c #729DBA",
"}.	c #5889AA",
"|.	c #5F8DAB",
"1.	c #80A4BB",
"2.	c #A3BCCD",
"3.	c #E2EAEF",
"4.	c #90AEC3",
"5.	c #CB8B56",
"6.	c #F17717",
"7.	c #FCEDE0",
"8.	c #F9E6D8",
"9.	c #ED6A04",
"0.	c #E56805",
"a.	c #EAE7E6",
"b.	c #FCFFFF",
"c.	c #D3E0E9",
"d.	c #ACC4D3",
"e.	c #88A9BF",
"f.	c #6590AC",
"g.	c #648FAB",
"h.	c #DBE5EB",
"i.	c #FEFCFB",
"j.	c #F5954A",
"k.	c #F3852E",
"l.	c #FDF6F1",
"m.	c #FDF4EC",
"n.	c #F7AC72",
"o.	c #EE6D07",
"p.	c #ED7618",
"q.	c #E98F49",
"r.	c #DDE6EC",
"s.	c #8CADC1",
"t.	c #DFE8EE",
"u.	c #F3842C",
"v.	c #F5964B",
"w.	c #FEFAF7",
"x.	c #F8BA89",
"y.	c #F27310",
"z.	c #F3842D",
"A.	c #F7D2B4",
"B.	c #FCECDF",
"C.	c #F27717",
"D.	c #F7AA6F",
"E.	c #FEFDFD",
"F.	c #F9C9A2",
"G.	c #F37C1F",
"H.	c #F27A1C",
"I.	c #F9C69E",
"J.	c #FEFDFC",
"K.	c #FBDDC6",
"L.	c #F16F08",
"M.	c #F9C195",
"N.	c #FBD7BA",
"O.	c #F38631",
"P.	c #F2730F",
"Q.	c #F8B987",
"R.	c #FEF9F6",
"S.	c #FACBA6",
"T.	c #FCE1CE",
"U.	c #F59347",
"V.	c #F16D06",
"W.	c #F7AB70",
"X.	c #FDF3EB",
"Y.	c #F7AA6E",
"Z.	c #F16A01",
"`.	c #F69E59",
" +	c #FCEBDD",
".+	c #FDEDE1",
"++	c #F59850",
"@+	c #F7F7F7",
"#+	c #F6F6F6",
"$+	c #EDEDED",
"%+	c #E9E9E9",
"&+	c #B9B9B9",
"*+	c #B1B1B1",
"=+	c #A8A8A8",
"-+	c #9D9D9D",
";+	c #939393",
">+	c #8D8D8D",
",+	c #8C8C8C",
"'+	c #8B8B8B",
")+	c #8A8A8A",
"!+	c #898989",
"~+	c #888888",
"{+	c #878787",
"]+	c #868686",
"^+	c #858585",
"/+	c #848484",
"(+	c #828282",
"_+	c #7C7C7C",
":+	c #727272",
"<+	c #7A7A7A",
"[+	c #EBEBEB",
"}+	c #D7D7D7",
"|+	c #BDBDBD",
"1+	c #BEBEBE",
"2+	c #BFBFBF",
"3+	c #C0C0C0",
"4+	c #C1C1C1",
"5+	c #C2C2C2",
"6+	c #C3C3C3",
"7+	c #C4C4C4",
"8+	c #C8C8C8",
"9+	c #CACACA",
"0+	c #CECECE",
"a+	c #A5A5A5",
"b+	c #F3F3F3",
"c+	c #D6D6D6",
"d+	c #CDCDCD",
"e+	c #ACACAC",
"f+	c #959595",
"g+	c #9B9B9B",
"h+	c #A4A4A4",
". . + . . . . . . . . . . . . . . . . . . . . . . . . . . . . . . . . . . . . . ",
". . @ . . . . . . . . . . . . . . . . . . . . . . . . . . . . . . . . . . . . . ",
". . # . . . . . . . . . . . . . . . . . . . . . . . . . . . . . . . . . . . . $ ",
". $ % . . . . . . . . . . . . . . . . . . . . . . . . . . . . . . . . . . . . & ",
". $ * . . . . . . . . . . . . . . . . . . . . . . . . . . . . . . . . . . . = - ",
". $ * . . . . . . . . . . . . . . . . . . . . . . . . . . . . . . . . . . ; > - ",
". $ * . . . . . . . . . . . . . . . . . . . . . . . . . . . . . . . . . , = > - ",
". $ * . . . . . . . . . . . . . . . . . . . . . . . . . . . . . . . . ' ) = > - ",
". $ * . . . . . . . . . . . . . . . . . . . . . . . . . . . . . . $ ! ~ ) = > - ",
". $ * . . . . . . . . . . . . . . . . . . . . . . . . . . . . . $ { ] ~ ) = > - ",
". $ * . . . . . . . $ $ $ $ $ $ $ $ $ $ $ $ $ $ $ $ $ $ $ $ $ $ ^ / ] ~ ) = > - ",
". $ * ( _ : . . . . $ $ $ $ $ $ $ $ $ $ $ $ $ $ $ $ $ $ $ $ $ $ ^ / ] ~ ) = > - ",
". $ * < [ } | . . . $ $ $ $ $ $ $ $ $ $ $ $ $ $ $ $ $ $ $ $ $ $ ^ / ] ~ ) = > - ",
". $ * . . 1 2 3 4 5 $ $ $ $ $ $ $ $ $ $ $ $ $ $ $ $ $ $ $ $ $ $ ^ 6 7 ~ ) = > - ",
". $ * . . . . 8 9 0 a $ $ $ $ $ $ $ $ $ $ $ $ $ $ $ $ $ $ b c d e f g h ) = > - ",
". $ * . . . . . i j k l m $ $ $ $ $ $ $ $ $ $ $ $ n o p q r s t u v w ~ ) = > - ",
". $ * . . . . . . . x y z A B $ $ $ $ $ $ C D E F s G H I J n $ ^ / ] ~ ) = > - ",
". $ * . . . . . . . $ $ K L M $ $ $ $ $ N O P Q R S T $ $ $ $ $ ^ / ] ~ ) = > - ",
". $ * . . . . . . . $ $ U V W X $ $ Y Z `  ...+.$ $ $ $ $ $ $ $ ^ / ] ~ ) = > - ",
". $ * . @.. . . . . $ $ $ $ #.$.%.&.*.=.-.$ $ $ $ $ $ $ $ $ $ $ ^ / ] ~ ) = > - ",
". $ * ;.>.,.'.).. . $ $ $ $ $ !.~.{.].^.$ $ $ $ $ $ $ $ $ $ $ $ ^ /.(.~ ) = > - ",
". $ * _.:.<.[.}.|.1.2...3.R 4.` 5.6.7.$ $ $ $ $ $ $ $ $ $ $ $ $ 8.9.0.a.) = > - ",
". $ * . . . . b.c.d.e.f.P P g.h.i.j.k.l.$ $ $ $ $ $ $ $ $ $ m.n.o.p.q.~ ) = > - ",
". $ * . . . . . . . $ $ r.s.t.$ $ l.u.v.i.$ $ $ $ $ $ $ w.x.y.z.A./ ] ~ ) = > - ",
". $ * . . . . . . . $ $ $ $ $ $ $ $ B.C.D.$ $ $ $ $ E.F.G.H.I.J.^ / ] ~ ) = > - ",
". $ * . . . . . . . $ $ $ $ $ $ $ $ $ K.L.M.$ $ $ N.O.P.Q.R.$ $ ^ / ] ~ ) = > - ",
". $ * . . . . . . . $ $ $ $ $ $ $ $ $ $ S.$.%.T.U.V.W.X.$ $ $ $ ^ / ] ~ ) = > - ",
". $ * . . . . . . . $ $ $ $ $ $ $ $ $ $ $ Y.L Z.`. +$ $ $ $ $ $ ^ / ] ~ ) = > - ",
". $ * . . . . . . . $ $ $ $ $ $ $ $ $ $ $ .+y.++$ $ $ $ $ $ $ $ ^ / ] ~ ) = > - ",
". $ * . . . . . . . $ $ $ $ $ $ $ $ $ $ $ $ $ $ $ $ $ $ $ $ $ $ ^ / ] ~ ) = > - ",
". $ * . . . . . . . $ $ $ $ $ $ $ $ $ $ $ $ $ $ $ $ $ $ $ $ $ $ ^ / ] ~ ) = > - ",
". $ * . . . . . . . $ $ $ $ $ $ $ $ $ $ $ $ $ $ $ $ $ $ $ $ $ $ ^ / ] ~ ) = > - ",
". $ * . . . . . . ^.^ ^ ^ ^ ^ ^ ^ ^ ^ ^ ^ ^ ^ ^ ^ ^ ^ ^ ^ ^ ^ ^ ^ / ] ~ ) = > - ",
". $ * . . . . . ^.@+#+#+#+#+#+#+#+#+#+#+#+#+#+#+#+#+#+#+#+#+#+#+#+@+] ~ ) = > - ",
". $ * . . . . { ' $+$+$+$+$+$+$+$+$+$+$+$+$+$+$+$+$+$+$+$+$+$+$+$+$+$+%+) = > - ",
". . &+* *+=+-+;+>+>+>+>+,+,+'+'+)+)+!+!+!+~+~+{+{+]+]+]+^+^+^+/+/+/+/+^+(+_+:+<+",
". . . / [+}+& |+1+1+1+1+2+2+3+3+4+4+4+5+5+6+6+7+7+7+7+7+& # # # > > 8+9+0+> &+a+",
". . . . b+c+9+9+9+9+9+9+9+9+9+9+9+9+9+9+9+9+9+9+9+9+9+9+9+9+9+9+9+9+9+9+d+@ & - ",
". . . $+7+* * * * * * * * * * * * * * * * * * * * * * * * * * * * * * * * &+1+- ",
". . ; e+f+f+f+f+f+f+f+f+f+f+f+f+f+f+f+f+f+f+f+f+f+f+f+f+f+f+f+f+f+f+f+f+f+f+g+h+"};
