/* XPM */
static char * pie_chart_xpm[] = {
"40 40 368 2",
"  	c None",
". 	c #FFFFFF",
"+ 	c #E6E6E6",
"@ 	c #D7D7D7",
"# 	c #CACACA",
"$ 	c #D2D2D3",
"% 	c #E7E7E7",
"& 	c #F5F5F5",
"* 	c #F7F7F7",
"= 	c #C3C3C3",
"- 	c #B5B3B2",
"; 	c #B4B4B4",
"> 	c #B5B4B3",
", 	c #BEB0A4",
"' 	c #BBB0A9",
") 	c #ADB2B4",
"! 	c #9EAFBA",
"~ 	c #AAB4BA",
"{ 	c #B2B5B7",
"] 	c #B8B9B9",
"^ 	c #E1E1E1",
"/ 	c #FEFEFE",
"( 	c #FBFBFB",
"_ 	c #B4B2B1",
": 	c #AEAEAE",
"< 	c #BBA99C",
"[ 	c #E1985F",
"} 	c #FF8926",
"| 	c #FF8004",
"1 	c #FF7F01",
"2 	c #D69D70",
"3 	c #9EA9B0",
"4 	c #659EC3",
"5 	c #669EC3",
"6 	c #73A0BE",
"7 	c #8BA6B8",
"8 	c #A4ACB2",
"9 	c #CDCECE",
"0 	c #C5C5C5",
"a 	c #B9B9B9",
"b 	c #A7A7A7",
"c 	c #B6A08F",
"d 	c #F68731",
"e 	c #FF7A01",
"f 	c #D09668",
"g 	c #99A3A8",
"h 	c #6198BC",
"i 	c #779DB5",
"j 	c #A0A7AC",
"k 	c #DCDCDC",
"l 	c #D8D8D8",
"m 	c #ADADAD",
"n 	c #A9A7A6",
"o 	c #A7A19D",
"p 	c #DE8A48",
"q 	c #FF7703",
"r 	c #FF7701",
"s 	c #CD9062",
"t 	c #989FA3",
"u 	c #5E94B6",
"v 	c #5F94B6",
"w 	c #7F9AAD",
"x 	c #A2A2A2",
"y 	c #E3E3E3",
"z 	c #C7C7C7",
"A 	c #A19F9E",
"B 	c #A59B92",
"C 	c #F27B1F",
"D 	c #FF7401",
"E 	c #CA8C5C",
"F 	c #969B9E",
"G 	c #5C90B2",
"H 	c #6E94AD",
"I 	c #9D9FA0",
"J 	c #AFB0B0",
"K 	c #ECECEC",
"L 	c #9E9B99",
"M 	c #A5958A",
"N 	c #F07617",
"O 	c #FF7001",
"P 	c #C58756",
"Q 	c #929698",
"R 	c #598CAC",
"S 	c #638EA9",
"T 	c #979A9B",
"U 	c #B4B5B5",
"V 	c #FDFDFD",
"W 	c #F0F0F0",
"X 	c #E2E2E2",
"Y 	c #A7A6A6",
"Z 	c #9B9591",
"` 	c #EA7214",
" .	c #F66D01",
"..	c #F86D01",
"+.	c #C28452",
"@.	c #8F9294",
"#.	c #5788A8",
"$.	c #678BA3",
"%.	c #919292",
"&.	c #B8B8B8",
"*.	c #EAEAEA",
"=.	c #9A9A9A",
"-.	c #D77C34",
";.	c #F56C01",
">.	c #F26B01",
",.	c #C0804D",
"'.	c #8D9091",
").	c #5585A4",
"!.	c #5484A3",
"~.	c #6D889A",
"{.	c #8A8A8A",
"].	c #D2D2D2",
"^.	c #9F9D9C",
"/.	c #BF8A62",
"(.	c #FA6E01",
"_.	c #F16A00",
":.	c #C17E49",
"<.	c #8E9090",
"[.	c #5383A1",
"}.	c #5381A0",
"|.	c #80898F",
"1.	c #9A9B9B",
"2.	c #C6C6C6",
"3.	c #9E9D9C",
"4.	c #F47614",
"5.	c #C27D47",
"6.	c #8E8F8F",
"7.	c #5281A0",
"8.	c #608196",
"9.	c #868686",
"0.	c #A3A19F",
"a.	c #C08E66",
"b.	c #FF7101",
"c.	c #C47C44",
"d.	c #8F8F8F",
"e.	c #507E9B",
"f.	c #7B848B",
"g.	c #979898",
"h.	c #EDEDED",
"i.	c #A0A0A0",
"j.	c #EF7B21",
"k.	c #C67B41",
"l.	c #909090",
"m.	c #677F90",
"n.	c #818282",
"o.	c #D1D1D1",
"p.	c #C2C2C2",
"q.	c #A69E96",
"r.	c #FF7402",
"s.	c #C87A3E",
"t.	c #547B95",
"u.	c #818181",
"v.	c #B6B6B6",
"w.	c #ADABA9",
"x.	c #C2936E",
"y.	c #FF7301",
"z.	c #CA7A3C",
"A.	c #919191",
"B.	c #4E7A96",
"C.	c #7B8186",
"D.	c #9E9E9E",
"E.	c #A4A3A2",
"F.	c #DA8949",
"G.	c #CC7939",
"H.	c #5584A3",
"I.	c #6F7E86",
"J.	c #939394",
"K.	c #A3A3A3",
"L.	c #E4843B",
"M.	c #CE7835",
"N.	c #5685A3",
"O.	c #6A7C88",
"P.	c #888989",
"Q.	c #C3926B",
"R.	c #CD8953",
"S.	c #C88855",
"T.	c #C18657",
"U.	c #BB8357",
"V.	c #B88359",
"W.	c #B5835B",
"X.	c #B2835D",
"Y.	c #B18460",
"Z.	c #B08563",
"`.	c #AD8565",
" +	c #AB8669",
".+	c #AA886C",
"++	c #A8896F",
"@+	c #A68A71",
"#+	c #9E8E7F",
"$+	c #939290",
"%+	c #63879F",
"&+	c #657B8A",
"*+	c #838485",
"=+	c #A4A4A3",
"-+	c #A6A39A",
";+	c #A9A390",
">+	c #AAA38C",
",+	c #A9A187",
"'+	c #A79F82",
")+	c #A79F7F",
"!+	c #A89F7C",
"~+	c #AAA17A",
"{+	c #ACA378",
"]+	c #AFA677",
"^+	c #B1A875",
"/+	c #B3A973",
"(+	c #B5AA71",
"_+	c #B7AC6F",
":+	c #BAAE6E",
"<+	c #BCAF6C",
"[+	c #A29D82",
"}+	c #909291",
"|+	c #67889D",
"1+	c #667C8A",
"2+	c #808182",
"3+	c #A5A5A2",
"4+	c #DBCA6C",
"5+	c #FFEF36",
"6+	c #FFEC36",
"7+	c #FFE734",
"8+	c #FFE233",
"9+	c #FFDF33",
"0+	c #FEDE32",
"a+	c #F9DB37",
"b+	c #708A9B",
"c+	c #6B7C87",
"d+	c #8A8B8C",
"e+	c #A5A4A1",
"f+	c #CDC078",
"g+	c #FDDD33",
"h+	c #C1B367",
"i+	c #798C98",
"j+	c #5584A2",
"k+	c #717E86",
"l+	c #969696",
"m+	c #A6A5A5",
"n+	c #BCB488",
"o+	c #D2BF59",
"p+	c #929290",
"q+	c #838F95",
"r+	c #5885A2",
"s+	c #7E8285",
"t+	c #B7B7B7",
"u+	c #A1A19F",
"v+	c #FFE93E",
"w+	c #E0C94C",
"x+	c #95948C",
"y+	c #8A9092",
"z+	c #5C85A0",
"A+	c #587C94",
"B+	c #BDBDBD",
"C+	c #F4F4F4",
"D+	c #A1A09F",
"E+	c #E3CE5F",
"F+	c #ECD142",
"G+	c #9C9A87",
"H+	c #8F9291",
"I+	c #62879F",
"J+	c #6A808E",
"K+	c #838484",
"L+	c #D4D4D4",
"M+	c #B9B085",
"N+	c #F5D83B",
"O+	c #A7A17D",
"P+	c #6A899C",
"Q+	c #517E9A",
"R+	c #80868A",
"S+	c #9FA0A0",
"T+	c #BCBCBC",
"U+	c #9D9D9D",
"V+	c #EFD550",
"W+	c #FBDC35",
"X+	c #B6AC71",
"Y+	c #738B9A",
"Z+	c #678294",
"`+	c #CDCDCD",
" @	c #9F9E9C",
".@	c #ABA68C",
"+@	c #FFE536",
"@@	c #FEDE33",
"#@	c #C7B762",
"$@	c #7D8D97",
"%@	c #5584A1",
"&@	c #5482A0",
"*@	c #878B8E",
"=@	c #A7A8A8",
"-@	c #CFCFCF",
";@	c #9B9A99",
">@	c #D1C065",
",@	c #D7C355",
"'@	c #93928F",
")@	c #848E93",
"!@	c #7A8A95",
"~@	c #8C8C8C",
"{@	c #A4A3A3",
"]@	c #989796",
"^@	c #DFC853",
"/@	c #E4CC48",
"(@	c #95948D",
"_@	c #91908C",
":@	c #9A9A98",
"<@	c #969693",
"[@	c #E0C94E",
"}@	c #D2BF58",
"|@	c #90908F",
"1@	c #A3A3A2",
"2@	c #F1F1F1",
"3@	c #F8F8F8",
"4@	c #969594",
"5@	c #959490",
"6@	c #D4C056",
"7@	c #D1BE5A",
"8@	c #919190",
"9@	c #F9F9F9",
"0@	c #A0A09F",
"a@	c #B0A773",
"b@	c #F2D63A",
"c@	c #FBDC32",
"d@	c #EED33D",
"e@	c #ADA475",
"f@	c #A5A5A5",
"g@	c #B5B5B5",
"h@	c #8D8D8B",
"i@	c #939187",
"j@	c #C0B15E",
"k@	c #ECD038",
"l@	c #F6D731",
"m@	c #EACF3A",
"n@	c #908F89",
"o@	c #8F8E8C",
"p@	c #F6F6F6",
"q@	c #FAFAFA",
"r@	c #DADADA",
"s@	c #989898",
"t@	c #888887",
"u@	c #898987",
"v@	c #ACA168",
"w@	c #C7B451",
"x@	c #DBC33E",
"y@	c #ECCE30",
"z@	c #EDCF2F",
"A@	c #EACD32",
"B@	c #DAC141",
"C@	c #A59D6D",
"D@	c #9C9C9C",
"E@	c #E9E9E9",
"F@	c #D0D0D0",
"G@	c #858582",
"H@	c #818180",
"I@	c #83827E",
"J@	c #86857D",
"K@	c #87857D",
"L@	c #87857B",
"M@	c #828280",
"N@	c #868684",
"O@	c #CBCBCB",
"P@	c #959595",
"Q@	c #B1B1B1",
"R@	c #CECECE",
"S@	c #DBDBDB",
"T@	c #DEDEDE",
"U@	c #D6D6D6",
"V@	c #F3F3F3",
"W@	c #C4C4C4",
"X@	c #BEBEBE",
"Y@	c #ACACAC",
"Z@	c #9B9B9B",
"`@	c #A4A4A4",
". . . . . . . . . . . . . . . . . . . . . . . . . . . . . . . . . . . . . . . . ",
". . . . . . . . . . . . . . . . . + @ # $ % & . . . . . . . . . . . . . . . . . ",
". . . . . . . . . . . . . * = - ; > , ' ) ! ~ { ; ] ^ . . . . . . . . . . . . / ",
". . . . . . . . . . . ( _ : < [ } | 1 2 3 4 4 5 6 7 8 : 9 . . . . . . . . . . 0 ",
". . . . . . . . . . a b c d e e e e e f g h h h h h h i j b k . . . . . . . l m ",
". . . . . . . . . n o p q r r r r r r s t u u u u u u u v w x = . . . . . y z m ",
". . . . . . . ( A B C D D D D D D D D E F G G G G G G G G G H I J . . . K l z m ",
". . . . . . . L M N O O O O O O O O O P Q R R R R R R R R R R S T U V W X l z m ",
". . . . . . Y Z `  ...................+.@.#.#.#.#.#.#.#.#.#.#.#.$.%.&.*.X l z m ",
". . . . . # =.-.;.>.>.>.>.>.>.>.>.>.>.,.'.).).).).).).).).).).).!.~.{.].X l z m ",
". . . . . ^./.(.;.>._._._._._._._._._.:.<.!.!.!.!.!.!.!.!.!.!.!.[.}.|.1.X l z m ",
". . . . 2.3.4.(.;.>._._._._._._._._._.5.6.!.!.!.!.!.!.!.!.!.!.!.[.7.8.9.= l z m ",
". . . . 0.a.b.(.;.>._._._._._._._._._.c.d.!.!.!.!.!.!.!.!.!.!.!.[.7.e.f.g.l z m ",
". . . h.i.j.b.(.;.>._._._._._._._._._.k.l.!.!.!.!.!.!.!.!.!.!.!.[.7.e.m.n.o.z m ",
". . . p.q.r.b.(.;.>._._._._._._._._._.s.l.!.!.!.!.!.!.!.!.!.!.!.[.7.e.t.u.v.z m ",
". . . w.x.y.b.(.;.>._._._._._._._._._.z.A.!.!.!.!.!.!.!.!.!.!.!.[.7.e.B.C.D.z m ",
". . . E.F.y.b.(.;.>._._._._._._._._._.G.A.H.!.!.!.!.!.!.!.!.!.!.[.7.e.B.I.J.z m ",
". . . K.L.y.b.(.;.>._._._._._._._._._.M.A.N.!.!.!.!.!.!.!.!.!.!.[.7.e.B.O.P.z m ",
". . . K.Q.R.S.T.U.V.W.X.Y.Z.`. +.+++@+#+$+%+!.!.!.!.!.!.!.!.!.!.[.7.e.B.&+*+z m ",
". . . =+-+;+>+,+'+)+!+~+{+]+^+/+(+_+:+<+[+}+|+!.!.!.!.!.!.!.!.!.[.7.e.B.1+2+z m ",
". . . 3+4+5+6+7+8+9+0+0+0+0+0+0+0+0+0+0+a+^+A.b+!.!.!.!.!.!.!.!.[.7.e.B.c+d+z m ",
". . . e+f+5+6+7+8+9+0+0+0+0+0+0+0+0+0+0+0+g+h+A.i+j+!.!.!.!.!.!.[.7.e.B.k+l+z m ",
". . . m+n+5+6+7+8+9+0+0+0+0+0+0+0+0+0+0+0+0+0+o+p+q+r+!.!.!.!.!.[.7.e.B.s+x z m ",
". . . t+u+v+6+7+8+9+0+0+0+0+0+0+0+0+0+0+0+0+0+0+w+x+y+z+!.!.!.!.[.7.e.A+u.B+z m ",
". . . C+D+E+6+7+8+9+0+0+0+0+0+0+0+0+0+0+0+0+0+0+0+F+G+H+I+!.!.!.[.7.e.J+K+L+z m ",
". . . . u+M+6+7+8+9+0+0+0+0+0+0+0+0+0+0+0+0+0+0+0+0+N+O+A.P+!.!.[.7.Q+R+S+l z m ",
". . . . T+U+V+7+8+9+0+0+0+0+0+0+0+0+0+0+0+0+0+0+0+0+0+W+X+A.Y+!.[.7.Z+9.`+l z m ",
". . . . .  @.@+@8+9+0+0+0+0+0+0+0+0+0+0+0+0+0+0+0+0+0+0+@@#@A.$@%@&@*@=@X l z m ",
". . . . . -@;@>@8+9+0+0+0+0+0+0+0+0+0+0+0+0+0+0+0+0+0+0+0+0+,@'@)@!@~@k X l z m ",
". . . . . . {@]@^@9+0+0+0+0+0+0+0+0+0+0+0+0+0+0+0+0+0+0+0+0+0+/@(@_@# *.X l z m ",
". . . . . . . :@<@[@0+0+0+0+0+0+0+0+0+0+0+0+0+0+0+0+0+0+0+0+0+}@|@1@2@*.X l z m ",
". . . . . . . 3@4@5@6@0+0+0+0+0+0+0+0+0+0+0+0+0+0+0+0+0+0+0+7@8@U+* 2@*.X l z m ",
". . . . . . . . 9@0@l.a@b@c@c@c@c@c@c@c@c@c@c@c@c@c@c@c@d@e@l.f@( 3@2@*.X l z m ",
". . . . . . . . V * g@h@i@j@k@l@l@l@l@l@l@l@l@l@l@l@m@j@n@o@B+p@p@* 2@*.X l z m ",
". . . . . . . q@W h.h.r@s@t@u@v@w@x@y@z@z@z@A@B@w@C@t@t@D@X h.h.h.h.h.E@X l z m ",
". . . . . . 3@E@X X X X X F@U+G@H@u.I@J@K@L@M@u.u.N@x L+X X X X X X y + X l z m ",
". . . . . p@X l l l l l l l l l O@m D@P@A.P@D.Q@R@l l l l l l l l l l S@T@U@z m ",
". . . . V@U@# # # # # # # # # # # # # # # # # # # # # # # # # # # # # # `+o.0 m ",
". . . h.W@g@g@g@g@g@g@g@g@g@g@g@g@g@g@g@g@g@g@g@g@g@g@g@g@g@g@g@g@g@g@g@g@a X@m ",
". . y Y@P@P@P@P@P@P@P@P@P@P@P@P@P@P@P@P@P@P@P@P@P@P@P@P@P@P@P@P@P@P@P@P@P@P@Z@`@"};
