/* XPM */
static char * pie_chart_sel_xpm[] = {
"46 40 346 2",
"  	c None",
". 	c #FF7401",
"+ 	c #FFFFFF",
"@ 	c #FBFBFB",
"# 	c #B4B2B1",
"$ 	c #AEAEAE",
"% 	c #BBA99C",
"& 	c #E1985F",
"* 	c #FF8926",
"= 	c #FF8004",
"- 	c #FF7F01",
"; 	c #D69D70",
"> 	c #9EA9B0",
", 	c #659EC3",
"' 	c #669EC3",
") 	c #73A0BE",
"! 	c #8BA6B8",
"~ 	c #A4ACB2",
"{ 	c #CDCECE",
"] 	c #C5C5C5",
"^ 	c #B9B9B9",
"/ 	c #A7A7A7",
"( 	c #B6A08F",
"_ 	c #F68731",
": 	c #FF7A01",
"< 	c #D09668",
"[ 	c #99A3A8",
"} 	c #6198BC",
"| 	c #779DB5",
"1 	c #A0A7AC",
"2 	c #DCDCDC",
"3 	c #D8D8D8",
"4 	c #ADADAD",
"5 	c #A9A7A6",
"6 	c #A7A19D",
"7 	c #DE8A48",
"8 	c #FF7703",
"9 	c #FF7701",
"0 	c #CD9062",
"a 	c #989FA3",
"b 	c #5E94B6",
"c 	c #5F94B6",
"d 	c #7F9AAD",
"e 	c #A2A2A2",
"f 	c #C3C3C3",
"g 	c #E3E3E3",
"h 	c #C7C7C7",
"i 	c #A19F9E",
"j 	c #A59B92",
"k 	c #F27B1F",
"l 	c #CA8C5C",
"m 	c #969B9E",
"n 	c #5C90B2",
"o 	c #6E94AD",
"p 	c #9D9FA0",
"q 	c #AFB0B0",
"r 	c #ECECEC",
"s 	c #9E9B99",
"t 	c #A5958A",
"u 	c #F07617",
"v 	c #FF7001",
"w 	c #C58756",
"x 	c #929698",
"y 	c #598CAC",
"z 	c #638EA9",
"A 	c #979A9B",
"B 	c #B4B5B5",
"C 	c #FDFDFD",
"D 	c #F0F0F0",
"E 	c #E2E2E2",
"F 	c #A7A6A6",
"G 	c #9B9591",
"H 	c #EA7214",
"I 	c #F66D01",
"J 	c #F86D01",
"K 	c #C28452",
"L 	c #8F9294",
"M 	c #5788A8",
"N 	c #678BA3",
"O 	c #919292",
"P 	c #B8B8B8",
"Q 	c #EAEAEA",
"R 	c #CACACA",
"S 	c #9A9A9A",
"T 	c #D77C34",
"U 	c #F56C01",
"V 	c #F26B01",
"W 	c #C0804D",
"X 	c #8D9091",
"Y 	c #5585A4",
"Z 	c #5484A3",
"` 	c #6D889A",
" .	c #8A8A8A",
"..	c #D2D2D2",
"+.	c #9F9D9C",
"@.	c #BF8A62",
"#.	c #FA6E01",
"$.	c #F16A00",
"%.	c #C17E49",
"&.	c #8E9090",
"*.	c #5383A1",
"=.	c #5381A0",
"-.	c #80898F",
";.	c #9A9B9B",
">.	c #C6C6C6",
",.	c #9E9D9C",
"'.	c #F47614",
").	c #C27D47",
"!.	c #8E8F8F",
"~.	c #5281A0",
"{.	c #608196",
"].	c #868686",
"^.	c #A3A19F",
"/.	c #C08E66",
"(.	c #FF7101",
"_.	c #C47C44",
":.	c #8F8F8F",
"<.	c #507E9B",
"[.	c #7B848B",
"}.	c #979898",
"|.	c #EDEDED",
"1.	c #A0A0A0",
"2.	c #EF7B21",
"3.	c #C67B41",
"4.	c #909090",
"5.	c #677F90",
"6.	c #818282",
"7.	c #D1D1D1",
"8.	c #C2C2C2",
"9.	c #A69E96",
"0.	c #FF7402",
"a.	c #C87A3E",
"b.	c #547B95",
"c.	c #818181",
"d.	c #B6B6B6",
"e.	c #ADABA9",
"f.	c #C2936E",
"g.	c #FF7301",
"h.	c #CA7A3C",
"i.	c #919191",
"j.	c #4E7A96",
"k.	c #7B8186",
"l.	c #9E9E9E",
"m.	c #A4A3A2",
"n.	c #DA8949",
"o.	c #CC7939",
"p.	c #5584A3",
"q.	c #6F7E86",
"r.	c #939394",
"s.	c #A3A3A3",
"t.	c #E4843B",
"u.	c #CE7835",
"v.	c #5685A3",
"w.	c #6A7C88",
"x.	c #888989",
"y.	c #C3926B",
"z.	c #CD8953",
"A.	c #C88855",
"B.	c #C18657",
"C.	c #BB8357",
"D.	c #B88359",
"E.	c #B5835B",
"F.	c #B2835D",
"G.	c #B18460",
"H.	c #B08563",
"I.	c #AD8565",
"J.	c #AB8669",
"K.	c #AA886C",
"L.	c #A8896F",
"M.	c #A68A71",
"N.	c #9E8E7F",
"O.	c #939290",
"P.	c #63879F",
"Q.	c #657B8A",
"R.	c #838485",
"S.	c #A4A4A3",
"T.	c #A6A39A",
"U.	c #A9A390",
"V.	c #AAA38C",
"W.	c #A9A187",
"X.	c #A79F82",
"Y.	c #A79F7F",
"Z.	c #A89F7C",
"`.	c #AAA17A",
" +	c #ACA378",
".+	c #AFA677",
"++	c #B1A875",
"@+	c #B3A973",
"#+	c #B5AA71",
"$+	c #B7AC6F",
"%+	c #BAAE6E",
"&+	c #BCAF6C",
"*+	c #A29D82",
"=+	c #909291",
"-+	c #67889D",
";+	c #667C8A",
">+	c #808182",
",+	c #A5A5A2",
"'+	c #DBCA6C",
")+	c #FFEF36",
"!+	c #FFEC36",
"~+	c #FFE734",
"{+	c #FFE233",
"]+	c #FFDF33",
"^+	c #FEDE32",
"/+	c #F9DB37",
"(+	c #708A9B",
"_+	c #6B7C87",
":+	c #8A8B8C",
"<+	c #A5A4A1",
"[+	c #CDC078",
"}+	c #FDDD33",
"|+	c #C1B367",
"1+	c #798C98",
"2+	c #5584A2",
"3+	c #717E86",
"4+	c #969696",
"5+	c #A6A5A5",
"6+	c #BCB488",
"7+	c #D2BF59",
"8+	c #929290",
"9+	c #838F95",
"0+	c #5885A2",
"a+	c #7E8285",
"b+	c #B7B7B7",
"c+	c #A1A19F",
"d+	c #FFE93E",
"e+	c #E0C94C",
"f+	c #95948C",
"g+	c #8A9092",
"h+	c #5C85A0",
"i+	c #587C94",
"j+	c #BDBDBD",
"k+	c #F4F4F4",
"l+	c #A1A09F",
"m+	c #E3CE5F",
"n+	c #ECD142",
"o+	c #9C9A87",
"p+	c #8F9291",
"q+	c #62879F",
"r+	c #6A808E",
"s+	c #838484",
"t+	c #D4D4D4",
"u+	c #B9B085",
"v+	c #F5D83B",
"w+	c #A7A17D",
"x+	c #6A899C",
"y+	c #517E9A",
"z+	c #80868A",
"A+	c #9FA0A0",
"B+	c #BCBCBC",
"C+	c #9D9D9D",
"D+	c #EFD550",
"E+	c #FBDC35",
"F+	c #B6AC71",
"G+	c #738B9A",
"H+	c #678294",
"I+	c #CDCDCD",
"J+	c #9F9E9C",
"K+	c #ABA68C",
"L+	c #FFE536",
"M+	c #FEDE33",
"N+	c #C7B762",
"O+	c #7D8D97",
"P+	c #5584A1",
"Q+	c #5482A0",
"R+	c #878B8E",
"S+	c #A7A8A8",
"T+	c #CFCFCF",
"U+	c #9B9A99",
"V+	c #D1C065",
"W+	c #D7C355",
"X+	c #93928F",
"Y+	c #848E93",
"Z+	c #7A8A95",
"`+	c #8C8C8C",
" @	c #A4A3A3",
".@	c #989796",
"+@	c #DFC853",
"@@	c #E4CC48",
"#@	c #95948D",
"$@	c #91908C",
"%@	c #9A9A98",
"&@	c #969693",
"*@	c #E0C94E",
"=@	c #D2BF58",
"-@	c #90908F",
";@	c #A3A3A2",
">@	c #F1F1F1",
",@	c #F8F8F8",
"'@	c #969594",
")@	c #959490",
"!@	c #D4C056",
"~@	c #D1BE5A",
"{@	c #919190",
"]@	c #F7F7F7",
"^@	c #F9F9F9",
"/@	c #A0A09F",
"(@	c #B0A773",
"_@	c #F2D63A",
":@	c #FBDC32",
"<@	c #EED33D",
"[@	c #ADA475",
"}@	c #A5A5A5",
"|@	c #B5B5B5",
"1@	c #8D8D8B",
"2@	c #939187",
"3@	c #C0B15E",
"4@	c #ECD038",
"5@	c #F6D731",
"6@	c #EACF3A",
"7@	c #908F89",
"8@	c #8F8E8C",
"9@	c #F6F6F6",
"0@	c #FAFAFA",
"a@	c #DADADA",
"b@	c #989898",
"c@	c #888887",
"d@	c #898987",
"e@	c #ACA168",
"f@	c #C7B451",
"g@	c #DBC33E",
"h@	c #ECCE30",
"i@	c #EDCF2F",
"j@	c #EACD32",
"k@	c #DAC141",
"l@	c #A59D6D",
"m@	c #9C9C9C",
"n@	c #E9E9E9",
"o@	c #D0D0D0",
"p@	c #858582",
"q@	c #818180",
"r@	c #83827E",
"s@	c #86857D",
"t@	c #87857D",
"u@	c #87857B",
"v@	c #828280",
"w@	c #868684",
"x@	c #E6E6E6",
"y@	c #CBCBCB",
"z@	c #959595",
"A@	c #B1B1B1",
"B@	c #CECECE",
"C@	c #DBDBDB",
"D@	c #DEDEDE",
"E@	c #D6D6D6",
". . . . . . . . . . . . . . . . . . . . . . . . . . . . . . . . . . . . . . . . . . . . . . ",
". . . . . . . . . . . . . . . . . . . . . . . . . . . . . . . . . . . . . . . . . . . . . . ",
". . . . . . . . . . . . . . . . . . . . . . . . . . . . . . . . . . . . . . . . . . . . . . ",
". . . + + + + + + + + + + + @ # $ % & * = - ; > , , ' ) ! ~ $ { + + + + + + + + + + ] . . . ",
". . . + + + + + + + + + + ^ / ( _ : : : : : < [ } } } } } } | 1 / 2 + + + + + + + 3 4 . . . ",
". . . + + + + + + + + + 5 6 7 8 9 9 9 9 9 9 0 a b b b b b b b c d e f + + + + + g h 4 . . . ",
". . . + + + + + + + @ i j k . . . . . . . . l m n n n n n n n n n o p q + + + r 3 h 4 . . . ",
". . . + + + + + + + s t u v v v v v v v v v w x y y y y y y y y y y z A B C D E 3 h 4 . . . ",
". . . + + + + + + F G H I J J J J J J J J J K L M M M M M M M M M M M N O P Q E 3 h 4 . . . ",
". . . + + + + + R S T U V V V V V V V V V V W X Y Y Y Y Y Y Y Y Y Y Y Z `  ...E 3 h 4 . . . ",
". . . + + + + + +.@.#.U V $.$.$.$.$.$.$.$.$.%.&.Z Z Z Z Z Z Z Z Z Z Z *.=.-.;.E 3 h 4 . . . ",
". . . + + + + >.,.'.#.U V $.$.$.$.$.$.$.$.$.).!.Z Z Z Z Z Z Z Z Z Z Z *.~.{.].f 3 h 4 . . . ",
". . . + + + + ^./.(.#.U V $.$.$.$.$.$.$.$.$._.:.Z Z Z Z Z Z Z Z Z Z Z *.~.<.[.}.3 h 4 . . . ",
". . . + + + |.1.2.(.#.U V $.$.$.$.$.$.$.$.$.3.4.Z Z Z Z Z Z Z Z Z Z Z *.~.<.5.6.7.h 4 . . . ",
". . . + + + 8.9.0.(.#.U V $.$.$.$.$.$.$.$.$.a.4.Z Z Z Z Z Z Z Z Z Z Z *.~.<.b.c.d.h 4 . . . ",
". . . + + + e.f.g.(.#.U V $.$.$.$.$.$.$.$.$.h.i.Z Z Z Z Z Z Z Z Z Z Z *.~.<.j.k.l.h 4 . . . ",
". . . + + + m.n.g.(.#.U V $.$.$.$.$.$.$.$.$.o.i.p.Z Z Z Z Z Z Z Z Z Z *.~.<.j.q.r.h 4 . . . ",
". . . + + + s.t.g.(.#.U V $.$.$.$.$.$.$.$.$.u.i.v.Z Z Z Z Z Z Z Z Z Z *.~.<.j.w.x.h 4 . . . ",
". . . + + + s.y.z.A.B.C.D.E.F.G.H.I.J.K.L.M.N.O.P.Z Z Z Z Z Z Z Z Z Z *.~.<.j.Q.R.h 4 . . . ",
". . . + + + S.T.U.V.W.X.Y.Z.`. +.+++@+#+$+%+&+*+=+-+Z Z Z Z Z Z Z Z Z *.~.<.j.;+>+h 4 . . . ",
". . . + + + ,+'+)+!+~+{+]+^+^+^+^+^+^+^+^+^+^+/+++i.(+Z Z Z Z Z Z Z Z *.~.<.j._+:+h 4 . . . ",
". . . + + + <+[+)+!+~+{+]+^+^+^+^+^+^+^+^+^+^+^+}+|+i.1+2+Z Z Z Z Z Z *.~.<.j.3+4+h 4 . . . ",
". . . + + + 5+6+)+!+~+{+]+^+^+^+^+^+^+^+^+^+^+^+^+^+7+8+9+0+Z Z Z Z Z *.~.<.j.a+e h 4 . . . ",
". . . + + + b+c+d+!+~+{+]+^+^+^+^+^+^+^+^+^+^+^+^+^+^+e+f+g+h+Z Z Z Z *.~.<.i+c.j+h 4 . . . ",
". . . + + + k+l+m+!+~+{+]+^+^+^+^+^+^+^+^+^+^+^+^+^+^+^+n+o+p+q+Z Z Z *.~.<.r+s+t+h 4 . . . ",
". . . + + + + c+u+!+~+{+]+^+^+^+^+^+^+^+^+^+^+^+^+^+^+^+^+v+w+i.x+Z Z *.~.y+z+A+3 h 4 . . . ",
". . . + + + + B+C+D+~+{+]+^+^+^+^+^+^+^+^+^+^+^+^+^+^+^+^+^+E+F+i.G+Z *.~.H+].I+3 h 4 . . . ",
". . . + + + + + J+K+L+{+]+^+^+^+^+^+^+^+^+^+^+^+^+^+^+^+^+^+^+M+N+i.O+P+Q+R+S+E 3 h 4 . . . ",
". . . + + + + + T+U+V+{+]+^+^+^+^+^+^+^+^+^+^+^+^+^+^+^+^+^+^+^+^+W+X+Y+Z+`+2 E 3 h 4 . . . ",
". . . + + + + + +  @.@+@]+^+^+^+^+^+^+^+^+^+^+^+^+^+^+^+^+^+^+^+^+^+@@#@$@R Q E 3 h 4 . . . ",
". . . + + + + + + + %@&@*@^+^+^+^+^+^+^+^+^+^+^+^+^+^+^+^+^+^+^+^+^+=@-@;@>@Q E 3 h 4 . . . ",
". . . + + + + + + + ,@'@)@!@^+^+^+^+^+^+^+^+^+^+^+^+^+^+^+^+^+^+^+~@{@C+]@>@Q E 3 h 4 . . . ",
". . . + + + + + + + + ^@/@4.(@_@:@:@:@:@:@:@:@:@:@:@:@:@:@:@:@<@[@4.}@@ ,@>@Q E 3 h 4 . . . ",
". . . + + + + + + + + C ]@|@1@2@3@4@5@5@5@5@5@5@5@5@5@5@5@6@3@7@8@j+9@9@]@>@Q E 3 h 4 . . . ",
". . . + + + + + + + 0@D |.|.a@b@c@d@e@f@g@h@i@i@i@j@k@f@l@c@c@m@E |.|.|.|.|.n@E 3 h 4 . . . ",
". . . + + + + + + ,@n@E E E E E o@C+p@q@c.r@s@t@u@v@c.c.w@e t+E E E E E E g x@E 3 h 4 . . . ",
". . . + + + + + 9@E 3 3 3 3 3 3 3 3 3 y@4 m@z@i.z@l.A@B@3 3 3 3 3 3 3 3 3 3 C@D@E@h 4 . . . ",
". . . . . . . . . . . . . . . . . . . . . . . . . . . . . . . . . . . . . . . . . . . . . . ",
". . . . . . . . . . . . . . . . . . . . . . . . . . . . . . . . . . . . . . . . . . . . . . ",
". . . . . . . . . . . . . . . . . . . . . . . . . . . . . . . . . . . . . . . . . . . . . . "};
