/* XPM */
static char * pie_chart_xpm[] = {
"40 40 280 2",
"  	c None",
". 	c #FFFFFF",
"+ 	c #F8F8F8",
"@ 	c #C9C9C9",
"# 	c #B4B4B4",
"$ 	c #A8A8A8",
"% 	c #9E9E9E",
"& 	c #A4A4A5",
"* 	c #B5B5B5",
"= 	c #C0C0C0",
"- 	c #CBCBCB",
"; 	c #DFDFDF",
"> 	c #FCFCFC",
", 	c #C8C8C8",
"' 	c #939190",
") 	c #929292",
"! 	c #939291",
"~ 	c #9A8F85",
"{ 	c #988F89",
"] 	c #8C9092",
"^ 	c #808E97",
"/ 	c #8A9297",
"( 	c #909394",
"_ 	c #959696",
": 	c #B6B6B6",
"< 	c #E0E0E0",
"[ 	c #D3D3D3",
"} 	c #979695",
"| 	c #9D8E83",
"1 	c #BD8050",
"2 	c #DD7320",
"3 	c #F06C04",
"4 	c #F26B01",
"5 	c #B4845E",
"6 	c #858E94",
"7 	c #5585A4",
"8 	c #5685A4",
"9 	c #6187A0",
"0 	c #758C9B",
"a 	c #8A9196",
"b 	c #ACADAD",
"c 	c #EAEAEA",
"d 	c #F7F7F7",
"e 	c #A2A2A2",
"f 	c #9F8C7D",
"g 	c #D7762B",
"h 	c #B6835B",
"i 	c #868E93",
"j 	c #68899E",
"k 	c #8C9296",
"l 	c #FDFDFD",
"m 	c #EDEDED",
"n 	c #989695",
"o 	c #96918D",
"p 	c #C87C41",
"q 	c #F06B03",
"r 	c #B88258",
"s 	c #898F93",
"t 	c #728B9C",
"u 	c #AFAFAF",
"v 	c #F9F9F9",
"w 	c #E7E7E7",
"x 	c #959392",
"y 	c #988F87",
"z 	c #DF721D",
"A 	c #BA8155",
"B 	c #8A8F92",
"C 	c #6689A0",
"D 	c #919394",
"E 	c #A1A2A2",
"F 	c #F5F5F5",
"G 	c #969492",
"H 	c #E47016",
"I 	c #BB8152",
"J 	c #8B8F91",
"K 	c #5E87A1",
"L 	c #ADAEAE",
"M 	c #9E9D9D",
"N 	c #96908C",
"O 	c #E67014",
"P 	c #BE8150",
"Q 	c #8C8F91",
"R 	c #6589A0",
"S 	c #929393",
"T 	c #BCBCBC",
"U 	c #D07833",
"V 	c #C0804D",
"W 	c #8D9091",
"X 	c #708B9D",
"Y 	c #E5E5E5",
"Z 	c #949291",
"` 	c #B5835D",
" .	c #C27F4A",
"..	c #8F9191",
"+.	c #889197",
"@.	c #A8A9A9",
"#.	c #E77013",
"$.	c #C37E48",
"%.	c #8F9090",
"&.	c #66899F",
"*.	c #DCDCDC",
"=.	c #959391",
"-.	c #B3845F",
";.	c #C57D45",
">.	c #909090",
",.	c #869097",
"'.	c #ABACAC",
").	c #D4D4D4",
"!.	c #DF731F",
"~.	c #C77C42",
"{.	c #919191",
"].	c #AEAEAE",
"^.	c #989089",
"/.	c #F26C02",
"(.	c #C97B3F",
"_.	c #5C86A2",
":.	c #D7D7D7",
"<.	c #9B9997",
"[.	c #B18665",
"}.	c #CB7B3D",
"|.	c #8B9298",
"1.	c #BBBBBB",
"2.	c #C77D43",
"3.	c #CD7A3A",
"4.	c #7E8E98",
"5.	c #AEAEAF",
"6.	c #FAFAFA",
"7.	c #D07936",
"8.	c #CF7936",
"9.	c #5786A4",
"0.	c #788C9A",
"a.	c #F2F2F2",
"b.	c #B28562",
"c.	c #BF804E",
"d.	c #BD8151",
"e.	c #BB8254",
"f.	c #B98256",
"g.	c #B88359",
"h.	c #B6845C",
"i.	c #B3845E",
"j.	c #B28561",
"k.	c #B18664",
"l.	c #AE8666",
"m.	c #AC876A",
"n.	c #AB896D",
"o.	c #A98A70",
"p.	c #A78B72",
"q.	c #9F8F80",
"r.	c #949391",
"s.	c #6488A0",
"t.	c #9B9C9D",
"u.	c #ECECEC",
"v.	c #939392",
"w.	c #98958D",
"x.	c #9E9886",
"y.	c #A19A85",
"z.	c #A39C83",
"A.	c #A59D81",
"B.	c #A79F7F",
"C.	c #A9A07D",
"D.	c #ABA27B",
"E.	c #ADA479",
"F.	c #B0A778",
"G.	c #B2A976",
"H.	c #B4AA74",
"I.	c #B6AB72",
"J.	c #B8AD70",
"K.	c #BBAF6F",
"L.	c #BDB06D",
"M.	c #A39E83",
"N.	c #919392",
"O.	c #738C9C",
"P.	c #98999A",
"Q.	c #949491",
"R.	c #C8B863",
"S.	c #FFDF33",
"T.	c #FADC38",
"U.	c #718B9C",
"V.	c #798C99",
"W.	c #A3A4A5",
"X.	c #949390",
"Y.	c #BBAF6E",
"Z.	c #FEDE34",
"`.	c #C2B468",
" +	c #7A8D99",
".+	c #5685A3",
"++	c #808F98",
"@+	c #B1B1B1",
"#+	c #959494",
"$+	c #ACA47C",
"%+	c #D3C05A",
"&+	c #939391",
"*+	c #849096",
"=+	c #5986A3",
"-+	c #8E9397",
";+	c #A4A4A4",
">+	c #F7D93A",
",+	c #E1CA4D",
"'+	c #96958D",
")+	c #8B9193",
"!+	c #5D86A1",
"~+	c #6087A1",
"{+	c #DADADA",
"]+	c #D3C059",
"^+	c #EDD243",
"/+	c #9D9B88",
"(+	c #909392",
"_+	c #6388A0",
":+	c #748C9B",
"<+	c #949595",
"[+	c #FBFBFB",
"}+	c #F6D93C",
"|+	c #A8A27E",
"1+	c #6B8A9D",
"2+	c #B4B5B5",
"3+	c #ACACAC",
"4+	c #E2CA4C",
"5+	c #FCDD36",
"6+	c #B7AD72",
"7+	c #6D8A9D",
"8+	c #E8E8E8",
"9+	c #A29D85",
"0+	c #FCDD35",
"a+	c #FFDF34",
"b+	c #8F9396",
"c+	c #B6B7B7",
"d+	c #C1C1C1",
"e+	c #CABA62",
"f+	c #D8C456",
"g+	c #869095",
"h+	c #7D8E99",
"i+	c #949494",
"j+	c #F0F0F0",
"k+	c #9B9A9A",
"l+	c #DCC652",
"m+	c #E5CD49",
"n+	c #97968F",
"o+	c #959490",
"p+	c #D6D6D6",
"q+	c #959593",
"r+	c #E0C94E",
"s+	c #929291",
"t+	c #A7A7A6",
"u+	c #949392",
"v+	c #D5C157",
"w+	c #D2BF5B",
"x+	c #A0A0A0",
"y+	c #FEFEFE",
"z+	c #A2A2A1",
"A+	c #B3AA75",
"B+	c #F6D93B",
"C+	c #F2D63E",
"D+	c #B0A777",
"E+	c #99978C",
"F+	c #C8B862",
"G+	c #F5D83B",
"H+	c #F3D73D",
"I+	c #96958E",
"J+	c #959492",
"K+	c #C4C4C4",
"L+	c #EBEBEB",
"M+	c #B9AD70",
"N+	c #D6C257",
"O+	c #ECD243",
"P+	c #EAD046",
"Q+	c #D6C258",
"R+	c #F3F3F3",
"S+	c #B2B2B2",
"T+	c #979693",
"U+	c #94938F",
"V+	c #98978D",
"W+	c #99978D",
"X+	c #99978B",
"Y+	c #989895",
"Z+	c #B7B7B7",
"`+	c #EFEFEF",
" @	c #CDCDCD",
".@	c #B8B8B8",
"+@	c #B0B0B0",
"@@	c #D1D1D1",
". . . . . . . . . . . . . . . . . . . . . . . . . . . . . . . . . . . . . . . . ",
". . . . . . . . . . . . . . . . . . . . . . . . . . . . . . . . . . . . . . . . ",
". . . . . . . . . . . . . . . . . . . . . . . . . . . . . . . . . . . . . . . . ",
". . . . . . . . . . . . . . . + @ # $ % & * = - ; > . . . . . . . . . . . . . . ",
". . . . . . . . . . . . . , % ' ) ! ~ { ] ^ / ( ) _ : < . . . . . . . . . . . . ",
". . . . . . . . . . . [ } ) | 1 2 3 4 5 6 7 7 8 9 0 a ) b c . . . . . . . . . . ",
". . . . . . . . . d e ) f g 4 4 4 4 4 h i 7 7 7 7 7 7 j k ) = l . . . . . . . . ",
". . . . . . . . m n o p q 4 4 4 4 4 4 r s 7 7 7 7 7 7 7 8 t ) u v . . . . . . . ",
". . . . . . . w x y z 4 4 4 4 4 4 4 4 A B 7 7 7 7 7 7 7 7 7 C D E + . . . . . . ",
". . . . . . F G | H 4 4 4 4 4 4 4 4 4 I J 7 7 7 7 7 7 7 7 7 7 K ( L l . . . . . ",
". . . . . . M N O 4 4 4 4 4 4 4 4 4 4 P Q 7 7 7 7 7 7 7 7 7 7 7 R S = . . . . . ",
". . . . . T ) U 4 4 4 4 4 4 4 4 4 4 4 V W 7 7 7 7 7 7 7 7 7 7 7 7 X ) Y . . . . ",
". . . . + Z ` 4 4 4 4 4 4 4 4 4 4 4 4  ...7 7 7 7 7 7 7 7 7 7 7 7 8 +.@.. . . . ",
". . . . * ! #.4 4 4 4 4 4 4 4 4 4 4 4 $.%.7 7 7 7 7 7 7 7 7 7 7 7 7 &.) *.. . . ",
". . . l =.-.4 4 4 4 4 4 4 4 4 4 4 4 4 ;.>.7 7 7 7 7 7 7 7 7 7 7 7 7 7 ,.'.. . . ",
". . . ).) !.4 4 4 4 4 4 4 4 4 4 4 4 4 ~.{.7 7 7 7 7 7 7 7 7 7 7 7 7 7 X S d . . ",
". . . ].^./.4 4 4 4 4 4 4 4 4 4 4 4 4 (.{.7 7 7 7 7 7 7 7 7 7 7 7 7 7 _.) :.. . ",
". . . <.[.4 4 4 4 4 4 4 4 4 4 4 4 4 4 }.) 7 7 7 7 7 7 7 7 7 7 7 7 7 7 7 |.1.. . ",
". . . ! 2.4 4 4 4 4 4 4 4 4 4 4 4 4 4 3.) 8 7 7 7 7 7 7 7 7 7 7 7 7 7 7 4.5.. . ",
". . 6.) 7.4 4 4 4 4 4 4 4 4 4 4 4 4 4 8.) 9.7 7 7 7 7 7 7 7 7 7 7 7 7 7 0.E . . ",
". . a.) b.c.d.e.f.g.h.i.j.k.l.m.n.o.p.q.r.s.7 7 7 7 7 7 7 7 7 7 7 7 7 7 t t.. . ",
". . u.v.w.x.y.z.A.B.C.D.E.F.G.H.I.J.K.L.M.N.j 7 7 7 7 7 7 7 7 7 7 7 7 7 O.P.. . ",
". . 6.Q.R.S.S.S.S.S.S.S.S.S.S.S.S.S.S.S.T.G.) U.7 7 7 7 7 7 7 7 7 7 7 7 V.W.. . ",
". . . X.Y.S.S.S.S.S.S.S.S.S.S.S.S.S.S.S.S.Z.`.)  +.+7 7 7 7 7 7 7 7 7 7 ++@+. . ",
". . . #+$+S.S.S.S.S.S.S.S.S.S.S.S.S.S.S.S.S.S.%+&+*+=+7 7 7 7 7 7 7 7 7 -+= . . ",
". . . ;+&+>+S.S.S.S.S.S.S.S.S.S.S.S.S.S.S.S.S.S.,+'+)+!+7 7 7 7 7 7 7 ~+) ; . . ",
". . . {+! ]+S.S.S.S.S.S.S.S.S.S.S.S.S.S.S.S.S.S.S.^+/+(+_+7 7 7 7 7 7 :+<+[+. . ",
". . . . &+$+S.S.S.S.S.S.S.S.S.S.S.S.S.S.S.S.S.S.S.S.}+|+) 1+7 7 7 7 .+k 2+. . . ",
". . . . 3+) 4+S.S.S.S.S.S.S.S.S.S.S.S.S.S.S.S.S.S.S.S.5+6+) :+7 7 7 7+) 8+. . . ",
". . . . [+r.9+0+S.S.S.S.S.S.S.S.S.S.S.S.S.S.S.S.S.S.S.S.a+R.) 4.9.9.b+c+. . . . ",
". . . . . d+! e+S.S.S.S.S.S.S.S.S.S.S.S.S.S.S.S.S.S.S.S.S.S.f+X.g+h+i+j+. . . . ",
". . . . . . k+! l+S.S.S.S.S.S.S.S.S.S.S.S.S.S.S.S.S.S.S.S.S.S.m+n+o+p+. . . . . ",
". . . . . . 6.q+Q.r+S.S.S.S.S.S.S.S.S.S.S.S.S.S.S.S.S.S.S.S.S.]+s+t+. . . . . . ",
". . . . . . . j+u+o+v+S.S.S.S.S.S.S.S.S.S.S.S.S.S.S.S.S.S.S.w+s+x+y+. . . . . . ",
". . . . . . . . d z+) A+B+S.S.S.S.S.S.S.S.S.S.S.S.S.S.S.C+D+) $ . . . . . . . . ",
". . . . . . . . . . T &+E+F+G+S.S.S.S.S.S.S.S.S.S.S.H+F+I+J+K+. . . . . . . . . ",
". . . . . . . . . . . L+;+&+Q.M+N+O+Z.S.S.S.5+P+Q+G.! &+$ R+. . . . . . . . . . ",
". . . . . . . . . . . . . L+S+T+s+) U+V+W+X+&+) ) Y+Z+`+. . . . . . . . . . . . ",
". . . . . . . . . . . . . . . . j+ @.@+@3++@1.@@R+. . . . . . . . . . . . . . . ",
". . . . . . . . . . . . . . . . . . . . . . . . . . . . . . . . . . . . . . . . "};
