/* XPM */
static char * psal_logo_xpm[] = {
"24 46 125 2",
"  	c None",
". 	c #49404A",
"+ 	c #574B4D",
"@ 	c #483F49",
"# 	c #2E2A43",
"$ 	c #827A7C",
"% 	c #757079",
"& 	c #736E77",
"* 	c #716C75",
"= 	c #6F6A73",
"- 	c #6D6872",
"; 	c #6B6670",
"> 	c #69646E",
", 	c #68616D",
"' 	c #655F6B",
") 	c #494354",
"! 	c #2F2B44",
"~ 	c #D3CEC9",
"{ 	c #FFFFFF",
"] 	c #95A3C0",
"^ 	c #6479A3",
"/ 	c #677BA4",
"( 	c #6F82AA",
"_ 	c #778AAE",
": 	c #DCDFE8",
"< 	c #B3B1BA",
"[ 	c #F7F7F8",
"} 	c #F2F2F3",
"| 	c #A8A4A8",
"1 	c #484252",
"2 	c #6E82A9",
"3 	c #355087",
"4 	c #96A3C0",
"5 	c #767484",
"6 	c #474359",
"7 	c #BCBBC3",
"8 	c #FEFEFE",
"9 	c #8B868C",
"0 	c #322E44",
"a 	c #8091B3",
"b 	c #7B7988",
"c 	c #696678",
"d 	c #F9F9FA",
"e 	c #AEAAAC",
"f 	c #6D80A8",
"g 	c #878593",
"h 	c #94929F",
"i 	c #564F5C",
"j 	c #3C568B",
"k 	c #BFBFC9",
"l 	c #302C44",
"m 	c #6F6C7D",
"n 	c #C7C6CD",
"o 	c #D1D0D6",
"p 	c #504C61",
"q 	c #36324A",
"r 	c #FDFCFD",
"s 	c #DAD7D9",
"t 	c #312C44",
"u 	c #7A8CB0",
"v 	c #CAC9CF",
"w 	c #332F47",
"x 	c #7F7D8C",
"y 	c #E2E2E5",
"z 	c #FAFBFC",
"A 	c #C2CBDB",
"B 	c #F0F2F6",
"C 	c #A4A2AD",
"D 	c #DDDDE1",
"E 	c #383246",
"F 	c #594D4E",
"G 	c #6377A2",
"H 	c #F6F6F7",
"I 	c #B2BCD1",
"J 	c #4D6595",
"K 	c #92A0BE",
"L 	c #787585",
"M 	c #E1E0E4",
"N 	c #332F44",
"O 	c #375188",
"P 	c #7B8DB1",
"Q 	c #475F92",
"R 	c #B0B9CC",
"S 	c #423F55",
"T 	c #39354D",
"U 	c #E5E3E3",
"V 	c #2F2B43",
"W 	c #99A5C0",
"X 	c #5F5C6F",
"Y 	c #888694",
"Z 	c #68626A",
"` 	c #92A0BD",
" .	c #6B687A",
"..	c #47445A",
"+.	c #F5F5F6",
"@.	c #CCC8C9",
"#.	c #8C9BBA",
"$.	c #625F71",
"%.	c #EBEAED",
"&.	c #A49FA1",
"*.	c #373147",
"=.	c #8D9CBB",
"-.	c #8B8896",
";.	c #6D6A7C",
">.	c #B8B6BF",
",.	c #FCFBFC",
"'.	c #C8C5C5",
").	c #CBD2DF",
"!.	c #BAC2D4",
"~.	c #BAC3D2",
"{.	c #B1B7C5",
"].	c #C1BEBF",
"^.	c #A5A0A4",
"/.	c #969094",
"(.	c #6B656C",
"_.	c #3C3748",
":.	c #534C59",
"<.	c #2E2B43",
"[.	c #514B58",
"}.	c #524B58",
"|.	c #534D5A",
"1.	c #BCB4B0",
"2.	c #D8D6D6",
"3.	c #4F4956",
"4.	c #4E444B",
". +                                             ",
"@ # +                                           ",
"@ # # +                                         ",
"@ # # # +                                       ",
"@ # # # # +                                     ",
"@ # # # # # +                                   ",
"@ # # # # # # +                                 ",
"@ # # # # # # # +                               ",
"@ # # # # # # # # +                             ",
"@ # # # # # # # # # +                           ",
"@ # # # # # # # # # # +                         ",
"@ # # # # # # # # # # # +                       ",
"@ # # # # # # # # # # # # +                     ",
"@ # # # # # # # # # # # # # +                   ",
"@ # # # # # # # # # # # # # # +                 ",
"@ # # # # # # # # # # # # # # # +               ",
"$ % & * = - ; > , ' ) ! # # # # # +             ",
"~ { { ] ^ / ( _ : < [ } | 1 # # # # +           ",
"~ { { 2 3 3 3 4 5 # 6 7 { 8 9 0 # # # +         ",
"~ { { 2 3 3 a b # # # # c d { e # # # # +       ",
"~ { { 2 3 f g # # # # # # h { { i # # # # +     ",
"~ { { 2 j k # # l m n o p q r { s t # # # # +   ",
"~ { { 2 u v w x y z A B C # D { { E # # # # # F ",
"~ { { 2 G { H z I J 3 K L # M { 8 0 # # # # N   ",
"~ { { 2 O P K Q 3 3 3 R S T 8 { U V # # # N     ",
"~ { { 2 3 3 3 3 3 3 W X # Y { { Z # # # N       ",
"~ { { 2 3 3 3 3 3 `  .# ..+.{ @.t # # N         ",
"~ { { 2 3 3 3 3 #.L # $.%.{ &.*.# # N           ",
"~ { { 2 3 3 3 =.-.;.>.,.'.  # # # N             ",
"~ { { ).!.~.{.].^./.(._.# # # # N               ",
"~ { { :.<.# # # # # # # # # # N                 ",
"~ { { [.# # # # # # # # # # N                   ",
"~ { { }.# # # # # # # # # N                     ",
"~ { { :.# # # # # # # # N                       ",
"~ { { |.# # # # # # # N                         ",
"1.2.2.3.# # # # # # N                           ",
"@ # # # # # # # # N                             ",
"@ # # # # # # # N                               ",
"@ # # # # # # N                                 ",
"@ # # # # # N                                   ",
"@ # # # # N                                     ",
"@ # # # N                                       ",
"@ # # N                                         ",
"@ # N                                           ",
"@ N                                             ",
"4.                                              "};
