/* XPM */
static char * python_logo_only_xpm[] = {
"16 16 257 2",
"  	c None",
". 	c #376A94",
"+ 	c #366D9C",
"@ 	c #3773A5",
"# 	c #3C729E",
"$ 	c #3776AB",
"% 	c #4273A5",
"& 	c #3779AF",
"* 	c #4379A7",
"= 	c #387CB5",
"- 	c #387FBA",
"; 	c #427DAE",
"> 	c #3882BE",
", 	c #437FB2",
"' 	c #507CA1",
") 	c #497FAC",
"! 	c #3885C3",
"~ 	c #4383B6",
"{ 	c #4385BB",
"] 	c #4985B6",
"^ 	c #5085B0",
"/ 	c #4489C0",
"( 	c #4988BB",
"_ 	c #528DBD",
": 	c #648EB2",
"< 	c #5A91BF",
"[ 	c #6491B5",
"} 	c #6495BD",
"| 	c #7096B5",
"1 	c #72A0C5",
"2 	c #7F9EB8",
"3 	c #7DA1BF",
"4 	c #80A3C0",
"5 	c #7EA5C6",
"6 	c #80A6C6",
"7 	c #7FA8CA",
"8 	c #82ADD1",
"9 	c #82AFD4",
"0 	c #90AFC9",
"a 	c #9DBAD1",
"b 	c #A1BACF",
"c 	c #9BBDDA",
"d 	c #9BBFDD",
"e 	c #FFB521",
"f 	c #FFB531",
"g 	c #FFB82D",
"h 	c #FFBC29",
"i 	c #FDBE2E",
"j 	c #B0C7D9",
"k 	c #FABE40",
"l 	c #FBC037",
"m 	c #F9C049",
"n 	c #F9C244",
"o 	c #FCC539",
"p 	c #FFC532",
"q 	c #FBC840",
"r 	c #F8C762",
"s 	c #FFCC3B",
"t 	c #FBCE47",
"u 	c #F8CD57",
"v 	c #C2D1DE",
"w 	c #FFD040",
"x 	c #FFCD57",
"y 	c #F7CD74",
"z 	c #C6D4E0",
"A 	c #FFD544",
"B 	c #FBD54F",
"C 	c #FFCF6A",
"D 	c #F9D65B",
"E 	c #F8D568",
"F 	c #FFD849",
"G 	c #F7D284",
"H 	c #F7D47B",
"I 	c #FFD376",
"J 	c #FFDB4C",
"K 	c #FFD67B",
"L 	c #F5DA82",
"M 	c #F5D98D",
"N 	c #FFD683",
"O 	c #FFE052",
"P 	c #F6D897",
"Q 	c #FAE262",
"R 	c #F8E16E",
"S 	c #CDDFEE",
"T 	c #FFE354",
"U 	c #D7DEE3",
"V 	c #F7DE92",
"W 	c #FFE659",
"X 	c #F6DFA0",
"Y 	c #F5E398",
"Z 	c #DCE1E7",
"` 	c #FFE097",
" .	c #FFEB5E",
"..	c #FFED60",
"+.	c #F5E6A6",
"@.	c #F1E5C3",
"#.	c #FFE4AC",
"$.	c #F5E8C6",
"%.	c #F1ECDA",
"&.	c #EDEDED",
"*.	c #EEEDED",
"=.	c #EEEEEE",
"-.	c #EFEEEE",
";.	c #FFEDC8",
">.	c #EFEFEF",
",.	c #F2F1F1",
"'.	c #F2F2F2",
").	c #F3F2F2",
"!.	c #F3F3F3",
"~.	c #F4F3F3",
"{.	c #F6F5F5",
"].	c #FFF7E5",
"^.	c #F7F7FF",
"/.	c #FFFBF2",
"(.	c #FFFFFF",
"_.	c #000000",
":.	c #000000",
"<.	c #000000",
"[.	c #000000",
"}.	c #000000",
"|.	c #000000",
"1.	c #000000",
"2.	c #000000",
"3.	c #000000",
"4.	c #000000",
"5.	c #000000",
"6.	c #000000",
"7.	c #000000",
"8.	c #000000",
"9.	c #000000",
"0.	c #000000",
"a.	c #000000",
"b.	c #000000",
"c.	c #000000",
"d.	c #000000",
"e.	c #000000",
"f.	c #000000",
"g.	c #000000",
"h.	c #000000",
"i.	c #000000",
"j.	c #000000",
"k.	c #000000",
"l.	c #000000",
"m.	c #000000",
"n.	c #000000",
"o.	c #000000",
"p.	c #000000",
"q.	c #000000",
"r.	c #000000",
"s.	c #000000",
"t.	c #000000",
"u.	c #000000",
"v.	c #000000",
"w.	c #000000",
"x.	c #000000",
"y.	c #000000",
"z.	c #000000",
"A.	c #000000",
"B.	c #000000",
"C.	c #000000",
"D.	c #000000",
"E.	c #000000",
"F.	c #000000",
"G.	c #000000",
"H.	c #000000",
"I.	c #000000",
"J.	c #000000",
"K.	c #000000",
"L.	c #000000",
"M.	c #000000",
"N.	c #000000",
"O.	c #000000",
"P.	c #000000",
"Q.	c #000000",
"R.	c #000000",
"S.	c #000000",
"T.	c #000000",
"U.	c #000000",
"V.	c #000000",
"W.	c #000000",
"X.	c #000000",
"Y.	c #000000",
"Z.	c #000000",
"`.	c #000000",
" +	c #000000",
".+	c #000000",
"++	c #000000",
"@+	c #000000",
"#+	c #000000",
"$+	c #000000",
"%+	c #000000",
"&+	c #000000",
"*+	c #000000",
"=+	c #000000",
"-+	c #000000",
";+	c #000000",
">+	c #000000",
",+	c #000000",
"'+	c #000000",
")+	c #000000",
"!+	c #000000",
"~+	c #000000",
"{+	c #000000",
"]+	c #000000",
"^+	c #000000",
"/+	c #000000",
"(+	c #000000",
"_+	c #000000",
":+	c #000000",
"<+	c #000000",
"[+	c #000000",
"}+	c #000000",
"|+	c #000000",
"1+	c #000000",
"2+	c #000000",
"3+	c #000000",
"4+	c #000000",
"5+	c #000000",
"6+	c #000000",
"7+	c #000000",
"8+	c #000000",
"9+	c #000000",
"0+	c #000000",
"a+	c #000000",
"b+	c #000000",
"c+	c #000000",
"d+	c #000000",
"e+	c #000000",
"f+	c #000000",
"g+	c #000000",
"h+	c #000000",
"i+	c #000000",
"j+	c #000000",
"k+	c #000000",
"l+	c #000000",
"m+	c #000000",
"n+	c #000000",
"o+	c #000000",
"p+	c #000000",
"q+	c #000000",
"r+	c #000000",
"s+	c #000000",
"t+	c #000000",
"u+	c #000000",
"v+	c #000000",
"w+	c #000000",
"x+	c #000000",
"y+	c #000000",
"z+	c #000000",
"A+	c #000000",
"B+	c #000000",
"C+	c #000000",
"D+	c #000000",
"E+	c #000000",
"F+	c #000000",
"G+	c #000000",
"H+	c #000000",
"          > > = & $ $           ",
"        ( S 8 & & @ @ |         ",
"        > 8 ~ & & @ + +         ",
"        - = & $ @ + + +         ",
"  v > > = & & @ @ + + . ..W R   ",
"/ ! - = = $ $ @ + + . . T T J t ",
"! > = = & $ @ + + . . ' O J A w ",
"- - = & & @ @ + . . ' B J A s s ",
"- = = & * Q ......T J J A s p p ",
"= & $ $ Q ....W T J A w s p p h ",
"; & & @ ....W T J A w s p p h k ",
"  b * *  .W O J t q q q l l y   ",
"        T T J A s p p l         ",
"        O J A s s x K h         ",
"        V A s p p C #.G         ",
"          t p p h e f           "};
