/* XPM */
static char * python_small_xpm[] = {
"40 41 220 2",
"  	c None",
". 	c #FFFFFF",
"+ 	c #F4F7FA",
"@ 	c #C0D2E1",
"# 	c #ABC3D7",
"$ 	c #98B6CE",
"% 	c #87A9C5",
"& 	c #8BABC6",
"* 	c #9CB7CE",
"= 	c #ADC3D6",
"- 	c #C3D3E0",
"; 	c #E2EAF1",
"> 	c #6895BB",
", 	c #3672A3",
"' 	c #3671A2",
") 	c #3670A1",
"! 	c #3670A0",
"~ 	c #366F9F",
"{ 	c #366E9E",
"] 	c #366E9D",
"^ 	c #366D9B",
"/ 	c #366C9A",
"( 	c #507FA6",
"_ 	c #B1C5D6",
": 	c #5589B3",
"< 	c #3672A5",
"[ 	c #6291B8",
"} 	c #5788B1",
"| 	c #366C99",
"1 	c #366B98",
"2 	c #8CAAC3",
"3 	c #3673A6",
"4 	c #6694BB",
"5 	c #FCFDFE",
"6 	c #4A7FAB",
"7 	c #366A96",
"8 	c #FDFDFE",
"9 	c #CEDDE9",
"0 	c #6190B8",
"a 	c #F9FBFC",
"b 	c #477CA9",
"c 	c #366A97",
"d 	c #CFDCE6",
"e 	c #CCDBE8",
"f 	c #5386B1",
"g 	c #CCD9E4",
"h 	c #3672A4",
"i 	c #DEE8F0",
"j 	c #DEE8EF",
"k 	c #DEE7EF",
"l 	c #DBE6F0",
"m 	c #7AA4C7",
"n 	c #5188B6",
"o 	c #427DAC",
"p 	c #417BAC",
"q 	c #417BAB",
"r 	c #417AAB",
"s 	c #4179A9",
"t 	c #4179A8",
"u 	c #4178A6",
"v 	c #4177A6",
"w 	c #4177A5",
"x 	c #4176A4",
"y 	c #FFD666",
"z 	c #FFCE48",
"A 	c #FFCD47",
"B 	c #FFD35F",
"C 	c #FFE6A5",
"D 	c #C4D7E6",
"E 	c #3878AD",
"F 	c #3676AC",
"G 	c #3676AB",
"H 	c #3675A9",
"I 	c #3674A8",
"J 	c #3674A7",
"K 	c #FFD45B",
"L 	c #FFCC3E",
"M 	c #FFCB3C",
"N 	c #FFCA3B",
"O 	c #FFCA3A",
"P 	c #FFE5A1",
"Q 	c #407EB1",
"R 	c #3677AD",
"S 	c #366E9C",
"T 	c #FFCD4A",
"U 	c #AFC8DE",
"V 	c #3678AE",
"W 	c #D7E1EA",
"X 	c #FFD150",
"Y 	c #FFC938",
"Z 	c #FFE9B1",
"` 	c #84ACCD",
" .	c #366B99",
"..	c #40719B",
"+.	c #FAF5E8",
"@.	c #FFCD3F",
"#.	c #FFDD84",
"$.	c #6899C2",
"%.	c #B0C4D6",
"&.	c #FFE293",
"*.	c #FFD569",
"=.	c #4B86B7",
"-.	c #3676AA",
";.	c #457BA8",
">.	c #477CA8",
",.	c #477BA7",
"'.	c #477AA6",
").	c #477AA4",
"!.	c #4779A3",
"~.	c #4A7BA4",
"{.	c #6F94B5",
"].	c #C6D5E1",
"^.	c #FFECBB",
"/.	c #FFCC41",
"(.	c #FFCD4E",
"_.	c #3C7DB1",
":.	c #437DAB",
"<.	c #B3C9DC",
"[.	c #EFF2F2",
"}.	c #FFF7E0",
"|.	c #FFF6DD",
"1.	c #FFF6DC",
"2.	c #FFF5DC",
"3.	c #FFF5D9",
"4.	c #FFECB9",
"5.	c #FFDD7C",
"6.	c #FFCE42",
"7.	c #FFCD41",
"8.	c #FFC838",
"9.	c #558DBB",
"0.	c #457EAD",
"a.	c #E7EDEF",
"b.	c #FFE79B",
"c.	c #FFD653",
"d.	c #FFD550",
"e.	c #FFD54E",
"f.	c #FFD44D",
"g.	c #FFD34C",
"h.	c #FFD24A",
"i.	c #FFD249",
"j.	c #FFD148",
"k.	c #FFD046",
"l.	c #FFCF45",
"m.	c #FFCF43",
"n.	c #FFCD4D",
"o.	c #709FC6",
"p.	c #B7CDDF",
"q.	c #FFE699",
"r.	c #FFD753",
"s.	c #FFD651",
"t.	c #FFD66B",
"u.	c #8CB1D1",
"v.	c #3775A8",
"w.	c #F6F5F1",
"x.	c #FFD654",
"y.	c #FFDF8B",
"z.	c #CDDDEB",
"A.	c #5087B3",
"B.	c #FFF5D7",
"C.	c #FFD754",
"D.	c #FFF0CC",
"E.	c #6B9BC3",
"F.	c #5488B4",
"G.	c #FFF4D3",
"H.	c #D5E2ED",
"I.	c #407DB0",
"J.	c #FFCB3F",
"K.	c #FFF2D1",
"L.	c #E5EDF4",
"M.	c #9CBBD6",
"N.	c #7DA6C7",
"O.	c #7AA3C5",
"P.	c #90B1CE",
"Q.	c #FFE087",
"R.	c #FFE086",
"S.	c #FFE085",
"T.	c #FFDF84",
"U.	c #FFDE82",
"V.	c #FFDE81",
"W.	c #FFDD81",
"X.	c #FFDD80",
"Y.	c #FFDC7F",
"Z.	c #FFDC7E",
"`.	c #FFE297",
" +	c #FFF5DB",
".+	c #FFEAB0",
"++	c #FFEAAE",
"@+	c #FFE9AD",
"#+	c #FFE9AC",
"$+	c #FFE9AB",
"%+	c #FFE8AB",
"&+	c #FFF9E9",
"*+	c #FFF1CE",
"=+	c #FFE18A",
"-+	c #FFE497",
";+	c #FFF7DE",
">+	c #FFD863",
",+	c #FFDE7D",
"'+	c #FFF5DA",
")+	c #FFDA64",
"!+	c #FFD34E",
"~+	c #FFF8E4",
"{+	c #FFFBF0",
"]+	c #FFD55B",
"^+	c #FFD14F",
"/+	c #FFD960",
"(+	c #FFD047",
"_+	c #FFD049",
":+	c #FFD14D",
"<+	c #FFF1CA",
"[+	c #FFEAAA",
"}+	c #FFD75B",
"|+	c #FFD252",
"1+	c #FFE6A1",
"2+	c #FFF9EB",
"3+	c #FFF3CF",
"4+	c #FFECB4",
"5+	c #FFEDBA",
"6+	c #FFF3D3",
"7+	c #FFFBF1",
"                                                                                ",
"                                . . . . . . . .                                 ",
"                          . . . . . . . . . . . . . .                           ",
"                      . . . . . . . . . . . . . . . . . .                       ",
"                  . . . . . . . . . . . . . . . . . . . . . .                   ",
"                . . . . . . . + @ # $ % & * = - . . . . . . . .                 ",
"              . . . . . . ; > , ' ) ! ~ { ] ^ / ( _ . . . . . . .               ",
"            . . . . . . . : < [ } ) ! ~ { ] ^ / | 1 2 . . . . . . .             ",
"          . . . . . . . ; 3 4 . 5 6 ! ~ { ] ^ / | 1 7 8 . . . . . . .           ",
"        . . . . . . . . 9 3 0 . a b ! ~ { ] ^ / | 1 c d . . . . . . . .         ",
"        . . . . . . . . e 3 < f 6 ) ! ~ { ] ^ / | 1 c g . . . . . . . .         ",
"      . . . . . . . . . e 3 < h ' ) ! ~ { ] ^ / | 1 c g . . . . . . . . .       ",
"      . . . . . . . . . . i i i j j j k { ] ^ / | 1 c g . . . . . . . . .       ",
"    . . . . . l m n o p q r s t u v w x { ] ^ / | 1 c g y z A B C . . . . .     ",
"    . . . . D E F G H I J 3 < h ' ) ! ~ { ] ^ / | 1 c g K L M N O P . . . .     ",
"    . . . . Q R F G H I J 3 < , ' ) ! ~ { S ^ / | 1 c g K L M N O T . . . .     ",
"  . . . . U V R F G H I J 3 < , ' ) ! ~ { S ^ / | 1 c W X L M N O Y Z . . . .   ",
"  . . . . ` V R F G H I J 3 < , ' ) ! ~ { S ^ /  .1 ..+.@.L M N O Y #.. . . .   ",
"  . . . . $.V R F G H I J 3 < , ' ) ! ~ { S ^ /  .1 %.&.@.L M N O Y *.. . . .   ",
"  . . . . =.V R F -.H I J 3 < , ;.>.>.,.'.).!.~.{.].^./.@.L M N O Y (.. . . .   ",
"  . . . . _.V R F -.H I J :.<.[.}.|.1.1.1.1.2.3.4.5.6.7.@.L M N O Y 8.. . . .   ",
"  . . . . 9.V R F -.H I 0.a.b.c.d.e.f.g.h.i.j.k.l.m.6.7.@.L M N O Y n.. . . .   ",
"  . . . . o.V R F -.H I p.q.r.s.d.e.f.g.h.i.j.k.l.m.6.7.@.L M N O Y t.. . . .   ",
"  . . . . u.V R F -.H v.w.x.r.s.d.e.f.g.h.i.j.k.l.m.6.7.@.L M N O Y y.. . . .   ",
"  . . . . z.V R F -.H A.B.C.r.s.d.e.f.g.h.i.j.k.l.m.6.7.@.L M N O Y D.. . . .   ",
"    . . . . E.R F -.H F.G.C.r.s.d.e.f.g.h.i.j.k.l.m.6.7.@.L M N O *.. . . .     ",
"    . . . . H.I.F -.H F.G.C.r.s.d.e.f.g.h.i.j.k.l.m.6.7.@.L M N J.K.. . . .     ",
"    . . . . . L.M.N.O.P.G.C.r.s.d.e.f.g.Q.R.S.T.U.V.V.W.X.Y.Z.`. +. . . . .     ",
"      . . . . . . . . . G.C.r.s.d.e.f.g..+++++@+#+$+%+&+. . . . . . . . .       ",
"      . . . . . . . . . G.C.r.s.d.e.f.g.h.i.j.k.l.m.6.*+. . . . . . . . .       ",
"        . . . . . . . . G.C.r.s.d.e.f.g.h.i.j.=+-+k.6.*+. . . . . . . .         ",
"        . . . . . . . . ;+C.r.s.d.e.f.g.h.i.>+. . ,+6.'+. . . . . . . .         ",
"          . . . . . . . . )+r.s.d.e.f.g.h.i.!+~+{+]+^+. . . . . . . .           ",
"            . . . . . . . G./+s.d.e.f.g.h.i.j.(+_+:+<+. . . . . . .             ",
"              . . . . . . . . [+}+e.f.g.h.i.j.|+1+. . . . . . . .               ",
"                . . . . . . . . . 2+3+4+5+6+7+. . . . . . . . .                 ",
"                  . . . . . . . . . . . . . . . . . . . . . .                   ",
"                      . . . . . . . . . . . . . . . . . .                       ",
"                          . . . . . . . . . . . . . .                           ",
"                                . . . . . . . .                                 ",
"                                                                                "};
