/* XPM */
static char * scatterplot_xpm[] = {
"46 40 92 2",
"  	c None",
". 	c #FFFFFF",
"+ 	c #FEFEFE",
"@ 	c #ABABAB",
"# 	c #C5C5C5",
"$ 	c #A6A6A6",
"% 	c #D8D8D8",
"& 	c #ADADAD",
"* 	c #ADCDE1",
"= 	c #6799BB",
"- 	c #E3E3E3",
"; 	c #C7C7C7",
"> 	c #6596B6",
", 	c #5C90B2",
"' 	c #6392B2",
") 	c #ECECEC",
"! 	c #A4C1D4",
"~ 	c #6191B1",
"{ 	c #608FAF",
"] 	c #9CB8CA",
"^ 	c #F0F0F0",
"/ 	c #E2E2E2",
"( 	c #5F8DAC",
"_ 	c #5788A8",
": 	c #F4F4F4",
"< 	c #EAEAEA",
"[ 	c #5D8AA8",
"} 	c #FAFAFA",
"| 	c #F1F1F1",
"1 	c #9BB7C9",
"2 	c #5C89A7",
"3 	c #FBFBFB",
"4 	c #F8F8F8",
"5 	c #5484A3",
"6 	c #FDFEFE",
"7 	c #FCFCFD",
"8 	c #FDFDFD",
"9 	c #A5C2D5",
"0 	c #608FAE",
"a 	c #9EBACD",
"b 	c #6292B1",
"c 	c #5889AA",
"d 	c #5E8CAA",
"e 	c #F7F7F7",
"f 	c #F6F6F6",
"g 	c #EDEDED",
"h 	c #E9E9E9",
"i 	c #BABABA",
"j 	c #B4B4B4",
"k 	c #B1B1B1",
"l 	c #A8A8A8",
"m 	c #9D9D9D",
"n 	c #939393",
"o 	c #8D8D8D",
"p 	c #8C8C8C",
"q 	c #8B8B8B",
"r 	c #8A8A8A",
"s 	c #898989",
"t 	c #888888",
"u 	c #878787",
"v 	c #868686",
"w 	c #858585",
"x 	c #848484",
"y 	c #828282",
"z 	c #7C7C7C",
"A 	c #727272",
"B 	c #686868",
"C 	c #EBEBEB",
"D 	c #D7D7D7",
"E 	c #BDBDBD",
"F 	c #BEBEBE",
"G 	c #BFBFBF",
"H 	c #C0C0C0",
"I 	c #C1C1C1",
"J 	c #C2C2C2",
"K 	c #C3C3C3",
"L 	c #C4C4C4",
"M 	c #C6C6C6",
"N 	c #C8C8C8",
"O 	c #CACACA",
"P 	c #CECECE",
"Q 	c #B9B9B9",
"R 	c #A3A3A3",
"S 	c #F3F3F3",
"T 	c #D6D6D6",
"U 	c #CDCDCD",
"V 	c #D1D1D1",
"W 	c #B5B5B5",
"X 	c #ACACAC",
"Y 	c #959595",
"Z 	c #9B9B9B",
"` 	c #A4A4A4",
". . . . . . . . . . . . . . . . . . . . . . . . . . . . . . . . . . . . . . . . . . . . . . ",
". . . . . . . . . . . . . . . . . . . . . . . . . . . . . . . . . . . . . . . . . . . . . . ",
". . . . . . . . . . . . . . . . . . . . . . . . . . . . . . . . . . . . . . . . . . + . . . ",
". . . . . @ . . . . . . . . . . . . . . . . . . . . . . . . . . . . . . . . . . . . # . . . ",
". . . . . $ . . . . . . . . . . . . . . . . . . . . . . . . . . . . . . . . . . . % & . . . ",
". . . . . $ . . . . . . . . . . . . . . . . . . . . . . . . . . . . . * = * . . - ; & . . . ",
". . . . . $ . . . . . . . . . . . . . . . . . . . . . . . . . . . . . > , ' . ) % ; & . . . ",
". . . . . $ . . . . . . . . . . . . . . . . . . . . . . . . . ! ~ ! . ! { ] ^ / % ; & . . . ",
". . . . . $ . . . . . . . . . . . . . . . . . . . . . . . . . ( _ ( . . + : < / % ; & . . . ",
". . . . . $ . . . . . . . . . . . . . . . . . . . . . . . . . ] [ ] . + } | < / % ; & . . . ",
". . . . . $ . . . . . . . + + + + + + + + + + + + + + + + + + 1 2 1 + 3 4 | < / % ; & . . . ",
". . . . . $ . . . . . . . + + + + + + + + + + + + + + + + 1 2 2 5 2 + 3 4 | < / % ; & . . . ",
". . . . . $ . . . . . . . + + + + + + + + + + + + 1 2 1 + 2 5 1 2 1 + 3 4 | < / % ; & . . . ",
". . . . . $ . . . . . . . + + + + + + + + + + + + 2 5 2 + 1 2 1 + + + 3 4 | < / % ; & . . . ",
". . . . . $ . . . . . . . + + + + + + + + + + + + 1 2 1 1 + + + + + + 3 4 | < / % ; & . . . ",
". . . . . $ . . . . . . . + + + + + + + + 1 2 1 2 1 2 5 2 1 2 1 + + + 3 4 | < / % ; & . . . ",
". . . . . $ . . . . . . . + + + + + + + + 2 5 2 5 2 1 2 1 2 5 2 + + + 3 4 | < / % ; & . . . ",
". . . . . $ . . . . . . . + + + + + + + + 1 2 1 1 1 2 5 2 1 2 1 + + + 3 4 | < / % ; & . . . ",
". . . . . $ . . . . . . . + + + + + + + 1 2 2 5 2 1 1 2 1 + + + + + + 3 4 | < / % ; & . . . ",
". . . . . $ . . . . . . . + + + + + + + 2 5 1 2 1 2 5 2 + + + + + + + 3 4 | < / % ; & . . . ",
". . . . . $ . . . . . . . + + + 1 2 1 + 1 2 1 + 1 1 2 1 + + + + + + + 3 4 | < / % ; & . . . ",
". . . . . $ . . . . . . . + + + 2 5 2 + + + + + 2 5 2 + + + + + + + + 3 4 | < / % ; & . . . ",
". . . . . $ . . . . . . . + + + 1 2 1 + + 1 2 1 1 2 1 + + + + + + + + 3 4 | < / % ; & . . . ",
". . . . . $ . . . . . . . + + + + + + + + 2 5 2 6 + + + + + + + + + + 3 4 | < / % ; & . . . ",
". . . . . $ . . . . . . ] 2 1 + + 1 2 1 + 1 2 1 + + + + + + + + + + + 3 4 | < / % ; & . . . ",
". . . . . $ . . . . . . [ 5 2 + + 2 5 2 + + + 7 + + 8 + + + + + + + + 3 4 | < / % ; & . . . ",
". . . . . $ . . . . . . ] 2 1 + + 1 2 1 + + + + + + + + + + + + + + + 3 4 | < / % ; & . . . ",
". . . . . $ . . . . . . . + + + + + + + + + + + + + + + + + + + + + + 3 4 | < / % ; & . . . ",
". . . . . $ . . . . . . . 1 2 1 + + + + + + + + + + + + + + + + + + + 3 4 | < / % ; & . . . ",
". . . . . $ . . . 9 0 a . 2 5 2 + + + + + + + + + + + + + + + + + + + 3 4 | < / % ; & . . . ",
". . . . . $ . . . b c d . 1 2 1 + + + + + + + + + + + + + + + + + + + 3 4 | < / % ; & . . . ",
". . . . . $ . . . 9 0 a . + + + + + + + + + + + + + + + + + + + + + + 3 4 | < / % ; & . . . ",
". . . . . $ . . . . . . 8 3 3 3 3 3 3 3 3 3 3 3 3 3 3 3 3 3 3 3 3 3 3 3 4 | < / % ; & . . . ",
". . . . . $ . . . . . 8 e f f f f f f f f f f f f f f f f f f f f f f f e | < / % ; & . . . ",
". . . . . $ . . . . } ^ g g g g g g g g g g g g g g g g g g g g g g g g g g h / % ; & . . . ",
". . . . . i j k l m n o o o o p p p q q r s s s t t u u v v v w w w w x x x w y z A B . . . ",
". . . . . . 4 C D # E F F F F G G G H H I I J J K K L L L L L # # M M ; ; N O P ; Q R . . . ",
". . . . . . . S T O O O O O O O O O O O O O O O O O O O O O O O O O O O O O O U V # & . . . ",
". . . . . . g L W W W W W W W W W W W W W W W W W W W W W W W W W W W W W W W W Q F & . . . ",
". . . . . - X Y Y Y Y Y Y Y Y Y Y Y Y Y Y Y Y Y Y Y Y Y Y Y Y Y Y Y Y Y Y Y Y Y Y Z ` . . . "};
