/* XPM */
static char * scatterplot_xpm[] = {
"40 40 175 2",
"  	c None",
". 	c #FFFFFF",
"+ 	c #929292",
"@ 	c #F1F1F1",
"# 	c #DFE8EE",
"$ 	c #90AFC3",
"% 	c #E6EDF1",
"& 	c #D8E3EA",
"* 	c #A2BCCD",
"= 	c #F8FAFB",
"- 	c #AEC5D3",
"; 	c #5585A4",
"> 	c #C5D5E0",
", 	c #8CADC2",
"' 	c #E2EAEF",
") 	c #FAFCFD",
"! 	c #CDDBE4",
"~ 	c #FAFBFC",
"{ 	c #C6D6E1",
"] 	c #EBF1F4",
"^ 	c #BFD1DD",
"/ 	c #F5F8FA",
"( 	c #ABC3D2",
"_ 	c #E3EBF0",
": 	c #FEFFFF",
"< 	c #E9EFF3",
"[ 	c #86A8BE",
"} 	c #C9D8E2",
"| 	c #A3BDCE",
"1 	c #ACC4D3",
"2 	c #6A94AF",
"3 	c #F0F4F7",
"4 	c #9CB8CA",
"5 	c #8AABC0",
"6 	c #D2DEE7",
"7 	c #E8EEF3",
"8 	c #F9FBFC",
"9 	c #BACDDA",
"0 	c #EDF2F5",
"a 	c #96B4C7",
"b 	c #5C8AA8",
"c 	c #6D96B1",
"d 	c #6893AE",
"e 	c #F6F9FA",
"f 	c #CCDBE4",
"g 	c #7099B3",
"h 	c #DCE6EC",
"i 	c #EEF3F6",
"j 	c #C1D3DE",
"k 	c #82A6BC",
"l 	c #F4F7F9",
"m 	c #B2C8D6",
"n 	c #D7E2EA",
"o 	c #8BACC1",
"p 	c #5786A5",
"q 	c #E7EEF2",
"r 	c #A6BFD0",
"s 	c #F2F5F8",
"t 	c #E4EBF0",
"u 	c #FEFEFE",
"v 	c #ECF2F5",
"w 	c #CEDCE5",
"x 	c #E1E9EF",
"y 	c #99B5C8",
"z 	c #87A9BF",
"A 	c #E5ECF1",
"B 	c #80A4BB",
"C 	c #EFF4F6",
"D 	c #638FAB",
"E 	c #6590AC",
"F 	c #B7CBD8",
"G 	c #E9EFF2",
"H 	c #B0C6D5",
"I 	c #ACC3D2",
"J 	c #C0D2DD",
"K 	c #FCFDFE",
"L 	c #A1BCCD",
"M 	c #D3DFE7",
"N 	c #A8C1D1",
"O 	c #F2F6F8",
"P 	c #A4BECE",
"Q 	c #BDD0DC",
"R 	c #DBE5EC",
"S 	c #B9CDDA",
"T 	c #AAC2D2",
"U 	c #EAF0F4",
"V 	c #6792AE",
"W 	c #618EAA",
"X 	c #ADC4D3",
"Y 	c #F6F8FA",
"Z 	c #A0BBCC",
"` 	c #B5CAD7",
" .	c #B6CBD8",
"..	c #7BA0B9",
"+.	c #5A88A6",
"@.	c #6C95B0",
"#.	c #C2D3DF",
"$.	c #96B3C7",
"%.	c #FDFEFE",
"&.	c #89ABC0",
"*.	c #E6EDF2",
"=.	c #B3C8D6",
"-.	c #93B1C5",
";.	c #E2EAF0",
">.	c #A6BFCF",
",.	c #BBCEDB",
"'.	c #D9E4EB",
").	c #AEC5D4",
"!.	c #D4E0E8",
"~.	c #BCCFDB",
"{.	c #D8E4EB",
"].	c #B8CCD9",
"^.	c #6D97B1",
"/.	c #628FAB",
"(.	c #FCFDFD",
"_.	c #F7F9FB",
":.	c #5686A5",
"<.	c #7AA0B8",
"[.	c #88A9BF",
"}.	c #CAD9E2",
"|.	c #9FBACB",
"1.	c #E8EFF3",
"2.	c #7EA3BA",
"3.	c #7199B3",
"4.	c #5988A6",
"5.	c #7FA3BA",
"6.	c #DEE7ED",
"7.	c #5B89A7",
"8.	c #C7D7E1",
"9.	c #CBDAE3",
"0.	c #E4ECF1",
"a.	c #DAE5EB",
"b.	c #8FAFC3",
"c.	c #BED0DC",
"d.	c #CCDAE3",
"e.	c #D0DEE6",
"f.	c #92B1C5",
"g.	c #9EB9CB",
"h.	c #CFDDE5",
"i.	c #91B0C4",
"j.	c #A3A3A3",
"k.	c #A1A1A1",
"l.	c #A2A2A2",
"m.	c #A0A0A0",
"n.	c #9F9F9F",
"o.	c #9E9E9E",
"p.	c #9D9D9D",
"q.	c #9C9C9C",
"r.	c #9B9B9B",
"s.	c #9A9A9A",
"t.	c #999999",
"u.	c #989898",
"v.	c #979797",
"w.	c #969696",
"x.	c #959595",
"y.	c #949494",
"z.	c #939393",
"A.	c #F0F0F0",
"B.	c #DEDEDE",
"C.	c #DFDFDF",
"D.	c #E0E0E0",
"E.	c #E1E1E1",
"F.	c #E2E2E2",
"G.	c #E3E3E3",
"H.	c #E4E4E4",
"I.	c #E5E5E5",
"J.	c #E6E6E6",
"K.	c #E7E7E7",
"L.	c #E8E8E8",
"M.	c #E9E9E9",
"N.	c #EAEAEA",
"O.	c #EBEBEB",
"P.	c #ECECEC",
"Q.	c #EDEDED",
"R.	c #EFEFEF",
". . + @ . . . . . . . . . . . . . . . . . . . . . . . . . . . . . . . . . . . . ",
". . + @ . . . . . . . . . . . . . . . . . . . . . . . . . . . . . . . . . . . . ",
". . + @ . . . . . . . . . . . . . . . . . . . . . . . . . . . . . . . . . . . . ",
". . + @ . . . . . . . . . . . . . . . . . . . . . . . . . . . . . . . . . . . . ",
". . + @ . . . . . . . . . . . . . . . . . . . . . . . . . . . . . . . . . . . . ",
". . + @ . . . . . . . . . . . . . . . . . . . . . . . . . . . . . . . . . . . . ",
". . + @ . . . . . . . . . . . . . . . . . . . . . . . . . . . . . . . . . . . . ",
". . + @ . . . . . . . . . . . . . . . . . . . . . . . . . . . . . . . . . . . . ",
". . + @ . . . . . . . . . . . . . . . . . . . . . . . # $ % . . & * = . . . . . ",
". . + @ . . . . . . . . . . . . . . . . . . . . . . . - ; > . . , ; ' . . . . . ",
". . + @ . . . . . . . . . . . . . . . . . . . . . . . ) ! ~ * { ] ^ / ( _ . . . ",
". . + @ . . . . . . . . . . . . : . . . . . . . . . . . . < ; [ . . } ; | . . . ",
". . + @ . . . . . . . . . . . 1 2 3 . . 4 5 : . . . . . . . 6 7 . . 8 9 0 . . . ",
". . + @ . . . . . . . . . . . a b / . . c d : . . . . . . . . . . . . . . . . . ",
". . + @ . . . . . . . . . . . . e f g h = i j k l . . . . . . . . . . . . . . . ",
". . + @ . . . . . . . . . . . . . m ; n . . o p i q r s . . t 9 u . . . . . . . ",
". . + @ . . . . . . . . . . . . . . i v w . ) x ] y ; { . . z ; A . . . . . . . ",
". . + @ . . . . . . . . . . . . . . . B ; C . . D E F G H 3 h I 0 J K . . . . . ",
". . + @ . . . . . . . . . . . . . . . f L s M . N N O P ; Q . . $ ; R . . . . . ",
". . + @ . . . . . . . . . S [ 8 . . 1 T . k ; U . . V W X Y . . & Z u . . . . . ",
". . + @ . . . ` Q . . K  ...+.Y . . W @.. #.$.. . . 4 L . . . . . . . . . . . . ",
". . + @ . . %.+.c . . ' ; &.*.=.-.. < ;.>.,.. . . . . . . . . . . . . . . . . . ",
". . + @ . . . '.'.).!.u ~.{.].^./.(.. _.:.<.. . . . . . . . . . . . . . . . . . ",
". . + @ . . . . < ; [.. . }.; |.;.= % . & t Y = . . . . . . . . . . . . . . . . ",
". . + @ . . . . . #.x . . / T 1.. 2.p l . : d 3.. . . . . . . . . . . . . . . . ",
". . + @ . . . . . . . . . . . . . m 5 3 = : z a Y . . . . . . . . . . . . . . . ",
". . + @ . . . . . . . . . . . . . . l 4.5.. . 6.7.r . . . . . . . . . . . . . . ",
". . + @ . 8.!.. . u 9.] . . . . . . ~ [ ).. . 0.@.^ . . . . . . . . . . . . . . ",
". . + @ = :.g . . a.; b.. . . . . . . . . . . . . . . . . . . . . . . . . . . . ",
". . + @ . c.#.J Y = Z d.e.: . . . . . . . . . . . . . . . . . . . . . . . . . . ",
". . + @ . . H ; ,.. . f.; R . . . . . . . . . . . . . . . . . . . . . . . . . . ",
". . + @ . . < g.s . . h.i.K . . . . . . . . . . . . . . . . . . . . . . . . . . ",
". . + @ . . . . . . . . . . . . . . . . . . . . . . . . . . . . . . . . . . . . ",
". . + @ . . . . . . . . . . . . . . . . . . . . . . . . . . . . . . . . . . . . ",
". . + @ . . . . . . . . . . . . . . . . . . . . . . . . . . . . . . . . . . . . ",
". . + @ . . . . . . . . . . . . . . . . . . . . . . . . . . . . . . . . . . . . ",
". . + @ . . . . . . . . . . . . . . . . . . . . . . . . . . . . . . . . . . . . ",
". . j.k.l.k.k.k.m.m.n.n.o.o.o.p.p.q.r.r.r.s.s.t.t.u.u.u.v.v.w.w.x.x.y.y.z.z.+ t.",
". . A.B.B.C.C.C.D.D.E.E.F.F.F.G.G.H.H.I.I.J.J.K.K.K.L.L.M.M.N.N.O.O.P.P.Q.Q.Q.R.",
". . . . . . . . . . . . . . . . . . . . . . . . . . . . . . . . . . . . . . . . "};
