/* XPM */
static char * scatterplot_xpm[] = {
"40 40 94 2",
"  	c None",
". 	c #FFFFFF",
"+ 	c #BBBBBB",
"@ 	c #C0C0C0",
"# 	c #B6B6B6",
"$ 	c #FEFEFE",
"% 	c #ABABAB",
"& 	c #C5C5C5",
"* 	c #A6A6A6",
"= 	c #D8D8D8",
"- 	c #ADADAD",
"; 	c #ADCDE1",
"> 	c #6799BB",
", 	c #E3E3E3",
"' 	c #C7C7C7",
") 	c #6596B6",
"! 	c #5C90B2",
"~ 	c #6392B2",
"{ 	c #ECECEC",
"] 	c #A4C1D4",
"^ 	c #6191B1",
"/ 	c #608FAF",
"( 	c #9CB8CA",
"_ 	c #F0F0F0",
": 	c #E2E2E2",
"< 	c #5F8DAC",
"[ 	c #5788A8",
"} 	c #F4F4F4",
"| 	c #EAEAEA",
"1 	c #5D8AA8",
"2 	c #FAFAFA",
"3 	c #F1F1F1",
"4 	c #9BB7C9",
"5 	c #5C89A7",
"6 	c #FBFBFB",
"7 	c #F8F8F8",
"8 	c #5484A3",
"9 	c #FDFEFE",
"0 	c #FCFCFD",
"a 	c #FDFDFD",
"b 	c #A5C2D5",
"c 	c #608FAE",
"d 	c #9EBACD",
"e 	c #6292B1",
"f 	c #5889AA",
"g 	c #5E8CAA",
"h 	c #F7F7F7",
"i 	c #F6F6F6",
"j 	c #EDEDED",
"k 	c #E9E9E9",
"l 	c #BABABA",
"m 	c #B4B4B4",
"n 	c #B1B1B1",
"o 	c #A8A8A8",
"p 	c #9D9D9D",
"q 	c #939393",
"r 	c #8D8D8D",
"s 	c #8C8C8C",
"t 	c #8B8B8B",
"u 	c #8A8A8A",
"v 	c #898989",
"w 	c #888888",
"x 	c #878787",
"y 	c #868686",
"z 	c #858585",
"A 	c #848484",
"B 	c #828282",
"C 	c #7C7C7C",
"D 	c #727272",
"E 	c #686868",
"F 	c #EBEBEB",
"G 	c #D7D7D7",
"H 	c #BDBDBD",
"I 	c #BEBEBE",
"J 	c #BFBFBF",
"K 	c #C1C1C1",
"L 	c #C2C2C2",
"M 	c #C3C3C3",
"N 	c #C4C4C4",
"O 	c #C6C6C6",
"P 	c #C8C8C8",
"Q 	c #CACACA",
"R 	c #CECECE",
"S 	c #B9B9B9",
"T 	c #A3A3A3",
"U 	c #F3F3F3",
"V 	c #D6D6D6",
"W 	c #CDCDCD",
"X 	c #D1D1D1",
"Y 	c #B5B5B5",
"Z 	c #ACACAC",
"` 	c #959595",
" .	c #9B9B9B",
"..	c #A4A4A4",
". . + . . . . . . . . . . . . . . . . . . . . . . . . . . . . . . . . . . . . . ",
". . @ . . . . . . . . . . . . . . . . . . . . . . . . . . . . . . . . . . . . . ",
". . # . . . . . . . . . . . . . . . . . . . . . . . . . . . . . . . . . . . . $ ",
". . % . . . . . . . . . . . . . . . . . . . . . . . . . . . . . . . . . . . . & ",
". . * . . . . . . . . . . . . . . . . . . . . . . . . . . . . . . . . . . . = - ",
". . * . . . . . . . . . . . . . . . . . . . . . . . . . . . . . ; > ; . . , ' - ",
". . * . . . . . . . . . . . . . . . . . . . . . . . . . . . . . ) ! ~ . { = ' - ",
". . * . . . . . . . . . . . . . . . . . . . . . . . . . ] ^ ] . ] / ( _ : = ' - ",
". . * . . . . . . . . . . . . . . . . . . . . . . . . . < [ < . . $ } | : = ' - ",
". . * . . . . . . . . . . . . . . . . . . . . . . . . . ( 1 ( . $ 2 3 | : = ' - ",
". . * . . . . . . . $ $ $ $ $ $ $ $ $ $ $ $ $ $ $ $ $ $ 4 5 4 $ 6 7 3 | : = ' - ",
". . * . . . . . . . $ $ $ $ $ $ $ $ $ $ $ $ $ $ $ $ 4 5 5 8 5 $ 6 7 3 | : = ' - ",
". . * . . . . . . . $ $ $ $ $ $ $ $ $ $ $ $ 4 5 4 $ 5 8 4 5 4 $ 6 7 3 | : = ' - ",
". . * . . . . . . . $ $ $ $ $ $ $ $ $ $ $ $ 5 8 5 $ 4 5 4 $ $ $ 6 7 3 | : = ' - ",
". . * . . . . . . . $ $ $ $ $ $ $ $ $ $ $ $ 4 5 4 4 $ $ $ $ $ $ 6 7 3 | : = ' - ",
". . * . . . . . . . $ $ $ $ $ $ $ $ 4 5 4 5 4 5 8 5 4 5 4 $ $ $ 6 7 3 | : = ' - ",
". . * . . . . . . . $ $ $ $ $ $ $ $ 5 8 5 8 5 4 5 4 5 8 5 $ $ $ 6 7 3 | : = ' - ",
". . * . . . . . . . $ $ $ $ $ $ $ $ 4 5 4 4 4 5 8 5 4 5 4 $ $ $ 6 7 3 | : = ' - ",
". . * . . . . . . . $ $ $ $ $ $ $ 4 5 5 8 5 4 4 5 4 $ $ $ $ $ $ 6 7 3 | : = ' - ",
". . * . . . . . . . $ $ $ $ $ $ $ 5 8 4 5 4 5 8 5 $ $ $ $ $ $ $ 6 7 3 | : = ' - ",
". . * . . . . . . . $ $ $ 4 5 4 $ 4 5 4 $ 4 4 5 4 $ $ $ $ $ $ $ 6 7 3 | : = ' - ",
". . * . . . . . . . $ $ $ 5 8 5 $ $ $ $ $ 5 8 5 $ $ $ $ $ $ $ $ 6 7 3 | : = ' - ",
". . * . . . . . . . $ $ $ 4 5 4 $ $ 4 5 4 4 5 4 $ $ $ $ $ $ $ $ 6 7 3 | : = ' - ",
". . * . . . . . . . $ $ $ $ $ $ $ $ 5 8 5 9 $ $ $ $ $ $ $ $ $ $ 6 7 3 | : = ' - ",
". . * . . . . . . ( 5 4 $ $ 4 5 4 $ 4 5 4 $ $ $ $ $ $ $ $ $ $ $ 6 7 3 | : = ' - ",
". . * . . . . . . 1 8 5 $ $ 5 8 5 $ $ $ 0 $ $ a $ $ $ $ $ $ $ $ 6 7 3 | : = ' - ",
". . * . . . . . . ( 5 4 $ $ 4 5 4 $ $ $ $ $ $ $ $ $ $ $ $ $ $ $ 6 7 3 | : = ' - ",
". . * . . . . . . . $ $ $ $ $ $ $ $ $ $ $ $ $ $ $ $ $ $ $ $ $ $ 6 7 3 | : = ' - ",
". . * . . . . . . . 4 5 4 $ $ $ $ $ $ $ $ $ $ $ $ $ $ $ $ $ $ $ 6 7 3 | : = ' - ",
". . * . . . b c d . 5 8 5 $ $ $ $ $ $ $ $ $ $ $ $ $ $ $ $ $ $ $ 6 7 3 | : = ' - ",
". . * . . . e f g . 4 5 4 $ $ $ $ $ $ $ $ $ $ $ $ $ $ $ $ $ $ $ 6 7 3 | : = ' - ",
". . * . . . b c d . $ $ $ $ $ $ $ $ $ $ $ $ $ $ $ $ $ $ $ $ $ $ 6 7 3 | : = ' - ",
". . * . . . . . . a 6 6 6 6 6 6 6 6 6 6 6 6 6 6 6 6 6 6 6 6 6 6 6 7 3 | : = ' - ",
". . * . . . . . a h i i i i i i i i i i i i i i i i i i i i i i i h 3 | : = ' - ",
". . * . . . . 2 _ j j j j j j j j j j j j j j j j j j j j j j j j j j k : = ' - ",
". . l m n o p q r r r r s s s t t u v v v w w x x y y y z z z z A A A z B C D E ",
". . . 7 F G & H I I I I J J J @ @ K K L L M M N N N N N & & O O ' ' P Q R ' S T ",
". . . . U V Q Q Q Q Q Q Q Q Q Q Q Q Q Q Q Q Q Q Q Q Q Q Q Q Q Q Q Q Q Q W X & - ",
". . . j N Y Y Y Y Y Y Y Y Y Y Y Y Y Y Y Y Y Y Y Y Y Y Y Y Y Y Y Y Y Y Y Y S I - ",
". . , Z ` ` ` ` ` ` ` ` ` ` ` ` ` ` ` ` ` ` ` ` ` ` ` ` ` ` ` ` ` ` ` ` ` `  ..."};
