/* XPM */
static char * sofastats_48_xpm[] = {
"48 48 633 2",
"  	c None",
". 	c #726961",
"+ 	c #625750",
"@ 	c #60544B",
"# 	c #60534C",
"$ 	c #62554D",
"% 	c #61554D",
"& 	c #62554E",
"* 	c #63554F",
"= 	c #645750",
"- 	c #63564F",
"; 	c #5C5249",
"> 	c #5E534B",
", 	c #5F544B",
"' 	c #60554D",
") 	c #63594F",
"! 	c #60564F",
"~ 	c #5D534C",
"{ 	c #5E534D",
"] 	c #5E554F",
"^ 	c #615A53",
"/ 	c #615953",
"( 	c #5C534F",
"_ 	c #5E5651",
": 	c #57524D",
"< 	c #443C38",
"[ 	c #7A7470",
"} 	c #6D645E",
"| 	c #5B5148",
"1 	c #5D5249",
"2 	c #5F534A",
"3 	c #61544C",
"4 	c #62554C",
"5 	c #63564D",
"6 	c #65584F",
"7 	c #675A51",
"8 	c #685B52",
"9 	c #64584F",
"0 	c #6A5C52",
"a 	c #6B5D52",
"b 	c #6C5E53",
"c 	c #6B5E53",
"d 	c #6A5E53",
"e 	c #685D53",
"f 	c #483F37",
"g 	c #423935",
"h 	c #7B7472",
"i 	c #635A53",
"j 	c #5A5047",
"k 	c #5E524A",
"l 	c #5E5149",
"m 	c #5F524A",
"n 	c #61544B",
"o 	c #64574E",
"p 	c #665950",
"q 	c #6B5D53",
"r 	c #6E6055",
"s 	c #726459",
"t 	c #75675C",
"u 	c #76685D",
"v 	c #796B60",
"w 	c #786B60",
"x 	c #70665A",
"y 	c #423933",
"z 	c #494039",
"A 	c #7D7371",
"B 	c #5F554D",
"C 	c #594F46",
"D 	c #5B5048",
"E 	c #5C5048",
"F 	c #5B4F47",
"G 	c #5D5148",
"H 	c #62564D",
"I 	c #61554C",
"J 	c #695C51",
"K 	c #6C5F54",
"L 	c #706358",
"M 	c #73655A",
"N 	c #786A5E",
"O 	c #7B6D60",
"P 	c #695F54",
"Q 	c #3A312B",
"R 	c #4E443C",
"S 	c #706562",
"T 	c #5B4F4A",
"U 	c #594E48",
"V 	c #584D47",
"W 	c #5E544B",
"X 	c #5D534A",
"Y 	c #695C53",
"Z 	c #6D6057",
"` 	c #716358",
" .	c #74665B",
"..	c #796A5E",
"+.	c #383029",
"@.	c #584C46",
"#.	c #8E837E",
"$.	c #91827B",
"%.	c #8E7E78",
"&.	c #716561",
"*.	c #5C524F",
"=.	c #504844",
"-.	c #544B48",
";.	c #524A46",
">.	c #544B47",
",.	c #534D48",
"'.	c #56504C",
").	c #56504E",
"!.	c #4E4846",
"~.	c #554B46",
"{.	c #574A45",
"].	c #574C46",
"^.	c #564B45",
"/.	c #6A5D53",
"(.	c #75685D",
"_.	c #76695C",
":.	c #4D453D",
"<.	c #38302A",
"[.	c #594E47",
"}.	c #68605F",
"|.	c #5B524E",
"1.	c #5B534C",
"2.	c #524842",
"3.	c #292320",
"4.	c #1D1A18",
"5.	c #1E1A17",
"6.	c #1E1916",
"7.	c #1D1815",
"8.	c #1B1614",
"9.	c #191412",
"0.	c #15120F",
"a.	c #120E0B",
"b.	c #100D0B",
"c.	c #0D0B07",
"d.	c #2B251E",
"e.	c #4A4039",
"f.	c #524840",
"g.	c #544942",
"h.	c #554B43",
"i.	c #574C44",
"j.	c #584E46",
"k.	c #584F46",
"l.	c #5A4F47",
"m.	c #5F544A",
"n.	c #685C55",
"o.	c #72655F",
"p.	c #746862",
"q.	c #746761",
"r.	c #756760",
"s.	c #73665D",
"t.	c #72655C",
"u.	c #71655C",
"v.	c #6A5F57",
"w.	c #403832",
"x.	c #372F29",
"y.	c #5F534E",
"z.	c #4C4548",
"A.	c #413C3D",
"B.	c #3C3635",
"C.	c #342D2B",
"D.	c #161311",
"E.	c #181411",
"F.	c #171310",
"G.	c #15110E",
"H.	c #14100D",
"I.	c #13100D",
"J.	c #0D0B08",
"K.	c #1F1B16",
"L.	c #382F29",
"M.	c #463D36",
"N.	c #4C423B",
"O.	c #4E443E",
"P.	c #534842",
"Q.	c #544A44",
"R.	c #554C45",
"S.	c #554C44",
"T.	c #5B5147",
"U.	c #61564D",
"V.	c #685C56",
"W.	c #6A5E5A",
"X.	c #6F635F",
"Y.	c #726763",
"Z.	c #6C605B",
"`.	c #685B55",
" +	c #675A53",
".+	c #635751",
"++	c #5D514C",
"@+	c #554A45",
"#+	c #625751",
"$+	c #6E635E",
"%+	c #60574F",
"&+	c #655E59",
"*+	c #413736",
"=+	c #322A28",
"-+	c #2F2723",
";+	c #2D2623",
">+	c #1B1714",
",+	c #14110D",
"'+	c #130F0C",
")+	c #110E0B",
"!+	c #0C0A07",
"~+	c #1B1712",
"{+	c #2C2520",
"]+	c #39312B",
"^+	c #4B423B",
"/+	c #4D443D",
"(+	c #4F463F",
"_+	c #504740",
":+	c #544A42",
"<+	c #564C43",
"[+	c #564C44",
"}+	c #564B44",
"|+	c #5E534C",
"1+	c #786D64",
"2+	c #7A6C62",
"3+	c #74675A",
"4+	c #6F6256",
"5+	c #5E534A",
"6+	c #3D342D",
"7+	c #493D35",
"8+	c #4D4038",
"9+	c #4E423A",
"0+	c #4C423A",
"a+	c #4B4039",
"b+	c #493E37",
"c+	c #4A3F38",
"d+	c #4C4138",
"e+	c #4A3E36",
"f+	c #4B3F36",
"g+	c #4D4239",
"h+	c #6E6862",
"i+	c #423834",
"j+	c #332A25",
"k+	c #302721",
"l+	c #2D2522",
"m+	c #191512",
"n+	c #12100D",
"o+	c #100F0D",
"p+	c #110E0C",
"q+	c #100E0B",
"r+	c #0F0C09",
"s+	c #0E0A07",
"t+	c #0D0906",
"u+	c #0C0906",
"v+	c #090804",
"w+	c #13110C",
"x+	c #1D1915",
"y+	c #27211D",
"z+	c #2C2723",
"A+	c #312C26",
"B+	c #37312A",
"C+	c #3C352F",
"D+	c #453D37",
"E+	c #4A4139",
"F+	c #4D433A",
"G+	c #50463D",
"H+	c #51463F",
"I+	c #4F4743",
"J+	c #564D49",
"K+	c #655A51",
"L+	c #6F6659",
"M+	c #7B6F62",
"N+	c #5F554B",
"O+	c #3A3028",
"P+	c #473B33",
"Q+	c #493C34",
"R+	c #4A3F36",
"S+	c #4C4038",
"T+	c #4B4037",
"U+	c #493E35",
"V+	c #4A3D36",
"W+	c #4B3E36",
"X+	c #51443B",
"Y+	c #6F665F",
"Z+	c #443B34",
"`+	c #342A24",
" @	c #322722",
".@	c #2B221F",
"+@	c #12100B",
"@@	c #0D0C07",
"#@	c #0D0B09",
"$@	c #100C0B",
"%@	c #181210",
"&@	c #2F2925",
"*@	c #362F2B",
"=@	c #38302D",
"-@	c #342D29",
";@	c #2E2722",
">@	c #2C241F",
",@	c #29221C",
"'@	c #26201A",
")@	c #241E18",
"!@	c #251F1A",
"~@	c #27201A",
"{@	c #2A251F",
"]@	c #2E2922",
"^@	c #312A25",
"/@	c #352F29",
"(@	c #39322D",
"_@	c #3B3330",
":@	c #332B2A",
"<@	c #302827",
"[@	c #302925",
"}@	c #362C28",
"|@	c #342B28",
"1@	c #3B3029",
"2@	c #473A32",
"3@	c #483B33",
"4@	c #4A3D35",
"5@	c #52453E",
"6@	c #716961",
"7@	c #433831",
"8@	c #362A23",
"9@	c #322720",
"0@	c #251E1A",
"a@	c #14120D",
"b@	c #1B1512",
"c@	c #221C16",
"d@	c #322A24",
"e@	c #453C36",
"f@	c #544A43",
"g@	c #6F635D",
"h@	c #7A6D66",
"i@	c #82746D",
"j@	c #857771",
"k@	c #7A6C65",
"l@	c #675A54",
"m@	c #5B4E48",
"n@	c #534741",
"o@	c #4C413B",
"p@	c #473C36",
"q@	c #433933",
"r@	c #3D3631",
"s@	c #3A332E",
"t@	c #362F2A",
"u@	c #312B25",
"v@	c #2E2721",
"w@	c #2B241F",
"x@	c #322823",
"y@	c #322724",
"z@	c #2E2421",
"A@	c #2C231D",
"B@	c #2D221E",
"C@	c #2C2320",
"D@	c #3A2E28",
"E@	c #44372F",
"F@	c #463931",
"G@	c #4B3D36",
"H@	c #382A21",
"I@	c #33261E",
"J@	c #322A27",
"K@	c #3C3939",
"L@	c #443E3E",
"M@	c #463F3C",
"N@	c #4A4240",
"O@	c #524845",
"P@	c #584D49",
"Q@	c #5C524E",
"R@	c #645851",
"S@	c #6E605A",
"T@	c #72675D",
"U@	c #74685F",
"V@	c #74655D",
"W@	c #72635B",
"X@	c #6F6159",
"Y@	c #6C5E56",
"Z@	c #685A53",
"`@	c #645852",
" #	c #61554F",
".#	c #5C5149",
"+#	c #574D45",
"@#	c #50463F",
"##	c #423832",
"$#	c #322622",
"%#	c #30251E",
"&#	c #2F241C",
"*#	c #2F251A",
"=#	c #2B221B",
"-#	c #392D26",
";#	c #43362D",
">#	c #45382F",
",#	c #473A31",
"'#	c #483B32",
")#	c #52463E",
"!#	c #483831",
"~#	c #392A22",
"{#	c #33261D",
"]#	c #382B25",
"^#	c #3B312E",
"/#	c #392E2E",
"(#	c #382F2F",
"_#	c #39302F",
":#	c #39302E",
"<#	c #3A302F",
"[#	c #3B3331",
"}#	c #3E3633",
"|#	c #423A37",
"1#	c #453D3A",
"2#	c #473E3B",
"3#	c #4D4442",
"4#	c #594F49",
"5#	c #6E6156",
"6#	c #706259",
"7#	c #71655B",
"8#	c #71635A",
"9#	c #6B5F56",
"0#	c #675A52",
"a#	c #635650",
"b#	c #4C4039",
"c#	c #32261F",
"d#	c #31241D",
"e#	c #30231C",
"f#	c #30231B",
"g#	c #29211A",
"h#	c #382C24",
"i#	c #40332A",
"j#	c #44372E",
"k#	c #463930",
"l#	c #51453B",
"m#	c #4E3F37",
"n#	c #352920",
"o#	c #3C2C23",
"p#	c #382A23",
"q#	c #372B24",
"r#	c #362A24",
"s#	c #342924",
"t#	c #332824",
"u#	c #302623",
"v#	c #322925",
"w#	c #342A25",
"x#	c #362D28",
"y#	c #3C3330",
"z#	c #413735",
"A#	c #483E3A",
"B#	c #524741",
"C#	c #5B504A",
"D#	c #635950",
"E#	c #6F6357",
"F#	c #73695B",
"G#	c #71645A",
"H#	c #55473F",
"I#	c #33251C",
"J#	c #31241B",
"K#	c #30231A",
"L#	c #2F2319",
"M#	c #271F18",
"N#	c #372B21",
"O#	c #3F3228",
"P#	c #42352C",
"Q#	c #534940",
"R#	c #4B3C34",
"S#	c #32261D",
"T#	c #32271F",
"U#	c #3C2C22",
"V#	c #3A2920",
"W#	c #3A2A22",
"X#	c #392920",
"Y#	c #382920",
"Z#	c #372920",
"`#	c #36281F",
" $	c #35271F",
".$	c #34271D",
"+$	c #33261C",
"@$	c #34261D",
"#$	c #34261E",
"$$	c #32251D",
"%$	c #30261F",
"&$	c #2F2621",
"*$	c #302723",
"=$	c #312826",
"-$	c #382F2C",
";$	c #403733",
">$	c #4B413B",
",$	c #2F2219",
"'$	c #2E2119",
")$	c #261E17",
"!$	c #3E3128",
"~$	c #41342B",
"{$	c #51453C",
"]$	c #514239",
"^$	c #39281E",
"/$	c #32251C",
"($	c #33251D",
"_$	c #3A2B22",
":$	c #392820",
"<$	c #38271F",
"[$	c #37281F",
"}$	c #35271E",
"|$	c #32241B",
"1$	c #34271E",
"2$	c #31251C",
"3$	c #30241D",
"4$	c #2E241D",
"5$	c #2F241E",
"6$	c #2D231D",
"7$	c #2C221C",
"8$	c #2E2118",
"9$	c #2D2017",
"0$	c #2C2016",
"a$	c #261C15",
"b$	c #33281F",
"c$	c #3D3027",
"d$	c #3F3229",
"e$	c #564B42",
"f$	c #524135",
"g$	c #3B291D",
"h$	c #35251B",
"i$	c #382A20",
"j$	c #38271E",
"k$	c #37261E",
"l$	c #35261E",
"m$	c #33241B",
"n$	c #33261B",
"o$	c #32261B",
"p$	c #31241A",
"q$	c #31231A",
"r$	c #2E2218",
"s$	c #2E2017",
"t$	c #2F2118",
"u$	c #2B1F16",
"v$	c #241C15",
"w$	c #3B2D24",
"x$	c #4D4139",
"y$	c #4D3C31",
"z$	c #745A47",
"A$	c #533B2E",
"B$	c #453429",
"C$	c #43342A",
"D$	c #3F2F25",
"E$	c #332219",
"F$	c #322319",
"G$	c #322219",
"H$	c #312218",
"I$	c #322318",
"J$	c #312419",
"K$	c #30251B",
"L$	c #302319",
"M$	c #302219",
"N$	c #2E2117",
"O$	c #2E2016",
"P$	c #2C1F16",
"Q$	c #2B1F14",
"R$	c #231B13",
"S$	c #30241A",
"T$	c #392A20",
"U$	c #3A2C22",
"V$	c #3B2D23",
"W$	c #3C2E23",
"X$	c #3B2D22",
"Y$	c #3B2E23",
"Z$	c #3C2D24",
"`$	c #3D2F25",
" %	c #4E4138",
".%	c #D8AD90",
"+%	c #A57A5F",
"@%	c #795F51",
"#%	c #5A4C41",
"$%	c #4E4037",
"%%	c #41332B",
"&%	c #3C2C24",
"*%	c #2F2017",
"=%	c #312116",
"-%	c #322116",
";%	c #302116",
">%	c #2F2117",
",%	c #2B1E15",
"'%	c #2A1E13",
")%	c #221A11",
"!%	c #2E2318",
"~%	c #36281D",
"{%	c #37291E",
"]%	c #34271C",
"^%	c #32261C",
"/%	c #352719",
"(%	c #493C2F",
"_%	c #B39887",
":%	c #504139",
"<%	c #483C34",
"[%	c #42352E",
"}%	c #3B2D26",
"|%	c #37271E",
"1%	c #332317",
"2%	c #312114",
"3%	c #2A1D13",
"4%	c #2D2116",
"5%	c #33251A",
"6%	c #322419",
"7%	c #312318",
"8%	c #302218",
"9%	c #302217",
"0%	c #2F2015",
"a%	c #332316",
"b%	c #403329",
"c%	c #5D544B",
"d%	c #595048",
"e%	c #4E443A",
"f%	c #473D34",
"g%	c #3C3127",
"h%	c #3D312A",
"i%	c #372B23",
"j%	c #33251E",
"k%	c #2D1E15",
"l%	c #2D1E14",
"m%	c #291D13",
"n%	c #281C11",
"o%	c #221910",
"p%	c #2B1E13",
"q%	c #302014",
"r%	c #2C1E13",
"s%	c #2C1E15",
"t%	c #382D24",
"u%	c #423730",
"v%	c #37271F",
"w%	c #412A1C",
"x%	c #795A42",
"y%	c #423732",
"z%	c #3A2D25",
"A%	c #271A11",
"B%	c #25190E",
"C%	c #20160B",
"D%	c #271D13",
"E%	c #382D25",
"F%	c #534C47",
"G%	c #4F413E",
"H%	c #5E463C",
"I%	c #967A64",
"J%	c #84644D",
"K%	c #6A4933",
"L%	c #543B2A",
"M%	c #CDA382",
"N%	c #C79976",
"O%	c #AA7F60",
"P%	c #CBA98F",
"                                                                                                ",
"                                                                                                ",
"                                                                                                ",
"                                                                                                ",
"                                                                                                ",
"                                                                                                ",
"                                                                                                ",
"                                                                                                ",
"                                                                                                ",
"                                                                                                ",
"                                                                                                ",
"                                                                                                ",
"                                                                                                ",
"                                  . + @ # $ % & * = - & ; > , ' ) ! ~ { ] ^ / ( _ : < [         ",
"                                  } | 1 2 3 3 4 5 6 7 8 9 6 7 7 7 0 0 a b b c d e f g h         ",
"                                  i j ; k l m n 4 4 6 o 5 o 7 7 p q r s t u v w x y z A         ",
"                                  B C D E F G 2 @ @ H I n 4 p 6 6 J K L M u N O P Q R           ",
"                                S T U V j j j | W W X W 4 5 p 6 6 7 Y Z `  ...O , +.@.          ",
"    #.$.%.&.*.=.-.;.;.>.,.'.).!.~.{.].^.C j C j X ; ; 1 @ 4 o 5 6 p p /.r s (._.:.<.[.          ",
"  }.|.1.2.3.4.5.6.7.8.9.0.a.b.c.d.e.f.g.h.i.j.k.C l.| 1 m.@ @ n.o.p.q.r.s.t.u.v.w.x.y.          ",
"  z.A.B.C.6.D.E.E.E.E.F.G.H.I.J.K.L.M.N.O.P.Q.R.S.j.j j T.j U.V.W.X.Y.Z.`. +.+++@+@+#+$+%+%+&+  ",
"  *+=+-+;+>+,+G.G.G.G.G.'+a.)+!+~+{+]+w.M.^+/+(+_+:+<+[+}+|+1+2+3+4+5+6+7+8+9+0+a+b+c+d+e+f+g+h+",
"  i+j+k+l+m+n+o+p+q+b.r+s+t+u+v+w+x+y+z+A+B+C+y D+E+F+G+H+I+J+K+L+M+N+O+P+Q+R+S+T+U+U+R+V+W+X+Y+",
"  Z+`+ @.@+@@@#@$@H.%@6.y+&@*@=@-@;@>@,@'@)@!@~@{@]@^@/@(@_@:@<@[@}@|@1@2@3@Q+W+4@4@Q+Q+4@4@5@6@",
"  7@8@9@0@a@b@c@d@e@f@#+g@h@i@j@k@l@m@n@o@p@q@r@s@t@u@v@w@x@y@z@A@B@C@D@E@F@3@Q+Q+Q+Q+3@Q+W+X+  ",
"  G@H@I@J@K@L@M@N@O@P@Q@R@`.S@T@U@r.V@W@X@Y@Z@`@ #.#+#f@@###$#%#&#*#=#-#;#>#,#'#'#'#'#'#'#4@)#  ",
"  !#~#{#]#^#/#(#_#:#<#[#}#|#1#2#3#@+4#! Y 5#6#7#8#9#0#a#' b#c#d#e#f#g#h#i#;#j#>#>#k#,#k#>#'#l#  ",
"  m#~#{#n#o#p#h#q#r#r#8@`+s#t#u#v#w#w#x#y#z#A#B#C#D#E#F#G#H#I#J#K#L#M#N#O#P#j#j#j#>#,#>#>#k#Q#  ",
"  R#H@S#T#U#V#W#X#Y#Z#Z#`# $.$+$@$#${#$$T#T#%$&$*$=$-$;$>$F@I#,$,$'$)$n#!$~$P#;#P#j#>#j#j#>#{$  ",
"  ]$^$/$($_$^$:$<$[$Z#`#}$}$@$|$I#@$@$@$1${#2$d#3$4$5$6$7$J#|$8$9$0$a$b$c$d$i#~$i#P#P#P#P#j#e$  ",
"  f$g$h$/$i$j$j$k$l$}$}$@$@$I#|$m$I#I#+$n$o$p$q$K#K#K#r$s$t$J#8$9$u$v$/$w$c$!$!$!$!$d$d$~$~$x$  ",
"    y$z$A$B$C$D$U#j$E$E$F$G$F$H$F$I$J$K$p$p$L$M$M$L$L$N$O$8$K#9$P$Q$R$S$T$U$V$W$V$X$Y$Z$w$`$ %  ",
"      .%+%@%        #%$%%%&%l$s$*%=%-%;%>%>%*%t$M$K#,$9$P$9$,$P$,%'%)%!%~%{%{%{%{%~%~%]%^%/%(%  ",
"        _%                    :%<%[%}%|%1%2%;%,$t$t$,$9$P$9$8$,%,%3%)%4%5%5%5%6%7%8%9%0%a%b%c%  ",
"                                        d%e%f%g%$$h%i%j%,$k%l%3%m%n%o%p%q%r%s%/$t%u%v%w%x%      ",
"                                                          y%z%{#A%B%C%D%E%M.F%      G%H%I%      ",
"                                                                J%K%L%[+                        ",
"                                                                M%N%O%                          ",
"                                                                  P%                            ",
"                                                                                                ",
"                                                                                                ",
"                                                                                                ",
"                                                                                                ",
"                                                                                                ",
"                                                                                                ",
"                                                                                                ",
"                                                                                                ",
"                                                                                                "};
