/* XPM */
static char * sofastats_32_xpm[] = {
"32 32 412 2",
"  	c None",
". 	c #695E59",
"+ 	c #5F534B",
"@ 	c #60544C",
"# 	c #61554D",
"$ 	c #62554E",
"% 	c #63564F",
"& 	c #5B5149",
"* 	c #5D534B",
"= 	c #5F534C",
"- 	c #5C524C",
"; 	c #5E564F",
"> 	c #5F5650",
", 	c #5C534D",
"' 	c #534D48",
") 	c #625951",
"! 	c #5D5249",
"~ 	c #60534B",
"{ 	c #62544C",
"] 	c #63564D",
"^ 	c #665950",
"/ 	c #675A51",
"( 	c #65584F",
"_ 	c #685B51",
": 	c #6A5C52",
"< 	c #6B5D52",
"[ 	c #6C5E53",
"} 	c #6C5E54",
"| 	c #6A5E53",
"1 	c #483F38",
"2 	c #5D5553",
"3 	c #5F554C",
"4 	c #5C5149",
"5 	c #5D5149",
"6 	c #5F524A",
"7 	c #61544B",
"8 	c #64574E",
"9 	c #6B5D53",
"0 	c #716358",
"a 	c #75675C",
"b 	c #77695E",
"c 	c #73675C",
"d 	c #463D36",
"e 	c #615752",
"f 	c #5C514A",
"g 	c #5A4F48",
"h 	c #5B5048",
"i 	c #5C5148",
"j 	c #5F544B",
"k 	c #60544B",
"l 	c #60554C",
"m 	c #62554C",
"n 	c #695C52",
"o 	c #6E6157",
"p 	c #73655A",
"q 	c #786A5F",
"r 	c #716559",
"s 	c #433932",
"t 	c #655C57",
"u 	c #948984",
"v 	c #635A56",
"w 	c #594E48",
"x 	c #584D46",
"y 	c #5A5047",
"z 	c #5C5249",
"A 	c #5D534A",
"B 	c #5E534A",
"C 	c #6A5D54",
"D 	c #77695D",
"E 	c #685D51",
"F 	c #423932",
"G 	c #716662",
"H 	c #6F635B",
"I 	c #4E453F",
"J 	c #2F2A27",
"K 	c #2E2825",
"L 	c #2C2623",
"M 	c #2A2421",
"N 	c #26221E",
"O 	c #231F1C",
"P 	c #342D28",
"Q 	c #524741",
"R 	c #564B44",
"S 	c #584E45",
"T 	c #594F46",
"U 	c #5B5148",
"V 	c #61554C",
"W 	c #665951",
"X 	c #685B53",
"Y 	c #6F6157",
"Z 	c #73665C",
"` 	c #3C332D",
" .	c #4E4748",
"..	c #463F3D",
"+.	c #2A2521",
"@.	c #191613",
"#.	c #1A1613",
"$.	c #191513",
"%.	c #181411",
"&.	c #15110E",
"*.	c #110F0C",
"=.	c #1E1B15",
"-.	c #423A33",
";.	c #4E443D",
">.	c #564C45",
",.	c #564D45",
"'.	c #594F47",
").	c #5C5248",
"!.	c #635850",
"~.	c #716560",
"{.	c #796E6A",
"].	c #776B67",
"^.	c #71645D",
"/.	c #6A5E57",
"(.	c #504641",
"_.	c #756B66",
":.	c #7A706A",
"<.	c #3A3332",
"[.	c #312A27",
"}.	c #211B19",
"|.	c #15120E",
"1.	c #16120F",
"2.	c #130F0C",
"3.	c #100D0A",
"4.	c #181510",
"5.	c #342D27",
"6.	c #423A34",
"7.	c #4A413A",
"8.	c #4F463F",
"9.	c #514841",
"0.	c #564C43",
"a.	c #574D45",
"b.	c #6E6259",
"c.	c #71645A",
"d.	c #6B5E55",
"e.	c #4F443E",
"f.	c #50433B",
"g.	c #52463E",
"h.	c #4F453E",
"i.	c #4D433C",
"j.	c #50453E",
"k.	c #4E433A",
"l.	c #524941",
"m.	c #38302B",
"n.	c #302723",
"o.	c #1F1A17",
"p.	c #12100D",
"q.	c #110E0C",
"r.	c #110D0B",
"s.	c #100C09",
"t.	c #0D0B07",
"u.	c #13110C",
"v.	c #241F1B",
"w.	c #2F2A25",
"x.	c #37322B",
"y.	c #3F3832",
"z.	c #463D37",
"A.	c #4C423A",
"B.	c #50463D",
"C.	c #514741",
"D.	c #5E544E",
"E.	c #6F6458",
"F.	c #74685B",
"G.	c #483E36",
"H.	c #483C33",
"I.	c #4B3F36",
"J.	c #4B4038",
"K.	c #493E36",
"L.	c #4A3F36",
"M.	c #4A3E36",
"N.	c #4F443A",
"O.	c #3C312B",
"P.	c #312722",
"Q.	c #1A1611",
"R.	c #0E0D09",
"S.	c #120F0D",
"T.	c #191512",
"U.	c #221D1A",
"V.	c #2E2824",
"W.	c #362F2B",
"X.	c #352D2A",
"Y.	c #2F2722",
"Z.	c #2B241F",
"`.	c #28221D",
" +	c #29241E",
".+	c #2D2721",
"++	c #322B26",
"@+	c #362F29",
"#+	c #3A322E",
"$+	c #352D2C",
"%+	c #332B28",
"&+	c #3A302C",
"*+	c #382E28",
"=+	c #473A32",
"-+	c #4A3D35",
";+	c #4B3E36",
">+	c #493C34",
",+	c #52463D",
"'+	c #3C2F28",
")+	c #30251F",
"!+	c #201C18",
"~+	c #241F1A",
"{+	c #352E28",
"]+	c #4E433D",
"^+	c #61564F",
"/+	c #71645E",
"(+	c #7D7069",
"_+	c #7A6C65",
":+	c #665953",
"<+	c #584C46",
"[+	c #473D38",
"}+	c #413934",
"|+	c #3B342E",
"1+	c #362E28",
"2+	c #352C27",
"3+	c #322724",
"4+	c #2D231E",
"5+	c #2D231D",
"6+	c #362B26",
"7+	c #453830",
"8+	c #483B33",
"9+	c #51453D",
"0+	c #403129",
"a+	c #352821",
"b+	c #3B3534",
"c+	c #433D3D",
"d+	c #463F3E",
"e+	c #4D4442",
"f+	c #554B47",
"g+	c #5E534D",
"h+	c #655A52",
"i+	c #6B5F57",
"j+	c #6F6159",
"k+	c #706159",
"l+	c #6F6057",
"m+	c #6A5D56",
"n+	c #655A53",
"o+	c #5E544C",
"p+	c #584E48",
"q+	c #342923",
"r+	c #30241D",
"s+	c #2E231B",
"t+	c #352A22",
"u+	c #43362D",
"v+	c #463930",
"w+	c #473A31",
"x+	c #483B32",
"y+	c #53473E",
"z+	c #3F2F27",
"A+	c #35271E",
"B+	c #3A2D27",
"C+	c #382C29",
"D+	c #372D2A",
"E+	c #382F2B",
"F+	c #3C3431",
"G+	c #413836",
"H+	c #493F3B",
"I+	c #5D514A",
"J+	c #655951",
"K+	c #6C5F57",
"L+	c #6C6056",
"M+	c #5C4F48",
"N+	c #362921",
"O+	c #31241C",
"P+	c #2D221A",
"Q+	c #332820",
"R+	c #41342A",
"S+	c #44372E",
"T+	c #45382F",
"U+	c #50443B",
"V+	c #413229",
"W+	c #32261E",
"X+	c #382B21",
"Y+	c #392A22",
"Z+	c #382A22",
"`+	c #372922",
" @	c #352921",
".@	c #332720",
"+@	c #332821",
"@@	c #342922",
"#@	c #362C27",
"$@	c #39302B",
"%@	c #413833",
"&@	c #4B413C",
"*@	c #5B4E46",
"=@	c #382B22",
"-@	c #30231A",
";@	c #2C2118",
">@	c #32271F",
",@	c #403229",
"'@	c #3E3026",
")@	c #32251D",
"!@	c #382A21",
"~@	c #392920",
"{@	c #392820",
"]@	c #382920",
"^@	c #36281F",
"/@	c #34261D",
"(@	c #33271E",
"_@	c #31251E",
":@	c #2F2520",
"<@	c #312723",
"[@	c #352A24",
"}@	c #32241B",
"|@	c #2F2219",
"1@	c #2A1F17",
"2@	c #30251D",
"3@	c #3E3128",
"4@	c #40332A",
"5@	c #41342B",
"6@	c #51453C",
"7@	c #423026",
"8@	c #33251B",
"9@	c #37281F",
"0@	c #38271E",
"a@	c #37271E",
"b@	c #36271F",
"c@	c #33251C",
"d@	c #33261C",
"e@	c #31241B",
"f@	c #31231B",
"g@	c #30231B",
"h@	c #2E221A",
"i@	c #2E2119",
"j@	c #2D2017",
"k@	c #291E16",
"l@	c #2F241B",
"m@	c #3C2F26",
"n@	c #3F3229",
"o@	c #4D4239",
"p@	c #4B3A2F",
"q@	c #5D4738",
"r@	c #3F2D22",
"s@	c #3B2B21",
"t@	c #37271D",
"u@	c #34241B",
"v@	c #33241B",
"w@	c #322319",
"x@	c #322419",
"y@	c #31241A",
"z@	c #302319",
"A@	c #302219",
"B@	c #2E2117",
"C@	c #2E2017",
"D@	c #2D2016",
"E@	c #291E14",
"F@	c #2D2219",
"G@	c #392C21",
"H@	c #3B2E24",
"I@	c #3C2E24",
"J@	c #3C2E25",
"K@	c #493C33",
"L@	c #C0977C",
"M@	c #816352",
"N@	c #554A42",
"O@	c #4E3F35",
"P@	c #44342B",
"Q@	c #3C2B23",
"R@	c #312219",
"S@	c #322318",
"T@	c #312218",
"U@	c #2F2217",
"V@	c #2F2117",
"W@	c #2E2118",
"X@	c #2C1F15",
"Y@	c #271D13",
"Z@	c #2B2016",
"`@	c #37291D",
" #	c #382A1F",
".#	c #37291E",
"+#	c #36281D",
"@#	c #34271B",
"##	c #44372A",
"$#	c #483931",
"%#	c #40332D",
"&#	c #3D2E25",
"*#	c #36281C",
"=#	c #312318",
"-#	c #2F2118",
";#	c #2D1F16",
">#	c #2B1E14",
",#	c #271C12",
"'#	c #2A1F15",
")#	c #33251A",
"!#	c #302218",
"~#	c #2F2015",
"{#	c #403023",
"]#	c #4F463E",
"^#	c #453B34",
"/#	c #3C3029",
"(#	c #352820",
"_#	c #2D1E14",
":#	c #2A1D13",
"<#	c #271B10",
"[#	c #291C11",
"}#	c #2F1F14",
"|#	c #392E25",
"1#	c #3E332C",
"2#	c #463125",
"3#	c #7A5C46",
"4#	c #3C2E27",
"5#	c #3D2D24",
"6#	c #2F1F12",
"7#	c #30251B",
"8#	c #433931",
"9#	c #514A44",
"0#	c #604B43",
"a#	c #A58168",
"b#	c #906A4F",
"c#	c #755B4A",
"d#	c #D0A989",
"e#	c #C09776",
"                                                                ",
"                                                                ",
"                                                                ",
"                                                                ",
"                                                                ",
"                                                                ",
"                                                                ",
"                      . + @ # $ % # & * # = - ; > , '           ",
"                      ) ! ~ { ] ^ / ( ^ _ : < [ } | 1 2         ",
"                      3 4 5 6 7 ] 8 ] ^ ^ 9 0 a b c d e         ",
"                      f g h i j k l m ( ( n o p q r s t         ",
"      u             v w x y y z A B m ( ( / C 0 D E F           ",
"  G H I J K L M N O P Q R S T y U ! 7 V W X C Y Z y `           ",
"   ...+.@.#.$.%.&.*.=.-.;.Q >.,.'.U ).!.~.{.].^./.w (._.:.      ",
"  <.[.}.|.1.1.&.2.3.4.5.6.7.8.9.0.a.y b.c.d.e.f.g.h.i.j.k.l.    ",
"  m.n.o.p.*.q.r.s.t.u.v.w.x.y.z.A.B.C.D.E.F.G.H.I.J.K.L.M.N.    ",
"  O.P.Q.R.S.T.U.V.W.X.Y.Z.`. +.+++@+#+$+%+&+*+=+-+;+-+>+-+,+    ",
"  '+)+!+~+{+]+^+/+(+_+:+<+;.[+}+|+1+2+3+4+5+6+7+8+>+>+8+>+9+    ",
"  0+a+b+c+d+e+f+g+h+i+j+k+l+m+n+o+p+]+q+r+s+t+u+v+w+w+=+x+y+    ",
"  z+A+B+C+D+D+E+#+F+G+H+C.I+J+K+L+d.M+N+O+P+Q+R+S+T+v+v+v+U+    ",
"  V+W+X+Y+Z+`+N+ @.@.@+@@@#@$@%@&@4 *@=@-@;@>@,@u+u+T+T+S+f.    ",
"  '@)@!@~@{@]@^@A+/@/@/@/@(@_@)+:@<@[@}@|@1@2@3@4@5@u+u+u+6@    ",
"  7@8@9@0@a@b@A+/@c@c@c@d@d@e@f@g@h@i@-@j@k@l@m@3@n@n@4@5@o@    ",
"  p@q@r@s@t@u@u@v@w@w@x@e@y@z@A@z@B@C@|@D@E@F@G@H@I@H@J@m@K@    ",
"    L@M@  N@O@P@Q@v@R@S@T@U@V@A@-@j@j@W@X@Y@Z@`@ #.#.#+#@###    ",
"                    $#%#&#*#=#-#-#j@;#j@>#,#'#)#x@=#!#~#{#      ",
"                            ]#^#/#(#W@_#:#<#[#}#W@|#1#2#3#      ",
"                                      4#5#6#7#8#9#    0#        ",
"                                        a#b#c#                  ",
"                                        d#e#                    ",
"                                                                ",
"                                                                "};
