/* XPM */
static char * sofa_14x14_xpm[] = {
"14 14 80 1",
" 	c None",
".	c #20201D",
"+	c #20201C",
"@	c #1F1F1C",
"#	c #1F201C",
"$	c #201F1C",
"%	c #1F201D",
"&	c #1F1F1D",
"*	c #1B1C1B",
"=	c #1B1C1A",
"-	c #1A1C1B",
";	c #1C1C1A",
">	c #2A2826",
",	c #63584F",
"'	c #5D534B",
")	c #5E544B",
"!	c #5E544A",
"~	c #5D544D",
"{	c #524A43",
"]	c #16191A",
"^	c #1C1C19",
"/	c #1B1C19",
"(	c #191919",
"_	c #2F2B29",
":	c #A9937F",
"<	c #A08B78",
"[	c #917F6E",
"}	c #3E3936",
"|	c #423C37",
"1	c #4D4640",
"2	c #453F38",
"3	c #212120",
"4	c #7E6C65",
"5	c #8A7969",
"6	c #9C8876",
"7	c #9B8775",
"8	c #998574",
"9	c #917E6E",
"0	c #948170",
"a	c #988573",
"b	c #272625",
"c	c #75695D",
"d	c #9D8976",
"e	c #9A8674",
"f	c #A38D7A",
"g	c #252527",
"h	c #5E524B",
"i	c #9F8A77",
"j	c #262527",
"k	c #393733",
"l	c #998674",
"m	c #9C8875",
"n	c #927F6F",
"o	c #897869",
"p	c #867566",
"q	c #867667",
"r	c #8C7A6B",
"s	c #252423",
"t	c #222120",
"u	c #75675A",
"v	c #635850",
"w	c #8D7B6C",
"x	c #857566",
"y	c #74665A",
"z	c #655A51",
"A	c #463F3B",
"B	c #242321",
"C	c #161818",
"D	c #171919",
"E	c #171819",
"F	c #20201F",
"G	c #181917",
"H	c #161817",
"I	c #3F3A35",
"J	c #35322C",
"K	c #181919",
"L	c #191A18",
"M	c #1E1F1C",
"N	c #1D1D1A",
"O	c #1D1E1B",
"..............",
"+@@@@@@@#$%...",
".&*====-;.$...",
"@>,')!!~{]^/;@",
"(_:<<<<<[}|123",
"456777778990ab",
"cde7777e7777fg",
"hi7e7e777777fj",
"kflmmdlnopqqrs",
"tuvwxyzABCDDEF",
"@GHIJKL/M+@@@@",
"...NO@@.......",
"..............",
".............."};
