/* XPM */
static char * sofastats_48_xpm[] = {
"48 48 797 2",
"  	c None",
". 	c #685D57",
"+ 	c #61564E",
"@ 	c #60554D",
"# 	c #62564E",
"$ 	c #62574F",
"% 	c #625650",
"& 	c #61554F",
"* 	c #60544E",
"= 	c #595049",
"- 	c #5C534C",
"; 	c #5F554F",
"> 	c #615852",
", 	c #665E56",
"' 	c #625A55",
") 	c #5F5752",
"! 	c #625955",
"~ 	c #645D59",
"{ 	c #6A6560",
"] 	c #6A6561",
"^ 	c #615B58",
"/ 	c #66605E",
"( 	c #6A6662",
"_ 	c #716861",
": 	c #5D5149",
"< 	c #5E5249",
"[ 	c #60524A",
"} 	c #62544C",
"| 	c #61544B",
"1 	c #63554D",
"2 	c #665850",
"3 	c #65574F",
"4 	c #5F544A",
"5 	c #60544A",
"6 	c #5F5349",
"7 	c #605349",
"8 	c #61544A",
"9 	c #60534A",
"0 	c #5D5048",
"a 	c #5C4F46",
"b 	c #5B4F46",
"c 	c #5B5047",
"d 	c #5A4E47",
"e 	c #594E47",
"f 	c #473F39",
"g 	c #423A36",
"h 	c #78726E",
"i 	c #6C635D",
"j 	c #5B5148",
"k 	c #5D5249",
"l 	c #5F534A",
"m 	c #61544C",
"n 	c #62554C",
"o 	c #63564D",
"p 	c #65584F",
"q 	c #675A51",
"r 	c #685B52",
"s 	c #6B5D53",
"t 	c #6C5E53",
"u 	c #6D5F54",
"v 	c #6E6055",
"w 	c #6D6055",
"x 	c #6C6156",
"y 	c #4A4139",
"z 	c #3F3632",
"A 	c #797270",
"B 	c #645B54",
"C 	c #5A5047",
"D 	c #5C5249",
"E 	c #5E524A",
"F 	c #5E5149",
"G 	c #5F524A",
"H 	c #64574E",
"I 	c #665950",
"J 	c #726459",
"K 	c #75675C",
"L 	c #786A5F",
"M 	c #776A5F",
"N 	c #72685C",
"O 	c #453C35",
"P 	c #7B716F",
"Q 	c #61574E",
"R 	c #594F46",
"S 	c #5C5148",
"T 	c #5C4F47",
"U 	c #5E5148",
"V 	c #695C51",
"W 	c #716358",
"X 	c #74665B",
"Y 	c #76685D",
"Z 	c #77695E",
"` 	c #796C60",
" .	c #6E6458",
"..	c #3D342E",
"+.	c #4A413A",
"@.	c #5D524C",
"#.	c #594F47",
"$.	c #5A4F48",
"%.	c #5B5048",
"&.	c #5F544B",
"*.	c #60554C",
"=.	c #685B51",
"-.	c #6B5E54",
";.	c #6F6258",
">.	c #786A5E",
",.	c #7D6E61",
"'.	c #695F54",
").	c #39312A",
"!.	c #50463E",
"~.	c #6F6461",
"{.	c #5B4F4A",
"].	c #594E48",
"^.	c #584D47",
"/.	c #5E544B",
"(.	c #5D534A",
"_.	c #6C5F56",
":.	c #706257",
"<.	c #7C6E60",
"[.	c #383029",
"}.	c #584C46",
"|.	c #928782",
"1.	c #958680",
"2.	c #93837D",
"3.	c #786C68",
"4.	c #625855",
"5.	c #554D49",
"6.	c #5A504D",
"7.	c #574F4B",
"8.	c #584F4B",
"9.	c #5A514D",
"0.	c #5A534E",
"a.	c #5D5753",
"b.	c #5E5855",
"c.	c #554F4D",
"d.	c #5A504C",
"e.	c #584B46",
"f.	c #574C46",
"g.	c #564B45",
"h.	c #60544B",
"i.	c #6A5D53",
"j.	c #75685D",
"k.	c #786B5E",
"l.	c #524941",
"m.	c #38302A",
"n.	c #584D46",
"o.	c #726A66",
"p.	c #6B5F57",
"q.	c #6A5E55",
"r.	c #60544C",
"s.	c #372F2B",
"t.	c #282321",
"u.	c #27211F",
"v.	c #26201E",
"w.	c #241F1C",
"x.	c #221C1A",
"y.	c #201A18",
"z.	c #1C1815",
"A.	c #181411",
"B.	c #171311",
"C.	c #13100C",
"D.	c #332C25",
"E.	c #50453E",
"F.	c #554A43",
"G.	c #564B44",
"H.	c #574D44",
"I.	c #584E45",
"J.	c #61554C",
"K.	c #655850",
"L.	c #73675C",
"M.	c #72675C",
"N.	c #433C35",
"O.	c #332C26",
"P.	c #564A45",
"Q.	c #5A5255",
"R.	c #4E4848",
"S.	c #4F4946",
"T.	c #47403C",
"U.	c #231E1B",
"V.	c #191714",
"W.	c #1B1714",
"X.	c #1B1614",
"Y.	c #1A1613",
"Z.	c #191512",
"`.	c #161310",
" +	c #14110E",
".+	c #13100D",
"++	c #0F0D09",
"@+	c #24201A",
"#+	c #423932",
"$+	c #4D443C",
"%+	c #51473F",
"&+	c #524841",
"*+	c #574D46",
"=+	c #574E46",
"-+	c #5E5349",
";+	c #5E534A",
">+	c #6E625C",
",+	c #7B6F6C",
"'+	c #817572",
")+	c #817571",
"!+	c #7F726D",
"~+	c #786B64",
"{+	c #72655E",
"]+	c #6E615B",
"^+	c #665A54",
"/+	c #453C37",
"(+	c #3D332E",
"_+	c #615651",
":+	c #978E8A",
"<+	c #494245",
"[+	c #3F393A",
"}+	c #393332",
"|+	c #312A28",
"1+	c #1D1815",
"2+	c #171310",
"3+	c #15110E",
"4+	c #14100D",
"5+	c #0D0B08",
"6+	c #1D1A15",
"7+	c #352D27",
"8+	c #443B34",
"9+	c #4D433D",
"0+	c #524741",
"a+	c #534943",
"b+	c #544B44",
"c+	c #584E46",
"d+	c #5A5046",
"e+	c #62574E",
"f+	c #685C55",
"g+	c #675B56",
"h+	c #6B5F5A",
"i+	c #6E635F",
"j+	c #665B56",
"k+	c #645751",
"l+	c #645750",
"m+	c #61554E",
"n+	c #5B504A",
"o+	c #574C47",
"p+	c #5F544E",
"q+	c #655A54",
"r+	c #5F564E",
"s+	c #5E554D",
"t+	c #635C56",
"u+	c #413837",
"v+	c #332B29",
"w+	c #2F2824",
"x+	c #2D2623",
"y+	c #14110D",
"z+	c #130F0C",
"A+	c #120E0B",
"B+	c #110E0B",
"C+	c #0C0A07",
"D+	c #1B1712",
"E+	c #2D2620",
"F+	c #3A322C",
"G+	c #413933",
"H+	c #473E37",
"I+	c #4C433C",
"J+	c #4E453E",
"K+	c #504740",
"L+	c #514841",
"M+	c #554B43",
"N+	c #574D45",
"O+	c #5E534B",
"P+	c #776C63",
"Q+	c #786B61",
"R+	c #716458",
"S+	c #6C5F54",
"T+	c #403730",
"U+	c #4A3E36",
"V+	c #4E4139",
"W+	c #4F433B",
"X+	c #4D433B",
"Y+	c #4C413A",
"Z+	c #4A3F38",
"`+	c #4B4039",
" @	c #4D423A",
".@	c #4B4037",
"+@	c #4C4037",
"@@	c #4C4138",
"#@	c #6D6761",
"$@	c #413734",
"%@	c #332A26",
"&@	c #302721",
"*@	c #2D2522",
"=@	c #120F0C",
"-@	c #110D0A",
";@	c #100C09",
">@	c #0F0C09",
",@	c #0B0A06",
"'@	c #17140F",
")@	c #241F1A",
"!@	c #2E2824",
"~@	c #342E2A",
"{@	c #3A342D",
"]@	c #403931",
"^@	c #443C35",
"/@	c #483F38",
"(@	c #4A413B",
"_@	c #4E453C",
":@	c #51473E",
"<@	c #534940",
"[@	c #534841",
"}@	c #554B45",
"|@	c #685D56",
"1@	c #7C6F63",
"2@	c #857969",
"3@	c #8C7E6F",
"4@	c #3B322A",
"5@	c #473B33",
"6@	c #4A3D35",
"7@	c #4B3F37",
"8@	c #4C4139",
"9@	c #4B4138",
"0@	c #483E35",
"a@	c #493E36",
"b@	c #4A3D36",
"c@	c #4B3E36",
"d@	c #4E4138",
"e@	c #6B625C",
"f@	c #443A35",
"g@	c #332A25",
"h@	c #312822",
"i@	c #2D2421",
"j@	c #171410",
"k@	c #10100C",
"l@	c #0F0E0D",
"m@	c #0F0D0C",
"n@	c #0F0D0B",
"o@	c #0E0C0A",
"p@	c #0F0B08",
"q@	c #0D0B07",
"r@	c #1A1612",
"s@	c #211C17",
"t@	c #25201C",
"u@	c #28231E",
"v@	c #2C2822",
"w@	c #322D27",
"x@	c #39312B",
"y@	c #3D3630",
"z@	c #423A33",
"A@	c #453C34",
"B@	c #4A4038",
"C@	c #4C423B",
"D@	c #48413F",
"E@	c #3F3938",
"F@	c #443D38",
"G@	c #4D463E",
"H@	c #5E544A",
"I@	c #3A3029",
"J@	c #473A32",
"K@	c #493C34",
"L@	c #4A3E35",
"M@	c #4C3F37",
"N@	c #4B3F36",
"O@	c #4F423A",
"P@	c #70675F",
"Q@	c #342A24",
"R@	c #322722",
"S@	c #2A211E",
"T@	c #110F0A",
"U@	c #0D0C07",
"V@	c #0E0C09",
"W@	c #120E0C",
"X@	c #181310",
"Y@	c #1D1714",
"Z@	c #251F1C",
"`@	c #302925",
" #	c #3A332E",
".#	c #453B38",
"+#	c #362E29",
"@#	c #312924",
"##	c #2D251F",
"$#	c #28221C",
"%#	c #251F19",
"&#	c #28231D",
"*#	c #2B2620",
"=#	c #2D2722",
"-#	c #312B26",
";#	c #352E29",
">#	c #38302D",
",#	c #322928",
"'#	c #2E2525",
")#	c #2C2421",
"!#	c #2F2522",
"~#	c #2F2624",
"{#	c #3A2F29",
"]#	c #463931",
"^#	c #483B33",
"/#	c #50433B",
"(#	c #6F675F",
"_#	c #433831",
":#	c #362A23",
"<#	c #322720",
"[#	c #251E1A",
"}#	c #17120E",
"|#	c #1E1913",
"1#	c #2E2621",
"2#	c #413833",
"3#	c #504640",
"4#	c #5E544E",
"5#	c #6C605A",
"6#	c #776B64",
"7#	c #7F726B",
"8#	c #83756F",
"9#	c #776963",
"0#	c #574B45",
"a#	c #4F443E",
"b#	c #483E38",
"c#	c #433933",
"d#	c #3F3630",
"e#	c #37302B",
"f#	c #342D28",
"g#	c #2F2923",
"h#	c #2C2520",
"i#	c #29231E",
"j#	c #312722",
"k#	c #322724",
"l#	c #2E2422",
"m#	c #2C231E",
"n#	c #2D221E",
"o#	c #2C2320",
"p#	c #392D28",
"q#	c #44372F",
"r#	c #51443B",
"s#	c #473B34",
"t#	c #372A22",
"u#	c #33261F",
"v#	c #2D2622",
"w#	c #33302E",
"x#	c #3F3936",
"y#	c #423B36",
"z#	c #4A413D",
"A#	c #60534D",
"B#	c #665953",
"C#	c #6D5F57",
"D#	c #71625B",
"E#	c #776861",
"F#	c #7D7067",
"G#	c #7C6F66",
"H#	c #786A63",
"I#	c #73655D",
"J#	c #6E6059",
"K#	c #695C55",
"L#	c #655851",
"M#	c #5B4F4B",
"N#	c #574B47",
"O#	c #524840",
"P#	c #4D443B",
"Q#	c #494038",
"R#	c #463C35",
"S#	c #3E342E",
"T#	c #322723",
"U#	c #2F251E",
"V#	c #2E241B",
"W#	c #2F251A",
"X#	c #2B231C",
"Y#	c #382D26",
"Z#	c #43362E",
"`#	c #453830",
" $	c #483B32",
".$	c #52453D",
"+$	c #4E3E38",
"@$	c #392A21",
"#$	c #33261D",
"$$	c #382E2B",
"%$	c #423D3F",
"&$	c #433C3F",
"*$	c #433C3D",
"=$	c #443D3D",
"-$	c #463E3E",
";$	c #484140",
">$	c #4C4543",
",$	c #544B46",
"'$	c #5A504B",
")$	c #655A52",
"!$	c #6B5E56",
"~$	c #6E5F57",
"{$	c #6F6158",
"]$	c #706258",
"^$	c #706158",
"/$	c #6D6057",
"($	c #6C6058",
"_$	c #6A5E56",
":$	c #655A51",
"<$	c #60564F",
"[$	c #5E534E",
"}$	c #483D37",
"|$	c #332721",
"1$	c #31251E",
"2$	c #30241D",
"3$	c #30241B",
"4$	c #2A211A",
"5$	c #382C24",
"6$	c #41342B",
"7$	c #44372E",
"8$	c #463930",
"9$	c #473A31",
"0$	c #493C33",
"a$	c #51463D",
"b$	c #473730",
"c$	c #392A22",
"d$	c #372A23",
"e$	c #392E29",
"f$	c #372B29",
"g$	c #362C2B",
"h$	c #372D2B",
"i$	c #362D2A",
"j$	c #382F2D",
"k$	c #39312E",
"l$	c #3C3532",
"m$	c #3F3735",
"n$	c #413836",
"o$	c #473E3D",
"p$	c #4E4440",
"q$	c #524944",
"r$	c #5A504A",
"s$	c #64584F",
"t$	c #6A5E53",
"u$	c #70635A",
"v$	c #71635A",
"w$	c #695B53",
"x$	c #63574F",
"y$	c #33271F",
"z$	c #31241D",
"A$	c #30231C",
"B$	c #30231B",
"C$	c #282019",
"D$	c #372B23",
"E$	c #3F3229",
"F$	c #43362D",
"G$	c #45382F",
"H$	c #51453B",
"I$	c #4E3F37",
"J$	c #352920",
"K$	c #3C2C23",
"L$	c #382A23",
"M$	c #372B24",
"N$	c #362A24",
"O$	c #342A25",
"P$	c #332925",
"Q$	c #312724",
"R$	c #352B27",
"S$	c #352C27",
"T$	c #382F2A",
"U$	c #3E3532",
"V$	c #433937",
"W$	c #4B403C",
"X$	c #5E534C",
"Y$	c #665B52",
"Z$	c #716559",
"`$	c #756A5C",
" %	c #72655B",
".%	c #574941",
"+%	c #34261D",
"@%	c #31241B",
"#%	c #30231A",
"$%	c #2F2319",
"%%	c #271F18",
"&%	c #362A21",
"*%	c #3F3228",
"=%	c #42352C",
"-%	c #53483F",
";%	c #4E3E36",
">%	c #32261D",
",%	c #32271F",
"'%	c #3C2C22",
")%	c #392921",
"!%	c #382A21",
"~%	c #372921",
"{%	c #362820",
"]%	c #352820",
"^%	c #34271E",
"/%	c #34271F",
"(%	c #33261E",
"_%	c #32261F",
":%	c #322921",
"<%	c #322922",
"[%	c #322923",
"}%	c #332B26",
"|%	c #352D29",
"1%	c #392F2D",
"2%	c #423935",
"3%	c #4F4540",
"4%	c #52443C",
"5%	c #302319",
"6%	c #2F2219",
"7%	c #261E17",
"8%	c #3E3128",
"9%	c #50443B",
"0%	c #493B32",
"a%	c #382920",
"b%	c #32251D",
"c%	c #3B2C23",
"d%	c #3A291F",
"e%	c #3A2921",
"f%	c #392820",
"g%	c #372920",
"h%	c #36281F",
"i%	c #35271E",
"j%	c #34271D",
"k%	c #33251C",
"l%	c #30251F",
"m%	c #2E2420",
"n%	c #302623",
"o%	c #302724",
"p%	c #322925",
"q%	c #362A22",
"r%	c #33251B",
"s%	c #2E2118",
"t%	c #261D16",
"u%	c #33281F",
"v%	c #3D3027",
"w%	c #40332A",
"x%	c #52463E",
"y%	c #53443A",
"z%	c #39281E",
"A%	c #32251C",
"B%	c #33251D",
"C%	c #3A2B22",
"D%	c #38271F",
"E%	c #37281F",
"F%	c #32241B",
"G%	c #31251C",
"H%	c #31241C",
"I%	c #30241C",
"J%	c #2F241C",
"K%	c #2F241D",
"L%	c #2D231C",
"M%	c #2C211B",
"N%	c #2D2017",
"O%	c #2C2016",
"P%	c #251C15",
"Q%	c #32271E",
"R%	c #3C2F26",
"S%	c #554A41",
"T%	c #524135",
"U%	c #3A281C",
"V%	c #34241A",
"W%	c #382A20",
"X%	c #38271E",
"Y%	c #37261E",
"Z%	c #35261E",
"`%	c #33241B",
" &	c #33261C",
".&	c #33261B",
"+&	c #32261B",
"@&	c #31241A",
"#&	c #31231A",
"$&	c #2E2218",
"%&	c #2E2017",
"&&	c #2F2118",
"*&	c #2B1F16",
"=&	c #241C15",
"-&	c #3B2D24",
";&	c #4D4139",
">&	c #4B3A2F",
",&	c #4D392B",
"'&	c #3A281E",
")&	c #38281E",
"!&	c #37271C",
"~&	c #37251B",
"{&	c #36241A",
"]&	c #34241B",
"^&	c #34251D",
"/&	c #33241A",
"(&	c #322218",
"_&	c #332319",
":&	c #322319",
"<&	c #31251A",
"[&	c #302219",
"}&	c #2E2117",
"|&	c #2E2016",
"1&	c #2C1F16",
"2&	c #2B1F15",
"3&	c #231B13",
"4&	c #30241A",
"5&	c #392B21",
"6&	c #3B2D23",
"7&	c #3C2E24",
"8&	c #3D2F25",
"9&	c #3C2F25",
"0&	c #3D2F26",
"a&	c #4E423A",
"b&	c #B28F75",
"c&	c #815E4A",
"d&	c #5F4A3F",
"e&	c #54463E",
"f&	c #4B3E34",
"g&	c #46382F",
"h&	c #3D2D23",
"i&	c #38251B",
"j&	c #352318",
"k&	c #332218",
"l&	c #322219",
"m&	c #322318",
"n&	c #2B1F14",
"o&	c #231A12",
"p&	c #2F2318",
"q&	c #37291E",
"r&	c #392B20",
"s&	c #3A2C21",
"t&	c #392C21",
"u&	c #372A21",
"v&	c #392B1F",
"w&	c #4B3E33",
"x&	c #DEB294",
"y&	c #AE8267",
"z&	c #7E6355",
"A&	c #63564B",
"B&	c #55483F",
"C&	c #3E2F27",
"D&	c #36271F",
"E&	c #312219",
"F&	c #332217",
"G&	c #312116",
"H&	c #2F2116",
"I&	c #2F2016",
"J&	c #2B1E15",
"K&	c #2A1E13",
"L&	c #221A11",
"M&	c #2D2217",
"N&	c #35271C",
"O&	c #36281D",
"P&	c #332517",
"Q&	c #493C2F",
"R&	c #B29786",
"S&	c #4F4038",
"T&	c #42352E",
"U&	c #3B2D26",
"V&	c #37271E",
"W&	c #322216",
"X&	c #302013",
"Y&	c #2F2015",
"Z&	c #2A1D13",
"`&	c #2C2116",
" *	c #33251A",
".*	c #322419",
"+*	c #312318",
"@*	c #302218",
"#*	c #302217",
"$*	c #312114",
"%*	c #3D3026",
"&*	c #5B5249",
"**	c #4B4136",
"=*	c #453A31",
"-*	c #3B3026",
";*	c #2E1F16",
">*	c #2C1E14",
",*	c #2B1E14",
"'*	c #291C11",
")*	c #211911",
"!*	c #322317",
"~*	c #2E1F14",
"{*	c #2C1F14",
"]*	c #362316",
"^*	c #644934",
"/*	c #463D37",
"(*	c #3A302B",
"_*	c #342822",
":*	c #2F2119",
"<*	c #2D1D13",
"[*	c #2B1D12",
"}*	c #281D14",
"|*	c #281C11",
"1*	c #24180D",
"2*	c #2B1D10",
"3*	c #2E1E12",
"4*	c #2B1D13",
"5*	c #2E221A",
"6*	c #392F28",
"7*	c #4A433C",
"8*	c #5E5853",
"9*	c #483A34",
"0*	c #4C3225",
"a*	c #8E6C52",
"b*	c #483E39",
"c*	c #3F322B",
"d*	c #2A1C11",
"e*	c #23180D",
"f*	c #292017",
"g*	c #4C453E",
"h*	c #5D5853",
"i*	c #4F4340",
"j*	c #5E4740",
"k*	c #947A66",
"l*	c #81624C",
"m*	c #694832",
"n*	c #523928",
"o*	c #554A42",
"p*	c #C29979",
"q*	c #BC8F6E",
"r*	c #A07759",
"s*	c #D2AA88",
"t*	c #CDA17E",
"u*	c #AD8363",
"v*	c #C9AB94",
"                                                                                                ",
"                                                                                                ",
"                                                                                                ",
"                                                                                                ",
"                                                                                                ",
"                                                                                                ",
"                                                                                                ",
"                                                                                                ",
"                                                                                                ",
"                                    . + @ # $ % % % & * = - ; > , ' ) ! ~ { ] ^ / (             ",
"                                  _ : < [ } | } 1 2 2 3 4 5 6 7 8 9 0 a b c c d e f g h         ",
"                                  i j k l m m n o p q r p p r r r s t u v v v w x y z A         ",
"                                  B C D E F G | n n p p o H q q I s v J K K L M N O O P         ",
"                                  Q R S 0 T U 9 | | o n | n I I p V u W X Y Z `  ...+.          ",
"                                  @.#.$.%.c S k &.&.*.*.| n I p p =.-.;.J K >.,.'.).!.          ",
"                                ~.{.].^.C C C j /./.(./.n o I p p q r _.:.X >.<.*.[.}.          ",
"    |.1.2.3.4.5.6.7.8.9.0.a.b.c.d.e.f.g.R C R C (.D D k h.n H o p I I i.v J j.k.l.m.n.          ",
"  o.p.q.r.s.t.u.v.w.x.y.z.A.B.C.D.E.F.G.H.I.R R C C j k h.n | J.I I K.r u W L.M.N.O.P.          ",
"  Q.R.S.T.U.V.W.W.X.Y.Z.`. +.+++@+#+$+%+&+F.*+=+=+#.j D -+;+&.>+,+'+)+!+~+{+]+^+/+(+_+:+        ",
"  <+[+}+|+1+`.A.A.A.A.2+3+4+.+5+6+7+8++.9+0+a+b+b+c+C C d+C e+f+g+h+i+j+k+l+m+n+o+o+p+q+r+s+t+  ",
"  u+v+w+x+W.y+3+3+3+3+3+z+A+B+C+D+E+F+G+H+I+J+K+L+M+H.N+G.O+P+Q+R+S+&.T+U+V+W+X+Y+Z+`+ @.@+@@@#@",
"  $@%@&@*@Y..+=@z+z+=@A+-@;@>@,@'@)@!@~@{@]@^@/@(@_@:@<@[@}@|@1@2@3@x 4@5@6@7@8@9@0@a@.@b@c@d@e@",
"  f@g@h@i@j@k@l@m@n@n@o@p@p@p@q@y+r@s@t@u@v@w@x@y@z@A@B@C@D@E@F@G@H@J+I@J@K@L@M@N@L@6@6@c@c@O@P@",
"  8+Q@R@S@T@U@V@W@X@Y@Z@`@ #g .#z +#@###$#%#%#%#&#*#=#-#;#>#,#'#)#!#~#{#]#^#K@c@6@6@K@K@6@6@/#(#",
"  _#:#<#[#T@}#|#1#2#3#4#5#6#7#8#9#k+0#a#b#c#d# #e#f#g#h#i#j#k#l#m#n#o#p#q#]#^#K@K@K@K@^#K@6@r#  ",
"  s#t#u#v#w#x#y#z#f.A#B#C#D#E#F#G#H#I#J#K#L#A#M#N#O#P#Q#R#S#T#U#V#W#X#Y#Z#`#J@^#^#^#^# $^#6@.$  ",
"  +$@$#$$$%$&$*$=$-$;$>$,$'$p+Q )$!$~${$]$^$/$($_$:$<$[$n+}$|$1$2$3$4$5$6$7$8$9$9$9$9$9$9$0$a$  ",
"  b$c$#$d$e$f$g$h$i$h$j$k$l$m$n$o$p$q$r$s$t$/$u$v$_.w$L#x$W+y$z$A$B$C$D$E$F$7$G$G$8$9$8$G$9$H$  ",
"  I$c$#$J$K$L$5$M$N$N$N$O$O$P$Q$%@R$S$T$U$V$W$F.X$Y$Z$`$ %.%+%@%#%$%%%&%*%=%7$7$7$G$9$G$G$G$-%  ",
"  ;%@$>%,%'%)%c$!%~%~%~%{%]%^%#$^%/%(%_%:%<%[%}%|%1%2%3%X$4%+%#%5%6%7%J$8%6$=%F$F$7$8$7$7$7$9%  ",
"  0%a%b%(%c%d%e%f%a%g%h%h%i%j%k%+%+%+%+%/%/%1$l%l%m%n%o%p%q%r%6%s%s%t%u%v%w%6$=%6$F$7$F$F$F$x%  ",
"  y%z%A%B%C%z%f%D%E%g%h%i%i%+%F%k%+%+%+%^%#$G%H%I%J%K%L%M%#%F%s%N%O%P%Q%R%8%w%w%w%6$6$6$=%=%S%  ",
"  T%U%V%A%W%X%X%Y%Z%i%i%+%+%k%F%`%k%k% &.&+&@&#&#%#%#%$&%&&&@%s%N%*&=&G%-&v%8%8%8%8%E$E$6$w%;&  ",
"    >&,&'&)&!&~&{&]&k%^&k%`%/&(&_&:&@&G%<&@&5%[&[&5%5%}&|&s%#%N%1&2&3&4&5&6&7&8&9&7&9&0&0&v%a&  ",
"      b&c&d&e&f&g&h&i&j&k&k&l&[&#&m&m&4&#%5%6%[&[&#%6%s%N%s%#%N%1&n&o&p&q&r&s&s&r&r&t&r&u&v&w&  ",
"      x&y&z&        A&B&`#C&D&E&E&(&F&G&H&H&I&&&[&#%6%N%1&N%6%1&J&K&L&M&N&O&O&O&O&N&N&.&<&P&Q&  ",
"        R&                    S&^#T&U&V&W&X&Y&&&&&&&6%N%1&N%s%J&J&Z&L&`& * * *.*+*@*#*Y&$*%*&*  ",
"                                        M+**=*-*H%s%%&;*>*;*|&,*Z&'*)*2&!*#*I&~*{*#%;*]*^*      ",
"                                                  }@/*(*_*:*<*[*}*|*1*2*3*4*5*6*7*8*9*0*a*      ",
"                                                          b*c*&%I&d*e*f*I@g*h*      i*j*k*      ",
"                                                                l*m*n*o*                        ",
"                                                                p*q*r*                          ",
"                                                                s*t*u*                          ",
"                                                                  v*                            ",
"                                                                                                ",
"                                                                                                ",
"                                                                                                ",
"                                                                                                "};
