/* XPM */
static char * sofa_48x48_xpm[] = {
"48 48 557 2",
"  	c None",
". 	c #D2DDDC",
"+ 	c #D1DCDB",
"@ 	c #B7C1BF",
"# 	c #B7BFBE",
"$ 	c #B2BAB8",
"% 	c #B1B9B7",
"& 	c #AFB8B5",
"* 	c #ADB5B2",
"= 	c #A9AFAD",
"- 	c #A7ACA9",
"; 	c #A5AAA6",
"> 	c #A2A7A2",
", 	c #9EA19D",
"' 	c #959692",
") 	c #91928F",
"! 	c #92908C",
"~ 	c #92918D",
"{ 	c #8D8A84",
"] 	c #8A8781",
"^ 	c #8A8681",
"/ 	c #BFC7C5",
"( 	c #D0DBDA",
"_ 	c #C2CAC9",
": 	c #322C28",
"< 	c #594F46",
"[ 	c #5F544B",
"} 	c #60534B",
"| 	c #60544A",
"1 	c #605449",
"2 	c #605249",
"3 	c #63554B",
"4 	c #64574E",
"5 	c #63564C",
"6 	c #62554B",
"7 	c #62554C",
"8 	c #675951",
"9 	c #665950",
"0 	c #62544C",
"a 	c #61544B",
"b 	c #62544B",
"c 	c #60534A",
"d 	c #5D5149",
"e 	c #594E45",
"f 	c #8A8881",
"g 	c #C1C9C7",
"h 	c #352E27",
"i 	c #584C45",
"j 	c #766B5E",
"k 	c #786A5F",
"l 	c #75675C",
"m 	c #716358",
"n 	c #6E6056",
"o 	c #685B51",
"p 	c #675A51",
"q 	c #5F524A",
"r 	c #5D534A",
"s 	c #5A5147",
"t 	c #6F6962",
"u 	c #C9D3D2",
"v 	c #423A31",
"w 	c #423732",
"x 	c #7B6E62",
"y 	c #786A5E",
"z 	c #76685D",
"A 	c #726459",
"B 	c #6F6157",
"C 	c #6B5D53",
"D 	c #65584F",
"E 	c #62554D",
"F 	c #5F5349",
"G 	c #60544B",
"H 	c #5F5249",
"I 	c #5C4F47",
"J 	c #5C5047",
"K 	c #5A5048",
"L 	c #584E46",
"M 	c #60564E",
"N 	c #CBD6D4",
"O 	c #CDD9D7",
"P 	c #CDD8D6",
"Q 	c #C9D5D3",
"R 	c #534640",
"S 	c #36302A",
"T 	c #7A6C5F",
"U 	c #74665B",
"V 	c #6E6156",
"W 	c #6A5D55",
"X 	c #61554C",
"Y 	c #5C5249",
"Z 	c #5E544B",
"` 	c #5A5047",
" .	c #574C45",
"..	c #584D47",
"+.	c #574B45",
"@.	c #A5A8A6",
"#.	c #BAC2C1",
"$.	c #BBC1BD",
"%.	c #B6BBB8",
"&.	c #B4B9B6",
"*.	c #B2B7B4",
"=.	c #B1B5B3",
"-.	c #AFB4B1",
";.	c #ACB0AE",
">.	c #B6B6B3",
",.	c #BEBCB8",
"'.	c #C7CCCB",
").	c #CEDAD9",
"!.	c #CCD9D7",
"~.	c #C7D3D0",
"{.	c #2E2924",
"].	c #6C6156",
"^.	c #74685E",
"/.	c #6E5F55",
"(.	c #685B53",
"_.	c #655950",
":.	c #685B52",
"<.	c #63574E",
"[.	c #5B5148",
"}.	c #594F47",
"|.	c #574D44",
"1.	c #564B44",
"2.	c #554A45",
"3.	c #524740",
"4.	c #1E1913",
"5.	c #0C0806",
"6.	c #110D09",
"7.	c #15110E",
"8.	c #1B1512",
"9.	c #1E1715",
"0.	c #211B19",
"a.	c #241D1B",
"b.	c #241F1D",
"c.	c #302925",
"d.	c #665951",
"e.	c #6B5E55",
"f.	c #6D615B",
"g.	c #BDC7C5",
"h.	c #A6ACA9",
"i.	c #7A7871",
"j.	c #79746E",
"k.	c #7D7671",
"l.	c #5F544E",
"m.	c #514641",
"n.	c #5C514C",
"o.	c #665A54",
"p.	c #6B5E57",
"q.	c #6D6059",
"r.	c #766A67",
"s.	c #736864",
"t.	c #6D615E",
"u.	c #675C56",
"v.	c #5B5047",
"w.	c #5D5248",
"x.	c #554C45",
"y.	c #544B44",
"z.	c #554A44",
"A.	c #50463F",
"B.	c #4D443D",
"C.	c #494039",
"D.	c #39312A",
"E.	c #17140F",
"F.	c #0D0C09",
"G.	c #13100D",
"H.	c #171310",
"I.	c #181411",
"J.	c #181512",
"K.	c #161310",
"L.	c #1C1714",
"M.	c #3F3734",
"N.	c #413B3A",
"O.	c #453F42",
"P.	c #999D9C",
"Q.	c #5A534C",
"R.	c #4A3E35",
"S.	c #493D33",
"T.	c #4A3F38",
"U.	c #463C35",
"V.	c #493F37",
"W.	c #4A4038",
"X.	c #4B4037",
"Y.	c #4B3E36",
"Z.	c #473A32",
"`.	c #3B332B",
" +	c #716459",
".+	c #786A5C",
"++	c #7D6F62",
"@+	c #7B6F67",
"#+	c #564B43",
"$+	c #554B43",
"%+	c #564C43",
"&+	c #554B42",
"*+	c #4F463F",
"=+	c #4E453E",
"-+	c #4B423B",
";+	c #483F37",
">+	c #403933",
",+	c #38312C",
"'+	c #2B251F",
")+	c #16130E",
"!+	c #0C0A06",
"~+	c #130F0C",
"{+	c #120E0B",
"]+	c #14100D",
"^+	c #14110E",
"/+	c #120F0C",
"(+	c #191411",
"_+	c #312A27",
":+	c #2E2621",
"<+	c #342B29",
"[+	c #939795",
"}+	c #6E6760",
"|+	c #4A3D35",
"1+	c #493C34",
"2+	c #4A3E36",
"3+	c #4B3F37",
"4+	c #382E28",
"5+	c #62584E",
"6+	c #4F483F",
"7+	c #433D38",
"8+	c #3C383A",
"9+	c #4A4340",
"0+	c #4D433A",
"a+	c #483E36",
"b+	c #443B34",
"c+	c #3E3731",
"d+	c #38312B",
"e+	c #302C27",
"f+	c #27241F",
"g+	c #231F1A",
"h+	c #201A16",
"i+	c #17130E",
"j+	c #0D0B07",
"k+	c #080602",
"l+	c #0B0704",
"m+	c #0B0908",
"n+	c #0D0C0A",
"o+	c #0E0C0B",
"p+	c #0E0E0C",
"q+	c #100F0C",
"r+	c #15130F",
"s+	c #332826",
"t+	c #302722",
"u+	c #362C27",
"v+	c #9B9F9B",
"w+	c #7B7770",
"x+	c #4B3D35",
"y+	c #483B33",
"z+	c #463931",
"A+	c #44372F",
"B+	c #342A26",
"C+	c #2B2120",
"D+	c #291F1C",
"E+	c #2B2221",
"F+	c #312623",
"G+	c #332A26",
"H+	c #2A2520",
"I+	c #2A241F",
"J+	c #2D2722",
"K+	c #2D2721",
"L+	c #2E2822",
"M+	c #322A24",
"N+	c #372F29",
"O+	c #403630",
"P+	c #483E38",
"Q+	c #574B46",
"R+	c #6E615C",
"S+	c #756862",
"T+	c #695F58",
"U+	c #5C514B",
"V+	c #4B423C",
"W+	c #3B322D",
"X+	c #2C2420",
"Y+	c #1A1511",
"Z+	c #130F0A",
"`+	c #0D0B06",
" @	c #2D2523",
".@	c #31261E",
"+@	c #382C25",
"@@	c #A0A4A0",
"#@	c #83817B",
"$@	c #4B3D34",
"%@	c #463932",
"&@	c #483B32",
"*@	c #473A31",
"=@	c #43362E",
"-@	c #42352C",
";@	c #322922",
">@	c #2E241A",
",@	c #2F2319",
"'@	c #30241C",
")@	c #312622",
"!@	c #453A34",
"~@	c #4D433C",
"{@	c #52493F",
"]@	c #585044",
"^@	c #60534F",
"/@	c #665954",
"(@	c #6D5E57",
"_@	c #72625C",
":@	c #75665E",
"<@	c #77675F",
"[@	c #776860",
"}@	c #72655B",
"|@	c #706259",
"1@	c #6A5C55",
"2@	c #685A53",
"3@	c #5F5350",
"4@	c #5B4F4C",
"5@	c #544B48",
"6@	c #4C4441",
"7@	c #4D4645",
"8@	c #444243",
"9@	c #312925",
"0@	c #33251C",
"a@	c #3A2C23",
"b@	c #AAAFAC",
"c@	c #91928C",
"d@	c #45382F",
"e@	c #463930",
"f@	c #44372E",
"g@	c #3F3128",
"h@	c #332820",
"i@	c #2D221A",
"j@	c #30231B",
"k@	c #31241C",
"l@	c #31241D",
"m@	c #544841",
"n@	c #665952",
"o@	c #6E6158",
"p@	c #73665C",
"q@	c #756960",
"r@	c #71635A",
"s@	c #695D54",
"t@	c #62564D",
"u@	c #584F49",
"v@	c #4F4641",
"w@	c #4B423F",
"x@	c #453B3B",
"y@	c #3F3635",
"z@	c #3E3734",
"A@	c #393330",
"B@	c #38302E",
"C@	c #362E2B",
"D@	c #362D2B",
"E@	c #382D2D",
"F@	c #372C2A",
"G@	c #3B2E2B",
"H@	c #372921",
"I@	c #33261D",
"J@	c #3E2D26",
"K@	c #9C9E9A",
"L@	c #43362D",
"M@	c #41342B",
"N@	c #3D3027",
"O@	c #30251D",
"P@	c #2B2017",
"Q@	c #302219",
"R@	c #2F221A",
"S@	c #685A51",
"T@	c #6E635A",
"U@	c #5A5249",
"V@	c #453C37",
"W@	c #3C3430",
"X@	c #352E2A",
"Y@	c #322A25",
"Z@	c #312924",
"`@	c #312720",
" #	c #31251F",
".#	c #32271F",
"+#	c #33281F",
"@#	c #32271E",
"##	c #352820",
"$#	c #362820",
"%#	c #372822",
"&#	c #372920",
"*#	c #382A21",
"=#	c #372A21",
"-#	c #3D2B20",
";#	c #2F271F",
">#	c #402F27",
",#	c #B7BEBB",
"'#	c #A9AEAB",
")#	c #40332A",
"!#	c #3E3128",
"~#	c #3D2F26",
"{#	c #2F241C",
"]#	c #292017",
"^#	c #2E2017",
"/#	c #2E2118",
"(#	c #33241B",
"_#	c #2B231F",
":#	c #2E241F",
"<#	c #2D231E",
"[#	c #2F231D",
"}#	c #33261E",
"|#	c #34251D",
"1#	c #34261C",
"2#	c #34261D",
"3#	c #35271E",
"4#	c #36271E",
"5#	c #362A20",
"6#	c #37271F",
"7#	c #392820",
"8#	c #38281F",
"9#	c #3A2B22",
"0#	c #32251D",
"a#	c #3F2F25",
"b#	c #BCC4C1",
"c#	c #ADB3B0",
"d#	c #41342C",
"e#	c #3F3229",
"f#	c #3E3127",
"g#	c #3C2F26",
"h#	c #3A2D24",
"i#	c #2C2219",
"j#	c #291D15",
"k#	c #2C1F15",
"l#	c #2D2017",
"m#	c #2C1F16",
"n#	c #2E2219",
"o#	c #2F231A",
"p#	c #2F2219",
"q#	c #31221A",
"r#	c #31251A",
"s#	c #32261A",
"t#	c #32251C",
"u#	c #32241C",
"v#	c #32241B",
"w#	c #34261E",
"x#	c #35281F",
"y#	c #36261D",
"z#	c #37251D",
"A#	c #36241B",
"B#	c #37281E",
"C#	c #332218",
"D#	c #3F2E22",
"E#	c #C0C9C6",
"F#	c #B0B9B5",
"G#	c #3D2F24",
"H#	c #392B22",
"I#	c #392C21",
"J#	c #3A2C21",
"K#	c #3B2D22",
"L#	c #392B20",
"M#	c #382A1E",
"N#	c #2B2016",
"O#	c #281D13",
"P#	c #31241B",
"Q#	c #2B1E15",
"R#	c #2D1F16",
"S#	c #302319",
"T#	c #2F241B",
"U#	c #31231A",
"V#	c #322317",
"W#	c #30231A",
"X#	c #312219",
"Y#	c #34231A",
"Z#	c #312218",
"`#	c #331F14",
" $	c #301C12",
".$	c #2B1A0F",
"+$	c #3B2C21",
"@$	c #595047",
"#$	c #594B40",
"$$	c #765847",
"%$	c #B49F8C",
"&$	c #C1CDCA",
"*$	c #CCD8D6",
"=$	c #BBC4C1",
"-$	c #382B1E",
";$	c #291D11",
">$	c #312318",
",$	c #33251A",
"'$	c #34251A",
")$	c #34261B",
"!$	c #35271C",
"~$	c #281E14",
"{$	c #271D12",
"]$	c #2B1E14",
"^$	c #2A1D14",
"/$	c #2C1C10",
"($	c #2A1B0E",
"_$	c #29180D",
":$	c #2E1C13",
"<$	c #554C43",
"[$	c #69645E",
"}$	c #807D78",
"|$	c #979994",
"1$	c #B0B6B3",
"2$	c #C7D2D0",
"3$	c #D4E1E1",
"4$	c #D5E4E2",
"5$	c #ADAAA4",
"6$	c #C19D86",
"7$	c #D7CFC2",
"8$	c #CFDBD9",
"9$	c #CBD9D7",
"0$	c #8B7460",
"a$	c #2F1F13",
"b$	c #2D1E16",
"c$	c #271A11",
"d$	c #2D1E12",
"e$	c #2F2015",
"f$	c #2F2117",
"g$	c #332216",
"h$	c #271D15",
"i$	c #271C12",
"j$	c #2A1C11",
"k$	c #2A1D13",
"l$	c #2D2016",
"m$	c #2E1E14",
"n$	c #2C1D13",
"o$	c #2F2017",
"p$	c #2D1E14",
"q$	c #2D2018",
"r$	c #3C3027",
"s$	c #615C54",
"t$	c #878782",
"u$	c #AEB3B0",
"v$	c #C8D3D1",
"w$	c #CBD8D6",
"x$	c #CBD9D6",
"y$	c #CCD8D7",
"z$	c #CCD9D6",
"A$	c #CEDAD8",
"B$	c #B5A28F",
"C$	c #5F4B45",
"D$	c #9DA19F",
"E$	c #9AA29F",
"F$	c #81837F",
"G$	c #5B5651",
"H$	c #1C1207",
"I$	c #23170C",
"J$	c #23160E",
"K$	c #372B22",
"L$	c #848580",
"M$	c #969B99",
"N$	c #ACB3B1",
"O$	c #BFCAC8",
"P$	c #D2DEDD",
"Q$	c #D2DFDD",
"R$	c #D0DCDA",
"S$	c #CED9D8",
"T$	c #CFDAD9",
"U$	c #D1DDDC",
"V$	c #D0DDDB",
"W$	c #D6E4E3",
"X$	c #A19990",
"Y$	c #7F573D",
"Z$	c #AC7F60",
"`$	c #DBE2DF",
" %	c #D1DEDC",
".%	c #CDDAD8",
"+%	c #BCB8AD",
"@%	c #BD9472",
"#%	c #D4AE8E",
"                                      . . . . . . . . . .                                       ",
"                                . . . . . . . . . . . . . . . .                                 ",
"                          . . . . . . . . . . . . . . . . . . . . . .                           ",
"                        . . . . . . . . . . . . . . . . . . . . . . . .                         ",
"                    . . . . . . . . . . . . . . . . . . . . . . . . . . . .                     ",
"                  . . . . . . . . . . . . . . . . . . . . . . . . . . . . . .                   ",
"                . . . . . . . . . . . . . . . . . . . . . . . . . . . . . . . .                 ",
"              . . . . . . . . . . . . . . . . . . . . . . . . . . . . . . . . . .               ",
"            . . . . . . . . . . . . . . . . . . . . . . . . . . . . . . . . . . . .             ",
"          . . . . . . . . . . . . . . . . . . . . . . . . . . . . . . . . . . . . . .           ",
"        . . . . . . . . . . . . . . . . . . . . . . . . . . . . . . . . . . . . . . . .         ",
"        . . . . . . . . . . . . . . . . . . . . . . . . . . . . . . . . . . . . . . . .         ",
"      . . . . . . . . . . . . . . . . . . . . . . . . . . . . . . . . . . . . . . . . . .       ",
"    . . . . . . . . . . . . . . . . . . . . . . . . . . . . . . . . . . . . . . + . . + . .     ",
"    . . . . . . . . . . . . . . . . . . . . . . . . . . . . . . . . . . . . . . . . . . . .     ",
"    . . . . . . + @ # $ % & * = - ; > , ' ) ! ~ ~ ~ { ] ] ^ / ( . . . . . . . . . . + ( . .     ",
"  . . . . . . . _ : < [ } | 1 2 3 4 5 6 7 4 8 9 0 a b c d e f + . . . . . . . . . . . . . . .   ",
"  . . . . . . + g h i j k l l m n o p p 4 4 9 7 5 a q q r s t + . . . + + + + + + . . . . . .   ",
"  . . . . . . . u v w x y z A B C 4 D D a a E F G H I J K L M N + ( O O O O O O P + . . . . .   ",
". . . . . . + ( Q R S T y U V W p 9 4 9 a X Y r Z < ` `  ...+.@.#.$.%.&.*.=.-.;.>.,.'.( + . . . ",
". . . . . + ).!.~. .{.].^.m /.(._.:.<.a X G [.` ` < }.|.1.2.3.4.5.6.7.8.9.0.a.b.c.d.e.f.g.. . . ",
". . . . . h.i.j.k.l.m.n.o.p.q.r.s.t.u.Z v.w.` < x.y.z.A.B.C.D.E.F.G.7.H.I.J.I.K.L.M.N.O.P.. . . ",
". . . . . Q.R.S.T.U.V.W.X.Y.Z.`. +.+++@+#+$+%+&+*+=+-+;+>+,+'+)+!+~+{+]+^+7.]+/+(+_+:+<+[+. . . ",
". . . . . }+Y.Y.|+1+2+3+Y.1+Z.4+5+6+7+8+9+0+a+b+c+d+e+f+g+h+i+j+k+l+l+m+n+o+p+q+r+s+t+u+v+. . . ",
". . . . . w+x+1+y+y+1+1+1+z+A+B+C+D+E+F+G+H+I+J+K+L+M+N+O+P+Q+R+S+T+U+V+W+X+Y+Z+`+ @.@+@@@. . . ",
". . . . . #@$@Z.%@Z.Z.&@*@=@-@;@>@,@'@)@!@~@{@]@^@/@(@_@:@<@[@}@|@1@2@3@4@5@6@7@8@9@0@a@b@. . . ",
". . . . . c@&@d@e@e@d@f@f@-@g@h@i@j@k@l@m@n@o@p@q@r@s@t@u@v@w@x@y@z@A@B@C@D@E@F@G@H@I@J@*.. . . ",
". . . . . K@d@L@L@e@L@-@-@M@N@O@P@Q@R@Q@S@T@U@V@W@X@Y@Z@`@ #.#+#@###$#$#%#&#*#=#-#;#I@>#,#. . . ",
". . . . . '#f@-@M@L@M@M@)#!#~#{#]#^#/#(#.@_#:#<#[#[#k@}#|#I@1#2#0@3#4#3#5#6#7#8#9#0#0#a#b#. . . ",
"  . . . . c#d#)#e#!#f#e#!#g#h#i#j#k#l#I@m#l#n#o#p#q#r#s#t#u#v#v#v#0@2#w#x#y#z#A#B#k@C#D#E#. .   ",
"  . . . . F#G#H#I#J#J#K#K#L#M#N#O#k#m#P#Q#R#/#S#Q@p#R@R@T#U#V#W#X#Y#Z#`# $.$+$@$#$$$%$&$*$. .   ",
"  . . . . =$-$;$>$,$'$)$!$!$)$~${$]$^$W#Q#Q#/#p#Q@^#/$($_$:$9#f@<$[$}$|$1$2$3$4$5$6$7$8$+ . .   ",
"  . . . . 8$9$0$a$b$c$d$e$f$g$h$i$j$k$l$m$n$o$p$q$r$s$t$u$v$w$x$P *$O *$y$*$*$z$*$A$+ + . .     ",
"    . . . . y$B$C$D$g.E$F$G$t#H$I$J$K$y.L$M$N$O$A$P$Q$R$A$O S$A$( + + . + + + + + . + T$. .     ",
"    . . . . + + U$+ R$( 8$V$W$X$Y$Z$`$ %A$( + . . . . . . . . . . . . . . . . . . . . . . .     ",
"      . . . . . . . . . + 8$.%+%@%#%P + . . . . . . . . . . . . . . . . . . . . . . . . .       ",
"        . . . . . . . . . . . . . . . . . . . . . . . . . . . . . . . . . . . . . . . .         ",
"        . . . . . . . . . . . . . . . . . . . . . . . . . . . . . . . . . . . . . . . .         ",
"          . . . . . . . . . . . . . . . . . . . . . . . . . . . . . . . . . . . . . .           ",
"            . . . . . . . . . . . . . . . . . . . . . . . . . . . . . . . . . . . .             ",
"              . . . . . . . . . . . . . . . . . . . . . . . . . . . . . . . . . .               ",
"                . . . . . . . . . . . . . . . . . . . . . . . . . . . . . . . .                 ",
"                  . . . . . . . . . . . . . . . . . . . . . . . . . . . . . .                   ",
"                    . . . . . . . . . . . . . . . . . . . . . . . . . . . .                     ",
"                        . . . . . . . . . . . . . . . . . . . . . . . .                         ",
"                          . . . . . . . . . . . . . . . . . . . . . .                           ",
"                                . . . . . . . . . . . . . . . .                                 ",
"                                      . . . . . . . . . .                                       "};
