/* XPM */
static char * sofa_32x32_xpm[] = {
"32 32 363 2",
"  	c None",
". 	c #D2DDDC",
"+ 	c #F1EAE8",
"@ 	c #E4DFD8",
"# 	c #D0C9C0",
"$ 	c #BBB0A8",
"% 	c #BBABA4",
"& 	c #BEAFA8",
"* 	c #C0B0A9",
"= 	c #BEAFA6",
"- 	c #B6A69A",
"; 	c #B6A69C",
"> 	c #35291F",
", 	c #776454",
"' 	c #7B6454",
") 	c #7C6856",
"! 	c #7E6654",
"~ 	c #856E5D",
"{ 	c #876E5D",
"] 	c #826D5A",
"^ 	c #836E5D",
"/ 	c #8E7768",
"( 	c #8C7566",
"_ 	c #856D5F",
": 	c #836B5D",
"< 	c #80695A",
"[ 	c #7B6656",
"} 	c #C5B7AD",
"| 	c #34291D",
"1 	c #A6937E",
"2 	c #A9917E",
"3 	c #A68E7B",
"4 	c #9D8572",
"5 	c #98806D",
"6 	c #8C7768",
"7 	c #877061",
"8 	c #856E5F",
"9 	c #80695B",
"0 	c #796858",
"a 	c #958779",
"b 	c #372B1F",
"c 	c #B09C87",
"d 	c #A9917C",
"e 	c #A28A77",
"f 	c #9C8574",
"g 	c #917B68",
"h 	c #8A7464",
"i 	c #826B5D",
"j 	c #836E5F",
"k 	c #7E6B5B",
"l 	c #7B6658",
"m 	c #796656",
"n 	c #776656",
"o 	c #806E61",
"p 	c #413224",
"q 	c #AF9883",
"r 	c #9F8774",
"s 	c #957E6E",
"t 	c #856D5D",
"u 	c #7C6B5B",
"v 	c #7B695A",
"w 	c #756454",
"x 	c #725F54",
"y 	c #746156",
"z 	c #412E24",
"A 	c #826E5D",
"B 	c #A48E7B",
"C 	c #9A826E",
"D 	c #8E7769",
"E 	c #8A7466",
"F 	c #887262",
"G 	c #826B5B",
"H 	c #746253",
"I 	c #6E5A4F",
"J 	c #6D584E",
"K 	c #3A342D",
"L 	c #4C413A",
"M 	c #453932",
"N 	c #473732",
"O 	c #483934",
"P 	c #453530",
"Q 	c #A2887B",
"R 	c #B2988E",
"S 	c #EDEDE6",
"T 	c #5B4840",
"U 	c #705F54",
"V 	c #988377",
"W 	c #A28C7E",
"X 	c #B6A198",
"Y 	c #AB9A93",
"Z 	c #9D8880",
"` 	c #7C6958",
" .	c #706153",
"..	c #705F53",
"+.	c #69564A",
"@.	c #665447",
"#.	c #4F4032",
"$.	c #000000",
"%.	c #010000",
"&.	c #030000",
"*.	c #050000",
"=.	c #4C3E37",
"-.	c #5F544F",
";.	c #877C7E",
">.	c #584737",
",.	c #625140",
"'.	c #685448",
").	c #5B483E",
"!.	c #614C41",
"~.	c #685347",
"{.	c #6B5445",
"].	c #514137",
"^.	c #917C6B",
"/.	c #A49383",
"(.	c #6E5D4F",
"_.	c #726151",
":.	c #726153",
"<.	c #66564A",
"[.	c #645448",
"}.	c #5B4C40",
"|.	c #4E4135",
"1.	c #322419",
"2.	c #291D19",
"3.	c #302420",
"4.	c #4E4341",
"5.	c #563C2B",
"6.	c #5A4337",
"7.	c #5A4839",
"8.	c #544334",
"9.	c #5B4839",
"0.	c #5B4739",
"a.	c #5A4335",
"b.	c #322414",
"c.	c #C7AD95",
"d.	c #B49D85",
"e.	c #7C6B62",
"f.	c #665445",
"g.	c #5F4F40",
"h.	c #544539",
"i.	c #4A3C30",
"j.	c #3A3024",
"k.	c #2B221B",
"l.	c #160D05",
"m.	c #271B16",
"n.	c #2E1F14",
"o.	c #5A4C47",
"p.	c #5A4132",
"q.	c #584134",
"r.	c #5B4335",
"s.	c #37241F",
"t.	c #402D26",
"u.	c #2B1F1B",
"v.	c #302424",
"w.	c #3C2E26",
"x.	c #302419",
"y.	c #291F16",
"z.	c #24190F",
"A.	c #1F160C",
"B.	c #1D140A",
"C.	c #261911",
"D.	c #2D2018",
"E.	c #3E322B",
"F.	c #2D2019",
"G.	c #110805",
"H.	c #20130F",
"I.	c #301F14",
"J.	c #64564C",
"K.	c #624A3A",
"L.	c #533C2E",
"M.	c #37261D",
"N.	c #2B180C",
"O.	c #27160C",
"P.	c #301D18",
"Q.	c #3A2E22",
"R.	c #43352B",
"S.	c #4E3E34",
"T.	c #56473E",
"U.	c #5F4E43",
"V.	c #6B584E",
"W.	c #806961",
"X.	c #9F887E",
"Y.	c #C7AFA4",
"Z.	c #B79D8F",
"`.	c #A1887C",
" +	c #887264",
".+	c #665347",
"++	c #34271B",
"@+	c #1F160D",
"#+	c #18110A",
"$+	c #341D0F",
"%+	c #75685B",
"&+	c #695347",
"*+	c #564030",
"=+	c #543E2E",
"-+	c #533C2D",
";+	c #4E3727",
">+	c #372416",
",+	c #2D1805",
"'+	c #2E180C",
")+	c #301B11",
"!+	c #7B6B5F",
"~+	c #887766",
"{+	c #988579",
"]+	c #9C8375",
"^+	c #9F8577",
"/+	c #9C8374",
"(+	c #967E6E",
"_+	c #826E5F",
":+	c #7E6B61",
"<+	c #746258",
"[+	c #5F514F",
"}+	c #584A4A",
"|+	c #534748",
"1+	c #534851",
"2+	c #41322D",
"3+	c #341D0D",
"4+	c #8C776B",
"5+	c #7E6D5F",
"6+	c #4F3929",
"7+	c #513A2B",
"8+	c #483222",
"9+	c #352416",
"0+	c #2D1605",
"a+	c #2D1608",
"b+	c #2E160A",
"c+	c #957E70",
"d+	c #9F8775",
"e+	c #917B6B",
"f+	c #887466",
"g+	c #756458",
"h+	c #69584E",
"i+	c #53433C",
"j+	c #473730",
"k+	c #3A2927",
"l+	c #392922",
"m+	c #34261F",
"n+	c #35241D",
"o+	c #342219",
"p+	c #37241D",
"q+	c #391F16",
"r+	c #3C2414",
"s+	c #351D0D",
"t+	c #9F9188",
"u+	c #918377",
"v+	c #4C3526",
"w+	c #321F13",
"x+	c #291405",
"y+	c #2B1405",
"z+	c #301806",
"A+	c #69564C",
"B+	c #514139",
"C+	c #3C2B27",
"D+	c #35261B",
"E+	c #322016",
"F+	c #322013",
"G+	c #32190D",
"H+	c #341B0C",
"I+	c #341F0F",
"J+	c #372011",
"K+	c #392013",
"L+	c #3C2214",
"M+	c #3E2011",
"N+	c #AFA49A",
"O+	c #9F988C",
"P+	c #4A3424",
"Q+	c #452E1F",
"R+	c #2E1B0D",
"S+	c #261101",
"T+	c #291303",
"U+	c #241308",
"V+	c #27160D",
"W+	c #29180C",
"X+	c #2D160C",
"Y+	c #351B0C",
"Z+	c #32190A",
"`+	c #371F0F",
" @	c #391F0F",
".@	c #3A1D0F",
"+@	c #3C1F0D",
"@@	c #321B0C",
"#@	c #C0BBAF",
"$@	c #A8A296",
"%@	c #473020",
"&@	c #472E1F",
"*@	c #452D1D",
"=@	c #412B19",
"-@	c #291808",
";@	c #260F00",
">@	c #270F00",
",@	c #291403",
"'@	c #2D1606",
")@	c #2E1806",
"!@	c #301B08",
"~@	c #32190C",
"{@	c #321908",
"]@	c #321806",
"^@	c #34190C",
"/@	c #341405",
"(@	c #321300",
"_@	c #412411",
":@	c #E4DFD5",
"<@	c #DCD1C5",
"[@	c #3A2413",
"}@	c #3C2613",
"|@	c #3E2613",
"1@	c #3E2614",
"2@	c #3C2413",
"3@	c #271603",
"4@	c #240D00",
"5@	c #301808",
"6@	c #260D00",
"7@	c #271101",
"8@	c #2E1808",
"9@	c #2D1405",
"0@	c #2E1906",
"a@	c #321803",
"b@	c #2B1606",
"c@	c #2D0F00",
"d@	c #270800",
"e@	c #260300",
"f@	c #391B0A",
"g@	c #7C6D61",
"h@	c #B9B6AB",
"i@	c #9F6648",
"j@	c #AD6D43",
"k@	c #2D1600",
"l@	c #301805",
"m@	c #321906",
"n@	c #341B08",
"o@	c #351D0A",
"p@	c #371F0C",
"q@	c #221100",
"r@	c #200C00",
"s@	c #291100",
"t@	c #2D1300",
"u@	c #371906",
"v@	c #726258",
"w@	c #CACAC2",
"x@	c #E6CCB9",
"y@	c #290C00",
"z@	c #5A473A",
"A@	c #200800",
"B@	c #1F0600",
"C@	c #2D1100",
"D@	c #220D00",
"E@	c #200A00",
"F@	c #220C00",
"G@	c #270D00",
"H@	c #1D0300",
"I@	c #412B1F",
"J@	c #5B4C3E",
"K@	c #75695B",
"L@	c #A49F91",
"M@	c #E4E8E3",
"N@	c #BBB0AB",
"O@	c #392414",
"P@	c #0A0000",
"Q@	c #140300",
"R@	c #140000",
"S@	c #4E3C2E",
"T@	c #BBBEB7",
"U@	c #E2ECE7",
"V@	c #F1DDD3",
". . . . . . . . . . . . . . . . . . . . . . . . . . . . . . . . ",
". . . . . . . . . . . . . . . . . . . . . . . . . . . . . . . . ",
". . . . . . . . . . . . . . . . . . . . . . . . . . . . . . . . ",
". . . . . . . . . . . . . . . . . . . . . . . . . . . . . . . . ",
". . . . . . . . . . . . . . . . . . . . . . . . . . . . . . . . ",
". . . . . . . . . . + @ # $ % & * = - ; . . . . . . . . . . . . ",
". . . . . > , ' ) ! ~ { ] ^ / ( _ : < [ } . . . . . . . . . . . ",
". . . . . | 1 2 3 4 5 6 / 7 / 8 ~ 9 9 0 a . . . . . . . . . . . ",
". . . . . b c d e f g 7 h i j i k l m n o . . . . . . . . . . . ",
". . . . . p q 2 r s / 7 h t u u v w w x y . . . . . . . . . . . ",
". . . . . z A B C D E F 7 G v n 0 H H I J K L M N O P P Q R . . ",
". . . . S T U V W X Y Z k ` m w  ...+.@.#.$.$.$.%.&.*.&.=.-.;.. ",
". . >.,.'.).!.~.{.].7 ^./.(._.:.<.[.}.|.1.$.$.$.$.%.%.$.2.3.4.. ",
". . 5.6.7.8.9.0.a.b.c.d.e.+.f.g.h.i.j.k.l.$.$.$.$.$.$.$.m.n.o.. ",
". . p.a.q.a.r.a.q.s.t.u.v.w.x.y.z.A.B.C.D.E.E.F.G.%.$.$.H.I.J.. ",
". . K.q.q.a.q.q.L.M.N.O.P.Q.R.S.T.U.V.W.X.Y.Z.`. +.+++@+#+$+%+. ",
". . &+*+=+L.=+-+;+>+,+'+)+J !+~+{+]+^+/+(+_+:+<+[+}+|+1+2+3+4+. ",
". . 5+6+-+-+7+6+8+9+0+a+b+c+d+e+f+g+h+i+j+k+l+m+n+o+p+q+r+s+t+. ",
". . u+;+6+6+;+v+8+w+x+y+z+A+B+C+D+E+F+G+3+H+I+J+K+K+L+M+I+$+N+. ",
". . O+v+P+v+8+8+Q+R+S+T+H+U+V+W+X+'+3+Y+H+Z+H+s+`+ @.@+@@@3+#@. ",
". . $@%@%@Q+&@*@=@-@;@;@@@>@,@'@0+)@!@~@{@]@Z+H+s+^@/@(@a+_@:@. ",
". . <@[@}@|@|@1@2@3@4@;@5@6@7@8@9@9@9@0@a@b@c@d@e@f@g@h@i@j@. . ",
". . . k@l@m@n@o@p@q@r@4@'@4@T+9@9@s@t@/@{@u@v@w@. . . . j@j@. . ",
". . . x@y@z@A@B@C@D@E@F@G@H@6@I@J@K@L@M@. . . . . . . . . . . . ",
". . . . j@j@. N@O@P@Q@R@S@T@U@. . . . . . . . . . . . . . . . . ",
". . . . . . . . . V@j@j@. . . . . . . . . . . . . . . . . . . . ",
". . . . . . . . . . j@j@. . . . . . . . . . . . . . . . . . . . ",
". . . . . . . . . . . . . . . . . . . . . . . . . . . . . . . . ",
". . . . . . . . . . . . . . . . . . . . . . . . . . . . . . . . ",
". . . . . . . . . . . . . . . . . . . . . . . . . . . . . . . . ",
". . . . . . . . . . . . . . . . . . . . . . . . . . . . . . . . ",
". . . . . . . . . . . . . . . . . . . . . . . . . . . . . . . . "};
