/* XPM */
static char * sofa_48x48_xpm[] = {
"48 48 857 2",
"  	c None",
". 	c #EAE9E8",
"+ 	c #E0DEDC",
"@ 	c #DFDEDC",
"# 	c #DCDBD9",
"$ 	c #C3C3C2",
"% 	c #AAA8A6",
"& 	c #A19F9D",
"* 	c #8F8D8C",
"= 	c #8C8A87",
"- 	c #878581",
"; 	c #83807D",
"> 	c #7C7573",
", 	c #78716E",
"' 	c #77716B",
") 	c #6B655F",
"! 	c #615A54",
"~ 	c #59504A",
"{ 	c #504740",
"] 	c #51443F",
"^ 	c #544741",
"/ 	c #554942",
"( 	c #564943",
"_ 	c #574A44",
": 	c #5B4F46",
"< 	c #594E45",
"[ 	c #594D45",
"} 	c #574B45",
"| 	c #98918D",
"1 	c #DDDCDC",
"2 	c #332824",
"3 	c #403831",
"4 	c #564B44",
"5 	c #594D46",
"6 	c #5B5046",
"7 	c #5B4F45",
"8 	c #5D5046",
"9 	c #605349",
"0 	c #64564C",
"a 	c #63554A",
"b 	c #605449",
"c 	c #61564A",
"d 	c #61564C",
"e 	c #685A52",
"f 	c #63554D",
"g 	c #61534B",
"h 	c #60534B",
"i 	c #5C5047",
"j 	c #6C625B",
"k 	c #E7E5E5",
"l 	c #3B2F2C",
"m 	c #49423A",
"n 	c #70655A",
"o 	c #706257",
"p 	c #716358",
"q 	c #726459",
"r 	c #706358",
"s 	c #6F6156",
"t 	c #6B5E55",
"u 	c #6A5C54",
"v 	c #6B5D54",
"w 	c #65574F",
"x 	c #695C53",
"y 	c #685B52",
"z 	c #665950",
"A 	c #63564D",
"B 	c #62554D",
"C 	c #5F544C",
"D 	c #5C5249",
"E 	c #584E44",
"F 	c #EDEDEC",
"G 	c #40332D",
"H 	c #433B33",
"I 	c #73685C",
"J 	c #796C61",
"K 	c #796B60",
"L 	c #75675C",
"M 	c #76685D",
"N 	c #6E6055",
"O 	c #675951",
"P 	c #65584F",
"Q 	c #62554C",
"R 	c #60534A",
"S 	c #5E5149",
"T 	c #5F524A",
"U 	c #5E534A",
"V 	c #5B5148",
"W 	c #574D44",
"X 	c #B6B8B6",
"Y 	c #EAF0EF",
"Z 	c #473B32",
"` 	c #3B332C",
" .	c #71675C",
"..	c #7A6C61",
"+.	c #77695E",
"@.	c #73655A",
"#.	c #6B5D52",
"$.	c #675A51",
"%.	c #61544B",
"&.	c #63554C",
"*.	c #62544B",
"=.	c #5C4F47",
"-.	c #5D5048",
";.	c #5A5047",
">.	c #574D43",
",.	c #979590",
"'.	c #D0DDDB",
").	c #CBD7D5",
"!.	c #D0DBD9",
"~.	c #D9E2E0",
"{.	c #E9EFEE",
"].	c #4F443D",
"^.	c #362F28",
"/.	c #807061",
"(.	c #786A5F",
"_.	c #6D6057",
":.	c #695C54",
"<.	c #64574E",
"[.	c #5F554C",
"}.	c #5F554D",
"|.	c #5E544B",
"1.	c #5A5048",
"2.	c #594E48",
"3.	c #594D48",
"4.	c #7D7875",
"5.	c #D3E0DE",
"6.	c #CCD8D6",
"7.	c #CDD9D7",
"8.	c #DEE7E5",
"9.	c #5D514C",
"0.	c #342C26",
"a.	c #665C51",
"b.	c #7B6C5F",
"c.	c #6A5D54",
"d.	c #5D534A",
"e.	c #594E46",
"f.	c #584D48",
"g.	c #584D47",
"h.	c #6C605D",
"i.	c #C7D2D0",
"j.	c #C7D1CF",
"k.	c #C6CFCD",
"l.	c #C4CECB",
"m.	c #C4CDCB",
"n.	c #C3CCCA",
"o.	c #C2CCC9",
"p.	c #BFC9C7",
"q.	c #CDD4D2",
"r.	c #DEDAD9",
"s.	c #DBD3D1",
"t.	c #E7E3E1",
"u.	c #D4E0DE",
"v.	c #6A625C",
"w.	c #332C27",
"x.	c #554C43",
"y.	c #7A6D62",
"z.	c #74675D",
"A.	c #6C5E54",
"B.	c #594F46",
"C.	c #574D45",
"D.	c #554A44",
"E.	c #554B45",
"F.	c #51433E",
"G.	c #1F1B17",
"H.	c #231E1B",
"I.	c #26211D",
"J.	c #2B2420",
"K.	c #2F2724",
"L.	c #312926",
"M.	c #352C29",
"N.	c #372E2C",
"O.	c #382F2D",
"P.	c #403634",
"Q.	c #65564F",
"R.	c #7F6E66",
"S.	c #7D7069",
"T.	c #ABA6A2",
"U.	c #EBF0F0",
"V.	c #CFDBD9",
"W.	c #D2E0DE",
"X.	c #675F5A",
"Y.	c #1F1712",
"Z.	c #3C342D",
"`.	c #756961",
" +	c #71655C",
".+	c #6D5F56",
"++	c #6A5C56",
"@+	c #6C605A",
"#+	c #6F625C",
"$+	c #61544D",
"%+	c #61554B",
"&+	c #5F534A",
"*+	c #5C5248",
"=+	c #584F46",
"-+	c #595047",
";+	c #594F47",
">+	c #554B43",
",+	c #544A43",
"'+	c #373028",
")+	c #0F0F0A",
"!+	c #12100D",
"~+	c #13100E",
"{+	c #161312",
"]+	c #191614",
"^+	c #1C1816",
"/+	c #1D1917",
"(+	c #1E1A18",
"_+	c #1E1C18",
":+	c #413A33",
"<+	c #5D554C",
"[+	c #5A504A",
"}+	c #635A57",
"|+	c #D5D5D5",
"1+	c #B8B8B6",
"2+	c #82807B",
"3+	c #87837E",
"4+	c #89837E",
"5+	c #756A65",
"6+	c #5B504B",
"7+	c #5C514C",
"8+	c #615652",
"9+	c #6C5F5A",
"0+	c #756861",
"a+	c #7F726D",
"b+	c #8A7E7C",
"c+	c #837976",
"d+	c #7C726F",
"e+	c #786D68",
"f+	c #665D54",
"g+	c #584F47",
"h+	c #564D46",
"i+	c #554C45",
"j+	c #564B45",
"k+	c #514640",
"l+	c #4F443E",
"m+	c #4C433B",
"n+	c #433932",
"o+	c #28241F",
"p+	c #0F0D09",
"q+	c #13100D",
"r+	c #15110E",
"s+	c #17120F",
"t+	c #181411",
"u+	c #191512",
"v+	c #191611",
"w+	c #2D2624",
"x+	c #403C3B",
"y+	c #474144",
"z+	c #4F494E",
"A+	c #C4C1C2",
"B+	c #DBE3E1",
"C+	c #473D36",
"D+	c #4D4338",
"E+	c #4C4237",
"F+	c #4F443C",
"G+	c #4C413B",
"H+	c #4B403A",
"I+	c #4E433D",
"J+	c #51453E",
"K+	c #53463D",
"L+	c #443831",
"M+	c #483E38",
"N+	c #5F534B",
"O+	c #62554A",
"P+	c #6C6057",
"Q+	c #5A5046",
"R+	c #574E45",
"S+	c #514841",
"T+	c #4D443D",
"U+	c #484039",
"V+	c #423A33",
"W+	c #372E28",
"X+	c #221E18",
"Y+	c #0E0C09",
"Z+	c #120F0C",
"`+	c #130F0C",
" @	c #14100D",
".@	c #171310",
"+@	c #16120F",
"@@	c #14110E",
"#@	c #25201D",
"$@	c #2E2724",
"%@	c #322C29",
"&@	c #3B3334",
"*@	c #BCBAB9",
"=@	c #BEC7C5",
"-@	c #4E4136",
";@	c #4B3E36",
">@	c #4A3D35",
",@	c #4A4037",
"'@	c #483E35",
")@	c #4B4138",
"!@	c #4D4239",
"~@	c #4C4037",
"{@	c #4D3F36",
"]@	c #443A32",
"^@	c #423930",
"/@	c #897A6E",
"(@	c #918473",
"_@	c #908274",
":@	c #80736A",
"<@	c #5C524C",
"[@	c #544944",
"}@	c #554B42",
"|@	c #51473F",
"1@	c #4B433B",
"2@	c #433C34",
"3@	c #3D362F",
"4@	c #352F2B",
"5@	c #2D2823",
"6@	c #1E1914",
"7@	c #0D0B08",
"8@	c #100C09",
"9@	c #110D0A",
"0@	c #120E0B",
"a@	c #13100C",
"b@	c #26211E",
"c@	c #302821",
"d@	c #322924",
"e@	c #3D3432",
"f@	c #ADAFAD",
"g@	c #D6E0DE",
"h@	c #CAD5D2",
"i@	c #50443B",
"j@	c #4B3E37",
"k@	c #4A3E35",
"l@	c #4C3F37",
"m@	c #4D4038",
"n@	c #4B3D35",
"o@	c #493D35",
"p@	c #453830",
"q@	c #3B322C",
"r@	c #6F665A",
"s@	c #635C51",
"t@	c #504A44",
"u@	c #423F3C",
"v@	c #494545",
"w@	c #52463E",
"x@	c #4E433A",
"y@	c #4C4139",
"z@	c #473E37",
"A@	c #433B36",
"B@	c #3E3631",
"C@	c #36322D",
"D@	c #2F2B26",
"E@	c #2B2722",
"F@	c #27231F",
"G@	c #1F1A16",
"H@	c #13140F",
"I@	c #0A0A06",
"J@	c #0C0906",
"K@	c #0E0A07",
"L@	c #0E0B08",
"M@	c #0F0D0A",
"N@	c #0F0E0C",
"O@	c #0F0E0D",
"P@	c #100F0E",
"Q@	c #10100F",
"R@	c #13120C",
"S@	c #241E1A",
"T@	c #312824",
"U@	c #3F3732",
"V@	c #A2A8A5",
"W@	c #EAEFEE",
"X@	c #CAD7D5",
"Y@	c #CEDBD9",
"Z@	c #493C34",
"`@	c #45372F",
" #	c #342A26",
".#	c #302623",
"+#	c #2C2321",
"@#	c #2B2423",
"##	c #302828",
"$#	c #3B3330",
"%#	c #3D3731",
"&#	c #38322C",
"*#	c #322C27",
"=#	c #2E2822",
"-#	c #28221C",
";#	c #221C16",
">#	c #201B16",
",#	c #211C16",
"'#	c #241E19",
")#	c #29211D",
"!#	c #2B241F",
"~#	c #362E2B",
"{#	c #342D2A",
"]#	c #2C2622",
"^#	c #231C19",
"/#	c #130E0B",
"(#	c #100B09",
"_#	c #0D0B09",
":#	c #0C0B08",
"<#	c #0F0D08",
"[#	c #1F1A17",
"}#	c #322722",
"|#	c #332A24",
"1#	c #413832",
"2#	c #A5ABA7",
"3#	c #D1DCDA",
"4#	c #DCE5E3",
"5#	c #CBD8D6",
"6#	c #D4E1DF",
"7#	c #4A3D36",
"8#	c #483B33",
"9#	c #473A32",
"0#	c #43362D",
"a#	c #322925",
"b#	c #2C2121",
"c#	c #2B221E",
"d#	c #2E2421",
"e#	c #322724",
"f#	c #312621",
"g#	c #211B17",
"h#	c #221D18",
"i#	c #27221D",
"j#	c #332D28",
"k#	c #39322C",
"l#	c #3E352E",
"m#	c #423831",
"n#	c #493F38",
"o#	c #50443F",
"p#	c #5B4F49",
"q#	c #71625D",
"r#	c #84756F",
"s#	c #82756F",
"t#	c #7B6F68",
"u#	c #6F635D",
"v#	c #5E544E",
"w#	c #4D433D",
"x#	c #3B322D",
"y#	c #251E1A",
"z#	c #16120D",
"A#	c #0F0B07",
"B#	c #181410",
"C#	c #302620",
"D#	c #342821",
"E#	c #433A32",
"F#	c #A8ADA9",
"G#	c #CDDAD8",
"H#	c #D1DCDB",
"I#	c #D4E2E1",
"J#	c #5C5148",
"K#	c #41342C",
"L#	c #322923",
"M#	c #2D2319",
"N#	c #2E251A",
"O#	c #2E241D",
"P#	c #302722",
"Q#	c #3D322E",
"R#	c #473E36",
"S#	c #4A4138",
"T#	c #4E443C",
"U#	c #524842",
"V#	c #584C48",
"W#	c #5C504C",
"X#	c #60544D",
"Y#	c #645852",
"Z#	c #6C5F58",
"`#	c #73655E",
" $	c #7E7069",
".$	c #84766E",
"+$	c #796961",
"@$	c #706058",
"#$	c #6C5D56",
"$$	c #685A53",
"%$	c #4C443D",
"&$	c #474139",
"*$	c #413A38",
"=$	c #2D2925",
"-$	c #2F241D",
";$	c #352820",
">$	c #483E36",
",$	c #B0B6B3",
"'$	c #D4E2E0",
")$	c #5F574F",
"!$	c #493C33",
"~$	c #483B32",
"{$	c #473A31",
"]$	c #463931",
"^$	c #463930",
"/$	c #44372E",
"($	c #40332A",
"_$	c #312720",
":$	c #2C2219",
"<$	c #31241D",
"[$	c #32251E",
"}$	c #322620",
"|$	c #433832",
"1$	c #5B504A",
"2$	c #615653",
"3$	c #645B53",
"4$	c #696057",
"5$	c #70665D",
"6$	c #6E645B",
"7$	c #6B5E53",
"8$	c #695B51",
"9$	c #6B5D53",
"0$	c #6E5F56",
"a$	c #706158",
"b$	c #6C6258",
"c$	c #655C51",
"d$	c #615751",
"e$	c #5B524D",
"f$	c #544B47",
"g$	c #4B4544",
"h$	c #464040",
"i$	c #433D3E",
"j$	c #423C3E",
"k$	c #423E43",
"l$	c #403A3B",
"m$	c #33261E",
"n$	c #362920",
"o$	c #4D3E37",
"p$	c #B3B8B4",
"q$	c #D0DBDA",
"r$	c #D3E0DF",
"s$	c #6F6861",
"t$	c #473930",
"u$	c #45382F",
"v$	c #42352C",
"w$	c #3E3127",
"x$	c #312820",
"y$	c #2B2118",
"z$	c #30231C",
"A$	c #31241C",
"B$	c #60544C",
"C$	c #62544C",
"D$	c #72635A",
"E$	c #786A62",
"F$	c #76695F",
"G$	c #70645A",
"H$	c #6A5E54",
"I$	c #514945",
"J$	c #4B413D",
"K$	c #443B3C",
"L$	c #3D3334",
"M$	c #3A3230",
"N$	c #38312F",
"O$	c #362F2C",
"P$	c #372E2B",
"Q$	c #362C29",
"R$	c #352B29",
"S$	c #362C2A",
"T$	c #352A29",
"U$	c #382A26",
"V$	c #3B2E27",
"W$	c #33261D",
"X$	c #372920",
"Y$	c #51433C",
"Z$	c #B9C0BE",
"`$	c #DAE3E2",
" %	c #746E67",
".%	c #44362D",
"+%	c #3E3026",
"@%	c #2F261F",
"#%	c #2A1F17",
"$%	c #302319",
"%%	c #31241B",
"&%	c #30231B",
"*%	c #54463D",
"=%	c #7A6C64",
"-%	c #7D7364",
";%	c #73685A",
">%	c #60564D",
",%	c #49403A",
"'%	c #3F3534",
")%	c #3A3130",
"!%	c #352C2A",
"~%	c #322824",
"{%	c #312823",
"]%	c #312723",
"^%	c #332924",
"/%	c #352A25",
"(%	c #342A24",
"_%	c #372B24",
":%	c #372A24",
"<%	c #372A23",
"[%	c #382B23",
"}%	c #392B24",
"|%	c #3A2921",
"1%	c #3C2D23",
"2%	c #31251C",
"3%	c #544740",
"4%	c #BEC6C4",
"5%	c #CAD7D4",
"6%	c #D2DFDD",
"7%	c #817E77",
"8%	c #42342B",
"9%	c #3D3026",
"0%	c #30231A",
"a%	c #32241A",
"b%	c #534841",
"c%	c #3F3733",
"d%	c #352C2C",
"e%	c #302826",
"f%	c #2F2823",
"g%	c #2E2722",
"h%	c #31281F",
"i%	c #33291F",
"j%	c #33271E",
"k%	c #33251D",
"l%	c #35271E",
"m%	c #35271C",
"n%	c #34271C",
"o%	c #34271E",
"p%	c #36281E",
"q%	c #372921",
"r%	c #382921",
"s%	c #392A22",
"t%	c #392A21",
"u%	c #3B2A21",
"v%	c #392D24",
"w%	c #30251C",
"x%	c #362820",
"y%	c #C2CBC8",
"z%	c #CEDAD8",
"A%	c #D2DDDB",
"B%	c #D1DEDC",
"C%	c #8B8B86",
"D%	c #3F3228",
"E%	c #41342B",
"F%	c #3F3229",
"G%	c #3C2E24",
"H%	c #2D231D",
"I%	c #291E16",
"J%	c #2F2218",
"K%	c #2F2219",
"L%	c #32241B",
"M%	c #34261E",
"N%	c #2C2420",
"O%	c #2D2421",
"P%	c #2F2521",
"Q%	c #2D241F",
"R%	c #2F241E",
"S%	c #35271D",
"T%	c #34261D",
"U%	c #33251C",
"V%	c #36281F",
"W%	c #382821",
"X%	c #3A2821",
"Y%	c #3A2A1F",
"Z%	c #392B23",
"`%	c #574B43",
" &	c #C4CFCC",
".&	c #E5EBEA",
"+&	c #EBF0EF",
"@&	c #D2DEDD",
"#&	c #8B8C87",
"$&	c #3E3027",
"%&	c #3E3128",
"&&	c #3B2D24",
"*&	c #2C221B",
"=&	c #281D14",
"-&	c #2C2017",
";&	c #2E2118",
">&	c #2D2219",
",&	c #2D231A",
"'&	c #2E241B",
")&	c #2F241B",
"!&	c #31231B",
"~&	c #32251C",
"{&	c #382A21",
"]&	c #372820",
"^&	c #392820",
"/&	c #3A291F",
"(&	c #372A22",
"_&	c #32241C",
":&	c #37281D",
"<&	c #594D42",
"[&	c #D4DDDB",
"}&	c #E0E9E8",
"|&	c #979995",
"1&	c #3B2D23",
"2&	c #3E3028",
"3&	c #3C2F27",
"4&	c #3C2F26",
"5&	c #392C23",
"6&	c #2A2119",
"7&	c #271D14",
"8&	c #2C1F16",
"9&	c #2F2118",
"0&	c #2F1F15",
"a&	c #2E2117",
"b&	c #302219",
"c&	c #31231A",
"d&	c #312519",
"e&	c #32261A",
"f&	c #33261B",
"g&	c #35251D",
"h&	c #37251E",
"i&	c #37261F",
"j&	c #39271D",
"k&	c #32231B",
"l&	c #352318",
"m&	c #594A3E",
"n&	c #ABACA7",
"o&	c #36251D",
"p&	c #3B2D25",
"q&	c #3C2E23",
"r&	c #3B2D22",
"s&	c #3C2D22",
"t&	c #3A2C21",
"u&	c #38291D",
"v&	c #292017",
"w&	c #271C12",
"x&	c #2D1F16",
"y&	c #2D2017",
"z&	c #2E2119",
"A&	c #31241A",
"B&	c #31221A",
"C&	c #30251B",
"D&	c #2F251C",
"E&	c #312417",
"F&	c #352417",
"G&	c #332215",
"H&	c #332319",
"I&	c #33241B",
"J&	c #34241C",
"K&	c #33231C",
"L&	c #332318",
"M&	c #332113",
"N&	c #413328",
"O&	c #412C21",
"P&	c #614532",
"Q&	c #9E958B",
"R&	c #D0D3D4",
"S&	c #D4D3D0",
"T&	c #2E1C0C",
"U&	c #33281D",
"V&	c #37291E",
"W&	c #382A1F",
"X&	c #281F15",
"Y&	c #261B11",
"Z&	c #2C1F15",
"`&	c #2B1E15",
" *	c #2F2117",
".*	c #302218",
"+*	c #332317",
"@*	c #352216",
"#*	c #30231D",
"$*	c #2E221C",
"%*	c #312118",
"&*	c #322016",
"**	c #342117",
"=*	c #382419",
"-*	c #453125",
";*	c #655E56",
">*	c #A6ACA9",
",*	c #D0DAD8",
"'*	c #C9D3D0",
")*	c #875E4A",
"!*	c #D39D77",
"~*	c #F0ECE9",
"{*	c #E5E6E4",
"]*	c #201104",
"^*	c #2F2114",
"/*	c #312317",
"(*	c #322419",
"_*	c #33251A",
":*	c #34261B",
"<*	c #36281D",
"[*	c #271E13",
"}*	c #251B11",
"|*	c #2B1D15",
"1*	c #2F2013",
"2*	c #312015",
"3*	c #32221A",
"4*	c #2E1F16",
"5*	c #2B190D",
"6*	c #301D11",
"7*	c #5A524B",
"8*	c #A7ACA8",
"9*	c #BEC8C5",
"0*	c #C6D0CE",
"a*	c #C6D1CE",
"b*	c #886D5F",
"c*	c #CFA98E",
"d*	c #C5C3C0",
"e*	c #6B5648",
"f*	c #2D1D11",
"g*	c #2C1D12",
"h*	c #2C1E13",
"i*	c #2F2115",
"j*	c #312217",
"k*	c #322319",
"l*	c #261D15",
"m*	c #2B1D12",
"n*	c #2A1E14",
"o*	c #2E2017",
"p*	c #2D1E14",
"q*	c #2F2017",
"r*	c #2F2018",
"s*	c #2C1E15",
"t*	c #27190F",
"u*	c #291A0F",
"v*	c #3F342A",
"w*	c #6D665F",
"x*	c #92938F",
"y*	c #A9B0AE",
"z*	c #BEC8C6",
"A*	c #CDD9D8",
"B*	c #D3DEDC",
"C*	c #BB9E85",
"D*	c #4B3324",
"E*	c #3F2F29",
"F*	c #6E6964",
"G*	c #30261E",
"H*	c #20130B",
"I*	c #291B12",
"J*	c #322013",
"K*	c #281B11",
"L*	c #27190D",
"M*	c #2A1D13",
"N*	c #2E1E12",
"O*	c #2D1D13",
"P*	c #26170F",
"Q*	c #2B1F17",
"R*	c #3E332D",
"S*	c #554F48",
"T*	c #76766F",
"U*	c #A0A49F",
"V*	c #CAD5D4",
"W*	c #D5E3E1",
"X*	c #CBD8D5",
"Y*	c #D6E0DF",
"Z*	c #BCA593",
"`*	c #563A32",
" =	c #5B4E4C",
".=	c #CBCDCC",
"+=	c #5E5853",
"@=	c #2B1E17",
"#=	c #271A0F",
"$=	c #231B0F",
"%=	c #231A10",
"&=	c #281C14",
"*=	c #2A1D14",
"==	c #5F5A54",
"-=	c #A8B0AE",
";=	c #CED9D7",
">=	c #E1E8E7",
",=	c #D9DAD9",
"'=	c #594C45",
")=	c #371D0C",
"!=	c #6F4C36",
"~=	c #BDB5AD",
"{=	c #C8D5D3",
"]=	c #C1AD9C",
"^=	c #B48461",
"/=	c #C6936F",
"(=	c #EDE6DF",
"_=	c #C1AB99",
":=	c #BE8C65",
"<=	c #D4A279",
"[=	c #E8DBCF",
"}=	c #D7CEC6",
"|=	c #ECE6E0",
"                                                                                                ",
"                                                                                                ",
"                                                                                                ",
"                                                                                                ",
"                                                                                                ",
"                                                                                                ",
"                                                                                                ",
"                                                    . + @ #                                     ",
"              $ % & * = - ; > , ' ) ! ~ { ] ^ / ( _ : < [ } |                                   ",
"            1 2 3 4 5 : 6 7 8 9 0 a b c d e e e f f f g h i j                                   ",
"            k l m n o p q r s s t u v e w x y z A A B B C D E                                   ",
"            F G H I J K L M p N O z y P A P P A Q R S T U V W X Y                               ",
"              Z `  ...+.M @.o #.P P $.A %.&.B %.*.T =.=.-.;.>.,.'.).!.~.{.                      ",
"              ].^.r /.(.@.r _.:.z <.$.A A [.[.}.|.D V V 1.2.3.4.5.6.7.6.).).8.                  ",
"              9.0.a.b.M q s c.$.z P z A Q |.d.|.|.;.;.V e.f.g.h.i.j.k.l.m.n.o.p.q.r.s.t.        ",
"            u.v.w.x.y.z.p A.$.<.z <.A Q Q d.D V d.B.;.;.C.D.E.F.G.H.I.J.K.L.M.N.O.P.Q.R.S.T.    ",
"        U.V.W.X.Y.Z.`. +.+c.++@+#+$+-.%+&+U *+;.=+-+;+>+>+,+].'+)+!+~+{+]+^+/+(+/+_+:+<+[+}+|+  ",
"      1+2+3+4+5+6+7+8+9+0+a+b+c+d+e+f+*+*+D ;.g+h+i+j+k+l+m+n+o+p+q+r+s+t+u+u+u+v+u+w+x+y+z+A+  ",
"    B+C+D+E+F+G+H+H+I+J+K+L+M+N+O+z P+|.W Q+B.R+S+S+S+T+U+V+W+X+Y+Z+`+ @r+.@+@+@@@+@#@$@%@&@*@  ",
"    =@-@;@>@,@,@'@)@!@~@{@]@^@/@(@_@:@<@[@}@}@|@T+1@U+2@3@4@5@6@7@8@9@0@0@`+`+`+a@r+b@c@d@e@f@  ",
"  g@h@i@j@;@;@k@k@l@m@n@o@p@q@r@s@t@u@v@w@x@y@z@A@B@C@D@E@F@G@H@I@J@K@L@M@N@O@P@Q@R@S@T@d@U@V@W@",
"  X@Y@K+j@>@>@>@>@>@l@Z@Z@`@ #.#+#@###$#%#&#*#=#-#;#>#,#'#)#!#L.~#{#]#^#.@/#(#_#:#<#[#}#|#1#2#3#",
"4#5#6#< 7#>@Z@Z@>@Z@>@8#9#0#a#b#c#d#e#f#g#h#i#=#j#k#l#m#n#o#p#q#r#s#t#u#v#w#x#y#z#A#B#C#D#E#F#G#",
"H#6.I#J#n@8#8#8#8#8#8#9#p@K#L#M#N#O#P#Q#R#S#T#U#V#W#X#Y#Z#`# $.$.$+$@$#$$$$+5 %$&$*$=$-$;$>$,$7.",
"7.6.'$)$!$~${${$]${${$^$/$($_$:$<$[$}$|$1$2$3$4$5$6$7$8$9$0$a$b$c$d$e$f$g$h$i$j$j$k$l$m$n$o$p$7.",
"q$6.r$s$t$u${${$^$u$/$/$v$w$x$y$z$A$<$j@B$C$e D$E$F$G$H$}.I$J$K$L$M$N$O$P$Q$R$S$T$U$V$W$X$Y$Z$7.",
"`$5#5. %.%u$u${$u$/$/$/$v$+%@%#%$%%%&%*%=%-%;%>%j+,%'%)%!%~%{%2 ]%^%/%(%_%:%<%[%}%|%1%2%X$3%4%7.",
"  5%6%7%8%/$0#^$/$v$v$v$($9%O##%$%0%a%!$b%c%d%e%f%g%h%i%j%k%l%m%n%o%p%X$X$q%r%s%t%u%v%w%x%/ y%z%",
"  A%B%C%D%v$v$/$0#v$E%($F%G%H%I%J%K%L%M%N%O%P%Q%R%-$W$;$M%S%T%T%U%T%l%V%V%X$W%X%|%Y%Z%&%V%`% &.&",
"  +&@&#&$&v$v$($($($($F%%&&&*&=&-&;&L%K%>&,&'&)&!&z$~&W$o%T%T%T%U%T%l%V%V%{&]&^&^&/&(&_&:&<&[&  ",
"    }&|&1&F%F%%&2&2&2&3&4&5&6&7&8&8&0%9&0&a&$%$%b&c&d&e&f&U%_&_&%%U%U%T%S%T%g&h&i&j&;$k&l&m&    ",
"      n&o&p&q&q&r&q&q&s&t&u&v&w&x&8&0%y&y&z&0%A&B&b&0%0%C&D&E&F&G&H&I&I&J&K&L&M&F&N&O&P&Q&R&    ",
"      S&T&U&p%V&V&V&W&W&W&m%X&Y&Z&8&K%8&`&y&K%%%b&9&J% *.*+*@*#*$*%*&***=*-*;*>*,*'*)*!*~*      ",
"      {*]*^*/*(*_*:*:*m%<*_*[*}*|*8&;&;&8&y&K%K%c& *1*^*2*3*4*5*6*7*8*9*0*7.z%7.7.a*b*c*        ",
"        d*e*f*g*h*i*j*.*k*L&l*}*m*n*y&o*p*q*9&r*s*t*u*v*w*x*y*z*A*6%G#6.7.7.6.X@B*              ",
"          C*D*E*F*G*H*I*0&J*K*L*=&M*N*O*P*Q*R*S*T*U*V*W*'.7.6.7.7.7.7.6.6.X*Y*                  ",
"          Z*`* =    .=+=@=#=$=%=&=*=;&==-=7.6%z%6.7.7.7.7.7.7.6.6.6.;=q$>=                      ",
"                          ,='=)=!=~={=X*6.6.6.6.6.6.6.6.6.5#).!.>=                              ",
"                            ]=^=/=(=                                                            ",
"                            _=:=<=[=                                                            ",
"                              }=|=                                                              ",
"                                                                                                ",
"                                                                                                ",
"                                                                                                ",
"                                                                                                ",
"                                                                                                ",
"                                                                                                ",
"                                                                                                "};
