/* XPM */
static char * speech_mark_small_xpm[] = {
"35 30 98 2",
"  	c None",
". 	c #CDD9D7",
"+ 	c #CCD8D6",
"@ 	c #CBD7D6",
"# 	c #CCD7D6",
"$ 	c #CBD7D5",
"% 	c #CBD8D6",
"& 	c #CDD7D6",
"* 	c #CAD6D4",
"= 	c #CFDAD8",
"- 	c #D6E1E0",
"; 	c #D6E0DF",
"> 	c #D6E1DF",
", 	c #D7E1E0",
"' 	c #CCD8D5",
") 	c #CAD9D6",
"! 	c #CBD8D5",
"~ 	c #D4DFDD",
"{ 	c #D4E0DE",
"] 	c #CDDAD8",
"^ 	c #D0DBD9",
"/ 	c #DCE5E4",
"( 	c #DBE4E3",
"_ 	c #CEDAD8",
": 	c #D8E2E0",
"< 	c #DAE4E3",
"[ 	c #DCE4E3",
"} 	c #D9E3E1",
"| 	c #CEDBD9",
"1 	c #CAD8D5",
"2 	c #CAD8D6",
"3 	c #DBE3E2",
"4 	c #CCD8D7",
"5 	c #CBD9D6",
"6 	c #D7E0DF",
"7 	c #D9E3E2",
"8 	c #CDD7D7",
"9 	c #CBD9D7",
"0 	c #D9E4E3",
"a 	c #DAE3E2",
"b 	c #CEDBD8",
"c 	c #CBD8D7",
"d 	c #CAD9D7",
"e 	c #DAE2E1",
"f 	c #CFDBD9",
"g 	c #CDD8D6",
"h 	c #C9D9D6",
"i 	c #CDD8D7",
"j 	c #CCD9D6",
"k 	c #D9E2E1",
"l 	c #DCE6E5",
"m 	c #DBE4E4",
"n 	c #CAD7D5",
"o 	c #D8E2E1",
"p 	c #D8E1E0",
"q 	c #D7E1DF",
"r 	c #D5E0DF",
"s 	c #CBD6D5",
"t 	c #CCD7D5",
"u 	c #CED9D8",
"v 	c #DBE5E4",
"w 	c #D0DBDA",
"x 	c #C9DAD6",
"y 	c #C9D8D5",
"z 	c #CBD9D5",
"A 	c #CAD7D4",
"B 	c #D0DCDA",
"C 	c #DAE4E2",
"D 	c #D5E0DE",
"E 	c #C9D7D4",
"F 	c #D3DDDD",
"G 	c #CCD9D7",
"H 	c #C9DAD7",
"I 	c #D4DFDE",
"J 	c #CEDAD9",
"K 	c #CFDAD9",
"L 	c #CAD6D5",
"M 	c #DAE3E3",
"N 	c #D6DFDE",
"O 	c #CAD9D5",
"P 	c #D5E1DF",
"Q 	c #DCE5E5",
"R 	c #D2DCDB",
"S 	c #D4DEDD",
"T 	c #D8E3E1",
"U 	c #D0DAD9",
"V 	c #D8E1E1",
"W 	c #D2DDDB",
"X 	c #D8E3E2",
"Y 	c #D3DEDC",
"Z 	c #DBE2E1",
"` 	c #CBD6D4",
" .	c #D1DCDB",
"..	c #D5DEDE",
"+.	c #DAE4E4",
"@.	c #D3DDDC",
"#.	c #DCE4E4",
"$.	c #C9D8D6",
". . . . . . . . . . . . . . . . . . . . . . . . . . . . . . . . . . . ",
"+ @ # $ $ $ $ $ $ $ $ $ + + + + % % & + . $ * $ $ $ $ $ $ $ $ $ + + + ",
"+ = - ; ; ; ; ; ; ; ; > , . + ' % % ) ! $ ~ ; ; ; ; ; ; ; ; ; ; { ] $ ",
"! ^ / ( ( ( ( ( ( ( ( ( / _ % + & + ) % $ : ( < ( ( ( ( ( ( ( [ } | 1 ",
"2 ^ ( ( < < ( ( ( ( 3 3 ( _ 2 4 & + 5 % % 6 7 7 < < < ( ( ( ( ( : | 1 ",
"2 ^ ( ( ( ( < ( ( 3 ( ( ( _ 2 + 8 4 9 % % 6 7 0 a ( ( < ( ( ( ( : b 1 ",
") ^ ( ( ( ( ( ( ( ( ( ( ( _ 2 4 8 4 9 % % 6 7 0 < ( ( ( ( ( ( ( : | 1 ",
") ^ ( ( < ( ( < ( ( ( ( ( _ 2 4 8 4 9 % % 6 7 0 < ( 3 ( < ( ( ( : | 1 ",
") ^ ( ( < ( ( < ( ( ( ( ( _ 2 4 8 4 9 % % 6 7 0 < ( 3 ( < ( ( ( : | 1 ",
") ^ ( ( ( < a ( 3 ( ( ( ( _ 2 4 8 c d % 2 6 7 7 e 3 < a ( < < ( : | 1 ",
"5 f < 0 7 a < 0 0 a a ( ( _ 2 4 8 + 9 ) % ; e a a 7 7 < 3 3 3 a : | 1 ",
"+ f < 7 a a a a 7 a a 3 ( _ 2 4 g 4 5 h % > a < 7 7 a 3 a a e a : | 1 ",
"+ f ( e a 7 a a a a a 3 ( _ 2 4 i j 5 ) 1 , a 3 7 a a a 7 < k a : | 1 ",
"+ f l < a m ( a a a a ( ( _ 2 4 i + + % n o [ [ ( ( ( a a 7 a a : | 1 ",
"+ _ p ; ; ; , k a 3 a ( ( _ 2 4 i + # ' $ ~ , q ; r , < < 7 ( ( : b 1 ",
"j % $ s t * u , v a a 3 ( _ 2 + g + + + + + $ $ $ * w < < ( a ( : | 1 ",
"x 5 ! % t y | ; ( < a a < _ 1 ' g + $ + j z 5 % % A B v a a 7 C o | 1 ",
") y 2 % 5 n u ; ( a 7 7 D g % 4 # $ $ g ! ! ) 1 5 E ^ v a a < a F G % ",
"H h ) % + . I 7 7 a a a w + $ + + $ + g t t + i n J , ( a ( 7 a u $ 4 ",
"$ G ) ) 2 % ; v a a < < K + 5 + t + + + @ ) + + L w k ( a a a [ _ $ i ",
"$ G ) % + D 7 M a a < k = # ) + t + + ! 2 h + % J ; < a a 7 a a _ % . ",
"+ % n . ~ < a a a a a N . g 2 ! # ! ! O O E s J P < ( a a 0 Q R g + . ",
"+ $ ^ S 0 a a a a ( T ^ $ + % $ # ! ) ) ! _ U ; C ( 3 a a < V ' # i j ",
". W 7 7 X < 3 a < < Y % $ + + + t % ) 5 = > k ( 3 a < < 7 o K 5 + i G ",
"u < < < 7 7 7 7 7 I $ + + + + + + + ) + Y 7 a 3 3 Z a 0 7 K $ % 4 i . ",
"+ _ / < 7 e 3 a Y A + 8 . . . . . % 2 2 ` ; o a 3 3 < o  .n + g + G g ",
"+ f v ( 3 < 7 R % 5 % i i . . i j + i + $ , 7 a k ( o K $ + + + . G g ",
"+ g ..a m +. .+ ) h % & g . . . g + c % t u , < l , f + $ + $ + + + . ",
"t + @.#. ._ G % % + % g g G . j i % x ) + * 7 7 R i + + # + $ + + + . ",
") + . ^ ! $ % % @ + + + + . . . g + ) $.9 % K _ + + + $ $ $ + + + + . "};
