/* XPM */
static char * speech_mark_large_xpm[] = {
"61 54 109 2",
"  	c None",
". 	c #CDD9D7",
"+ 	c #CCD8D6",
"@ 	c #CBD7D5",
"# 	c #CAD9D6",
"$ 	c #CAD8D6",
"% 	c #C9D8D5",
"& 	c #CCD9D7",
"* 	c #CCD8D7",
"= 	c #CDD8D6",
"- 	c #CBD8D6",
"; 	c #CCD7D5",
"> 	c #CDD8D7",
", 	c #CCD7D6",
"' 	c #CBD8D5",
") 	c #CEDAD8",
"! 	c #D3DEDC",
"~ 	c #D0DBDA",
"{ 	c #CCD9D6",
"] 	c #CBD9D6",
"^ 	c #CFDBDA",
"/ 	c #D7E1E0",
"( 	c #DAE4E3",
"_ 	c #D8E1E1",
": 	c #CFDAD8",
"< 	c #D2DDDB",
"[ 	c #CFD9D8",
"} 	c #C9D9D6",
"| 	c #D9E3E2",
"1 	c #DBE4E3",
"2 	c #DBE3E2",
"3 	c #D0DCDA",
"4 	c #CBD7D6",
"5 	c #CFDBD9",
"6 	c #D6E0DF",
"7 	c #CBD9D5",
"8 	c #CADAD6",
"9 	c #CAD7D5",
"0 	c #D0DBD9",
"a 	c #DBE5E4",
"b 	c #D8E3E1",
"c 	c #D1DCDA",
"d 	c #CAD6D4",
"e 	c #CFDAD9",
"f 	c #DAE3E2",
"g 	c #CEDAD7",
"h 	c #CAD8D5",
"i 	c #CDD7D6",
"j 	c #CEDBD9",
"k 	c #D1DCDB",
"l 	c #DAE2E1",
"m 	c #D2DDDC",
"n 	c #CDD9D6",
"o 	c #D7E2E0",
"p 	c #CBD6D4",
"q 	c #D9E2E1",
"r 	c #CFDBD8",
"s 	c #CBD8D7",
"t 	c #CEDBD8",
"u 	c #D1DBDA",
"v 	c #D8E2E1",
"w 	c #D8E3E2",
"x 	c #CBD9D7",
"y 	c #CBD7D4",
"z 	c #D8E1E0",
"A 	c #D9E4E3",
"B 	c #D5DFDE",
"C 	c #CDDAD7",
"D 	c #D4DFDD",
"E 	c #D6E0DE",
"F 	c #D5E0DF",
"G 	c #D0DAD9",
"H 	c #D6E1E0",
"I 	c #D1DDDB",
"J 	c #DBE4E4",
"K 	c #D9E2E2",
"L 	c #D2DCDB",
"M 	c #D7E1DF",
"N 	c #CBDAD7",
"O 	c #CCDAD7",
"P 	c #CDD9D8",
"Q 	c #D6E0E0",
"R 	c #CBDAD6",
"S 	c #CBD6D5",
"T 	c #CED9D8",
"U 	c #D6E1DF",
"V 	c #CAD9D7",
"W 	c #CDD7D5",
"X 	c #CCD7D7",
"Y 	c #D3DEDD",
"Z 	c #DBE3E3",
"` 	c #CDD7D7",
" .	c #C9D6D4",
"..	c #D4DFDE",
"+.	c #D7E2E1",
"@.	c #CAD7D4",
"#.	c #D4DEDD",
"$.	c #DAE3E3",
"%.	c #DCE5E4",
"&.	c #DCE4E3",
"*.	c #D4E0DE",
"=.	c #D1DDDA",
"-.	c #D5E0DE",
";.	c #CED9D7",
">.	c #D5DFDD",
",.	c #D6DFDE",
"'.	c #D3DDDB",
").	c #CBD7CD",
"!.	c #D4DEDC",
". . . . . . . . + + + + + + @ + + # $ % & + + + + * . . . . = . & = = = = = = . . = = + + + + + + + + + + + - + + + + + * ",
". . . . . . . . + ; > , + + + + ' % # ) ! ~ + , * { > . . . = . . = . . . . . . . . . + + + + + @ @ + + ] $ % + + { ] + * ",
". . . . . . . . + + + + + + + + @ ) ^ / ( _ : @ * + . . . . = . . = . . . . . . . . . + , > @ + + + + ' % # . < [ + , * { ",
". . . + . . & . & ] } ' + + + @ ) ( | 1 2 ( 3 ' * > { > > > = & . = . . . . . . . . . + + + , @ + . + 4 & 5 / ( 6 . , * + ",
"+ + + . + + = > + 7 8 $ 9 @ 0 / a 2 a 1 2 | b c @ . * { { & * = = . + . . . + . . & > & ] % ' + + + d e ( | 1 1 f g h * > ",
"+ + + . + + = i + ' ] @ j k / ( l f ( 1 f ( | m , , * { { & * = n . + . . . + . . & . { ] } $ d @ 0 / ( 2 1 f 2 | o 5 @ . ",
"+ + + + + + - ' ] ] p 0 / q f f | | | | | | 1 6 r h s * > + = > { . . + + . . + + = i + 7 ] @ t c / ( f f ( 1 f | | u , + ",
". . + @ + + - ] - - e / f f f f f q | v v w f 6 r 9 x , . = + + . & . + + + + + + - ' ] ] y 0 / z f f | | | | | A ( B C h ",
". . + + + - # - - C / ( f f f f | f | | | | f | D + + + + + + { & > + . . @ @ + + - ] - + : / f 2 f f | q | v v | f E ) h ",
". . + + - } } - e F 1 ( ( 1 f f f 1 f ( f 1 f 1 v G @ + - - ] ] { > . . + + + + - # - - ) H ( f f f | | l | | | | f v I + ",
"+ + + ; # # 9 * 6 J l 2 f f f f f 1 1 f 2 f f 1 K L @ @ # x # 8 & = + . . @ + - } $ - : B a ( 1 1 f f f 2 f ( f 1 f a M [ ",
"+ + + + + + , G a | f 2 f f 1 f f f f | 1 | v v F ) d + - + ] N O = . + + + ; # # 9 P Q J l 2 f 1 f f 2 1 1 f 2 f f 1 _ u ",
". . + + . + 0 v f l ( f f f f f f q | A | | e d ; @ ; . = + ] R { > . + + + + + & S u a | f 1 f f 1 f f f f | 1 | | ( F T ",
". . + + @ 5 U ( q f f w f f f 1 ( A | | G , - & s V - W ; + { + . + + . + @ + . @ ~ v ( f 1 1 f f f f f q | ( | ( T p + @ ",
". . + + + 3 z 1 f 2 1 ( | f 1 1 ( A | G - + + , > X + + + + + . . + + . + + + @ 5 H f l | | | f f f 1 f | ( | G = + - - $ ",
"& & + @ @ Y a 2 f ( f | f f 1 f f | G + @ + + + + > > & . & + . . + & . = @ + + k v f f f ( | f f f 1 ( ( v 0 - + + + * * ",
"+ + x 9 < | ( f f ( q f ( 1 f Z K 5 , - + @ + + + . . > > . + . . + > & { + @ @ B 1 2 f f f A f f 1 f ( K G + @ + + + + > ",
"> ` - 9 F a f f | | f f 1 f f v k @ + & @ + + + + . . . . . + . . + . + * x 9 < w 1 f f f q f 1 1 f 1 v ~ ; - + @ + + + . ",
"> > ]  ...1 l | | | | ( f 2 K < @ + + + @ + + + . + . . . . + . . + & > , $ @ +.1 f f | f f 2 1 f f v k @ + & + @ + + + . ",
"> ` - + 6 ( | | | 1 v f q 1 / ) @.= + + + @ + + . . . . . . + . . + . > + ] d / 1 l | | | | 1 f f | k @ + + + @ + + + . + ",
"* * 9 #.f ( f | | f | q f f 6 5 ' i + + + + + + . . . . . . + . . + & > , - 4 / $.| w | 2 v f q %.6 . @ = + + + @ + . . . ",
"& & 9 H 1 f f f | w f q &.q ~ 9 + + + + + . . . + . . . . . + . . + . > + 9 B f ( ( | | f q q f f 6 t ' = & + + . + + . . ",
". . @ F ( ( | f ( ( ( 1 1 | k @ + . . . . + . . . . . . . . + . . + > & - 9 v 1 f f f | | l q %.z : ' + , @ + + . . . + . ",
". . @ U 1 ( ( f | ( ( 1 ( F ) @ . . . . . + . . . . . . . . + . . + > . + @ / ( ( | f ( | f f 1 | 0 @ + . + + . . . . + . ",
". .  .*.( ( ( f q ( ( 1 1 3 @ + . + . . . . . . . . . . . . + . . + & . + @ v 1 ( f f f ( 1 1 ( F T ' + . . . . + . . . . ",
"+ + =.+.f | | f 2 | f 2 J ~ @ + + . . . . . . . . + . . . . + . . + + . + d H ( ( ( f | ( 1 1 ( 5 @ + . + . . . . . . . . ",
"+ @ -.f f | | l f f f 2 1 3 9 ' @ - @ @ @ 4 @ - + . + . . . + . . + . + + 3 v f | | f 2 f 2 2 ( ) @ + + . . . . . . . . + ",
"+ @ B q 2 f | f f A 1 1 1 m C t ) ) ) ) ) ) : ;.= + . . . . + . . + . + + U f f | | f f f 2 2 ( ) @ ' @ + + + + + + + + . ",
"+ @ D q f f f ( ( f f ( $./ -.F -.-.-.-.-.-.6 #.) @ . . . . + . . + . + + 6 l 2 f | f f ( 1 1 ( ~ . C . . . . . . ;.. + + ",
"+ @ >.f f f 1 f ( 1 ( ( f 2 1 1 1 1 1 1 1 1 &./ 5 @ . . . . + . . + . + + -.q f f f ( ( f ( ( ( E ....D D D D D D ,.'.;.- ",
"+ @ >.f 1 1 f 1 1 1 1 2 1 ( 2 1 1 1 1 1 1 1 1 M 5 @ . . . . + . . + . + + E f f f 1 f ( ( ( ( f Z 1 1 1 1 1 1 1 1 1 6 ) @ ",
"+ @ >.f 1 1 1 1 1 1 1 1 1 1 1 1 1 1 1 1 1 1 1 M 5 @ . . . . + . . + . + + E f 1 1 f 1 1 1 2 2 1 ( 2 1 1 1 1 1 1 1 1 E ) @ ",
"+ @ >.f 1 1 1 1 1 1 1 1 1 1 1 1 1 1 1 1 1 1 1 M 5 @ . . . . + . . + . + + E f 1 1 f 1 1 1 2 2 1 ( 2 1 1 1 1 1 1 1 1 E ) @ ",
"+ @ >.f 1 1 1 1 1 1 1 1 1 1 1 1 1 1 1 1 1 1 1 M 5 @ . . . . + . . + . + + E f 1 1 1 1 1 1 1 1 1 1 1 1 1 1 1 1 1 1 1 E ) @ ",
"+ @ >.f 1 1 1 1 1 1 1 1 1 1 1 1 1 1 1 1 1 1 1 M 5 @ . . . . + . . + . + + E f 1 1 1 1 1 1 1 1 1 1 1 1 1 1 1 1 1 1 1 E ) @ ",
"+ @ >.f 1 1 1 1 1 1 1 1 1 1 1 1 1 1 1 1 1 1 1 M 5 @ . . . . + . . + . + + E f 1 1 1 1 1 1 1 1 1 1 1 1 1 1 1 1 1 1 1 E ) @ ",
"+ @ >.f 1 1 1 1 1 1 1 1 1 1 1 1 1 1 1 1 1 1 1 M 5 @ . . . . + . . + . + + E f 1 1 1 1 1 1 1 1 1 1 1 1 1 1 1 1 1 1 1 E ) @ ",
"+ @ >.f 1 1 1 1 1 1 1 1 1 1 1 1 1 1 1 1 1 1 1 M 5 @ . . . . + . . + . + + E f 1 1 1 1 1 1 1 1 1 1 1 1 1 1 1 1 1 1 1 E ) @ ",
"+ @ >.f 1 1 1 1 1 1 1 1 1 1 1 1 1 1 1 1 1 1 1 M 5 @ . . . . + . . + . + + E f 1 1 1 1 1 1 1 1 1 1 1 1 1 1 1 1 1 1 1 E ) @ ",
"+ @ >.f 1 1 1 1 1 1 1 1 1 1 1 1 1 1 1 1 1 1 1 M 5 @ . . . . + . . + . + + E f 1 1 1 1 1 1 1 1 1 1 1 1 1 1 1 1 1 1 1 E ) @ ",
"+ @ >.f 1 1 1 1 1 1 1 1 1 1 1 1 1 1 1 1 1 1 1 M 5 @ . . . . + . . + . + + E f 1 1 1 1 1 1 1 1 1 1 1 1 1 1 1 1 1 1 1 E ) @ ",
"+ @ >.f 1 1 1 1 1 1 1 1 1 1 1 1 1 1 1 1 1 1 1 M 5 @ . . . . + . . + . + + E f 1 1 1 1 1 1 1 1 1 1 1 1 1 1 1 1 1 1 1 E ) ).",
"+ @ >.f 1 1 1 1 1 1 1 1 1 1 1 1 1 1 1 1 1 1 1 M 5 @ . . . . + . . + . + + E f 1 1 1 1 1 1 1 1 1 1 1 1 1 1 1 1 1 1 1 E ) @ ",
"+ @ >.f 1 1 1 1 1 1 1 1 1 1 1 1 1 1 1 1 1 1 1 M 5 @ . . . . + . . + . + + E f 1 1 1 1 1 1 1 1 1 1 1 1 1 1 1 1 1 1 1 E ) @ ",
"+ @ >.f 1 1 1 1 1 1 1 1 1 1 1 1 1 1 1 1 1 1 1 M 5 @ . . . . + . . + . + + E f 1 1 1 1 1 1 1 1 1 1 1 1 1 1 1 1 1 1 1 E ) @ ",
"+ @ >.f 1 1 1 1 1 1 1 1 1 1 1 1 1 1 1 1 1 1 1 M 5 @ . . . . + . . + . + + E f 1 1 1 1 1 1 1 1 1 1 1 1 1 1 1 1 1 1 1 E ) @ ",
"+ @ >.f 1 1 1 1 1 1 1 1 1 1 1 1 1 1 1 1 1 1 1 M 5 @ . . . . + . . + . + + E f 1 1 1 1 1 1 1 1 1 1 1 1 1 1 1 1 1 1 1 E ) @ ",
"+ @ >.f 1 1 1 1 1 1 1 1 1 1 1 1 1 1 1 1 1 1 1 M 5 @ . . . . + . . + . + + E f 1 1 1 1 1 1 1 1 1 1 1 1 1 1 1 1 1 1 1 E ) @ ",
"+ @ >.f 1 1 1 1 1 1 1 1 1 1 1 1 1 1 1 1 1 1 1 M 5 @ . . . . + . . + . + + E f 1 1 1 1 1 1 1 1 1 1 1 1 1 1 1 1 1 1 1 E ) @ ",
"+ @ B f 1 f f f f f f f f f f f f f f f f f 1 M 5 @ . . . . + . . + . + + E f 1 1 1 1 1 1 1 1 1 1 1 1 1 1 1 1 1 1 1 E ) @ ",
"+ @ 0 < '.< < < < < < < < < < < < < < < < < '.c . ' . . . . + . . + . + + 6 1 1 1 1 1 1 1 1 1 1 1 1 1 1 1 1 1 1 1 1 6 : @ ",
"+ , { ] ] ] ] ] ] ] ] ] ] ] ] ] ] ] ] ] ] ] # ] + + . . . + . . . + . + + L ! !.!.!.!.!.!.!.!.!.!.!.!.!.!.!.!.!.!.!.k . + ",
"> > - - - - - - - - - - - - - - - - - - - - - - + > { . . . + + & . . + + { x x x x x x x x x x x x x x x x x x x x { + + ",
"= = s V V V V V V V V V V V V V V V V V V V V V s = . . . . + + & . { > > - $ $ $ $ $ $ $ $ $ $ $ $ $ $ $ $ $ $ $ $ - + > "};
