/* XPM */
static char * tinysofa_xpm[] = {
"16 16 28 1",
" 	c None",
".	c #20201D",
"+	c #1F2120",
"@	c #211F20",
"#	c #202124",
"$	c #21211F",
"%	c #212121",
"&	c #232323",
"*	c #202020",
"=	c #9B8775",
"-	c #21201D",
";	c #574E46",
">	c #6C6057",
",	c #5E544D",
"'	c #584F47",
")	c #61564D",
"!	c #232021",
"~	c #8E7A71",
"{	c #72675B",
"]	c #212124",
"^	c #5E524B",
"/	c #9A8675",
"(	c #3C3A35",
"_	c #393430",
":	c #635750",
"<	c #87766B",
"[	c #837268",
"}	c #292825",
"................",
"................",
"................",
".....+@#$$%%%&*.",
".....#========-.",
"%;>,')========!!",
"&==============~",
"#=============={",
"]==============^",
"%/=============(",
"%%%%%%_:<====[=%",
".........%}=]...",
"................",
"................",
"................",
"................"};
